<?xml version="1.0" encoding="utf-8" standalone="no"?>
<!DOCTYPE svg PUBLIC "-//W3C//DTD SVG 1.1//EN"
  "http://www.w3.org/Graphics/SVG/1.1/DTD/svg11.dtd">
<!-- Created with matplotlib (http://matplotlib.org/) -->
<svg height="417pt" version="1.1" viewBox="0 0 680 417" width="680pt" xmlns="http://www.w3.org/2000/svg" xmlns:xlink="http://www.w3.org/1999/xlink">
 <defs>
  <style type="text/css">
*{stroke-linecap:butt;stroke-linejoin:round;}
  </style>
 </defs>
 <g id="figure_1">
  <g id="patch_1">
   <path d="
M0 417.018
L680.11 417.018
L680.11 0
L0 0
z
" style="fill:#ffffff;"/>
  </g>
  <g id="axes_1">
   <g id="patch_2">
    <path d="
M49.6688 387.36
L496.069 387.36
L496.069 41.76
L49.6688 41.76
z
" style="fill:#efefef;"/>
   </g>
   <g id="matplotlib.axis_1">
    <g id="xtick_1">
     <g id="line2d_1">
      <defs>
       <path d="
M0 0
L0 0" id="mc030118706" style="stroke:#262626;stroke-width:0.5;"/>
      </defs>
      <g>
       <use style="fill:#262626;stroke:#262626;stroke-width:0.5;" x="161.26875" xlink:href="#mc030118706" y="387.36"/>
      </g>
     </g>
     <g id="line2d_2">
      <g>
       <use style="fill:#262626;stroke:#262626;stroke-width:0.5;" x="161.26875" xlink:href="#mc030118706" y="41.76"/>
      </g>
     </g>
     <g id="text_1">
      <!-- Download -->
      <defs>
       <path d="
M32.7188 0
L32.7188 2.09375
Q36.2344 3.03125 37.8906 3.70312
Q39.5469 4.39062 39.5469 5.07812
L39.5469 30.9062
Q39.5469 33.8906 39.2031 35.7344
Q38.875 37.5938 38.1406 38.6719
Q37.4062 39.75 36.2031 40.1406
Q35.0156 40.5312 33.2969 40.5312
Q31.7812 40.5312 29.9219 39.7969
Q28.0781 39.0625 25.9531 37.4531
Q23.8281 35.8438 21.5 33.2188
Q19.1875 30.6094 16.8438 26.8125
L16.8438 5.07812
Q16.8438 4.34375 18.6719 3.5625
Q20.5156 2.78125 23.6875 2.09375
L23.6875 0
L2.6875 0
L2.6875 2.09375
Q5.90625 2.9375 7.70312 3.59375
Q9.51562 4.25 9.51562 5.07812
L9.51562 34.7188
Q9.51562 36.625 9.375 37.75
Q9.23438 38.875 8.5625 39.5
Q7.90625 40.1406 6.53125 40.4219
Q5.17188 40.7188 2.6875 41.0156
L2.6875 42.9688
Q6 43.5 8.82812 44.5
Q11.6719 45.5156 14.4062 46.875
L16.1094 45.1719
L16.6562 33.0156
Q18.7969 36.2812 21.375 38.8438
Q23.9688 41.4062 26.6094 43.1875
Q29.25 44.9688 31.7188 45.9219
Q34.1875 46.875 36.0781 46.875
Q38.1875 46.875 40.1406 46.2344
Q42.0938 45.6094 43.5781 44.2812
Q45.0625 42.9688 45.9688 40.9375
Q46.875 38.9219 46.875 36.1875
L46.875 5.07812
Q46.875 4.39062 48.3594 3.73438
Q49.8594 3.07812 53.7188 2.09375
L53.7188 0
z
" id="GentiumBasic-6e"/>
       <path d="
M2.9375 0
L2.9375 2.09375
Q5.03125 2.4375 6.4375 2.79688
Q7.85938 3.17188 8.6875 3.53125
Q9.51562 3.90625 9.875 4.29688
Q10.25 4.6875 10.25 5.07812
L10.25 63.2812
Q10.25 65.4844 9.95312 66.7031
Q9.67188 67.9219 8.89062 68.5312
Q8.10938 69.1406 6.78125 69.3594
Q5.46875 69.5781 3.42188 69.8281
L3.42188 71.7812
Q6.9375 72.4688 9.85938 73.2969
Q12.7969 74.125 15.8281 75.6875
L17.5781 74.0312
L17.5781 5.07812
Q17.5781 4.34375 19.2344 3.5625
Q20.9062 2.78125 24.9062 2.09375
L24.9062 0
z
" id="GentiumBasic-6c"/>
       <path d="
M38.8125 22.2188
Q38.8125 26.0781 37.5469 29.5625
Q36.2812 33.0625 34.2812 35.7188
Q32.2812 38.375 29.7344 39.9375
Q27.2031 41.5 24.7031 41.5
Q21 41.5 18.4531 40.0781
Q15.9219 38.6719 14.375 36.2031
Q12.8438 33.7344 12.1562 30.3594
Q11.4688 27 11.4688 23.0938
Q11.4688 19.2344 12.8281 15.7344
Q14.2031 12.25 16.2812 9.60938
Q18.3594 6.98438 20.8438 5.4375
Q23.3438 3.90625 25.5938 3.90625
Q29.0469 3.90625 31.5312 5.20312
Q34.0312 6.5 35.6406 8.89062
Q37.25 11.2812 38.0312 14.6406
Q38.8125 18.0156 38.8125 22.2188
M46.3906 23.6875
Q46.3906 20.4062 45.5625 17.2812
Q44.7344 14.1562 43.2656 11.375
Q41.7969 8.59375 39.75 6.21875
Q37.7031 3.85938 35.2344 2.14062
Q32.7656 0.4375 29.9844 -0.515625
Q27.2031 -1.46875 24.2188 -1.46875
Q19.5781 -1.46875 15.8438 0.28125
Q12.1094 2.04688 9.4375 5.125
Q6.78125 8.20312 5.34375 12.4531
Q3.90625 16.7031 3.90625 21.6875
Q3.90625 24.9062 4.70312 28.0312
Q5.51562 31.1562 6.95312 33.9531
Q8.40625 36.7656 10.4219 39.125
Q12.4531 41.5 14.9219 43.2031
Q17.3906 44.9219 20.2344 45.8906
Q23.0938 46.875 26.125 46.875
Q30.7188 46.875 34.4531 45.1094
Q38.1875 43.3594 40.8438 40.25
Q43.5 37.1562 44.9375 32.9062
Q46.3906 28.6562 46.3906 23.6875" id="GentiumBasic-6f"/>
       <path d="
M69.5781 43.3125
Q68.0625 42.9688 67.1875 42.6406
Q66.3125 42.3281 65.7969 42.0156
Q65.2812 41.7031 65.0625 41.2812
Q64.8438 40.875 64.7031 40.2812
L53.9062 2.875
Q53.6094 1.8125 52.75 1.04688
Q51.9062 0.296875 50.875 -0.21875
Q49.8594 -0.734375 48.8594 -1.01562
Q47.8594 -1.3125 47.2188 -1.46875
L35.5938 31.6406
L25.5938 2.875
Q25.2031 1.76562 24.3906 1
Q23.5781 0.25 22.5938 -0.265625
Q21.625 -0.78125 20.6719 -1.04688
Q19.7344 -1.3125 19.0938 -1.46875
L6.29688 40.2812
Q5.85938 42.1875 0.984375 43.3125
L0.984375 45.4062
L19.8281 45.4062
L19.8281 43.3125
Q17.4375 43.0625 16.1094 42.75
Q14.7969 42.4375 14.2031 42.0156
Q13.625 41.6094 13.5938 41.1562
Q13.5781 40.7188 13.7188 40.2812
L22.9062 9.28125
L34.9062 45.4062
L38.2812 45.4062
L50.9844 9.28125
L59.4219 40.2812
Q59.7188 41.4062 58.3906 42.0938
Q57.0781 42.7812 53.7188 43.3125
L53.7188 45.4062
L69.5781 45.4062
z
" id="GentiumBasic-77"/>
       <path d="
M17.1875 4.89062
Q20.125 4.89062 23.4062 6.375
Q26.7031 7.85938 30.4219 11.0781
L30.4219 23.7344
Q26.3125 23.0469 23.6562 22.4062
Q21 21.7812 19.2812 21.1094
Q17.5781 20.4531 16.5469 19.7188
Q15.5312 19 14.75 18.1719
Q13.4844 16.8438 12.7031 15.1562
Q11.9219 13.4844 11.9219 11.1875
Q11.9219 9.23438 12.5 8
Q13.0938 6.78125 13.9219 6.07812
Q14.75 5.375 15.6406 5.125
Q16.5469 4.89062 17.1875 4.89062
M45.2188 4
Q41.0625 1.125 38.3438 -0.171875
Q35.6406 -1.46875 34.2812 -1.46875
Q32.6719 -1.46875 31.5938 0.78125
Q30.5156 3.03125 30.4219 6.98438
Q28.2188 4.78125 26.0156 3.17188
Q23.8281 1.5625 21.7188 0.53125
Q19.625 -0.484375 17.75 -0.96875
Q15.875 -1.46875 14.3125 -1.46875
Q12.5469 -1.46875 10.6875 -0.875
Q8.84375 -0.296875 7.34375 0.96875
Q5.85938 2.25 4.875 4.25
Q3.90625 6.25 3.90625 9.07812
Q3.90625 12.7969 5.20312 15.2812
Q6.5 17.7812 8.29688 19.5781
Q9.46875 20.75 10.9531 21.7969
Q12.4531 22.8594 14.9219 23.8281
Q17.3906 24.8125 21.0938 25.6875
Q24.8125 26.5625 30.4219 27.3906
L30.4219 34.2812
Q30.4219 35.9375 30.0312 37.375
Q29.6406 38.8125 28.7031 39.8594
Q27.7812 40.9219 26.1875 41.4844
Q24.6094 42.0469 22.2188 42
Q20.6562 41.9375 19.1406 41.4531
Q17.625 40.9688 16.5 40.0781
Q15.375 39.2031 14.7344 38
Q14.1094 36.8125 14.2656 35.3594
Q14.3125 34.9062 13.25 34.3438
Q12.2031 33.7969 10.7656 33.3438
Q9.32812 32.9062 7.9375 32.6562
Q6.54688 32.4219 5.95312 32.5625
L5.28125 34.4688
Q6.39062 36.9219 8.6875 39.1562
Q10.9844 41.4062 13.9375 43.1094
Q16.8906 44.8281 20.1875 45.8438
Q23.4844 46.875 26.5625 46.875
Q31.9375 46.875 34.8438 44.0625
Q37.75 41.2656 37.75 36.2344
L37.75 8.6875
Q37.75 6.64062 38.2812 5.76562
Q38.8125 4.89062 39.7031 4.89062
Q40.375 4.89062 41.4531 5.125
Q42.5312 5.375 44.4844 6.20312
z
" id="GentiumBasic-61"/>
       <path d="
M51.3125 4.10938
Q49.0781 2.59375 47.3438 1.53125
Q45.6094 0.484375 44.3125 -0.171875
Q43.0156 -0.828125 42.0781 -1.14062
Q41.1562 -1.46875 40.4844 -1.46875
Q38.875 -1.46875 37.8438 0.734375
Q36.8125 2.9375 36.4688 8.25
Q34.625 6 32.7812 4.1875
Q30.9531 2.39062 29.0156 1.14062
Q27.0938 -0.09375 24.9375 -0.78125
Q22.7969 -1.46875 20.3125 -1.46875
Q17.5781 -1.46875 14.6875 0.109375
Q11.8125 1.70312 9.39062 4.6875
Q6.98438 7.67188 5.4375 11.9688
Q3.90625 16.2656 3.90625 21.6875
Q3.90625 24.4688 4.65625 27.4375
Q5.42188 30.4219 6.82812 33.2031
Q8.25 35.9844 10.2969 38.4688
Q12.3594 40.9688 14.8906 42.8438
Q17.4375 44.7344 20.4531 45.7969
Q23.4844 46.875 26.9062 46.875
Q29.2031 46.875 31.4688 46.3125
Q33.7344 45.75 36.375 43.7969
L36.375 62.2031
Q36.375 64.8906 36.2188 66.4688
Q36.0781 68.0625 35.3906 68.9219
Q34.7188 69.7812 33.2969 70.0938
Q31.8906 70.4062 29.2969 70.6094
L29.2969 72.5156
Q33.2969 73.0469 36.4688 73.9531
Q39.6562 74.8594 42.1875 75.6875
L43.7031 74.2188
L43.7031 12.4062
Q43.7031 10.6875 43.7656 9.46875
Q43.8438 8.25 43.9844 7.42188
Q44.1406 6.59375 44.3281 6.04688
Q44.5312 5.51562 44.8281 5.17188
Q45.2656 4.64062 46.5 4.85938
Q47.75 5.07812 50.6875 6.20312
z

M36.375 12.75
L36.375 35.6406
Q34.7656 38.4219 31.8281 39.9531
Q28.9062 41.5 25.3906 41.5
Q22.2656 41.5 19.6719 40.3438
Q17.0938 39.2031 15.2031 36.9062
Q13.3281 34.625 12.2812 31.2031
Q11.2344 27.7812 11.2344 23.1875
Q11.2344 19.0469 12.4219 15.6406
Q13.625 12.25 15.4688 9.85938
Q17.3281 7.46875 19.5469 6.17188
Q21.7812 4.89062 23.7812 4.89062
Q25.4375 4.89062 27.0469 5.5625
Q28.6562 6.25 30.2188 7.34375
Q31.7812 8.45312 33.3125 9.85938
Q34.8594 11.2812 36.375 12.75" id="GentiumBasic-64"/>
       <path d="
M22.125 58.8906
Q19.6719 58.8906 17.3281 58.7344
L17.3281 7.51562
Q17.3281 6.45312 17.8281 5.76562
Q18.5 4.9375 20.4531 4.51562
Q22.4062 4.10938 26.2188 4.10938
Q29.5938 4.10938 33.1719 5.73438
Q36.7656 7.375 39.7344 10.7188
Q42.7188 14.0625 44.625 19.1406
Q46.5312 24.2188 46.5312 31.1094
Q46.5312 37.5938 44.9219 42.75
Q43.3125 47.9062 40.2031 51.4844
Q37.1094 55.0781 32.5469 56.9844
Q27.9844 58.8906 22.125 58.8906
M54.8281 33.0156
Q54.8281 26.9062 53.5781 22.0938
Q52.3438 17.2812 50.2344 13.5938
Q48.1406 9.90625 45.375 7.34375
Q42.625 4.78125 39.5469 3.14062
Q36.4688 1.51562 33.3125 0.75
Q30.1719 0 27.2969 0
L2.4375 0
L2.4375 2.09375
Q5.76562 2.78125 7.64062 3.57812
Q9.51562 4.39062 9.51562 5.07812
L9.51562 58.0156
Q7.5625 57.7656 5.79688 57.5156
Q4.04688 57.2812 2.4375 57.0312
L2 60.0625
Q4.15625 60.6406 6.95312 61.1719
Q9.76562 61.7188 12.8906 62.125
Q16.0156 62.5469 19.2031 62.7656
Q22.4062 62.9844 25.2969 62.9844
Q32.0781 62.9844 37.5469 60.9531
Q43.0156 58.9375 46.8438 55.0781
Q50.6875 51.2188 52.75 45.6562
Q54.8281 40.0938 54.8281 33.0156" id="GentiumBasic-44"/>
      </defs>
      <g style="fill:#262626;" transform="translate(124.5515625 404.98375)scale(0.18 -0.18)">
       <use xlink:href="#GentiumBasic-44"/>
       <use x="59.27734375" xlink:href="#GentiumBasic-6f"/>
       <use x="109.5703125" xlink:href="#GentiumBasic-77"/>
       <use x="180.17578125" xlink:href="#GentiumBasic-6e"/>
       <use x="235.3515625" xlink:href="#GentiumBasic-6c"/>
       <use x="262.451171875" xlink:href="#GentiumBasic-6f"/>
       <use x="312.744140625" xlink:href="#GentiumBasic-61"/>
       <use x="358.642578125" xlink:href="#GentiumBasic-64"/>
      </g>
     </g>
    </g>
    <g id="xtick_2">
     <g id="line2d_3">
      <g>
       <use style="fill:#262626;stroke:#262626;stroke-width:0.5;" x="384.46875" xlink:href="#mc030118706" y="387.36"/>
      </g>
     </g>
     <g id="line2d_4">
      <g>
       <use style="fill:#262626;stroke:#262626;stroke-width:0.5;" x="384.46875" xlink:href="#mc030118706" y="41.76"/>
      </g>
     </g>
     <g id="text_2">
      <!-- Ping (ms) -->
      <defs>
       <path d="
M2.4375 0
L2.4375 2.09375
Q5.76562 2.78125 7.64062 3.57812
Q9.51562 4.39062 9.51562 5.07812
L9.51562 58.1094
Q7.71875 57.8594 5.9375 57.5938
Q4.15625 57.3281 2.4375 57.0312
L2 60.0625
Q4.34375 60.6875 7.09375 61.2188
Q9.85938 61.7656 12.8438 62.1562
Q15.8281 62.5469 18.875 62.7656
Q21.9219 62.9844 24.9062 62.9844
Q30.1719 62.9844 34.4219 61.8594
Q38.6719 60.75 41.6719 58.5469
Q44.6719 56.3438 46.3125 53.125
Q47.9531 49.9062 47.9531 45.7031
Q47.9531 42.3281 47 39.5469
Q46.0469 36.7656 44.4531 34.5938
Q42.875 32.4219 40.8125 30.8281
Q38.7656 29.25 36.5469 28.2031
Q34.3281 27.1562 32.1094 26.6406
Q29.8906 26.125 27.9844 26.125
Q23.3906 26.125 20.125 27.5938
L19 31.25
Q21.0469 30.3281 22.9219 30.0469
Q24.8125 29.7812 26.5156 29.7812
Q28.7656 29.7812 31.2031 30.6562
Q33.6406 31.5469 35.6875 33.2969
Q37.75 35.0625 39.0625 37.6406
Q40.375 40.2344 40.375 43.7031
Q40.375 47.7031 38.9375 50.5781
Q37.5 53.4688 35 55.2969
Q32.5156 57.125 29.1875 58
Q25.875 58.8906 22.125 58.8906
Q20.9062 58.8906 19.7031 58.8594
Q18.5 58.8438 17.3281 58.7969
L17.3281 5.07812
Q17.3281 4.78125 17.7188 4.4375
Q18.1094 4.10938 19.0625 3.71875
Q20.0156 3.32812 21.6719 2.9375
Q23.3438 2.54688 25.875 2.09375
L25.875 0
z
" id="GentiumBasic-50"/>
       <path d="
M28.2188 -15.375
Q22.7031 -12.8438 18.5312 -8.28125
Q14.3594 -3.71875 11.5469 2.28125
Q8.73438 8.29688 7.3125 15.4688
Q5.90625 22.6562 5.90625 30.4219
Q5.90625 38.4219 7.48438 45.8906
Q9.07812 53.375 12 59.6719
Q14.9375 65.9688 19.0625 70.7188
Q23.1875 75.4844 28.2188 78.125
L29.7812 75.9219
Q26.6094 73.2969 23.7812 69
Q20.9531 64.7031 18.8281 59.0312
Q16.7031 53.375 15.4531 46.4844
Q14.2031 39.5938 14.2031 31.7812
Q14.2031 24.6562 15.2344 17.8906
Q16.2656 11.1406 18.2656 5.25
Q20.2656 -0.640625 23.1406 -5.375
Q26.0312 -10.1094 29.7812 -13.1875
z
" id="GentiumBasic-28"/>
       <path d="
M33.6875 29.2969
Q33.6875 31.8906 32.8281 34.2031
Q31.9844 36.5312 30.2969 38.25
Q28.6094 39.9844 26.0938 40.9844
Q23.5781 42 20.3125 42
Q19.0938 42 17.5938 41.3594
Q16.1094 40.7188 14.7969 39.5
Q13.4844 38.2812 12.5938 36.4219
Q11.7188 34.5781 11.7188 32.1719
Q11.7188 29.5938 12.5156 27.2656
Q13.3281 24.9531 14.9688 23.2344
Q16.6094 21.5312 19.1094 20.5312
Q21.625 19.5312 25.0938 19.5312
Q26.5156 19.5312 28.0469 20.1406
Q29.5938 20.75 30.8281 22
Q32.0781 23.25 32.875 25.0469
Q33.6875 26.8594 33.6875 29.2969
M25.2969 -0.203125
Q23.4375 0 21.875 0.234375
Q20.3125 0.484375 18.9531 0.78125
Q15.4375 -1.125 13.4062 -2.64062
Q11.375 -4.15625 10.3438 -5.34375
Q9.32812 -6.54688 9.0625 -7.51562
Q8.79688 -8.5 8.79688 -9.28125
Q8.79688 -11.3281 10.1562 -13.1562
Q11.5312 -14.9844 13.8125 -16.3281
Q16.1094 -17.6719 19.1406 -18.4688
Q22.1719 -19.2812 25.4844 -19.2812
Q28.7656 -19.2812 31.4375 -18.4062
Q34.125 -17.5312 36.0312 -15.9844
Q37.9375 -14.4531 38.9844 -12.3281
Q40.0469 -10.2031 40.0469 -7.67188
Q40.0469 -6.29688 39.4062 -5.14062
Q38.7656 -4 37.1094 -3.07812
Q35.4531 -2.15625 32.5938 -1.42188
Q29.7344 -0.6875 25.2969 -0.203125
M40.5312 31.2969
Q40.5312 27.5469 38.8438 24.4375
Q37.1562 21.3438 34.4219 19.1094
Q31.6875 16.8906 28.2188 15.6406
Q24.75 14.4062 21.1875 14.4062
L21 14.4062
Q18.6562 12.4531 17.7656 11.1562
Q16.8906 9.85938 16.8906 9.57812
Q16.8906 8.98438 17.4062 8.42188
Q17.9219 7.85938 19.3125 7.34375
Q20.7031 6.84375 23.1406 6.32812
Q25.5938 5.8125 29.3906 5.375
Q34.7188 4.78125 38.1875 3.60938
Q41.6562 2.4375 43.7031 0.890625
Q45.75 -0.640625 46.5469 -2.39062
Q47.3594 -4.15625 47.3594 -5.85938
Q47.3594 -8.54688 46.3281 -10.9531
Q45.3125 -13.375 43.5469 -15.4219
Q41.7969 -17.4844 39.4062 -19.1406
Q37.0156 -20.7969 34.2812 -21.9688
Q31.5469 -23.1406 28.6094 -23.7812
Q25.6875 -24.4219 22.7969 -24.4219
Q20.5156 -24.4219 18.0625 -24.0938
Q15.625 -23.7812 13.2344 -23.0938
Q10.8438 -22.4062 8.71875 -21.3594
Q6.59375 -20.3125 4.98438 -18.8125
Q3.375 -17.3281 2.42188 -15.4531
Q1.46875 -13.5781 1.46875 -11.1875
Q1.46875 -9.90625 1.92188 -8.51562
Q2.39062 -7.125 3.79688 -5.51562
Q5.21875 -3.90625 7.75 -2.04688
Q10.2969 -0.203125 14.5 2.04688
Q11.3281 3.17188 10.1094 4.57812
Q8.89062 6 8.89062 7.46875
Q8.89062 7.85938 9.125 8.51562
Q9.375 9.1875 10.125 10.125
Q10.8906 11.0781 12.2812 12.2969
Q13.6719 13.5312 15.9219 15.0938
Q13.4219 15.7656 11.3906 17.0625
Q9.375 18.3594 7.9375 20.1875
Q6.5 22.0156 5.6875 24.3281
Q4.89062 26.6562 4.89062 29.3906
Q4.89062 32.9531 6.5 36.1562
Q8.10938 39.3594 10.7344 41.7188
Q13.375 44.0938 16.75 45.4844
Q20.125 46.875 23.6875 46.875
Q26.6094 46.875 29.1719 46.0469
Q31.7344 45.2188 33.8438 43.7031
Q36.375 43.9531 38.4219 44.3438
Q40.4844 44.7344 42.1094 45.1719
Q43.75 45.6094 45.0156 46.0469
Q46.2969 46.4844 47.3125 46.875
L48.2969 45.4062
Q47.7031 44.0469 47.1562 42.8906
Q46.625 41.75 45.5156 40.5312
Q43.6562 40.1875 41.875 39.9844
Q40.0938 39.7969 37.8438 39.7031
Q39.1094 37.8438 39.8125 35.7344
Q40.5312 33.6406 40.5312 31.2969" id="GentiumBasic-67"/>
       <path d="
M34.1875 13.8125
Q34.1875 10.3594 33.2031 7.89062
Q32.2344 5.42188 30.6719 3.70312
Q29.1094 2 27.2031 0.96875
Q25.2969 -0.046875 23.4375 -0.578125
Q21.5781 -1.125 19.9375 -1.29688
Q18.3125 -1.46875 17.3906 -1.46875
Q15.0469 -1.46875 11.75 -0.578125
Q8.45312 0.296875 5.17188 2.09375
Q4.82812 2.25 4.70312 3.6875
Q4.59375 5.125 4.65625 7
Q4.73438 8.89062 4.95312 10.7969
Q5.17188 12.7031 5.51562 13.8125
L7.625 13.2812
Q7.71875 11.2344 8.6875 9.42188
Q9.67188 7.625 11.2969 6.29688
Q12.9375 4.98438 15.1094 4.20312
Q17.2812 3.42188 19.8281 3.42188
Q21.5781 3.42188 23.0469 3.98438
Q24.5156 4.54688 25.5781 5.54688
Q26.6562 6.54688 27.2344 7.95312
Q27.8281 9.375 27.8281 11.0781
Q27.8281 13.0312 26.7812 14.5469
Q25.7344 16.0625 24.0156 17.3125
Q22.3125 18.5625 20.1406 19.6562
Q17.9688 20.75 15.7188 21.9219
Q13.6719 22.9531 11.7656 24.125
Q9.85938 25.2969 8.375 26.75
Q6.89062 28.2188 5.98438 30.0312
Q5.07812 31.8438 5.07812 34.1875
Q5.07812 37.2031 6.29688 39.5625
Q7.51562 41.9375 9.54688 43.5469
Q11.5781 45.1719 14.1875 46.0156
Q16.7969 46.875 19.5781 46.875
Q21.0938 46.875 22.9219 46.6094
Q24.75 46.3438 26.5312 45.8438
Q28.3281 45.3594 29.8906 44.6719
Q31.4531 44 32.4219 43.1094
Q32.7188 42.8281 32.5 41.7969
Q32.2812 40.7656 31.8125 39.5469
Q31.3438 38.3281 30.8125 37.25
Q30.2812 36.1875 29.9844 35.7969
L28.0781 36.1875
Q25.7344 39.7031 23.2188 41.0938
Q20.7031 42.4844 18.3125 42.4844
Q16.7031 42.4844 15.4219 41.9375
Q14.1562 41.4062 13.25 40.5469
Q12.3594 39.7031 11.8906 38.6719
Q11.4219 37.6406 11.4219 36.625
Q11.4219 35.0625 12.3438 33.8125
Q13.2812 32.5625 14.7969 31.4688
Q16.3125 30.375 18.2344 29.375
Q20.1719 28.375 22.2188 27.2969
Q24.3125 26.2188 26.4531 25
Q28.6094 23.7812 30.3125 22.1875
Q32.0312 20.6094 33.1094 18.5781
Q34.1875 16.5469 34.1875 13.8125" id="GentiumBasic-73"/>
       <path d="
M3.42188 0
L3.42188 2.09375
Q6.73438 2.78125 8.48438 3.57812
Q10.25 4.39062 10.25 5.07812
L10.25 32.7188
Q10.25 35.2031 10.1562 36.7344
Q10.0625 38.2812 9.42188 39.125
Q8.79688 39.9844 7.39062 40.375
Q6 40.7656 3.42188 41.0156
L3.42188 42.9688
Q4.9375 43.2656 6.60938 43.6719
Q8.29688 44.0938 9.95312 44.6094
Q11.625 45.125 13.1406 45.7031
Q14.6562 46.2969 15.9219 46.875
L17.5781 46.875
L17.5781 5.07812
Q17.5781 4.5 19.2031 3.64062
Q20.8438 2.78125 24.4219 2.09375
L24.4219 0
z

M19.0469 61.5781
Q19.0469 60.2031 18.6094 58.9844
Q18.1719 57.7656 17.4062 56.8594
Q16.6562 55.9531 15.625 55.4219
Q14.5938 54.8906 13.375 54.8906
Q11.1875 54.8906 10.2344 56.1094
Q9.28125 57.3281 9.28125 59.5781
Q9.28125 60.9375 9.71875 62.1562
Q10.1562 63.375 10.9375 64.2812
Q11.7188 65.1875 12.7188 65.7031
Q13.7188 66.2188 14.8906 66.2188
Q19.0469 66.2188 19.0469 61.5781" id="GentiumBasic-69"/>
       <path d="
M25.875 32.4219
Q25.875 24.3594 24.2656 16.8594
Q22.6562 9.375 19.7188 3.07812
Q16.7969 -3.21875 12.6719 -7.98438
Q8.54688 -12.75 3.51562 -15.375
L2 -13.1875
Q5.125 -10.5469 7.95312 -6.25
Q10.7969 -1.95312 12.9375 3.70312
Q15.0938 9.375 16.3281 16.25
Q17.5781 23.1406 17.5781 31
Q17.5781 38.0938 16.5469 44.8438
Q15.5312 51.6094 13.5469 57.5156
Q11.5781 63.4219 8.67188 68.1562
Q5.76562 72.9062 2 75.9219
L3.51562 78.125
Q9.03125 75.6406 13.2031 71.0625
Q17.3906 66.5 20.2188 60.5
Q23.0469 54.5 24.4531 47.3438
Q25.875 40.1875 25.875 32.4219" id="GentiumBasic-29"/>
       <path id="GentiumBasic-20"/>
       <path d="
M57.9062 0
L57.9062 2.09375
Q61.4219 3.03125 63.0625 3.70312
Q64.7031 4.39062 64.7031 5.07812
L64.7031 30.9062
Q64.7031 33.8906 64.375 35.8594
Q64.0625 37.8438 63.4062 38.9688
Q62.75 40.0938 61.6875 40.5469
Q60.6406 41.0156 59.1875 41.0156
Q57.5625 41.0156 55.75 40.1094
Q53.9531 39.2031 52.0469 37.5156
Q50.1406 35.8438 48.2188 33.4219
Q46.2969 31 44.4375 27.9844
L44.4375 5.07812
Q44.4375 4.39062 45.9531 3.73438
Q47.4688 3.07812 51.3125 2.09375
L51.3125 0
L30.3281 0
L30.3281 2.09375
Q33.8438 3.03125 35.4688 3.70312
Q37.1094 4.39062 37.1094 5.07812
L37.1094 30.9062
Q37.1094 33.8906 36.8125 35.8594
Q36.5312 37.8438 35.8594 38.9688
Q35.2031 40.0938 34.1562 40.5469
Q33.1094 41.0156 31.5938 41.0156
Q28.2656 41.0156 24.625 37.5938
Q21 34.1875 16.8438 27.9844
L16.8438 5.07812
Q16.8438 4.34375 18.6719 3.5625
Q20.5156 2.78125 23.6875 2.09375
L23.6875 0
L2.6875 0
L2.6875 2.09375
Q5.90625 2.9375 7.70312 3.59375
Q9.51562 4.25 9.51562 5.07812
L9.51562 34.7188
Q9.51562 36.6719 9.34375 37.7969
Q9.1875 38.9219 8.46875 39.5312
Q7.76562 40.1406 6.39062 40.4219
Q5.03125 40.7188 2.6875 41.0156
L2.6875 42.9688
Q4.54688 43.2656 6.10938 43.6719
Q7.67188 44.0938 9.07812 44.5781
Q10.5 45.0625 11.7969 45.6406
Q13.0938 46.2344 14.4062 46.875
L16.1094 45.1719
L16.6562 33.9844
Q18.8438 37.2031 21.0938 39.625
Q23.3438 42.0469 25.5312 43.6562
Q27.7344 45.2656 29.7812 46.0625
Q31.8438 46.875 33.5938 46.875
Q35.9375 46.875 37.9062 46.3125
Q39.8906 45.75 41.3281 44.4062
Q42.7812 43.0625 43.6094 40.8594
Q44.4375 38.6719 44.4375 35.4062
L44.4375 34.375
Q46.4844 37.4531 48.6719 39.7656
Q50.875 42.0938 53.0469 43.6719
Q55.2188 45.2656 57.2969 46.0625
Q59.375 46.875 61.1875 46.875
Q63.5312 46.875 65.5 46.2344
Q67.4844 45.6094 68.9219 44.2812
Q70.3594 42.9688 71.1875 40.9375
Q72.0156 38.9219 72.0156 36.1875
L72.0156 5.07812
Q72.0156 4.39062 73.5312 3.73438
Q75.0469 3.07812 78.9062 2.09375
L78.9062 0
z
" id="GentiumBasic-6d"/>
      </defs>
      <g style="fill:#262626;" transform="translate(350.1 405.4225)scale(0.18 -0.18)">
       <use xlink:href="#GentiumBasic-50"/>
       <use x="52.294921875" xlink:href="#GentiumBasic-69"/>
       <use x="79.39453125" xlink:href="#GentiumBasic-6e"/>
       <use x="134.5703125" xlink:href="#GentiumBasic-67"/>
       <use x="183.349609375" xlink:href="#GentiumBasic-20"/>
       <use x="205.37109375" xlink:href="#GentiumBasic-28"/>
       <use x="237.060546875" xlink:href="#GentiumBasic-6d"/>
       <use x="317.3828125" xlink:href="#GentiumBasic-73"/>
       <use x="356.005859375" xlink:href="#GentiumBasic-29"/>
      </g>
     </g>
    </g>
   </g>
   <g id="matplotlib.axis_2">
    <g id="ytick_1">
     <g id="line2d_5">
      <g>
       <use style="fill:#262626;stroke:#262626;stroke-width:0.5;" x="49.66875" xlink:href="#mc030118706" y="384.72702806"/>
      </g>
     </g>
     <g id="text_3">
      <!-- 0 -->
      <defs>
       <path d="
M35.2031 27.5938
Q35.2031 34.2812 34.1562 39.3594
Q33.1094 44.4375 31.3438 47.8281
Q29.5938 51.2188 27.2969 52.9531
Q25 54.6875 22.5156 54.6875
Q20.0156 54.6875 18.0156 53.3438
Q16.0156 52 14.625 49.1875
Q13.2344 46.3906 12.4688 41.9844
Q11.7188 37.5938 11.7188 31.5
Q11.7188 24.8125 12.6875 19.6719
Q13.6719 14.5469 15.3594 11.1094
Q17.0469 7.67188 19.3594 5.90625
Q21.6875 4.15625 24.4219 4.15625
Q26.9531 4.15625 28.9531 5.5
Q30.9531 6.84375 32.3438 9.6875
Q33.7344 12.5469 34.4688 16.9688
Q35.2031 21.3906 35.2031 27.5938
M43.2188 29.3906
Q43.2188 23.0938 41.7188 17.4688
Q40.2344 11.8594 37.5156 7.65625
Q34.8125 3.46875 30.9844 1
Q27.1562 -1.46875 22.5156 -1.46875
Q17.875 -1.46875 14.3594 1
Q10.8438 3.46875 8.46875 7.65625
Q6.10938 11.8594 4.90625 17.4688
Q3.71875 23.0938 3.71875 29.3906
Q3.71875 35.6875 5.21875 41.2969
Q6.73438 46.9219 9.4375 51.1406
Q12.1562 55.375 15.9688 57.8281
Q19.7812 60.2969 24.4219 60.2969
Q29.0469 60.2969 32.5625 57.8594
Q36.0781 55.4219 38.4531 51.2188
Q40.8281 47.0156 42.0156 41.375
Q43.2188 35.75 43.2188 29.3906" id="GentiumBasic-30"/>
      </defs>
      <g style="fill:#262626;" transform="translate(38.55875 389.42952806)scale(0.18 -0.18)">
       <use xlink:href="#GentiumBasic-30"/>
      </g>
     </g>
    </g>
    <g id="ytick_2">
     <g id="line2d_6">
      <g>
       <use style="fill:#262626;stroke:#262626;stroke-width:0.5;" x="49.66875" xlink:href="#mc030118706" y="332.91533081"/>
      </g>
     </g>
     <g id="text_4">
      <!-- 5 -->
      <defs>
       <path d="
M40.8281 20.0156
Q40.8281 15.7656 39.5312 11.8906
Q38.2344 8.01562 35.7656 5.03125
Q33.2969 2.04688 29.6875 0.28125
Q26.0781 -1.46875 21.4844 -1.46875
Q16.9375 -1.46875 12.5 0.1875
Q8.0625 1.85938 3.8125 5.8125
L5.51562 9.07812
Q8.10938 7.28125 10.2344 6.17188
Q12.3594 5.07812 14.1562 4.46875
Q15.9688 3.85938 17.4844 3.64062
Q19 3.42188 20.4062 3.42188
Q23.5781 3.42188 25.9531 4.64062
Q28.3281 5.85938 29.8906 7.875
Q31.4531 9.90625 32.2344 12.5156
Q33.0156 15.1406 33.0156 17.9219
Q33.0156 21.2344 32.2031 23.9688
Q31.3906 26.7031 29.75 28.625
Q28.125 30.5625 25.6094 31.6406
Q23.0938 32.7188 19.6719 32.7188
Q18.6562 32.7188 17.3281 32.4688
Q16.0156 32.2344 14.5781 31.7344
Q13.1406 31.25 11.6875 30.5156
Q10.25 29.7812 8.98438 28.8125
L6.6875 30.4219
Q6.98438 32.1719 7.375 34.4844
Q7.76562 36.8125 8.17188 39.4062
Q8.59375 42 9 44.7031
Q9.42188 47.4062 9.76562 49.9688
Q10.1094 52.5469 10.3438 54.8281
Q10.5938 57.125 10.6875 58.8438
L31.9844 58.8438
Q33.4062 58.8438 34.4688 58.9531
Q35.5469 59.0781 36.3281 59.2812
Q37.2031 59.4688 37.8906 59.7188
L39.3125 58.2969
Q38.7656 57.5156 38.0625 56.6562
Q37.3594 55.8125 36.625 55.0312
Q35.8906 54.25 35.1719 53.5938
Q34.4688 52.9375 33.8906 52.4844
L14.9844 52.4844
Q14.8906 51.0781 14.6406 48.8438
Q14.4062 46.625 14.0781 44.3125
Q13.7656 42 13.4219 39.9375
Q13.0938 37.8906 12.8906 36.8125
Q14.8438 37.4062 17.4844 37.75
Q20.125 38.0938 22.6094 38.0938
Q27.0469 38.0938 30.4375 36.5938
Q33.8438 35.1094 36.125 32.6094
Q38.4219 30.125 39.625 26.8438
Q40.8281 23.5781 40.8281 20.0156" id="GentiumBasic-35"/>
      </defs>
      <g style="fill:#262626;" transform="translate(39.0059375 337.61783081)scale(0.18 -0.18)">
       <use xlink:href="#GentiumBasic-35"/>
      </g>
     </g>
    </g>
    <g id="ytick_3">
     <g id="line2d_7">
      <g>
       <use style="fill:#262626;stroke:#262626;stroke-width:0.5;" x="49.66875" xlink:href="#mc030118706" y="281.103633559"/>
      </g>
     </g>
     <g id="text_5">
      <!-- 10 -->
      <defs>
       <path d="
M8.29688 0
L8.29688 2.59375
Q12.1094 3.03125 14.6406 3.59375
Q17.1875 4.15625 18.7031 4.73438
Q20.2188 5.32812 20.8438 5.89062
Q21.4844 6.45312 21.4844 6.98438
L21.4844 45.9062
Q21.4844 47.8594 21.3281 48.9219
Q21.1875 50 20.6094 50.6875
Q20.3125 50.9844 19.4844 51.1719
Q18.6562 51.375 17.1406 51.3125
Q15.625 51.2656 13.3281 50.9688
Q11.0312 50.6875 7.8125 50
L6.78125 52.4844
Q8.84375 53.0781 11.6406 54.0938
Q14.4531 55.125 17.3281 56.3125
Q20.2188 57.5156 22.7969 58.7031
Q25.3906 59.9062 27 60.7969
L28.8125 59.0781
L28.8125 6.98438
Q28.8125 6.5 29.3438 5.9375
Q29.8906 5.375 31.25 4.78125
Q32.625 4.20312 34.9844 3.60938
Q37.3594 3.03125 41.0156 2.59375
L41.0156 0
z
" id="GentiumBasic-31"/>
      </defs>
      <g style="fill:#262626;" transform="translate(30.6640625 285.806133559)scale(0.18 -0.18)">
       <use xlink:href="#GentiumBasic-31"/>
       <use x="46.923828125" xlink:href="#GentiumBasic-30"/>
      </g>
     </g>
    </g>
    <g id="ytick_4">
     <g id="line2d_8">
      <g>
       <use style="fill:#262626;stroke:#262626;stroke-width:0.5;" x="49.66875" xlink:href="#mc030118706" y="229.291936309"/>
      </g>
     </g>
     <g id="text_6">
      <!-- 15 -->
      <g style="fill:#262626;" transform="translate(31.094375 233.994436309)scale(0.18 -0.18)">
       <use xlink:href="#GentiumBasic-31"/>
       <use x="46.923828125" xlink:href="#GentiumBasic-35"/>
      </g>
     </g>
    </g>
    <g id="ytick_5">
     <g id="line2d_9">
      <g>
       <use style="fill:#262626;stroke:#262626;stroke-width:0.5;" x="49.66875" xlink:href="#mc030118706" y="177.480239059"/>
      </g>
     </g>
     <g id="text_7">
      <!-- 20 -->
      <defs>
       <path d="
M40.0938 0
L6.20312 0
L4.78125 3.60938
Q10.5938 10.3594 14.9062 15.5312
Q19.2344 20.7031 22.3125 24.6719
Q25.3906 28.6562 27.3906 31.6562
Q29.3906 34.6719 30.5625 37.0312
Q31.7344 39.4062 32.1719 41.3281
Q32.625 43.2656 32.625 45.125
Q32.625 47.3594 32.0781 49.3281
Q31.5469 51.3125 30.375 52.7812
Q29.2031 54.25 27.3125 55.0781
Q25.4375 55.9062 22.7969 55.9062
Q20.7969 55.9062 19.1094 54.9219
Q17.4375 53.9531 16.2344 52.4688
Q15.0469 50.9844 14.3594 49.1406
Q13.6719 47.3125 13.6719 45.6094
Q12.8438 45.1719 12.1875 44.7812
Q11.5312 44.3906 10.8438 44.0625
Q10.1562 43.75 9.34375 43.5312
Q8.54688 43.3125 7.42188 43.2188
L6.10938 44.6719
Q6.10938 47.2188 7.8125 49.9688
Q9.51562 52.7344 12.3438 55.0312
Q15.1875 57.3281 18.7656 58.8125
Q22.3594 60.2969 26.125 60.2969
Q29.0469 60.2969 31.6094 59.4688
Q34.1875 58.6406 36.0781 56.9531
Q37.9844 55.2812 39.0781 52.6562
Q40.1875 50.0469 40.1875 46.4844
Q40.1875 44.2812 39.5469 42.0781
Q38.9219 39.8906 37.5781 37.3281
Q36.2344 34.7656 34.1094 31.7344
Q31.9844 28.7188 28.9531 24.9219
Q25.9219 21.1406 21.9688 16.4531
Q18.0156 11.7656 12.9844 5.90625
L33.4062 5.90625
Q34.2344 5.90625 34.8906 6.26562
Q35.5469 6.64062 36.0625 7.25
Q36.5781 7.85938 36.9375 8.64062
Q37.3125 9.42188 37.5469 10.25
Q38.1406 12.1562 38.375 14.5938
L40.8281 14.0156
z
" id="GentiumBasic-32"/>
      </defs>
      <g style="fill:#262626;" transform="translate(30.3040625 182.182739059)scale(0.18 -0.18)">
       <use xlink:href="#GentiumBasic-32"/>
       <use x="46.923828125" xlink:href="#GentiumBasic-30"/>
      </g>
     </g>
    </g>
    <g id="ytick_6">
     <g id="line2d_10">
      <g>
       <use style="fill:#262626;stroke:#262626;stroke-width:0.5;" x="49.66875" xlink:href="#mc030118706" y="125.668541808"/>
      </g>
     </g>
     <g id="text_8">
      <!-- 25 -->
      <g style="fill:#262626;" transform="translate(30.734375 130.371041808)scale(0.18 -0.18)">
       <use xlink:href="#GentiumBasic-32"/>
       <use x="46.923828125" xlink:href="#GentiumBasic-35"/>
      </g>
     </g>
    </g>
    <g id="ytick_7">
     <g id="line2d_11">
      <g>
       <use style="fill:#262626;stroke:#262626;stroke-width:0.5;" x="49.66875" xlink:href="#mc030118706" y="73.8568445581"/>
      </g>
     </g>
     <g id="text_9">
      <!-- 30 -->
      <defs>
       <path d="
M40.2812 18.6094
Q40.2812 14.5 38.9531 10.8281
Q37.6406 7.17188 35.0469 4.4375
Q32.4688 1.70312 28.6562 0.109375
Q24.8594 -1.46875 19.8281 -1.46875
Q17.9219 -1.46875 15.9219 -1.125
Q13.9219 -0.78125 11.8438 0.0625
Q9.76562 0.921875 7.64062 2.3125
Q5.51562 3.71875 3.32812 5.8125
L4.98438 9.07812
Q7.17188 7.42188 9 6.34375
Q10.8438 5.28125 12.4688 4.60938
Q14.1094 3.95312 15.7188 3.6875
Q17.3281 3.42188 19.1875 3.42188
Q22.1719 3.42188 24.6094 4.375
Q27.0469 5.32812 28.7969 7.07812
Q30.5625 8.84375 31.5156 11.3594
Q32.4688 13.875 32.4688 17
Q32.4688 20.6562 31.3125 23.2188
Q30.1719 25.7812 28.3906 27.3906
Q26.6094 29 24.3906 29.7031
Q22.1719 30.4219 20.0156 30.4219
L19 30.4219
Q18.7031 30.4219 18.4375 30.375
Q18.1719 30.3281 17.7969 30.2656
Q17.4375 30.2188 16.7031 30.0781
L16.0156 33.0156
Q20.5156 34.2344 23.1875 35.8438
Q25.875 37.4531 27.3125 39.1875
Q28.7656 40.9219 29.2188 42.6562
Q29.6875 44.3906 29.6875 45.9062
Q29.6875 47.5625 29.1719 49.3438
Q28.6562 51.125 27.5625 52.5781
Q26.4688 54.0469 24.7969 54.9688
Q23.1406 55.9062 20.7969 55.9062
Q18.8438 55.9062 17.2969 55.2188
Q15.7656 54.5469 14.7344 53.375
Q13.7188 52.2031 13.2969 50.6875
Q12.8906 49.1719 13.1875 47.5156
Q11.5312 46.6875 10.0156 46.2188
Q8.5 45.75 6.39062 45.6094
L5.07812 47.125
Q5.07812 49.1719 6.59375 51.4844
Q8.10938 53.8125 10.6406 55.7656
Q13.1875 57.7188 16.5312 59
Q19.875 60.2969 23.5781 60.2969
Q27.25 60.2969 29.8594 59.125
Q32.4688 57.9531 34.1719 56.0312
Q35.8906 54.1094 36.6875 51.6875
Q37.5 49.2656 37.5 46.7812
Q37.5 44.9219 36.7656 43.1094
Q36.0312 41.3125 34.6875 39.6406
Q33.3438 37.9844 31.4219 36.5625
Q29.5 35.1562 27.0938 34.0781
Q29.8906 33.7344 32.2969 32.3906
Q34.7188 31.0625 36.4688 28.9844
Q38.2344 26.9062 39.25 24.2344
Q40.2812 21.5781 40.2812 18.6094" id="GentiumBasic-33"/>
      </defs>
      <g style="fill:#262626;" transform="translate(30.0425 78.5593445581)scale(0.18 -0.18)">
       <use xlink:href="#GentiumBasic-33"/>
       <use x="46.923828125" xlink:href="#GentiumBasic-30"/>
      </g>
     </g>
    </g>
    <g id="ytick_8">
     <g id="line2d_12">
      <g>
       <use style="fill:#262626;stroke:#262626;stroke-width:0.5;" x="49.66875" xlink:href="#mc030118706" y="374.36468861"/>
      </g>
     </g>
    </g>
    <g id="ytick_9">
     <g id="line2d_13">
      <g>
       <use style="fill:#262626;stroke:#262626;stroke-width:0.5;" x="49.66875" xlink:href="#mc030118706" y="364.00234916"/>
      </g>
     </g>
    </g>
    <g id="ytick_10">
     <g id="line2d_14">
      <g>
       <use style="fill:#262626;stroke:#262626;stroke-width:0.5;" x="49.66875" xlink:href="#mc030118706" y="353.64000971"/>
      </g>
     </g>
    </g>
    <g id="ytick_11">
     <g id="line2d_15">
      <g>
       <use style="fill:#262626;stroke:#262626;stroke-width:0.5;" x="49.66875" xlink:href="#mc030118706" y="343.27767026"/>
      </g>
     </g>
    </g>
    <g id="ytick_12">
     <g id="line2d_16">
      <g>
       <use style="fill:#262626;stroke:#262626;stroke-width:0.5;" x="49.66875" xlink:href="#mc030118706" y="322.55299136"/>
      </g>
     </g>
    </g>
    <g id="ytick_13">
     <g id="line2d_17">
      <g>
       <use style="fill:#262626;stroke:#262626;stroke-width:0.5;" x="49.66875" xlink:href="#mc030118706" y="312.190651909"/>
      </g>
     </g>
    </g>
    <g id="ytick_14">
     <g id="line2d_18">
      <g>
       <use style="fill:#262626;stroke:#262626;stroke-width:0.5;" x="49.66875" xlink:href="#mc030118706" y="301.828312459"/>
      </g>
     </g>
    </g>
    <g id="ytick_15">
     <g id="line2d_19">
      <g>
       <use style="fill:#262626;stroke:#262626;stroke-width:0.5;" x="49.66875" xlink:href="#mc030118706" y="291.465973009"/>
      </g>
     </g>
    </g>
    <g id="ytick_16">
     <g id="line2d_20">
      <g>
       <use style="fill:#262626;stroke:#262626;stroke-width:0.5;" x="49.66875" xlink:href="#mc030118706" y="270.741294109"/>
      </g>
     </g>
    </g>
    <g id="ytick_17">
     <g id="line2d_21">
      <g>
       <use style="fill:#262626;stroke:#262626;stroke-width:0.5;" x="49.66875" xlink:href="#mc030118706" y="260.378954659"/>
      </g>
     </g>
    </g>
    <g id="ytick_18">
     <g id="line2d_22">
      <g>
       <use style="fill:#262626;stroke:#262626;stroke-width:0.5;" x="49.66875" xlink:href="#mc030118706" y="250.016615209"/>
      </g>
     </g>
    </g>
    <g id="ytick_19">
     <g id="line2d_23">
      <g>
       <use style="fill:#262626;stroke:#262626;stroke-width:0.5;" x="49.66875" xlink:href="#mc030118706" y="239.654275759"/>
      </g>
     </g>
    </g>
    <g id="ytick_20">
     <g id="line2d_24">
      <g>
       <use style="fill:#262626;stroke:#262626;stroke-width:0.5;" x="49.66875" xlink:href="#mc030118706" y="218.929596859"/>
      </g>
     </g>
    </g>
    <g id="ytick_21">
     <g id="line2d_25">
      <g>
       <use style="fill:#262626;stroke:#262626;stroke-width:0.5;" x="49.66875" xlink:href="#mc030118706" y="208.567257409"/>
      </g>
     </g>
    </g>
    <g id="ytick_22">
     <g id="line2d_26">
      <g>
       <use style="fill:#262626;stroke:#262626;stroke-width:0.5;" x="49.66875" xlink:href="#mc030118706" y="198.204917959"/>
      </g>
     </g>
    </g>
    <g id="ytick_23">
     <g id="line2d_27">
      <g>
       <use style="fill:#262626;stroke:#262626;stroke-width:0.5;" x="49.66875" xlink:href="#mc030118706" y="187.842578509"/>
      </g>
     </g>
    </g>
    <g id="ytick_24">
     <g id="line2d_28">
      <g>
       <use style="fill:#262626;stroke:#262626;stroke-width:0.5;" x="49.66875" xlink:href="#mc030118706" y="167.117899609"/>
      </g>
     </g>
    </g>
    <g id="ytick_25">
     <g id="line2d_29">
      <g>
       <use style="fill:#262626;stroke:#262626;stroke-width:0.5;" x="49.66875" xlink:href="#mc030118706" y="156.755560159"/>
      </g>
     </g>
    </g>
    <g id="ytick_26">
     <g id="line2d_30">
      <g>
       <use style="fill:#262626;stroke:#262626;stroke-width:0.5;" x="49.66875" xlink:href="#mc030118706" y="146.393220709"/>
      </g>
     </g>
    </g>
    <g id="ytick_27">
     <g id="line2d_31">
      <g>
       <use style="fill:#262626;stroke:#262626;stroke-width:0.5;" x="49.66875" xlink:href="#mc030118706" y="136.030881258"/>
      </g>
     </g>
    </g>
    <g id="ytick_28">
     <g id="line2d_32">
      <g>
       <use style="fill:#262626;stroke:#262626;stroke-width:0.5;" x="49.66875" xlink:href="#mc030118706" y="115.306202358"/>
      </g>
     </g>
    </g>
    <g id="ytick_29">
     <g id="line2d_33">
      <g>
       <use style="fill:#262626;stroke:#262626;stroke-width:0.5;" x="49.66875" xlink:href="#mc030118706" y="104.943862908"/>
      </g>
     </g>
    </g>
    <g id="ytick_30">
     <g id="line2d_34">
      <g>
       <use style="fill:#262626;stroke:#262626;stroke-width:0.5;" x="49.66875" xlink:href="#mc030118706" y="94.5815234582"/>
      </g>
     </g>
    </g>
    <g id="ytick_31">
     <g id="line2d_35">
      <g>
       <use style="fill:#262626;stroke:#262626;stroke-width:0.5;" x="49.66875" xlink:href="#mc030118706" y="84.2191840082"/>
      </g>
     </g>
    </g>
    <g id="ytick_32">
     <g id="line2d_36">
      <g>
       <use style="fill:#262626;stroke:#262626;stroke-width:0.5;" x="49.66875" xlink:href="#mc030118706" y="63.494505108"/>
      </g>
     </g>
    </g>
    <g id="ytick_33">
     <g id="line2d_37">
      <g>
       <use style="fill:#262626;stroke:#262626;stroke-width:0.5;" x="49.66875" xlink:href="#mc030118706" y="53.132165658"/>
      </g>
     </g>
    </g>
    <g id="ytick_34">
     <g id="line2d_38">
      <g>
       <use style="fill:#262626;stroke:#262626;stroke-width:0.5;" x="49.66875" xlink:href="#mc030118706" y="42.7698262079"/>
      </g>
     </g>
    </g>
    <g id="text_10">
     <!-- Mbits/s -->
     <defs>
      <path d="
M33.0156 5.71875
Q30.6094 3.95312 28.2656 2.60938
Q25.9219 1.26562 23.7969 0.359375
Q21.6875 -0.53125 19.875 -1
Q18.0625 -1.46875 16.7969 -1.46875
Q15.0938 -1.46875 13.5469 -0.828125
Q12.0156 -0.203125 10.8438 1.23438
Q9.67188 2.6875 8.98438 5.03125
Q8.29688 7.375 8.29688 10.7969
L8.29688 40.7656
L2 40.7656
L0.984375 42.1406
L4.78125 45.4062
L8.29688 45.4062
L8.29688 57.4219
L14.1094 62.5
L15.625 61.2812
L15.625 45.4062
L31.5938 45.4062
L33.0156 44
Q32.5625 43.3125 31.9062 42.5312
Q31.25 41.75 30.5625 41.0625
Q29.8906 40.375 29.2188 39.8125
Q28.5625 39.2656 28.0781 39.0625
Q26.9062 39.6562 24.5156 40.2031
Q22.125 40.7656 18.1719 40.7656
L15.625 40.7656
L15.625 14.9844
Q15.625 12.0625 15.8906 10.1094
Q16.1562 8.15625 16.7969 7
Q17.4375 5.85938 18.4375 5.375
Q19.4375 4.89062 20.9062 4.89062
Q22.6094 4.89062 25.1875 5.5625
Q27.7812 6.25 31.5938 8.20312
z
" id="GentiumBasic-74"/>
      <path d="
M46.3906 24.0312
Q46.3906 21.1875 45.6562 18.2031
Q44.9219 15.2344 43.5 12.4062
Q42.0938 9.57812 40.0312 7.03125
Q37.9844 4.5 35.375 2.60938
Q32.7656 0.734375 29.6406 -0.359375
Q26.5156 -1.46875 22.9062 -1.46875
Q21.9688 -1.46875 20.3281 -1.04688
Q18.7031 -0.640625 16.5781 0.140625
Q14.4531 0.921875 11.9531 2.0625
Q9.46875 3.21875 6.84375 4.6875
L6.84375 63.2812
Q6.84375 65.5312 6.59375 66.75
Q6.34375 67.9688 5.65625 68.5781
Q4.98438 69.1875 3.73438 69.375
Q2.48438 69.5781 0.484375 69.8281
L0.484375 71.7812
Q3.71875 72.5625 6.64062 73.3594
Q9.57812 74.1719 12.3594 75.6875
L12.8438 75.2031
Q13.1406 74.9062 13.4219 74.6562
Q13.7656 74.3594 14.1562 74.0312
L14.1562 35.5
Q16.6094 38.4219 19.0156 40.5625
Q21.4375 42.7188 23.6562 44.1094
Q25.875 45.5156 27.7812 46.1875
Q29.6875 46.875 31.1094 46.875
Q34.4219 46.875 37.2344 45.3125
Q40.0469 43.75 42.0625 40.7969
Q44.0938 37.8438 45.2344 33.5938
Q46.3906 29.3438 46.3906 24.0312
M39.7969 19.9219
Q39.7969 24.8125 38.7969 28.5938
Q37.7969 32.375 36.1094 34.9531
Q34.4219 37.5469 32.2188 38.9062
Q30.0312 40.2812 27.6875 40.2812
Q26.8125 40.2812 25.3594 39.7656
Q23.9219 39.2656 22.1094 38.0625
Q20.3125 36.8594 18.2656 34.8281
Q16.2188 32.8125 14.1562 29.7812
L14.1562 9.90625
Q16.1094 8.45312 18.1406 7.46875
Q20.1719 6.5 22 5.9375
Q23.8281 5.375 25.3125 5.125
Q26.8125 4.89062 27.6875 4.89062
Q30.6719 4.89062 32.9062 6.17188
Q35.1562 7.46875 36.6875 9.59375
Q38.2344 11.7188 39.0156 14.4062
Q39.7969 17.0938 39.7969 19.9219" id="GentiumBasic-62"/>
      <path d="
M75.6875 59.4219
Q74.2656 59.4219 72.5312 58.9531
Q70.7969 58.5 69.0938 57.6719
L69.5781 5.07812
Q69.5781 4.5 71.3594 3.64062
Q73.1406 2.78125 76.6562 2.09375
L76.6562 0
L54.4375 0
L54.4375 2.09375
Q57.7656 2.78125 59.8906 3.57812
Q62.0156 4.39062 62.0156 5.07812
L61.5781 50.7812
L40.1875 0
L37.7969 0
L16.0625 50.4375
L15.625 5.07812
Q15.625 4.5 17.4062 3.64062
Q19.1875 2.78125 22.7031 2.09375
L22.7031 0
L2.9375 0
L2.9375 2.09375
Q6.29688 2.78125 8.15625 3.57812
Q10.0156 4.39062 10.0156 5.07812
L10.5 57.4688
Q8.64062 58.5469 6.76562 58.9844
Q4.89062 59.4219 3.42188 59.4219
L3.42188 61.5312
L17.3906 61.5312
Q17.875 61.5312 18.2188 61.375
Q18.5625 61.2344 18.875 60.7969
Q19.1875 60.3594 19.5469 59.5469
Q19.9219 58.7344 20.5156 57.4219
L39.9375 13.375
L58.5938 57.4219
Q59.2344 58.8906 59.625 59.7188
Q60.0156 60.5469 60.3281 60.9375
Q60.6406 61.3281 60.9531 61.4219
Q61.2812 61.5312 61.7188 61.5312
L75.6875 61.5312
z
" id="GentiumBasic-4d"/>
      <path d="
M10.2969 -13.875
Q9.8125 -14.2031 9.03125 -14.5625
Q8.25 -14.9375 7.375 -15.25
Q6.5 -15.5781 5.64062 -15.8594
Q4.78125 -16.1562 4.20312 -16.3594
L2.39062 -15.1406
L36.625 75.7344
Q37.9375 76.5625 39.5469 77.1406
Q41.1562 77.7344 42.5781 78.125
L44.3906 77.0469
z
" id="GentiumBasic-2f"/>
     </defs>
     <g style="fill:#262626;" transform="translate(20.82375 242.43328125)rotate(-90.0)scale(0.18 -0.18)">
      <use xlink:href="#GentiumBasic-4d"/>
      <use x="80.615234375" xlink:href="#GentiumBasic-62"/>
      <use x="131.396484375" xlink:href="#GentiumBasic-69"/>
      <use x="158.49609375" xlink:href="#GentiumBasic-74"/>
      <use x="192.919921875" xlink:href="#GentiumBasic-73"/>
      <use x="231.54296875" xlink:href="#GentiumBasic-2f"/>
      <use x="278.466796875" xlink:href="#GentiumBasic-73"/>
     </g>
    </g>
   </g>
   <g id="line2d_39">
    <path clip-path="url(#p3197d1ee3f)" d="
M77.5687 319.126
L96.1687 319.126
L96.1687 177.731
L77.5687 177.731
L77.5687 319.126" style="fill:none;stroke:#1b9e77;stroke-linecap:round;"/>
   </g>
   <g id="line2d_40">
    <path clip-path="url(#p3197d1ee3f)" d="
M86.8688 319.126
L86.8688 373.265" style="fill:none;stroke:#1b9e77;stroke-dasharray:6.000000,6.000000;stroke-dashoffset:0.0;"/>
   </g>
   <g id="line2d_41">
    <path clip-path="url(#p3197d1ee3f)" d="
M86.8688 177.731
L86.8688 45.1482" style="fill:none;stroke:#1b9e77;stroke-dasharray:6.000000,6.000000;stroke-dashoffset:0.0;"/>
   </g>
   <g id="line2d_42">
    <path clip-path="url(#p3197d1ee3f)" d="
M82.2188 373.265
L91.5187 373.265" style="fill:none;stroke:#1b9e77;stroke-linecap:round;"/>
   </g>
   <g id="line2d_43">
    <path clip-path="url(#p3197d1ee3f)" d="
M82.2188 45.1482
L91.5187 45.1482" style="fill:none;stroke:#1b9e77;stroke-linecap:round;"/>
   </g>
   <g id="line2d_44">
    <path clip-path="url(#p3197d1ee3f)" d="
M77.5687 268.788
L96.1687 268.788" style="fill:none;stroke:#ff0000;stroke-linecap:round;"/>
   </g>
   <g id="line2d_45"/>
   <g id="line2d_46">
    <path clip-path="url(#p3197d1ee3f)" d="
M114.769 346.015
L133.369 346.015
L133.369 299.932
L114.769 299.932
L114.769 346.015" style="fill:none;stroke:#d95f02;stroke-linecap:round;"/>
   </g>
   <g id="line2d_47">
    <path clip-path="url(#p3197d1ee3f)" d="
M124.069 346.015
L124.069 380.687" style="fill:none;stroke:#d95f02;stroke-dasharray:6.000000,6.000000;stroke-dashoffset:0.0;"/>
   </g>
   <g id="line2d_48">
    <path clip-path="url(#p3197d1ee3f)" d="
M124.069 299.932
L124.069 232.263" style="fill:none;stroke:#d95f02;stroke-dasharray:6.000000,6.000000;stroke-dashoffset:0.0;"/>
   </g>
   <g id="line2d_49">
    <path clip-path="url(#p3197d1ee3f)" d="
M119.419 380.687
L128.719 380.687" style="fill:none;stroke:#d95f02;stroke-linecap:round;"/>
   </g>
   <g id="line2d_50">
    <path clip-path="url(#p3197d1ee3f)" d="
M119.419 232.263
L128.719 232.263" style="fill:none;stroke:#d95f02;stroke-linecap:round;"/>
   </g>
   <g id="line2d_51">
    <path clip-path="url(#p3197d1ee3f)" d="
M114.769 324.41
L133.369 324.41" style="fill:none;stroke:#ff0000;stroke-linecap:round;"/>
   </g>
   <g id="line2d_52">
    <defs>
     <path d="
M-3 0
L3 0
M0 3
L0 -3" id="mc9dbb400cd" style="stroke:#d95f02;stroke-width:0.5;"/>
    </defs>
    <g clip-path="url(#p3197d1ee3f)">
     <use style="fill:#0000ff;stroke:#d95f02;stroke-width:0.5;" x="124.06875" xlink:href="#mc9dbb400cd" y="219.975646191"/>
     <use style="fill:#0000ff;stroke:#d95f02;stroke-width:0.5;" x="124.06875" xlink:href="#mc9dbb400cd" y="209.243279989"/>
     <use style="fill:#0000ff;stroke:#d95f02;stroke-width:0.5;" x="124.06875" xlink:href="#mc9dbb400cd" y="201.276489837"/>
     <use style="fill:#0000ff;stroke:#d95f02;stroke-width:0.5;" x="124.06875" xlink:href="#mc9dbb400cd" y="212.961854446"/>
     <use style="fill:#0000ff;stroke:#d95f02;stroke-width:0.5;" x="124.06875" xlink:href="#mc9dbb400cd" y="204.613654252"/>
     <use style="fill:#0000ff;stroke:#d95f02;stroke-width:0.5;" x="124.06875" xlink:href="#mc9dbb400cd" y="210.414733051"/>
     <use style="fill:#0000ff;stroke:#d95f02;stroke-width:0.5;" x="124.06875" xlink:href="#mc9dbb400cd" y="209.906068392"/>
     <use style="fill:#0000ff;stroke:#d95f02;stroke-width:0.5;" x="124.06875" xlink:href="#mc9dbb400cd" y="203.248908824"/>
     <use style="fill:#0000ff;stroke:#d95f02;stroke-width:0.5;" x="124.06875" xlink:href="#mc9dbb400cd" y="190.651704758"/>
     <use style="fill:#0000ff;stroke:#d95f02;stroke-width:0.5;" x="124.06875" xlink:href="#mc9dbb400cd" y="186.082718029"/>
     <use style="fill:#0000ff;stroke:#d95f02;stroke-width:0.5;" x="124.06875" xlink:href="#mc9dbb400cd" y="227.240496312"/>
    </g>
   </g>
   <g id="line2d_53">
    <path clip-path="url(#p3197d1ee3f)" d="
M151.969 338.921
L170.569 338.921
L170.569 234.706
L151.969 234.706
L151.969 338.921" style="fill:none;stroke:#7570b3;stroke-linecap:round;"/>
   </g>
   <g id="line2d_54">
    <path clip-path="url(#p3197d1ee3f)" d="
M161.269 338.921
L161.269 383.972" style="fill:none;stroke:#7570b3;stroke-dasharray:6.000000,6.000000;stroke-dashoffset:0.0;"/>
   </g>
   <g id="line2d_55">
    <path clip-path="url(#p3197d1ee3f)" d="
M161.269 234.706
L161.269 148.607" style="fill:none;stroke:#7570b3;stroke-dasharray:6.000000,6.000000;stroke-dashoffset:0.0;"/>
   </g>
   <g id="line2d_56">
    <path clip-path="url(#p3197d1ee3f)" d="
M156.619 383.972
L165.919 383.972" style="fill:none;stroke:#7570b3;stroke-linecap:round;"/>
   </g>
   <g id="line2d_57">
    <path clip-path="url(#p3197d1ee3f)" d="
M156.619 148.607
L165.919 148.607" style="fill:none;stroke:#7570b3;stroke-linecap:round;"/>
   </g>
   <g id="line2d_58">
    <path clip-path="url(#p3197d1ee3f)" d="
M151.969 294.196
L170.569 294.196" style="fill:none;stroke:#ff0000;stroke-linecap:round;"/>
   </g>
   <g id="line2d_59"/>
   <g id="line2d_60">
    <path clip-path="url(#p3197d1ee3f)" d="
M189.169 312.054
L207.769 312.054
L207.769 234.672
L189.169 234.672
L189.169 312.054" style="fill:none;stroke:#e7298a;stroke-linecap:round;"/>
   </g>
   <g id="line2d_61">
    <path clip-path="url(#p3197d1ee3f)" d="
M198.469 312.054
L198.469 379.96" style="fill:none;stroke:#e7298a;stroke-dasharray:6.000000,6.000000;stroke-dashoffset:0.0;"/>
   </g>
   <g id="line2d_62">
    <path clip-path="url(#p3197d1ee3f)" d="
M198.469 234.672
L198.469 131.773" style="fill:none;stroke:#e7298a;stroke-dasharray:6.000000,6.000000;stroke-dashoffset:0.0;"/>
   </g>
   <g id="line2d_63">
    <path clip-path="url(#p3197d1ee3f)" d="
M193.819 379.96
L203.119 379.96" style="fill:none;stroke:#e7298a;stroke-linecap:round;"/>
   </g>
   <g id="line2d_64">
    <path clip-path="url(#p3197d1ee3f)" d="
M193.819 131.773
L203.119 131.773" style="fill:none;stroke:#e7298a;stroke-linecap:round;"/>
   </g>
   <g id="line2d_65">
    <path clip-path="url(#p3197d1ee3f)" d="
M189.169 264.722
L207.769 264.722" style="fill:none;stroke:#ff0000;stroke-linecap:round;"/>
   </g>
   <g id="line2d_66">
    <defs>
     <path d="
M-3 0
L3 0
M0 3
L0 -3" id="m9cb1c1732d" style="stroke:#e7298a;stroke-width:0.5;"/>
    </defs>
    <g clip-path="url(#p3197d1ee3f)">
     <use style="fill:#0000ff;stroke:#e7298a;stroke-width:0.5;" x="198.46875" xlink:href="#m9cb1c1732d" y="112.797943702"/>
     <use style="fill:#0000ff;stroke:#e7298a;stroke-width:0.5;" x="198.46875" xlink:href="#m9cb1c1732d" y="74.2497273342"/>
     <use style="fill:#0000ff;stroke:#e7298a;stroke-width:0.5;" x="198.46875" xlink:href="#m9cb1c1732d" y="97.3793551097"/>
    </g>
   </g>
   <g id="line2d_67">
    <path clip-path="url(#p3197d1ee3f)" d="
M226.369 297.315
L244.969 297.315
L244.969 202.093
L226.369 202.093
L226.369 297.315" style="fill:none;stroke:#66a61e;stroke-linecap:round;"/>
   </g>
   <g id="line2d_68">
    <path clip-path="url(#p3197d1ee3f)" d="
M235.669 297.315
L235.669 370.531" style="fill:none;stroke:#66a61e;stroke-dasharray:6.000000,6.000000;stroke-dashoffset:0.0;"/>
   </g>
   <g id="line2d_69">
    <path clip-path="url(#p3197d1ee3f)" d="
M235.669 202.093
L235.669 59.4745" style="fill:none;stroke:#66a61e;stroke-dasharray:6.000000,6.000000;stroke-dashoffset:0.0;"/>
   </g>
   <g id="line2d_70">
    <path clip-path="url(#p3197d1ee3f)" d="
M231.019 370.531
L240.319 370.531" style="fill:none;stroke:#66a61e;stroke-linecap:round;"/>
   </g>
   <g id="line2d_71">
    <path clip-path="url(#p3197d1ee3f)" d="
M231.019 59.4745
L240.319 59.4745" style="fill:none;stroke:#66a61e;stroke-linecap:round;"/>
   </g>
   <g id="line2d_72">
    <path clip-path="url(#p3197d1ee3f)" d="
M226.369 259.658
L244.969 259.658" style="fill:none;stroke:#ff0000;stroke-linecap:round;"/>
   </g>
   <g id="line2d_73"/>
   <g id="line2d_74">
    <path clip-path="url(#p3197d1ee3f)" d="
M272.869 387.36
L272.869 41.76" style="fill:none;stroke:#000000;stroke-dasharray:1.000000,3.000000;stroke-dashoffset:0.0;stroke-width:0.5;"/>
   </g>
   <g id="patch_3">
    <path d="
M49.6688 387.36
L49.6688 41.76" style="fill:none;"/>
   </g>
   <g id="patch_4">
    <path d="
M49.6688 387.36
L496.069 387.36" style="fill:none;"/>
   </g>
   <g id="patch_5">
    <path d="
M496.069 387.36
L496.069 41.76" style="fill:none;"/>
   </g>
   <g id="patch_6">
    <path d="
M49.6688 41.76
L496.069 41.76" style="fill:none;"/>
   </g>
   <g id="legend_1">
    <g id="line2d_75">
     <path d="
M551.17 53.8583
L581.158 53.8583" style="fill:none;stroke:#1b9e77;stroke-linecap:round;"/>
    </g>
    <g id="line2d_76"/>
    <g id="text_11">
     <!-- babel -->
     <defs>
      <path d="
M24.2188 41.75
Q21.6875 41.75 19.5625 40.7656
Q17.4375 39.7969 15.7969 38.0156
Q14.1562 36.2344 13.0625 33.7656
Q11.9688 31.2969 11.5312 28.3281
L32.4219 28.3281
Q33.5469 28.3281 33.9062 28.6875
Q34.2812 29.0469 34.2812 30.0781
Q34.2812 31.3906 33.9062 33.375
Q33.5469 35.3594 32.4375 37.2344
Q31.3438 39.1094 29.3594 40.4219
Q27.3906 41.75 24.2188 41.75
M42.2812 27.2031
Q41.4062 26.2188 39.9375 25.3906
Q38.4844 24.5625 36.9219 23.9219
L11.2344 23.9219
Q11.2812 20.125 12.2812 16.6719
Q13.2812 13.2344 15.1562 10.625
Q17.0469 8.01562 19.7031 6.45312
Q22.3594 4.89062 25.6875 4.89062
Q27.2031 4.89062 28.6406 5.07812
Q30.0781 5.28125 31.7344 5.95312
Q33.4062 6.64062 35.4219 7.95312
Q37.4531 9.28125 40.1875 11.5312
Q40.8281 11.1875 41.2812 10.5469
Q41.75 9.90625 42 9.51562
Q38.7188 5.95312 36.25 3.78125
Q33.7969 1.60938 31.6094 0.4375
Q29.4375 -0.734375 27.3125 -1.09375
Q25.2031 -1.46875 22.7031 -1.46875
Q18.9531 -1.46875 15.5469 0.140625
Q12.1562 1.76562 9.5625 4.71875
Q6.98438 7.67188 5.4375 11.8438
Q3.90625 16.0156 3.90625 21.1875
Q3.90625 24.4688 4.64062 27.6406
Q5.375 30.8125 6.76562 33.6406
Q8.15625 36.4688 10.1562 38.8594
Q12.1562 41.2656 14.7031 43.0156
Q15.7656 43.75 17.1094 44.4531
Q18.4531 45.1719 19.9219 45.7031
Q21.3906 46.2344 22.8281 46.5469
Q24.2656 46.875 25.5938 46.875
Q28.7656 46.875 31.25 46
Q33.7344 45.125 35.5938 43.625
Q37.4531 42.1406 38.7188 40.1562
Q39.9844 38.1875 40.7969 35.9844
Q41.6094 33.7969 41.9375 31.5156
Q42.2812 29.25 42.2812 27.2031" id="GentiumBasic-65"/>
     </defs>
     <g style="fill:#262626;" transform="translate(593.15355 59.10618375)scale(0.14994 -0.14994)">
      <use xlink:href="#GentiumBasic-62"/>
      <use x="50.78125" xlink:href="#GentiumBasic-61"/>
      <use x="96.6796875" xlink:href="#GentiumBasic-62"/>
      <use x="147.4609375" xlink:href="#GentiumBasic-65"/>
      <use x="193.65234375" xlink:href="#GentiumBasic-6c"/>
     </g>
    </g>
    <g id="line2d_77">
     <path d="
M551.17 76.2181
L581.158 76.2181" style="fill:none;stroke:#d95f02;stroke-linecap:round;"/>
    </g>
    <g id="line2d_78"/>
    <g id="text_12">
     <!-- batman-adv -->
     <defs>
      <path d="
M30.7188 26.6562
Q30.4219 25.5938 30 24.3125
Q29.5938 23.0469 29.2031 22.2188
L4.20312 22.2188
L2.98438 23.3906
Q3.21875 24.4688 3.625 25.6562
Q4.04688 26.8594 4.5 27.8281
L29.5 27.8281
z
" id="GentiumBasic-2d"/>
      <path d="
M48.2969 43.3125
Q46.8281 42.9688 45.8906 42.6719
Q44.9688 42.3906 44.375 42.0156
Q43.7969 41.6562 43.4844 41.1875
Q43.1719 40.7188 42.9219 39.9844
L29.1094 2.875
Q28.6562 1.8125 27.8281 1.04688
Q27 0.296875 26.0156 -0.21875
Q25.0469 -0.734375 24.0938 -1.01562
Q23.1406 -1.3125 22.5156 -1.46875
L6.39062 39.9844
Q5.95312 41.3594 4.6875 42.0625
Q3.42188 42.7812 0.984375 43.3125
L0.984375 45.4062
L19.8281 45.4062
L19.8281 43.3125
Q17.9219 43.0625 16.7188 42.8125
Q15.5312 42.5781 14.8594 42.2031
Q14.2031 41.8438 14.1094 41.2969
Q14.0156 40.7656 14.3125 39.9844
L26.3125 8.6875
L37.5938 39.9844
Q37.8438 40.7188 37.7656 41.2344
Q37.7031 41.75 37.1094 42.1094
Q36.5312 42.4844 35.4219 42.75
Q34.3281 43.0156 32.5156 43.3125
L32.5156 45.4062
L48.2969 45.4062
z
" id="GentiumBasic-76"/>
     </defs>
     <g style="fill:#262626;" transform="translate(593.15355 81.46598625)scale(0.14994 -0.14994)">
      <use xlink:href="#GentiumBasic-62"/>
      <use x="50.78125" xlink:href="#GentiumBasic-61"/>
      <use x="96.6796875" xlink:href="#GentiumBasic-74"/>
      <use x="131.103515625" xlink:href="#GentiumBasic-6d"/>
      <use x="211.42578125" xlink:href="#GentiumBasic-61"/>
      <use x="257.32421875" xlink:href="#GentiumBasic-6e"/>
      <use x="312.5" xlink:href="#GentiumBasic-2d"/>
      <use x="346.19140625" xlink:href="#GentiumBasic-61"/>
      <use x="392.08984375" xlink:href="#GentiumBasic-64"/>
      <use x="444.091796875" xlink:href="#GentiumBasic-76"/>
     </g>
    </g>
    <g id="line2d_79">
     <path d="
M551.17 98.5779
L581.158 98.5779" style="fill:none;stroke:#7570b3;stroke-linecap:round;"/>
    </g>
    <g id="line2d_80"/>
    <g id="text_13">
     <!-- bmx7 -->
     <defs>
      <path d="
M43.2188 56.9844
Q40.9688 51.7031 38.6719 46.3281
Q36.375 40.9688 34.2031 35.7344
Q32.0312 30.5156 30.0312 25.5781
Q28.0312 20.6562 26.3438 16.3125
Q24.6562 11.9688 23.2812 8.34375
Q21.9219 4.73438 21.0938 2.15625
Q19.3906 0.921875 17.5 0.046875
Q15.625 -0.828125 13.1875 -1.46875
L11.1875 0.140625
Q15.4375 7.625 18.7969 14.4062
Q22.1719 21.1875 25.0469 27.5625
Q27.9375 33.9375 30.5156 40.0781
Q33.1094 46.2344 35.7969 52.4844
L13.625 52.4844
Q12.8906 52.4844 12.2031 52.4375
Q11.5312 52.3906 10.7969 51.7812
Q10.0625 51.1719 9.20312 49.7031
Q8.34375 48.25 7.32812 45.4062
L5.07812 46.2969
Q5.21875 47.4062 5.46875 49.1094
Q5.71875 50.8281 6 52.6094
Q6.29688 54.3906 6.59375 56.0781
Q6.89062 57.7656 7.17188 58.8438
L41.6094 58.8438
z
" id="GentiumBasic-37"/>
      <path d="
M29.9844 0
L29.9844 2.09375
Q31.2031 2.20312 32.2656 2.39062
Q33.3438 2.59375 33.9531 3.03125
Q34.5781 3.46875 34.5781 4.26562
Q34.5781 5.07812 33.5938 6.39062
L23.9219 19.5312
L14.7031 6.39062
Q13.7656 5.07812 13.9531 4.26562
Q14.1562 3.46875 14.9844 3.03125
Q15.8281 2.59375 17.0625 2.39062
Q18.3125 2.20312 19.4844 2.09375
L19.4844 0
L0.984375 0
L0.984375 2.09375
Q2.9375 2.39062 4.29688 2.85938
Q5.67188 3.32812 6.60938 3.9375
Q7.5625 4.54688 8.21875 5.25
Q8.89062 5.95312 9.42188 6.6875
L21.2969 23.1875
L9.8125 38.9219
Q9.1875 39.7969 8.54688 40.5469
Q7.90625 41.3125 7 41.875
Q6.10938 42.4375 4.78125 42.7969
Q3.46875 43.1719 1.51562 43.3125
L1.51562 45.4062
L22.0156 45.4062
L22.0156 43.3125
Q20.5156 43.1719 19.4062 42.8906
Q18.3125 42.625 17.75 42.1562
Q17.1875 41.7031 17.25 40.9375
Q17.3281 40.1875 18.2188 39.0156
L26.0781 28.1719
L33.5938 39.0156
Q34.4688 40.1875 34.5625 40.9688
Q34.6719 41.75 34.1562 42.2031
Q33.6406 42.6719 32.5625 42.9219
Q31.5 43.1719 29.9844 43.3125
L29.9844 45.4062
L48.5781 45.4062
L48.5781 43.3125
Q44.625 43.0156 42.4531 41.8594
Q40.2812 40.7188 39.0156 38.9219
L28.7656 24.5156
L41.7969 6.6875
Q42.3906 5.95312 43.0625 5.25
Q43.75 4.54688 44.6562 3.90625
Q45.5625 3.26562 46.7812 2.78125
Q48 2.29688 49.6094 2.09375
L49.6094 0
z
" id="GentiumBasic-78"/>
     </defs>
     <g style="fill:#262626;" transform="translate(593.15355 103.82578875)scale(0.14994 -0.14994)">
      <use xlink:href="#GentiumBasic-62"/>
      <use x="50.78125" xlink:href="#GentiumBasic-6d"/>
      <use x="131.103515625" xlink:href="#GentiumBasic-78"/>
      <use x="181.396484375" xlink:href="#GentiumBasic-37"/>
     </g>
    </g>
    <g id="line2d_81">
     <path d="
M551.17 120.938
L581.158 120.938" style="fill:none;stroke:#e7298a;stroke-linecap:round;"/>
    </g>
    <g id="line2d_82"/>
    <g id="text_14">
     <!-- olsrd -->
     <defs>
      <path d="
M37.5938 45.0625
Q38.0312 44.7812 38 43.3594
Q37.9844 41.9375 37.6094 40.0781
Q37.25 38.2344 36.6562 36.2812
Q36.0781 34.3281 35.5 33.0156
L33.4062 33.0156
Q33.1094 34.9688 32.5625 36.3281
Q32.0312 37.7031 31.3125 38.5
Q30.6094 39.3125 29.75 39.6719
Q28.9062 40.0469 27.9844 40.0469
Q26.9062 40.0469 25.4688 39.1406
Q24.0312 38.2344 22.5156 36.2969
Q21 34.375 19.5 31.375
Q18.0156 28.375 16.8438 24.2188
L16.8438 5.07812
Q16.8438 4.34375 18.6719 3.5625
Q20.5156 2.78125 25.0938 2.09375
L25.0938 0
L2.6875 0
L2.6875 2.09375
Q5.90625 2.82812 7.70312 3.53125
Q9.51562 4.25 9.51562 5.07812
L9.51562 33.5
Q9.51562 35.1094 9.42188 36.2031
Q9.32812 37.3125 9.17188 37.9844
Q9.03125 38.6719 8.8125 39.0625
Q8.59375 39.4531 8.40625 39.7031
Q8.0625 40.0469 7.64062 40.2656
Q7.23438 40.4844 6.5625 40.625
Q5.90625 40.7656 4.96875 40.8438
Q4.04688 40.9219 2.6875 41.0156
L2.6875 42.9688
Q5.85938 43.7969 8.90625 44.6562
Q11.9688 45.5156 14.4062 46.875
L16.1094 45.1719
L16.75 34.0781
Q18.0625 36.7656 19.5938 39.1094
Q21.1406 41.4531 22.8906 43.1875
Q24.6562 44.9219 26.5781 45.8906
Q28.5156 46.875 30.6094 46.875
Q32.1719 46.875 33.9844 46.4844
Q35.7969 46.0938 37.5938 45.0625" id="GentiumBasic-72"/>
     </defs>
     <g style="fill:#262626;" transform="translate(593.15355 126.18559125)scale(0.14994 -0.14994)">
      <use xlink:href="#GentiumBasic-6f"/>
      <use x="50.29296875" xlink:href="#GentiumBasic-6c"/>
      <use x="77.392578125" xlink:href="#GentiumBasic-73"/>
      <use x="116.015625" xlink:href="#GentiumBasic-72"/>
      <use x="155.615234375" xlink:href="#GentiumBasic-64"/>
     </g>
    </g>
    <g id="line2d_83">
     <path d="
M551.17 143.297
L581.158 143.297" style="fill:none;stroke:#66a61e;stroke-linecap:round;"/>
    </g>
    <g id="line2d_84"/>
    <g id="text_15">
     <!-- olsrd2 -->
     <g style="fill:#262626;" transform="translate(593.15355 148.54539375)scale(0.14994 -0.14994)">
      <use xlink:href="#GentiumBasic-6f"/>
      <use x="50.29296875" xlink:href="#GentiumBasic-6c"/>
      <use x="77.392578125" xlink:href="#GentiumBasic-73"/>
      <use x="116.015625" xlink:href="#GentiumBasic-72"/>
      <use x="155.615234375" xlink:href="#GentiumBasic-64"/>
      <use x="207.6171875" xlink:href="#GentiumBasic-32"/>
     </g>
    </g>
   </g>
  </g>
  <g id="axes_2">
   <g id="matplotlib.axis_3">
    <g id="ytick_35">
     <g id="line2d_85">
      <g>
       <use style="fill:#262626;stroke:#262626;stroke-width:0.5;" x="496.06875" xlink:href="#mc030118706" y="384.479897878"/>
      </g>
     </g>
     <g id="text_16">
      <!-- 0 -->
      <g style="fill:#262626;" transform="translate(500.06875 389.182397878)scale(0.18 -0.18)">
       <use xlink:href="#GentiumBasic-30"/>
      </g>
     </g>
    </g>
    <g id="ytick_36">
     <g id="line2d_86">
      <g>
       <use style="fill:#262626;stroke:#262626;stroke-width:0.5;" x="496.06875" xlink:href="#mc030118706" y="298.860861267"/>
      </g>
     </g>
     <g id="text_17">
      <!-- 500 -->
      <g style="fill:#262626;" transform="translate(500.06875 303.563361267)scale(0.18 -0.18)">
       <use xlink:href="#GentiumBasic-35"/>
       <use x="46.923828125" xlink:href="#GentiumBasic-30"/>
       <use x="93.84765625" xlink:href="#GentiumBasic-30"/>
      </g>
     </g>
    </g>
    <g id="ytick_37">
     <g id="line2d_87">
      <g>
       <use style="fill:#262626;stroke:#262626;stroke-width:0.5;" x="496.06875" xlink:href="#mc030118706" y="213.241824657"/>
      </g>
     </g>
     <g id="text_18">
      <!-- 1000 -->
      <g style="fill:#262626;" transform="translate(500.06875 217.944324657)scale(0.18 -0.18)">
       <use xlink:href="#GentiumBasic-31"/>
       <use x="46.923828125" xlink:href="#GentiumBasic-30"/>
       <use x="93.84765625" xlink:href="#GentiumBasic-30"/>
       <use x="140.771484375" xlink:href="#GentiumBasic-30"/>
      </g>
     </g>
    </g>
    <g id="ytick_38">
     <g id="line2d_88">
      <g>
       <use style="fill:#262626;stroke:#262626;stroke-width:0.5;" x="496.06875" xlink:href="#mc030118706" y="127.622788047"/>
      </g>
     </g>
     <g id="text_19">
      <!-- 1500 -->
      <g style="fill:#262626;" transform="translate(500.06875 132.325288047)scale(0.18 -0.18)">
       <use xlink:href="#GentiumBasic-31"/>
       <use x="46.923828125" xlink:href="#GentiumBasic-35"/>
       <use x="93.84765625" xlink:href="#GentiumBasic-30"/>
       <use x="140.771484375" xlink:href="#GentiumBasic-30"/>
      </g>
     </g>
    </g>
    <g id="ytick_39">
     <g id="line2d_89">
      <g>
       <use style="fill:#262626;stroke:#262626;stroke-width:0.5;" x="496.06875" xlink:href="#mc030118706" y="42.0037514363"/>
      </g>
     </g>
     <g id="text_20">
      <!-- 2000 -->
      <g style="fill:#262626;" transform="translate(500.06875 46.7062514363)scale(0.18 -0.18)">
       <use xlink:href="#GentiumBasic-32"/>
       <use x="46.923828125" xlink:href="#GentiumBasic-30"/>
       <use x="93.84765625" xlink:href="#GentiumBasic-30"/>
       <use x="140.771484375" xlink:href="#GentiumBasic-30"/>
      </g>
     </g>
    </g>
    <g id="ytick_40">
     <g id="line2d_90">
      <g>
       <use style="fill:#262626;stroke:#262626;stroke-width:0.5;" x="496.06875" xlink:href="#mc030118706" y="367.356090556"/>
      </g>
     </g>
    </g>
    <g id="ytick_41">
     <g id="line2d_91">
      <g>
       <use style="fill:#262626;stroke:#262626;stroke-width:0.5;" x="496.06875" xlink:href="#mc030118706" y="350.232283233"/>
      </g>
     </g>
    </g>
    <g id="ytick_42">
     <g id="line2d_92">
      <g>
       <use style="fill:#262626;stroke:#262626;stroke-width:0.5;" x="496.06875" xlink:href="#mc030118706" y="333.108475911"/>
      </g>
     </g>
    </g>
    <g id="ytick_43">
     <g id="line2d_93">
      <g>
       <use style="fill:#262626;stroke:#262626;stroke-width:0.5;" x="496.06875" xlink:href="#mc030118706" y="315.984668589"/>
      </g>
     </g>
    </g>
    <g id="ytick_44">
     <g id="line2d_94">
      <g>
       <use style="fill:#262626;stroke:#262626;stroke-width:0.5;" x="496.06875" xlink:href="#mc030118706" y="281.737053945"/>
      </g>
     </g>
    </g>
    <g id="ytick_45">
     <g id="line2d_95">
      <g>
       <use style="fill:#262626;stroke:#262626;stroke-width:0.5;" x="496.06875" xlink:href="#mc030118706" y="264.613246623"/>
      </g>
     </g>
    </g>
    <g id="ytick_46">
     <g id="line2d_96">
      <g>
       <use style="fill:#262626;stroke:#262626;stroke-width:0.5;" x="496.06875" xlink:href="#mc030118706" y="247.489439301"/>
      </g>
     </g>
    </g>
    <g id="ytick_47">
     <g id="line2d_97">
      <g>
       <use style="fill:#262626;stroke:#262626;stroke-width:0.5;" x="496.06875" xlink:href="#mc030118706" y="230.365631979"/>
      </g>
     </g>
    </g>
    <g id="ytick_48">
     <g id="line2d_98">
      <g>
       <use style="fill:#262626;stroke:#262626;stroke-width:0.5;" x="496.06875" xlink:href="#mc030118706" y="196.118017335"/>
      </g>
     </g>
    </g>
    <g id="ytick_49">
     <g id="line2d_99">
      <g>
       <use style="fill:#262626;stroke:#262626;stroke-width:0.5;" x="496.06875" xlink:href="#mc030118706" y="178.994210013"/>
      </g>
     </g>
    </g>
    <g id="ytick_50">
     <g id="line2d_100">
      <g>
       <use style="fill:#262626;stroke:#262626;stroke-width:0.5;" x="496.06875" xlink:href="#mc030118706" y="161.870402691"/>
      </g>
     </g>
    </g>
    <g id="ytick_51">
     <g id="line2d_101">
      <g>
       <use style="fill:#262626;stroke:#262626;stroke-width:0.5;" x="496.06875" xlink:href="#mc030118706" y="144.746595369"/>
      </g>
     </g>
    </g>
    <g id="ytick_52">
     <g id="line2d_102">
      <g>
       <use style="fill:#262626;stroke:#262626;stroke-width:0.5;" x="496.06875" xlink:href="#mc030118706" y="110.498980725"/>
      </g>
     </g>
    </g>
    <g id="ytick_53">
     <g id="line2d_103">
      <g>
       <use style="fill:#262626;stroke:#262626;stroke-width:0.5;" x="496.06875" xlink:href="#mc030118706" y="93.3751734025"/>
      </g>
     </g>
    </g>
    <g id="ytick_54">
     <g id="line2d_104">
      <g>
       <use style="fill:#262626;stroke:#262626;stroke-width:0.5;" x="496.06875" xlink:href="#mc030118706" y="76.2513660804"/>
      </g>
     </g>
    </g>
    <g id="ytick_55">
     <g id="line2d_105">
      <g>
       <use style="fill:#262626;stroke:#262626;stroke-width:0.5;" x="496.06875" xlink:href="#mc030118706" y="59.1275587584"/>
      </g>
     </g>
    </g>
    <g id="text_21">
     <!-- Latency (ms) -->
     <defs>
      <path d="
M46.0938 11.9219
Q45.7031 7.67188 45.0938 4.54688
Q44.4844 1.42188 44.0938 0
L2.4375 0
L2.4375 2.09375
Q5.76562 2.78125 7.64062 3.57812
Q9.51562 4.39062 9.51562 5.07812
L9.51562 56.3906
Q9.51562 56.9844 7.73438 57.8594
Q5.95312 58.7344 2.4375 59.4219
L2.4375 61.5312
L24.4219 61.5312
L24.4219 59.4219
Q21.0938 58.7344 19.2031 57.9062
Q17.3281 57.0781 17.3281 56.3906
L17.3281 8.01562
Q17.3281 7.125 17.75 6.46875
Q18.1719 5.8125 19.1875 5.34375
Q20.2188 4.89062 21.9688 4.64062
Q23.7344 4.39062 26.4219 4.39062
L33.4062 4.39062
Q35.6406 4.39062 37.1719 4.64062
Q38.7188 4.89062 39.8906 5.73438
Q41.0625 6.59375 42.0156 8.25
Q42.9688 9.90625 44 12.7969
z
" id="GentiumBasic-4c"/>
      <path d="
M41.0156 9.28125
Q37.8438 5.51562 35.4219 3.39062
Q33.0156 1.26562 30.9531 0.171875
Q28.9062 -0.921875 26.9531 -1.1875
Q25 -1.46875 22.7031 -1.46875
Q19.1406 -1.46875 15.75 0.109375
Q12.3594 1.70312 9.71875 4.6875
Q7.07812 7.67188 5.48438 11.9688
Q3.90625 16.2656 3.90625 21.6875
Q3.90625 26.9531 5.82812 31.5469
Q7.76562 36.1406 11.1094 39.5312
Q14.4531 42.9219 18.9844 44.8906
Q23.5312 46.875 28.8125 46.875
Q30.4219 46.875 32.1094 46.6094
Q33.7969 46.3438 35.3281 45.8281
Q36.8594 45.3125 38.1562 44.5938
Q39.4531 43.8906 40.2812 43.0156
Q40.375 42.4375 40.125 41.3594
Q39.8906 40.2812 39.4531 39.0781
Q39.0156 37.8906 38.4688 36.7812
Q37.9375 35.6875 37.5 35.0156
L35.6875 35.5
Q35.2969 36.375 34.4219 37.3906
Q33.5469 38.4219 32.1562 39.3438
Q30.7656 40.2812 28.8281 40.8906
Q26.9062 41.5 24.4219 41.5
Q21.8281 41.5 19.4531 40.3438
Q17.0938 39.2031 15.25 36.9062
Q13.4219 34.625 12.3281 31.2031
Q11.2344 27.7812 11.2344 23.1875
Q11.2344 19.0469 12.4688 15.6406
Q13.7188 12.25 15.7969 9.85938
Q17.875 7.46875 20.5781 6.17188
Q23.2969 4.89062 26.2188 4.89062
Q27.5938 4.89062 28.7656 5
Q29.9375 5.125 31.3281 5.75
Q32.7188 6.39062 34.5469 7.65625
Q36.375 8.9375 39.1094 11.2812
z
" id="GentiumBasic-63"/>
      <path d="
M48.2969 43.3125
Q46.8281 42.9688 45.8906 42.6719
Q44.9688 42.3906 44.375 42.0156
Q43.7969 41.6562 43.4844 41.1875
Q43.1719 40.7188 42.9219 39.9844
L26.6094 -4
Q24.5625 -9.42188 22.0469 -13.2812
Q19.5312 -17.1406 16.8125 -19.6094
Q14.1094 -22.0781 11.375 -23.25
Q8.64062 -24.4219 6.20312 -24.4219
Q4.34375 -24.4219 2.78125 -24.1719
Q1.21875 -23.9219 0.09375 -23.5469
Q-1.03125 -23.1875 -1.65625 -22.7188
Q-2.29688 -22.2656 -2.29688 -21.8281
Q-2.29688 -21.5312 -1.70312 -20.6562
Q-1.125 -19.7812 -0.234375 -18.7188
Q0.640625 -17.6719 1.64062 -16.6875
Q2.64062 -15.7188 3.42188 -15.2344
Q5.76562 -16.6094 8.07812 -16.7031
Q10.4062 -16.7969 12.2031 -16.1094
Q13.0938 -15.8281 14.2656 -14.75
Q15.4375 -13.6719 16.625 -12.1094
Q17.8281 -10.5469 18.9688 -8.5625
Q20.125 -6.59375 21 -4.5
L22.4062 -1.125
L6.39062 39.9844
Q5.95312 41.3594 4.6875 42.0625
Q3.42188 42.7812 0.984375 43.3125
L0.984375 45.4062
L19.8281 45.4062
L19.8281 43.3125
Q17.9219 43.0625 16.7188 42.8125
Q15.5312 42.5781 14.8594 42.2031
Q14.2031 41.8438 14.1094 41.2969
Q14.0156 40.7656 14.3125 39.9844
L26.3125 8.89062
L37.5938 39.9844
Q37.8438 40.7188 37.6719 41.2344
Q37.5 41.75 36.8438 42.1094
Q36.1875 42.4844 34.9844 42.75
Q33.7969 43.0156 31.9844 43.3125
L31.9844 45.4062
L48.2969 45.4062
z
" id="GentiumBasic-79"/>
     </defs>
     <g style="fill:#262626;" transform="translate(551.3878125 261.4359375)rotate(-90.0)scale(0.18 -0.18)">
      <use xlink:href="#GentiumBasic-4c"/>
      <use x="47.607421875" xlink:href="#GentiumBasic-61"/>
      <use x="93.505859375" xlink:href="#GentiumBasic-74"/>
      <use x="127.9296875" xlink:href="#GentiumBasic-65"/>
      <use x="174.12109375" xlink:href="#GentiumBasic-6e"/>
      <use x="229.296875" xlink:href="#GentiumBasic-63"/>
      <use x="272.998046875" xlink:href="#GentiumBasic-79"/>
      <use x="322.314453125" xlink:href="#GentiumBasic-20"/>
      <use x="344.3359375" xlink:href="#GentiumBasic-28"/>
      <use x="376.025390625" xlink:href="#GentiumBasic-6d"/>
      <use x="456.34765625" xlink:href="#GentiumBasic-73"/>
      <use x="494.970703125" xlink:href="#GentiumBasic-29"/>
     </g>
    </g>
   </g>
   <g id="line2d_106">
    <path clip-path="url(#p3197d1ee3f)" d="
M300.769 369.573
L319.369 369.573
L319.369 322.913
L300.769 322.913
L300.769 369.573" style="fill:none;stroke:#1b9e77;stroke-linecap:round;"/>
   </g>
   <g id="line2d_107">
    <path clip-path="url(#p3197d1ee3f)" d="
M310.069 369.573
L310.069 383.972" style="fill:none;stroke:#1b9e77;stroke-dasharray:6.000000,6.000000;stroke-dashoffset:0.0;"/>
   </g>
   <g id="line2d_108">
    <path clip-path="url(#p3197d1ee3f)" d="
M310.069 322.913
L310.069 254.903" style="fill:none;stroke:#1b9e77;stroke-dasharray:6.000000,6.000000;stroke-dashoffset:0.0;"/>
   </g>
   <g id="line2d_109">
    <path clip-path="url(#p3197d1ee3f)" d="
M305.419 383.972
L314.719 383.972" style="fill:none;stroke:#1b9e77;stroke-linecap:round;"/>
   </g>
   <g id="line2d_110">
    <path clip-path="url(#p3197d1ee3f)" d="
M305.419 254.903
L314.719 254.903" style="fill:none;stroke:#1b9e77;stroke-linecap:round;"/>
   </g>
   <g id="line2d_111">
    <path clip-path="url(#p3197d1ee3f)" d="
M300.769 356.981
L319.369 356.981" style="fill:none;stroke:#ff0000;stroke-linecap:round;"/>
   </g>
   <g id="line2d_112">
    <defs>
     <path d="
M-3 0
L3 0
M0 3
L0 -3" id="mef8ae810bb" style="stroke:#1b9e77;stroke-width:0.5;"/>
    </defs>
    <g clip-path="url(#p3197d1ee3f)">
     <use style="fill:#0000ff;stroke:#1b9e77;stroke-width:0.5;" x="310.06875" xlink:href="#mef8ae810bb" y="236.998579474"/>
     <use style="fill:#0000ff;stroke:#1b9e77;stroke-width:0.5;" x="310.06875" xlink:href="#mef8ae810bb" y="236.33427887"/>
     <use style="fill:#0000ff;stroke:#1b9e77;stroke-width:0.5;" x="310.06875" xlink:href="#mef8ae810bb" y="239.892100715"/>
     <use style="fill:#0000ff;stroke:#1b9e77;stroke-width:0.5;" x="310.06875" xlink:href="#mef8ae810bb" y="210.419824517"/>
     <use style="fill:#0000ff;stroke:#1b9e77;stroke-width:0.5;" x="310.06875" xlink:href="#mef8ae810bb" y="249.084010339"/>
     <use style="fill:#0000ff;stroke:#1b9e77;stroke-width:0.5;" x="310.06875" xlink:href="#mef8ae810bb" y="233.410813031"/>
     <use style="fill:#0000ff;stroke:#1b9e77;stroke-width:0.5;" x="310.06875" xlink:href="#mef8ae810bb" y="220.383542385"/>
     <use style="fill:#0000ff;stroke:#1b9e77;stroke-width:0.5;" x="310.06875" xlink:href="#mef8ae810bb" y="242.695666213"/>
     <use style="fill:#0000ff;stroke:#1b9e77;stroke-width:0.5;" x="310.06875" xlink:href="#mef8ae810bb" y="228.931972177"/>
     <use style="fill:#0000ff;stroke:#1b9e77;stroke-width:0.5;" x="310.06875" xlink:href="#mef8ae810bb" y="200.656940718"/>
     <use style="fill:#0000ff;stroke:#1b9e77;stroke-width:0.5;" x="310.06875" xlink:href="#mef8ae810bb" y="246.598557754"/>
    </g>
   </g>
   <g id="line2d_113">
    <path clip-path="url(#p3197d1ee3f)" d="
M337.969 362.486
L356.569 362.486
L356.569 336.117
L337.969 336.117
L337.969 362.486" style="fill:none;stroke:#d95f02;stroke-linecap:round;"/>
   </g>
   <g id="line2d_114">
    <path clip-path="url(#p3197d1ee3f)" d="
M347.269 362.486
L347.269 383.601" style="fill:none;stroke:#d95f02;stroke-dasharray:6.000000,6.000000;stroke-dashoffset:0.0;"/>
   </g>
   <g id="line2d_115">
    <path clip-path="url(#p3197d1ee3f)" d="
M347.269 336.117
L347.269 296.741" style="fill:none;stroke:#d95f02;stroke-dasharray:6.000000,6.000000;stroke-dashoffset:0.0;"/>
   </g>
   <g id="line2d_116">
    <path clip-path="url(#p3197d1ee3f)" d="
M342.619 383.601
L351.919 383.601" style="fill:none;stroke:#d95f02;stroke-linecap:round;"/>
   </g>
   <g id="line2d_117">
    <path clip-path="url(#p3197d1ee3f)" d="
M342.619 296.741
L351.919 296.741" style="fill:none;stroke:#d95f02;stroke-linecap:round;"/>
   </g>
   <g id="line2d_118">
    <path clip-path="url(#p3197d1ee3f)" d="
M337.969 347.354
L356.569 347.354" style="fill:none;stroke:#ff0000;stroke-linecap:round;"/>
   </g>
   <g id="line2d_119">
    <g clip-path="url(#p3197d1ee3f)">
     <use style="fill:#0000ff;stroke:#d95f02;stroke-width:0.5;" x="347.26875" xlink:href="#mc9dbb400cd" y="291.375142727"/>
     <use style="fill:#0000ff;stroke:#d95f02;stroke-width:0.5;" x="347.26875" xlink:href="#mc9dbb400cd" y="290.829473056"/>
     <use style="fill:#0000ff;stroke:#d95f02;stroke-width:0.5;" x="347.26875" xlink:href="#mc9dbb400cd" y="276.67205112"/>
     <use style="fill:#0000ff;stroke:#d95f02;stroke-width:0.5;" x="347.26875" xlink:href="#mc9dbb400cd" y="288.229638316"/>
     <use style="fill:#0000ff;stroke:#d95f02;stroke-width:0.5;" x="347.26875" xlink:href="#mc9dbb400cd" y="273.192136513"/>
     <use style="fill:#0000ff;stroke:#d95f02;stroke-width:0.5;" x="347.26875" xlink:href="#mc9dbb400cd" y="264.147725893"/>
     <use style="fill:#0000ff;stroke:#d95f02;stroke-width:0.5;" x="347.26875" xlink:href="#mc9dbb400cd" y="257.447340399"/>
     <use style="fill:#0000ff;stroke:#d95f02;stroke-width:0.5;" x="347.26875" xlink:href="#mc9dbb400cd" y="255.124601515"/>
     <use style="fill:#0000ff;stroke:#d95f02;stroke-width:0.5;" x="347.26875" xlink:href="#mc9dbb400cd" y="249.237717764"/>
     <use style="fill:#0000ff;stroke:#d95f02;stroke-width:0.5;" x="347.26875" xlink:href="#mc9dbb400cd" y="244.931090362"/>
     <use style="fill:#0000ff;stroke:#d95f02;stroke-width:0.5;" x="347.26875" xlink:href="#mc9dbb400cd" y="292.848881181"/>
     <use style="fill:#0000ff;stroke:#d95f02;stroke-width:0.5;" x="347.26875" xlink:href="#mc9dbb400cd" y="289.818814218"/>
     <use style="fill:#0000ff;stroke:#d95f02;stroke-width:0.5;" x="347.26875" xlink:href="#mc9dbb400cd" y="266.721449562"/>
     <use style="fill:#0000ff;stroke:#d95f02;stroke-width:0.5;" x="347.26875" xlink:href="#mc9dbb400cd" y="242.521177161"/>
     <use style="fill:#0000ff;stroke:#d95f02;stroke-width:0.5;" x="347.26875" xlink:href="#mc9dbb400cd" y="218.32093361"/>
     <use style="fill:#0000ff;stroke:#d95f02;stroke-width:0.5;" x="347.26875" xlink:href="#mc9dbb400cd" y="206.878279158"/>
    </g>
   </g>
   <g id="line2d_120">
    <path clip-path="url(#p3197d1ee3f)" d="
M375.169 366.313
L393.769 366.313
L393.769 276
L375.169 276
L375.169 366.313" style="fill:none;stroke:#7570b3;stroke-linecap:round;"/>
   </g>
   <g id="line2d_121">
    <path clip-path="url(#p3197d1ee3f)" d="
M384.469 366.313
L384.469 383.908" style="fill:none;stroke:#7570b3;stroke-dasharray:6.000000,6.000000;stroke-dashoffset:0.0;"/>
   </g>
   <g id="line2d_122">
    <path clip-path="url(#p3197d1ee3f)" d="
M384.469 276
L384.469 156.848" style="fill:none;stroke:#7570b3;stroke-dasharray:6.000000,6.000000;stroke-dashoffset:0.0;"/>
   </g>
   <g id="line2d_123">
    <path clip-path="url(#p3197d1ee3f)" d="
M379.819 383.908
L389.119 383.908" style="fill:none;stroke:#7570b3;stroke-linecap:round;"/>
   </g>
   <g id="line2d_124">
    <path clip-path="url(#p3197d1ee3f)" d="
M379.819 156.848
L389.119 156.848" style="fill:none;stroke:#7570b3;stroke-linecap:round;"/>
   </g>
   <g id="line2d_125">
    <path clip-path="url(#p3197d1ee3f)" d="
M375.169 350.524
L393.769 350.524" style="fill:none;stroke:#ff0000;stroke-linecap:round;"/>
   </g>
   <g id="line2d_126">
    <defs>
     <path d="
M-3 0
L3 0
M0 3
L0 -3" id="m40d9ee34e6" style="stroke:#7570b3;stroke-width:0.5;"/>
    </defs>
    <g clip-path="url(#p3197d1ee3f)">
     <use style="fill:#0000ff;stroke:#7570b3;stroke-width:0.5;" x="384.46875" xlink:href="#m40d9ee34e6" y="80.1598318392"/>
     <use style="fill:#0000ff;stroke:#7570b3;stroke-width:0.5;" x="384.46875" xlink:href="#m40d9ee34e6" y="67.3408048769"/>
     <use style="fill:#0000ff;stroke:#7570b3;stroke-width:0.5;" x="384.46875" xlink:href="#m40d9ee34e6" y="53.8822409017"/>
     <use style="fill:#0000ff;stroke:#7570b3;stroke-width:0.5;" x="384.46875" xlink:href="#m40d9ee34e6" y="138.033283058"/>
     <use style="fill:#0000ff;stroke:#7570b3;stroke-width:0.5;" x="384.46875" xlink:href="#m40d9ee34e6" y="107.067362916"/>
     <use style="fill:#0000ff;stroke:#7570b3;stroke-width:0.5;" x="384.46875" xlink:href="#m40d9ee34e6" y="91.5875763969"/>
     <use style="fill:#0000ff;stroke:#7570b3;stroke-width:0.5;" x="384.46875" xlink:href="#m40d9ee34e6" y="76.1077898782"/>
     <use style="fill:#0000ff;stroke:#7570b3;stroke-width:0.5;" x="384.46875" xlink:href="#m40d9ee34e6" y="60.6280218128"/>
     <use style="fill:#0000ff;stroke:#7570b3;stroke-width:0.5;" x="384.46875" xlink:href="#m40d9ee34e6" y="45.1482352941"/>
     <use style="fill:#0000ff;stroke:#7570b3;stroke-width:0.5;" x="384.46875" xlink:href="#m40d9ee34e6" y="72.6687260858"/>
    </g>
   </g>
   <g id="line2d_127">
    <path clip-path="url(#p3197d1ee3f)" d="
M412.369 364.053
L430.969 364.053
L430.969 336.465
L412.369 336.465
L412.369 364.053" style="fill:none;stroke:#e7298a;stroke-linecap:round;"/>
   </g>
   <g id="line2d_128">
    <path clip-path="url(#p3197d1ee3f)" d="
M421.669 364.053
L421.669 383.94" style="fill:none;stroke:#e7298a;stroke-dasharray:6.000000,6.000000;stroke-dashoffset:0.0;"/>
   </g>
   <g id="line2d_129">
    <path clip-path="url(#p3197d1ee3f)" d="
M421.669 336.465
L421.669 296.8" style="fill:none;stroke:#e7298a;stroke-dasharray:6.000000,6.000000;stroke-dashoffset:0.0;"/>
   </g>
   <g id="line2d_130">
    <path clip-path="url(#p3197d1ee3f)" d="
M417.019 383.94
L426.319 383.94" style="fill:none;stroke:#e7298a;stroke-linecap:round;"/>
   </g>
   <g id="line2d_131">
    <path clip-path="url(#p3197d1ee3f)" d="
M417.019 296.8
L426.319 296.8" style="fill:none;stroke:#e7298a;stroke-linecap:round;"/>
   </g>
   <g id="line2d_132">
    <path clip-path="url(#p3197d1ee3f)" d="
M412.369 352.792
L430.969 352.792" style="fill:none;stroke:#ff0000;stroke-linecap:round;"/>
   </g>
   <g id="line2d_133">
    <g clip-path="url(#p3197d1ee3f)">
     <use style="fill:#0000ff;stroke:#e7298a;stroke-width:0.5;" x="421.66875" xlink:href="#m9cb1c1732d" y="286.198482062"/>
     <use style="fill:#0000ff;stroke:#e7298a;stroke-width:0.5;" x="421.66875" xlink:href="#m9cb1c1732d" y="274.630952285"/>
     <use style="fill:#0000ff;stroke:#e7298a;stroke-width:0.5;" x="421.66875" xlink:href="#m9cb1c1732d" y="243.231671397"/>
     <use style="fill:#0000ff;stroke:#e7298a;stroke-width:0.5;" x="421.66875" xlink:href="#m9cb1c1732d" y="217.279016416"/>
     <use style="fill:#0000ff;stroke:#e7298a;stroke-width:0.5;" x="421.66875" xlink:href="#m9cb1c1732d" y="197.681156735"/>
     <use style="fill:#0000ff;stroke:#e7298a;stroke-width:0.5;" x="421.66875" xlink:href="#m9cb1c1732d" y="178.083297054"/>
     <use style="fill:#0000ff;stroke:#e7298a;stroke-width:0.5;" x="421.66875" xlink:href="#m9cb1c1732d" y="158.485437373"/>
     <use style="fill:#0000ff;stroke:#e7298a;stroke-width:0.5;" x="421.66875" xlink:href="#m9cb1c1732d" y="138.887577692"/>
     <use style="fill:#0000ff;stroke:#e7298a;stroke-width:0.5;" x="421.66875" xlink:href="#m9cb1c1732d" y="275.848573555"/>
     <use style="fill:#0000ff;stroke:#e7298a;stroke-width:0.5;" x="421.66875" xlink:href="#m9cb1c1732d" y="275.694117769"/>
     <use style="fill:#0000ff;stroke:#e7298a;stroke-width:0.5;" x="421.66875" xlink:href="#m9cb1c1732d" y="254.588689627"/>
     <use style="fill:#0000ff;stroke:#e7298a;stroke-width:0.5;" x="421.66875" xlink:href="#m9cb1c1732d" y="287.349517365"/>
     <use style="fill:#0000ff;stroke:#e7298a;stroke-width:0.5;" x="421.66875" xlink:href="#m9cb1c1732d" y="272.412044451"/>
     <use style="fill:#0000ff;stroke:#e7298a;stroke-width:0.5;" x="421.66875" xlink:href="#m9cb1c1732d" y="250.022008898"/>
     <use style="fill:#0000ff;stroke:#e7298a;stroke-width:0.5;" x="421.66875" xlink:href="#m9cb1c1732d" y="227.631946655"/>
     <use style="fill:#0000ff;stroke:#e7298a;stroke-width:0.5;" x="421.66875" xlink:href="#m9cb1c1732d" y="259.692792938"/>
     <use style="fill:#0000ff;stroke:#e7298a;stroke-width:0.5;" x="421.66875" xlink:href="#m9cb1c1732d" y="290.715477014"/>
     <use style="fill:#0000ff;stroke:#e7298a;stroke-width:0.5;" x="421.66875" xlink:href="#m9cb1c1732d" y="276.210659169"/>
     <use style="fill:#0000ff;stroke:#e7298a;stroke-width:0.5;" x="421.66875" xlink:href="#m9cb1c1732d" y="270.059664211"/>
     <use style="fill:#0000ff;stroke:#e7298a;stroke-width:0.5;" x="421.66875" xlink:href="#m9cb1c1732d" y="270.763171791"/>
     <use style="fill:#0000ff;stroke:#e7298a;stroke-width:0.5;" x="421.66875" xlink:href="#m9cb1c1732d" y="256.509659931"/>
     <use style="fill:#0000ff;stroke:#e7298a;stroke-width:0.5;" x="421.66875" xlink:href="#m9cb1c1732d" y="257.8167349"/>
     <use style="fill:#0000ff;stroke:#e7298a;stroke-width:0.5;" x="421.66875" xlink:href="#m9cb1c1732d" y="293.426502671"/>
     <use style="fill:#0000ff;stroke:#e7298a;stroke-width:0.5;" x="421.66875" xlink:href="#m9cb1c1732d" y="283.978976261"/>
     <use style="fill:#0000ff;stroke:#e7298a;stroke-width:0.5;" x="421.66875" xlink:href="#m9cb1c1732d" y="265.78420096"/>
     <use style="fill:#0000ff;stroke:#e7298a;stroke-width:0.5;" x="421.66875" xlink:href="#m9cb1c1732d" y="251.090473744"/>
     <use style="fill:#0000ff;stroke:#e7298a;stroke-width:0.5;" x="421.66875" xlink:href="#m9cb1c1732d" y="270.377910567"/>
     <use style="fill:#0000ff;stroke:#e7298a;stroke-width:0.5;" x="421.66875" xlink:href="#m9cb1c1732d" y="241.705580887"/>
     <use style="fill:#0000ff;stroke:#e7298a;stroke-width:0.5;" x="421.66875" xlink:href="#m9cb1c1732d" y="213.033285386"/>
     <use style="fill:#0000ff;stroke:#e7298a;stroke-width:0.5;" x="421.66875" xlink:href="#m9cb1c1732d" y="234.155764027"/>
     <use style="fill:#0000ff;stroke:#e7298a;stroke-width:0.5;" x="421.66875" xlink:href="#m9cb1c1732d" y="281.888144208"/>
     <use style="fill:#0000ff;stroke:#e7298a;stroke-width:0.5;" x="421.66875" xlink:href="#m9cb1c1732d" y="247.458335824"/>
     <use style="fill:#0000ff;stroke:#e7298a;stroke-width:0.5;" x="421.66875" xlink:href="#m9cb1c1732d" y="248.936671717"/>
     <use style="fill:#0000ff;stroke:#e7298a;stroke-width:0.5;" x="421.66875" xlink:href="#m9cb1c1732d" y="263.523937446"/>
     <use style="fill:#0000ff;stroke:#e7298a;stroke-width:0.5;" x="421.66875" xlink:href="#m9cb1c1732d" y="248.969542498"/>
     <use style="fill:#0000ff;stroke:#e7298a;stroke-width:0.5;" x="421.66875" xlink:href="#m9cb1c1732d" y="261.198183371"/>
    </g>
   </g>
   <g id="line2d_134">
    <path clip-path="url(#p3197d1ee3f)" d="
M449.569 371.241
L468.169 371.241
L468.169 353.141
L449.569 353.141
L449.569 371.241" style="fill:none;stroke:#66a61e;stroke-linecap:round;"/>
   </g>
   <g id="line2d_135">
    <path clip-path="url(#p3197d1ee3f)" d="
M458.869 371.241
L458.869 383.768" style="fill:none;stroke:#66a61e;stroke-dasharray:6.000000,6.000000;stroke-dashoffset:0.0;"/>
   </g>
   <g id="line2d_136">
    <path clip-path="url(#p3197d1ee3f)" d="
M458.869 353.141
L458.869 326.904" style="fill:none;stroke:#66a61e;stroke-dasharray:6.000000,6.000000;stroke-dashoffset:0.0;"/>
   </g>
   <g id="line2d_137">
    <path clip-path="url(#p3197d1ee3f)" d="
M454.219 383.768
L463.519 383.768" style="fill:none;stroke:#66a61e;stroke-linecap:round;"/>
   </g>
   <g id="line2d_138">
    <path clip-path="url(#p3197d1ee3f)" d="
M454.219 326.904
L463.519 326.904" style="fill:none;stroke:#66a61e;stroke-linecap:round;"/>
   </g>
   <g id="line2d_139">
    <path clip-path="url(#p3197d1ee3f)" d="
M449.569 363.664
L468.169 363.664" style="fill:none;stroke:#ff0000;stroke-linecap:round;"/>
   </g>
   <g id="line2d_140">
    <defs>
     <path d="
M-3 0
L3 0
M0 3
L0 -3" id="md083cfc2e2" style="stroke:#66a61e;stroke-width:0.5;"/>
    </defs>
    <g clip-path="url(#p3197d1ee3f)">
     <use style="fill:#0000ff;stroke:#66a61e;stroke-width:0.5;" x="458.86875" xlink:href="#md083cfc2e2" y="324.539435539"/>
     <use style="fill:#0000ff;stroke:#66a61e;stroke-width:0.5;" x="458.86875" xlink:href="#md083cfc2e2" y="314.656287067"/>
     <use style="fill:#0000ff;stroke:#66a61e;stroke-width:0.5;" x="458.86875" xlink:href="#md083cfc2e2" y="289.814443256"/>
     <use style="fill:#0000ff;stroke:#66a61e;stroke-width:0.5;" x="458.86875" xlink:href="#md083cfc2e2" y="264.972599445"/>
     <use style="fill:#0000ff;stroke:#66a61e;stroke-width:0.5;" x="458.86875" xlink:href="#md083cfc2e2" y="259.231300732"/>
    </g>
   </g>
   <g id="line2d_141">
    <path clip-path="url(#p3197d1ee3f)" d="
M496.069 387.36
L496.069 41.76" style="fill:none;stroke:#000000;stroke-dasharray:1.000000,3.000000;stroke-dashoffset:0.0;stroke-width:0.5;"/>
   </g>
  </g>
  <g id="text_22">
   <!-- 8 down - dslreports dsl test equivalent -->
   <defs>
    <path d="
M42.4844 20.7969
Q42.4844 25.0469 41.4844 28.7031
Q40.4844 32.375 38.8125 35.0625
Q37.1562 37.75 34.9531 39.25
Q32.7656 40.7656 30.4219 40.7656
Q29.5469 40.7656 28.125 40.2344
Q26.7031 39.7031 24.8906 38.4219
Q23.0938 37.1562 21.0469 35.0312
Q19 32.9062 16.8438 29.7812
L16.8438 10.4062
Q19.0469 8.73438 20.9219 7.65625
Q22.7969 6.59375 24.4375 5.98438
Q26.0781 5.375 27.5312 5.125
Q29 4.89062 30.3281 4.89062
Q32.9531 4.89062 35.1719 5.90625
Q37.4062 6.9375 39.0156 8.9375
Q40.625 10.9375 41.5469 13.9062
Q42.4844 16.8906 42.4844 20.7969
M49.0781 24.0312
Q49.0781 21.1875 48.3438 18.2031
Q47.6094 15.2344 46.3281 12.4062
Q45.0625 9.57812 43.2969 7.03125
Q41.5469 4.5 39.4688 2.60938
Q37.4062 0.734375 35.1094 -0.359375
Q32.8125 -1.46875 30.4219 -1.46875
Q27.5469 -1.46875 23.9219 0.140625
Q20.3125 1.76562 16.8438 4.78125
L16.8438 -18.3125
Q16.8438 -19.0938 18.6719 -19.875
Q20.5156 -20.6562 25.0938 -21.3438
L25.0938 -23.4375
L2.6875 -23.4375
L2.6875 -21.3438
Q5.90625 -20.5625 7.70312 -19.8438
Q9.51562 -19.1406 9.51562 -18.3125
L9.51562 34.7188
Q9.51562 36.5312 9.3125 37.7031
Q9.125 38.875 8.42188 39.5781
Q7.71875 40.2812 6.375 40.5938
Q5.03125 40.9219 2.6875 41.0156
L2.6875 42.9688
Q4.34375 43.3125 5.85938 43.7188
Q7.375 44.1406 8.78125 44.5938
Q10.2031 45.0625 11.5938 45.625
Q12.9844 46.1875 14.4062 46.875
L16.1094 45.1719
L16.5469 35.5
Q19 38.4219 21.4531 40.5625
Q23.9219 42.7188 26.1719 44.1094
Q28.4219 45.5156 30.3438 46.1875
Q32.2812 46.875 33.6875 46.875
Q37.0156 46.875 39.8438 45.3125
Q42.6719 43.75 44.7188 40.7969
Q46.7812 37.8438 47.9219 33.5938
Q49.0781 29.3438 49.0781 24.0312" id="GentiumBasic-70"/>
    <path d="
M23.7812 4.89062
Q25.4375 4.89062 27.0469 5.5625
Q28.6562 6.25 30.2188 7.34375
Q31.7812 8.45312 33.3125 9.85938
Q34.8594 11.2812 36.375 12.75
L36.375 35.6406
Q34.7656 38.4219 31.8281 39.9531
Q28.9062 41.5 25.3906 41.5
Q22.6562 41.5 20.1094 40.3438
Q17.5781 39.2031 15.5938 36.9062
Q13.625 34.625 12.4219 31.2031
Q11.2344 27.7812 11.2344 23.1875
Q11.2344 19.0469 12.4219 15.6406
Q13.625 12.25 15.4688 9.85938
Q17.3281 7.46875 19.5469 6.17188
Q21.7812 4.89062 23.7812 4.89062
M28.0781 -23.4375
L28.0781 -21.3438
Q32.6719 -20.6562 34.5156 -19.8906
Q36.375 -19.1406 36.375 -18.3125
L36.375 8.10938
Q34.5156 5.85938 32.7031 4.09375
Q30.9062 2.34375 28.9688 1.09375
Q27.0469 -0.140625 24.9219 -0.796875
Q22.7969 -1.46875 20.3125 -1.46875
Q17.5781 -1.46875 14.6875 0.109375
Q11.8125 1.70312 9.39062 4.6875
Q6.98438 7.67188 5.4375 11.9688
Q3.90625 16.2656 3.90625 21.6875
Q3.90625 25.9844 5.26562 29.5938
Q6.64062 33.2031 8.60938 36
Q10.5938 38.8125 12.8438 40.7656
Q15.0938 42.7188 16.7969 43.7031
Q19.5781 45.2188 22.3125 46.0469
Q25.0469 46.875 26.9062 46.875
Q28.2188 46.875 29.5312 46.7031
Q30.8594 46.5312 32.2188 46.0469
Q33.5938 45.5625 35.0625 44.6719
Q36.5312 43.7969 38.1875 42.3281
Q38.9219 42.7812 39.7031 43.3906
Q40.4844 44 41.2031 44.6094
Q41.9375 45.2188 42.5938 45.8281
Q43.2656 46.4375 43.7031 46.875
L45.2188 45.4062
Q44.7812 44.0469 44.4375 42.4375
Q44.1406 41.0156 43.9219 39.1094
Q43.7031 37.2031 43.7031 35.0156
L43.7031 -18.3125
Q43.7031 -19.0938 45.2188 -19.875
Q46.7344 -20.6562 50.4844 -21.3438
L50.4844 -23.4375
z
" id="GentiumBasic-71"/>
    <path d="
M13.4219 46.3906
Q13.4219 44.2344 14.4688 42.6406
Q15.5312 41.0625 17.2812 39.8125
Q19.0469 38.5781 21.3125 37.5156
Q23.5781 36.4688 26.0312 35.4062
Q29.5938 37.9844 31.0781 40.5781
Q32.5625 43.1719 32.5625 45.7969
Q32.5625 48.3438 31.8125 50.2188
Q31.0625 52.0938 29.6875 53.3125
Q28.3281 54.5469 26.375 55.125
Q24.4219 55.7188 22.0156 55.7188
Q19.8281 55.7188 18.2188 54.875
Q16.6094 54.0469 15.5469 52.7031
Q14.5 51.375 13.9531 49.7031
Q13.4219 48.0469 13.4219 46.3906
M34.5156 15.0938
Q34.5156 18.3125 33.375 20.6094
Q32.2344 22.9062 30.375 24.5625
Q28.5156 26.2188 26.125 27.4375
Q23.7344 28.6562 21.1875 29.7812
Q18.8438 28.0781 17.1875 26.4375
Q15.5312 24.8125 14.4688 23.0938
Q13.4219 21.3906 12.9062 19.4844
Q12.4062 17.5781 12.4062 15.375
Q12.4062 12.8438 13.2344 10.6406
Q14.0625 8.45312 15.625 6.82812
Q17.1875 5.21875 19.4062 4.3125
Q21.625 3.42188 24.4219 3.42188
Q27.0938 3.42188 29.0156 4.4375
Q30.9531 5.46875 32.1719 7.125
Q33.4062 8.79688 33.9531 10.8594
Q34.5156 12.9375 34.5156 15.0938
M42.3281 17.1875
Q42.3281 13.375 40.7188 10
Q39.1094 6.64062 36.3281 4.07812
Q33.5469 1.51562 29.8594 0.015625
Q26.1719 -1.46875 22.0156 -1.46875
Q17.8281 -1.46875 14.5938 -0.1875
Q11.375 1.07812 9.125 3.21875
Q6.89062 5.375 5.73438 8.125
Q4.59375 10.8906 4.59375 13.9219
Q4.59375 16.5469 5.48438 19.0156
Q6.39062 21.4844 8.07812 23.7031
Q9.76562 25.9219 12.125 27.875
Q14.5 29.8281 17.4375 31.4531
Q15.3281 32.4219 13.4531 33.5938
Q11.5781 34.7656 10.1562 36.3281
Q8.73438 37.8906 7.90625 39.9062
Q7.07812 41.9375 7.07812 44.6719
Q7.07812 48.0469 8.42188 50.9219
Q9.76562 53.8125 12.1094 55.875
Q14.4531 57.9531 17.6406 59.125
Q20.8438 60.2969 24.5156 60.2969
Q28.1719 60.2969 31.0312 59.3125
Q33.8906 58.3438 35.8594 56.6406
Q37.8438 54.9375 38.8594 52.5312
Q39.8906 50.1406 39.8906 47.3125
Q39.8906 45.2656 39.125 43.4375
Q38.375 41.6094 37.0625 39.9219
Q35.75 38.2344 33.9062 36.6719
Q32.0781 35.1094 29.9375 33.5938
Q32.375 32.4219 34.6094 30.9844
Q36.8594 29.5469 38.5625 27.5938
Q40.2812 25.6406 41.2969 23.0938
Q42.3281 20.5625 42.3281 17.1875" id="GentiumBasic-38"/>
    <path d="
M52.2031 4
Q50.3906 2.82812 48.7344 1.82812
Q47.0781 0.828125 45.6562 0.09375
Q44.2344 -0.640625 43.1562 -1.04688
Q42.0938 -1.46875 41.5 -1.46875
Q39.7969 -1.46875 38.7188 0.796875
Q37.6406 3.07812 37.3594 8.10938
Q34.3281 5.07812 31.8125 3.1875
Q29.2969 1.3125 27.1719 0.28125
Q25.0469 -0.734375 23.2656 -1.09375
Q21.4844 -1.46875 19.9219 -1.46875
Q17.625 -1.46875 15.5156 -0.828125
Q13.4219 -0.203125 11.8125 1.48438
Q10.2031 3.17188 9.25 6.09375
Q8.29688 9.03125 8.29688 13.625
L8.29688 34.7188
Q8.29688 37.0625 8.15625 38.3594
Q8.01562 39.6562 7.39062 40.3125
Q6.78125 40.9688 5.51562 41.2031
Q4.25 41.4531 2 41.7031
L2 43.6562
Q3.76562 43.8438 5.29688 44.1406
Q6.84375 44.4375 8.28125 44.8281
Q9.71875 45.2188 11.1719 45.7188
Q12.6406 46.2344 14.2656 46.875
L15.625 44.9688
L15.625 16.3125
Q15.625 12.8906 16.1406 10.5938
Q16.6562 8.29688 17.6094 6.92188
Q18.5625 5.5625 19.9531 4.96875
Q21.3438 4.39062 23.0938 4.39062
Q24.6562 4.39062 26.2969 4.85938
Q27.9375 5.32812 29.6562 6.32812
Q31.3906 7.32812 33.2969 8.90625
Q35.2031 10.5 37.3594 12.7969
L37.3594 34.7188
Q37.3594 36.9219 37.1406 38.2344
Q36.9219 39.5469 36.1875 40.2812
Q35.4531 41.0156 34.1094 41.3125
Q32.7656 41.6094 30.5156 41.7031
L30.5156 43.6562
Q34.0312 44.0938 37.25 45.0156
Q40.4844 45.9531 43.2188 46.875
L44.6719 44.9688
L44.6719 12.4062
Q44.6719 9.375 44.8906 7.46875
Q45.125 5.5625 45.7969 5.07812
Q46.3906 4.6875 47.7969 4.90625
Q49.2188 5.125 51.7031 6.20312
z
" id="GentiumBasic-75"/>
   </defs>
   <g style="fill:#262626;" transform="translate(156.04546875 17.79625)scale(0.14 -0.14)">
    <use xlink:href="#GentiumBasic-38"/>
    <use x="46.923828125" xlink:href="#GentiumBasic-20"/>
    <use x="68.9453125" xlink:href="#GentiumBasic-64"/>
    <use x="120.947265625" xlink:href="#GentiumBasic-6f"/>
    <use x="171.240234375" xlink:href="#GentiumBasic-77"/>
    <use x="241.845703125" xlink:href="#GentiumBasic-6e"/>
    <use x="297.021484375" xlink:href="#GentiumBasic-20"/>
    <use x="319.04296875" xlink:href="#GentiumBasic-2d"/>
    <use x="352.734375" xlink:href="#GentiumBasic-20"/>
    <use x="374.755859375" xlink:href="#GentiumBasic-64"/>
    <use x="426.7578125" xlink:href="#GentiumBasic-73"/>
    <use x="465.380859375" xlink:href="#GentiumBasic-6c"/>
    <use x="492.48046875" xlink:href="#GentiumBasic-72"/>
    <use x="532.080078125" xlink:href="#GentiumBasic-65"/>
    <use x="578.271484375" xlink:href="#GentiumBasic-70"/>
    <use x="631.25" xlink:href="#GentiumBasic-6f"/>
    <use x="681.54296875" xlink:href="#GentiumBasic-72"/>
    <use x="721.142578125" xlink:href="#GentiumBasic-74"/>
    <use x="755.56640625" xlink:href="#GentiumBasic-73"/>
    <use x="794.189453125" xlink:href="#GentiumBasic-20"/>
    <use x="816.2109375" xlink:href="#GentiumBasic-64"/>
    <use x="868.212890625" xlink:href="#GentiumBasic-73"/>
    <use x="906.8359375" xlink:href="#GentiumBasic-6c"/>
    <use x="933.935546875" xlink:href="#GentiumBasic-20"/>
    <use x="955.95703125" xlink:href="#GentiumBasic-74"/>
    <use x="990.380859375" xlink:href="#GentiumBasic-65"/>
    <use x="1036.572265625" xlink:href="#GentiumBasic-73"/>
    <use x="1075.1953125" xlink:href="#GentiumBasic-74"/>
    <use x="1109.619140625" xlink:href="#GentiumBasic-20"/>
    <use x="1131.640625" xlink:href="#GentiumBasic-65"/>
    <use x="1177.83203125" xlink:href="#GentiumBasic-71"/>
    <use x="1229.345703125" xlink:href="#GentiumBasic-75"/>
    <use x="1282.32421875" xlink:href="#GentiumBasic-69"/>
    <use x="1309.423828125" xlink:href="#GentiumBasic-76"/>
    <use x="1358.740234375" xlink:href="#GentiumBasic-61"/>
    <use x="1404.638671875" xlink:href="#GentiumBasic-6c"/>
    <use x="1431.73828125" xlink:href="#GentiumBasic-65"/>
    <use x="1477.9296875" xlink:href="#GentiumBasic-6e"/>
    <use x="1533.10546875" xlink:href="#GentiumBasic-74"/>
   </g>
   <!-- Box plot of totals -->
   <defs>
    <path d="
M39.8906 71
Q39.8906 70.6094 39.1875 69.8281
Q38.4844 69.0469 37.5 68.2188
Q36.5312 67.3906 35.4688 66.6562
Q34.4219 65.9219 33.6875 65.5781
Q32.5156 66.6094 31.3125 67.3594
Q30.125 68.1094 29.0312 68.5938
Q27.9375 69.0938 26.9844 69.3281
Q26.0312 69.5781 25.3906 69.5781
Q24.125 69.5781 22.6719 68.7188
Q21.2344 67.875 19.9844 65.625
Q18.75 63.375 17.9219 59.5156
Q17.0938 55.6719 17.0938 49.6094
L17.0938 45.4062
L29.6875 45.4062
L31.1094 44
Q30.6719 43.3125 30 42.5312
Q29.3438 41.75 28.6875 41.0625
Q28.0312 40.375 27.3906 39.8125
Q26.7656 39.2656 26.3125 39.0625
Q25.2031 39.6562 23.0938 40.2031
Q21 40.7656 17.0938 40.7656
L17.0938 4.98438
Q17.0938 4.6875 17.5938 4.39062
Q18.1094 4.10938 19.3281 3.78125
Q20.5625 3.46875 22.4844 3.04688
Q24.4219 2.64062 27.2969 2.09375
L27.2969 0
L2.9375 0
L2.9375 2.09375
Q6.29688 2.6875 8.03125 3.53125
Q9.76562 4.39062 9.76562 4.98438
L9.76562 40.7656
L3.21875 40.7656
L2.20312 42.1406
L6 45.4062
L9.76562 45.4062
L9.76562 46.9219
Q9.76562 52.6875 10.5469 56.6094
Q11.3281 60.5469 12.6719 63.25
Q14.0156 65.9688 15.7656 67.7969
Q17.5312 69.625 19.4844 71.1875
Q20.7969 72.2656 22.3594 73.0938
Q23.9219 73.9219 25.4531 74.5
Q27 75.0938 28.3906 75.3906
Q29.7812 75.6875 30.7188 75.6875
Q32.2344 75.6875 33.8438 75.0938
Q35.4531 74.5156 36.7969 73.75
Q38.1406 73 39.0156 72.2188
Q39.8906 71.4375 39.8906 71" id="GentiumBasic-66"/>
    <path d="
M20.1719 58.8906
Q19.4844 58.8906 18.7656 58.8594
Q18.0625 58.8438 17.3281 58.7969
L17.3281 35.4062
L19 35.4062
Q24.5625 35.4062 28 36.5
Q31.4531 37.5938 33.3438 39.2969
Q35.25 41.0156 35.9375 43.1562
Q36.625 45.3125 36.625 47.4062
Q36.625 49.8594 35.8125 51.9531
Q35.0156 54.0469 33.1094 55.5781
Q31.2031 57.125 28.0469 58
Q24.9062 58.8906 20.1719 58.8906
M25.3906 31.7344
Q23.0469 31.7344 21.0625 31.5156
Q19.0938 31.2969 17.3281 31
L17.3281 5.07812
Q17.3281 4.6875 17.7812 4.34375
Q18.6094 4.04688 19.6719 3.875
Q20.75 3.71875 21.875 3.60938
Q23 3.51562 24.125 3.46875
Q25.25 3.42188 26.2188 3.42188
Q29.7344 3.42188 32.5625 4.3125
Q35.4062 5.21875 37.4219 6.82812
Q39.4531 8.45312 40.5312 10.7188
Q41.6094 12.9844 41.6094 15.7188
Q41.6094 18.4062 40.6562 21.2344
Q39.7031 24.0781 37.7188 26.4219
Q35.75 28.7656 32.6875 30.25
Q29.6406 31.7344 25.3906 31.7344
M49.6094 17.3906
Q49.6094 13.2344 47.9688 9.89062
Q46.3438 6.54688 43.3906 4.20312
Q40.4375 1.85938 36.3281 0.578125
Q32.2344 -0.6875 27.2969 -0.6875
Q26.2188 -0.6875 24.7344 -0.65625
Q23.25 -0.640625 21.5312 -0.578125
Q19.8281 -0.53125 18.0156 -0.484375
Q16.2188 -0.4375 14.5 -0.34375
Q10.4531 -0.203125 6 0
L2.4375 0
L2.4375 2.09375
Q5.76562 2.78125 7.64062 3.57812
Q9.51562 4.39062 9.51562 5.07812
L9.51562 58.1094
Q7.67188 57.8594 5.89062 57.5938
Q4.10938 57.3281 2.4375 57.0312
L2 60.0625
Q3.90625 60.5938 6.42188 61.1094
Q8.9375 61.625 11.7188 62.0312
Q14.5 62.4531 17.375 62.7188
Q20.2656 62.9844 22.9062 62.9844
Q27.7812 62.9844 31.7344 62.0781
Q35.6875 61.1875 38.4531 59.4688
Q41.2188 57.7656 42.7031 55.3125
Q44.1875 52.875 44.1875 49.8125
Q44.1875 44.5312 41.6875 40.75
Q39.2031 36.9688 34.9062 35.2969
Q38.0312 34.7188 40.7188 33.1094
Q43.4062 31.5 45.375 29.125
Q47.3594 26.7656 48.4844 23.75
Q49.6094 20.75 49.6094 17.3906" id="GentiumBasic-42"/>
   </defs>
   <g style="fill:#262626;" transform="translate(217.0778125 33.793)scale(0.14 -0.14)">
    <use xlink:href="#GentiumBasic-42"/>
    <use x="54.98046875" xlink:href="#GentiumBasic-6f"/>
    <use x="105.2734375" xlink:href="#GentiumBasic-78"/>
    <use x="155.56640625" xlink:href="#GentiumBasic-20"/>
    <use x="177.587890625" xlink:href="#GentiumBasic-70"/>
    <use x="230.56640625" xlink:href="#GentiumBasic-6c"/>
    <use x="257.666015625" xlink:href="#GentiumBasic-6f"/>
    <use x="307.958984375" xlink:href="#GentiumBasic-74"/>
    <use x="342.3828125" xlink:href="#GentiumBasic-20"/>
    <use x="364.404296875" xlink:href="#GentiumBasic-6f"/>
    <use x="414.697265625" xlink:href="#GentiumBasic-66"/>
    <use x="445.80078125" xlink:href="#GentiumBasic-20"/>
    <use x="467.822265625" xlink:href="#GentiumBasic-74"/>
    <use x="502.24609375" xlink:href="#GentiumBasic-6f"/>
    <use x="552.5390625" xlink:href="#GentiumBasic-74"/>
    <use x="586.962890625" xlink:href="#GentiumBasic-61"/>
    <use x="632.861328125" xlink:href="#GentiumBasic-6c"/>
    <use x="659.9609375" xlink:href="#GentiumBasic-73"/>
   </g>
  </g>
 </g>
 <defs>
  <clipPath id="p3197d1ee3f">
   <rect height="345.6" width="446.4" x="49.66875" y="41.76"/>
  </clipPath>
 </defs>
</svg>
