<?xml version="1.0" encoding="utf-8" standalone="no"?>
<!DOCTYPE svg PUBLIC "-//W3C//DTD SVG 1.1//EN"
  "http://www.w3.org/Graphics/SVG/1.1/DTD/svg11.dtd">
<!-- Created with matplotlib (http://matplotlib.org/) -->
<svg height="556pt" version="1.1" viewBox="0 0 1094 556" width="1094pt" xmlns="http://www.w3.org/2000/svg" xmlns:xlink="http://www.w3.org/1999/xlink">
 <defs>
  <style type="text/css">
*{stroke-linecap:butt;stroke-linejoin:round;}
  </style>
 </defs>
 <g id="figure_1">
  <g id="patch_1">
   <path d="
M0 556.2
L1094.4 556.2
L1094.4 0
L0 0
z
" style="fill:#ffffff;"/>
  </g>
  <g id="axes_1">
   <g id="patch_2">
    <path d="
M136.8 500.58
L844.532 500.58
L844.532 55.62
L136.8 55.62
z
" style="fill:#eaeaf2;"/>
   </g>
   <g id="matplotlib.axis_1">
    <g id="xtick_1">
     <g id="line2d_1">
      <path clip-path="url(#p96925a06d4)" d="
M267.739 500.58
L267.739 55.62" style="fill:none;stroke:#ffffff;stroke-linecap:round;stroke-width:0.5;"/>
     </g>
     <g id="line2d_2">
      <defs>
       <path d="
M0 0
L0 0" id="m8735711441" style="stroke:#262626;stroke-width:0.5;"/>
      </defs>
      <g>
       <use style="fill:#262626;stroke:#262626;stroke-width:0.5;" x="267.738746575" xlink:href="#m8735711441" y="500.58"/>
      </g>
     </g>
     <g id="line2d_3">
      <g>
       <use style="fill:#262626;stroke:#262626;stroke-width:0.5;" x="267.738746575" xlink:href="#m8735711441" y="55.62"/>
      </g>
     </g>
     <g id="text_1">
      <!-- 200 -->
      <defs>
       <path d="
M4.15625 35.2969
Q4.15625 48 6.76562 55.7344
Q9.375 63.4844 14.5156 67.6719
Q19.6719 71.875 27.4844 71.875
Q33.25 71.875 37.5938 69.5469
Q41.9375 67.2344 44.7656 62.8594
Q47.6094 58.5 49.2188 52.2188
Q50.8281 45.9531 50.8281 35.2969
Q50.8281 22.7031 48.2344 14.9688
Q45.6562 7.23438 40.5 3
Q35.3594 -1.21875 27.4844 -1.21875
Q17.1406 -1.21875 11.2344 6.20312
Q4.15625 15.1406 4.15625 35.2969
M13.1875 35.2969
Q13.1875 17.6719 17.3125 11.8281
Q21.4375 6 27.4844 6
Q33.5469 6 37.6719 11.8594
Q41.7969 17.7188 41.7969 35.2969
Q41.7969 52.9844 37.6719 58.7812
Q33.5469 64.5938 27.3906 64.5938
Q21.3438 64.5938 17.7188 59.4688
Q13.1875 52.9375 13.1875 35.2969" id="ArialMT-30"/>
       <path d="
M50.3438 8.45312
L50.3438 0
L3.03125 0
Q2.9375 3.17188 4.04688 6.10938
Q5.85938 10.9375 9.82812 15.625
Q13.8125 20.3125 21.3438 26.4688
Q33.0156 36.0312 37.1094 41.625
Q41.2188 47.2188 41.2188 52.2031
Q41.2188 57.4219 37.4688 61
Q33.7344 64.5938 27.7344 64.5938
Q21.3906 64.5938 17.5781 60.7812
Q13.7656 56.9844 13.7188 50.25
L4.6875 51.1719
Q5.60938 61.2812 11.6562 66.5781
Q17.7188 71.875 27.9375 71.875
Q38.2344 71.875 44.2344 66.1562
Q50.25 60.4531 50.25 52
Q50.25 47.7031 48.4844 43.5469
Q46.7344 39.4062 42.6562 34.8125
Q38.5781 30.2188 29.1094 22.2188
Q21.1875 15.5781 18.9375 13.2031
Q16.7031 10.8438 15.2344 8.45312
z
" id="ArialMT-32"/>
      </defs>
      <g style="fill:#262626;" transform="translate(258.192184075 513.169375)scale(0.12 -0.12)">
       <use xlink:href="#ArialMT-32"/>
       <use x="55.615234375" xlink:href="#ArialMT-30"/>
       <use x="111.23046875" xlink:href="#ArialMT-30"/>
      </g>
     </g>
    </g>
    <g id="xtick_2">
     <g id="line2d_4">
      <path clip-path="url(#p96925a06d4)" d="
M400.335 500.58
L400.335 55.62" style="fill:none;stroke:#ffffff;stroke-linecap:round;stroke-width:0.5;"/>
     </g>
     <g id="line2d_5">
      <g>
       <use style="fill:#262626;stroke:#262626;stroke-width:0.5;" x="400.334945638" xlink:href="#m8735711441" y="500.58"/>
      </g>
     </g>
     <g id="line2d_6">
      <g>
       <use style="fill:#262626;stroke:#262626;stroke-width:0.5;" x="400.334945638" xlink:href="#m8735711441" y="55.62"/>
      </g>
     </g>
     <g id="text_2">
      <!-- 400 -->
      <defs>
       <path d="
M32.3281 0
L32.3281 17.1406
L1.26562 17.1406
L1.26562 25.2031
L33.9375 71.5781
L41.1094 71.5781
L41.1094 25.2031
L50.7812 25.2031
L50.7812 17.1406
L41.1094 17.1406
L41.1094 0
z

M32.3281 25.2031
L32.3281 57.4688
L9.90625 25.2031
z
" id="ArialMT-34"/>
      </defs>
      <g style="fill:#262626;" transform="translate(390.688070638 513.169375)scale(0.12 -0.12)">
       <use xlink:href="#ArialMT-34"/>
       <use x="55.615234375" xlink:href="#ArialMT-30"/>
       <use x="111.23046875" xlink:href="#ArialMT-30"/>
      </g>
     </g>
    </g>
    <g id="xtick_3">
     <g id="line2d_7">
      <path clip-path="url(#p96925a06d4)" d="
M532.931 500.58
L532.931 55.62" style="fill:none;stroke:#ffffff;stroke-linecap:round;stroke-width:0.5;"/>
     </g>
     <g id="line2d_8">
      <g>
       <use style="fill:#262626;stroke:#262626;stroke-width:0.5;" x="532.931144701" xlink:href="#m8735711441" y="500.58"/>
      </g>
     </g>
     <g id="line2d_9">
      <g>
       <use style="fill:#262626;stroke:#262626;stroke-width:0.5;" x="532.931144701" xlink:href="#m8735711441" y="55.62"/>
      </g>
     </g>
     <g id="text_3">
      <!-- 600 -->
      <defs>
       <path d="
M49.75 54.0469
L41.0156 53.375
Q39.8438 58.5469 37.7031 60.8906
Q34.125 64.6562 28.9062 64.6562
Q24.7031 64.6562 21.5312 62.3125
Q17.3906 59.2812 14.9844 53.4688
Q12.5938 47.6562 12.5 36.9219
Q15.6719 41.75 20.2656 44.0938
Q24.8594 46.4375 29.8906 46.4375
Q38.6719 46.4375 44.8438 39.9688
Q51.0312 33.5 51.0312 23.25
Q51.0312 16.5 48.125 10.7188
Q45.2188 4.9375 40.1406 1.85938
Q35.0625 -1.21875 28.6094 -1.21875
Q17.625 -1.21875 10.6875 6.85938
Q3.76562 14.9375 3.76562 33.5
Q3.76562 54.25 11.4219 63.6719
Q18.1094 71.875 29.4375 71.875
Q37.8906 71.875 43.2812 67.1406
Q48.6875 62.4062 49.75 54.0469
M13.875 23.1875
Q13.875 18.6562 15.7969 14.5
Q17.7188 10.3594 21.1875 8.17188
Q24.6562 6 28.4688 6
Q34.0312 6 38.0312 10.4844
Q42.0469 14.9844 42.0469 22.7031
Q42.0469 30.125 38.0781 34.3906
Q34.125 38.6719 28.125 38.6719
Q22.1719 38.6719 18.0156 34.3906
Q13.875 30.125 13.875 23.1875" id="ArialMT-36"/>
      </defs>
      <g style="fill:#262626;" transform="translate(523.434269701 513.169375)scale(0.12 -0.12)">
       <use xlink:href="#ArialMT-36"/>
       <use x="55.615234375" xlink:href="#ArialMT-30"/>
       <use x="111.23046875" xlink:href="#ArialMT-30"/>
      </g>
     </g>
    </g>
    <g id="xtick_4">
     <g id="line2d_10">
      <path clip-path="url(#p96925a06d4)" d="
M665.527 500.58
L665.527 55.62" style="fill:none;stroke:#ffffff;stroke-linecap:round;stroke-width:0.5;"/>
     </g>
     <g id="line2d_11">
      <g>
       <use style="fill:#262626;stroke:#262626;stroke-width:0.5;" x="665.527343765" xlink:href="#m8735711441" y="500.58"/>
      </g>
     </g>
     <g id="line2d_12">
      <g>
       <use style="fill:#262626;stroke:#262626;stroke-width:0.5;" x="665.527343765" xlink:href="#m8735711441" y="55.62"/>
      </g>
     </g>
     <g id="text_4">
      <!-- 800 -->
      <defs>
       <path d="
M17.6719 38.8125
Q12.2031 40.8281 9.5625 44.5312
Q6.9375 48.25 6.9375 53.4219
Q6.9375 61.2344 12.5469 66.5469
Q18.1719 71.875 27.4844 71.875
Q36.8594 71.875 42.5781 66.4219
Q48.2969 60.9844 48.2969 53.1719
Q48.2969 48.1875 45.6719 44.5
Q43.0625 40.8281 37.75 38.8125
Q44.3438 36.6719 47.7812 31.875
Q51.2188 27.0938 51.2188 20.4531
Q51.2188 11.2812 44.7188 5.03125
Q38.2344 -1.21875 27.6406 -1.21875
Q17.0469 -1.21875 10.5469 5.04688
Q4.04688 11.3281 4.04688 20.7031
Q4.04688 27.6875 7.59375 32.3906
Q11.1406 37.1094 17.6719 38.8125
M15.9219 53.7188
Q15.9219 48.6406 19.1875 45.4062
Q22.4688 42.1875 27.6875 42.1875
Q32.7656 42.1875 36.0156 45.375
Q39.2656 48.5781 39.2656 53.2188
Q39.2656 58.0625 35.9062 61.3594
Q32.5625 64.6562 27.5938 64.6562
Q22.5625 64.6562 19.2344 61.4219
Q15.9219 58.2031 15.9219 53.7188
M13.0938 20.6562
Q13.0938 16.8906 14.875 13.375
Q16.6562 9.85938 20.1719 7.92188
Q23.6875 6 27.7344 6
Q34.0312 6 38.125 10.0469
Q42.2344 14.1094 42.2344 20.3594
Q42.2344 26.7031 38.0156 30.8594
Q33.7969 35.0156 27.4375 35.0156
Q21.2344 35.0156 17.1562 30.9062
Q13.0938 26.8125 13.0938 20.6562" id="ArialMT-38"/>
      </defs>
      <g style="fill:#262626;" transform="translate(656.047343765 513.169375)scale(0.12 -0.12)">
       <use xlink:href="#ArialMT-38"/>
       <use x="55.615234375" xlink:href="#ArialMT-30"/>
       <use x="111.23046875" xlink:href="#ArialMT-30"/>
      </g>
     </g>
    </g>
    <g id="xtick_5">
     <g id="line2d_13">
      <path clip-path="url(#p96925a06d4)" d="
M798.124 500.58
L798.124 55.62" style="fill:none;stroke:#ffffff;stroke-linecap:round;stroke-width:0.5;"/>
     </g>
     <g id="line2d_14">
      <g>
       <use style="fill:#262626;stroke:#262626;stroke-width:0.5;" x="798.123542828" xlink:href="#m8735711441" y="500.58"/>
      </g>
     </g>
     <g id="line2d_15">
      <g>
       <use style="fill:#262626;stroke:#262626;stroke-width:0.5;" x="798.123542828" xlink:href="#m8735711441" y="55.62"/>
      </g>
     </g>
     <g id="text_5">
      <!-- 1000 -->
      <defs>
       <path d="
M37.25 0
L28.4688 0
L28.4688 56
Q25.2969 52.9844 20.1406 49.9531
Q14.9844 46.9219 10.8906 45.4062
L10.8906 53.9062
Q18.2656 57.375 23.7812 62.2969
Q29.2969 67.2344 31.5938 71.875
L37.25 71.875
z
" id="ArialMT-31"/>
      </defs>
      <g style="fill:#262626;" transform="translate(785.717605328 513.169375)scale(0.12 -0.12)">
       <use xlink:href="#ArialMT-31"/>
       <use x="55.615234375" xlink:href="#ArialMT-30"/>
       <use x="111.23046875" xlink:href="#ArialMT-30"/>
       <use x="166.845703125" xlink:href="#ArialMT-30"/>
      </g>
     </g>
    </g>
    <g id="xtick_6">
     <g id="line2d_16">
      <path clip-path="url(#p96925a06d4)" d="
M168.292 500.58
L168.292 55.62" style="fill:none;stroke:#ffffff;stroke-linecap:round;stroke-width:0.5;"/>
     </g>
     <g id="line2d_17">
      <g>
       <use style="fill:#262626;stroke:#262626;stroke-width:0.5;" x="168.291597278" xlink:href="#m8735711441" y="500.58"/>
      </g>
     </g>
     <g id="line2d_18">
      <g>
       <use style="fill:#262626;stroke:#262626;stroke-width:0.5;" x="168.291597278" xlink:href="#m8735711441" y="55.62"/>
      </g>
     </g>
    </g>
    <g id="xtick_7">
     <g id="line2d_19">
      <path clip-path="url(#p96925a06d4)" d="
M201.441 500.58
L201.441 55.62" style="fill:none;stroke:#ffffff;stroke-linecap:round;stroke-width:0.5;"/>
     </g>
     <g id="line2d_20">
      <g>
       <use style="fill:#262626;stroke:#262626;stroke-width:0.5;" x="201.440647043" xlink:href="#m8735711441" y="500.58"/>
      </g>
     </g>
     <g id="line2d_21">
      <g>
       <use style="fill:#262626;stroke:#262626;stroke-width:0.5;" x="201.440647043" xlink:href="#m8735711441" y="55.62"/>
      </g>
     </g>
    </g>
    <g id="xtick_8">
     <g id="line2d_22">
      <path clip-path="url(#p96925a06d4)" d="
M234.59 500.58
L234.59 55.62" style="fill:none;stroke:#ffffff;stroke-linecap:round;stroke-width:0.5;"/>
     </g>
     <g id="line2d_23">
      <g>
       <use style="fill:#262626;stroke:#262626;stroke-width:0.5;" x="234.589696809" xlink:href="#m8735711441" y="500.58"/>
      </g>
     </g>
     <g id="line2d_24">
      <g>
       <use style="fill:#262626;stroke:#262626;stroke-width:0.5;" x="234.589696809" xlink:href="#m8735711441" y="55.62"/>
      </g>
     </g>
    </g>
    <g id="xtick_9">
     <g id="line2d_25">
      <path clip-path="url(#p96925a06d4)" d="
M300.888 500.58
L300.888 55.62" style="fill:none;stroke:#ffffff;stroke-linecap:round;stroke-width:0.5;"/>
     </g>
     <g id="line2d_26">
      <g>
       <use style="fill:#262626;stroke:#262626;stroke-width:0.5;" x="300.887796341" xlink:href="#m8735711441" y="500.58"/>
      </g>
     </g>
     <g id="line2d_27">
      <g>
       <use style="fill:#262626;stroke:#262626;stroke-width:0.5;" x="300.887796341" xlink:href="#m8735711441" y="55.62"/>
      </g>
     </g>
    </g>
    <g id="xtick_10">
     <g id="line2d_28">
      <path clip-path="url(#p96925a06d4)" d="
M334.037 500.58
L334.037 55.62" style="fill:none;stroke:#ffffff;stroke-linecap:round;stroke-width:0.5;"/>
     </g>
     <g id="line2d_29">
      <g>
       <use style="fill:#262626;stroke:#262626;stroke-width:0.5;" x="334.036846107" xlink:href="#m8735711441" y="500.58"/>
      </g>
     </g>
     <g id="line2d_30">
      <g>
       <use style="fill:#262626;stroke:#262626;stroke-width:0.5;" x="334.036846107" xlink:href="#m8735711441" y="55.62"/>
      </g>
     </g>
    </g>
    <g id="xtick_11">
     <g id="line2d_31">
      <path clip-path="url(#p96925a06d4)" d="
M367.186 500.58
L367.186 55.62" style="fill:none;stroke:#ffffff;stroke-linecap:round;stroke-width:0.5;"/>
     </g>
     <g id="line2d_32">
      <g>
       <use style="fill:#262626;stroke:#262626;stroke-width:0.5;" x="367.185895872" xlink:href="#m8735711441" y="500.58"/>
      </g>
     </g>
     <g id="line2d_33">
      <g>
       <use style="fill:#262626;stroke:#262626;stroke-width:0.5;" x="367.185895872" xlink:href="#m8735711441" y="55.62"/>
      </g>
     </g>
    </g>
    <g id="xtick_12">
     <g id="line2d_34">
      <path clip-path="url(#p96925a06d4)" d="
M433.484 500.58
L433.484 55.62" style="fill:none;stroke:#ffffff;stroke-linecap:round;stroke-width:0.5;"/>
     </g>
     <g id="line2d_35">
      <g>
       <use style="fill:#262626;stroke:#262626;stroke-width:0.5;" x="433.483995404" xlink:href="#m8735711441" y="500.58"/>
      </g>
     </g>
     <g id="line2d_36">
      <g>
       <use style="fill:#262626;stroke:#262626;stroke-width:0.5;" x="433.483995404" xlink:href="#m8735711441" y="55.62"/>
      </g>
     </g>
    </g>
    <g id="xtick_13">
     <g id="line2d_37">
      <path clip-path="url(#p96925a06d4)" d="
M466.633 500.58
L466.633 55.62" style="fill:none;stroke:#ffffff;stroke-linecap:round;stroke-width:0.5;"/>
     </g>
     <g id="line2d_38">
      <g>
       <use style="fill:#262626;stroke:#262626;stroke-width:0.5;" x="466.63304517" xlink:href="#m8735711441" y="500.58"/>
      </g>
     </g>
     <g id="line2d_39">
      <g>
       <use style="fill:#262626;stroke:#262626;stroke-width:0.5;" x="466.63304517" xlink:href="#m8735711441" y="55.62"/>
      </g>
     </g>
    </g>
    <g id="xtick_14">
     <g id="line2d_40">
      <path clip-path="url(#p96925a06d4)" d="
M499.782 500.58
L499.782 55.62" style="fill:none;stroke:#ffffff;stroke-linecap:round;stroke-width:0.5;"/>
     </g>
     <g id="line2d_41">
      <g>
       <use style="fill:#262626;stroke:#262626;stroke-width:0.5;" x="499.782094936" xlink:href="#m8735711441" y="500.58"/>
      </g>
     </g>
     <g id="line2d_42">
      <g>
       <use style="fill:#262626;stroke:#262626;stroke-width:0.5;" x="499.782094936" xlink:href="#m8735711441" y="55.62"/>
      </g>
     </g>
    </g>
    <g id="xtick_15">
     <g id="line2d_43">
      <path clip-path="url(#p96925a06d4)" d="
M566.08 500.58
L566.08 55.62" style="fill:none;stroke:#ffffff;stroke-linecap:round;stroke-width:0.5;"/>
     </g>
     <g id="line2d_44">
      <g>
       <use style="fill:#262626;stroke:#262626;stroke-width:0.5;" x="566.080194467" xlink:href="#m8735711441" y="500.58"/>
      </g>
     </g>
     <g id="line2d_45">
      <g>
       <use style="fill:#262626;stroke:#262626;stroke-width:0.5;" x="566.080194467" xlink:href="#m8735711441" y="55.62"/>
      </g>
     </g>
    </g>
    <g id="xtick_16">
     <g id="line2d_46">
      <path clip-path="url(#p96925a06d4)" d="
M599.229 500.58
L599.229 55.62" style="fill:none;stroke:#ffffff;stroke-linecap:round;stroke-width:0.5;"/>
     </g>
     <g id="line2d_47">
      <g>
       <use style="fill:#262626;stroke:#262626;stroke-width:0.5;" x="599.229244233" xlink:href="#m8735711441" y="500.58"/>
      </g>
     </g>
     <g id="line2d_48">
      <g>
       <use style="fill:#262626;stroke:#262626;stroke-width:0.5;" x="599.229244233" xlink:href="#m8735711441" y="55.62"/>
      </g>
     </g>
    </g>
    <g id="xtick_17">
     <g id="line2d_49">
      <path clip-path="url(#p96925a06d4)" d="
M632.378 500.58
L632.378 55.62" style="fill:none;stroke:#ffffff;stroke-linecap:round;stroke-width:0.5;"/>
     </g>
     <g id="line2d_50">
      <g>
       <use style="fill:#262626;stroke:#262626;stroke-width:0.5;" x="632.378293999" xlink:href="#m8735711441" y="500.58"/>
      </g>
     </g>
     <g id="line2d_51">
      <g>
       <use style="fill:#262626;stroke:#262626;stroke-width:0.5;" x="632.378293999" xlink:href="#m8735711441" y="55.62"/>
      </g>
     </g>
    </g>
    <g id="xtick_18">
     <g id="line2d_52">
      <path clip-path="url(#p96925a06d4)" d="
M698.676 500.58
L698.676 55.62" style="fill:none;stroke:#ffffff;stroke-linecap:round;stroke-width:0.5;"/>
     </g>
     <g id="line2d_53">
      <g>
       <use style="fill:#262626;stroke:#262626;stroke-width:0.5;" x="698.67639353" xlink:href="#m8735711441" y="500.58"/>
      </g>
     </g>
     <g id="line2d_54">
      <g>
       <use style="fill:#262626;stroke:#262626;stroke-width:0.5;" x="698.67639353" xlink:href="#m8735711441" y="55.62"/>
      </g>
     </g>
    </g>
    <g id="xtick_19">
     <g id="line2d_55">
      <path clip-path="url(#p96925a06d4)" d="
M731.825 500.58
L731.825 55.62" style="fill:none;stroke:#ffffff;stroke-linecap:round;stroke-width:0.5;"/>
     </g>
     <g id="line2d_56">
      <g>
       <use style="fill:#262626;stroke:#262626;stroke-width:0.5;" x="731.825443296" xlink:href="#m8735711441" y="500.58"/>
      </g>
     </g>
     <g id="line2d_57">
      <g>
       <use style="fill:#262626;stroke:#262626;stroke-width:0.5;" x="731.825443296" xlink:href="#m8735711441" y="55.62"/>
      </g>
     </g>
    </g>
    <g id="xtick_20">
     <g id="line2d_58">
      <path clip-path="url(#p96925a06d4)" d="
M764.974 500.58
L764.974 55.62" style="fill:none;stroke:#ffffff;stroke-linecap:round;stroke-width:0.5;"/>
     </g>
     <g id="line2d_59">
      <g>
       <use style="fill:#262626;stroke:#262626;stroke-width:0.5;" x="764.974493062" xlink:href="#m8735711441" y="500.58"/>
      </g>
     </g>
     <g id="line2d_60">
      <g>
       <use style="fill:#262626;stroke:#262626;stroke-width:0.5;" x="764.974493062" xlink:href="#m8735711441" y="55.62"/>
      </g>
     </g>
    </g>
    <g id="text_6">
     <!-- Latency (ms) -->
     <defs>
      <path d="
M40.4375 19
L49.0781 17.875
Q47.6562 8.9375 41.8125 3.875
Q35.9844 -1.17188 27.4844 -1.17188
Q16.8438 -1.17188 10.375 5.78125
Q3.90625 12.75 3.90625 25.7344
Q3.90625 34.125 6.6875 40.4219
Q9.46875 46.7344 15.1562 49.875
Q20.8438 53.0312 27.5469 53.0312
Q35.9844 53.0312 41.3594 48.75
Q46.7344 44.4844 48.25 36.625
L39.7031 35.2969
Q38.4844 40.5312 35.375 43.1562
Q32.2812 45.7969 27.875 45.7969
Q21.2344 45.7969 17.0781 41.0312
Q12.9375 36.2812 12.9375 25.9844
Q12.9375 15.5312 16.9375 10.7969
Q20.9531 6.0625 27.3906 6.0625
Q32.5625 6.0625 36.0312 9.23438
Q39.5 12.4062 40.4375 19" id="ArialMT-63"/>
      <path d="
M40.4375 6.39062
Q35.5469 2.25 31.0312 0.53125
Q26.5156 -1.17188 21.3438 -1.17188
Q12.7969 -1.17188 8.20312 3
Q3.60938 7.17188 3.60938 13.6719
Q3.60938 17.4844 5.34375 20.625
Q7.07812 23.7812 9.89062 25.6875
Q12.7031 27.5938 16.2188 28.5625
Q18.7969 29.25 24.0312 29.8906
Q34.6719 31.1562 39.7031 32.9062
Q39.75 34.7188 39.75 35.2031
Q39.75 40.5781 37.25 42.7812
Q33.8906 45.75 27.25 45.75
Q21.0469 45.75 18.0938 43.5781
Q15.1406 41.4062 13.7188 35.8906
L5.125 37.0625
Q6.29688 42.5781 8.98438 45.9688
Q11.6719 49.3594 16.75 51.1875
Q21.8281 53.0312 28.5156 53.0312
Q35.1562 53.0312 39.2969 51.4688
Q43.4531 49.9062 45.4062 47.5312
Q47.3594 45.1719 48.1406 41.5469
Q48.5781 39.3125 48.5781 33.4531
L48.5781 21.7344
Q48.5781 9.46875 49.1406 6.21875
Q49.7031 2.98438 51.375 0
L42.1875 0
Q40.8281 2.73438 40.4375 6.39062
M39.7031 26.0312
Q34.9062 24.0781 25.3438 22.7031
Q19.9219 21.9219 17.6719 20.9375
Q15.4375 19.9688 14.2031 18.0938
Q12.9844 16.2188 12.9844 13.9219
Q12.9844 10.4062 15.6406 8.0625
Q18.3125 5.71875 23.4375 5.71875
Q28.5156 5.71875 32.4688 7.9375
Q36.4219 10.1562 38.2812 14.0156
Q39.7031 17 39.7031 22.7969
z
" id="ArialMT-61"/>
      <path d="
M6.20312 -19.9688
L5.21875 -11.7188
Q8.10938 -12.5 10.25 -12.5
Q13.1875 -12.5 14.9375 -11.5156
Q16.7031 -10.5469 17.8281 -8.79688
Q18.6562 -7.46875 20.5156 -2.25
Q20.75 -1.51562 21.2969 -0.09375
L1.60938 51.8594
L11.0781 51.8594
L21.875 21.8281
Q23.9688 16.1094 25.6406 9.8125
Q27.1562 15.875 29.25 21.625
L40.3281 51.8594
L49.125 51.8594
L29.3906 -0.875
Q26.2188 -9.42188 24.4688 -12.6406
Q22.125 -17 19.0938 -19.0156
Q16.0625 -21.0469 11.8594 -21.0469
Q9.32812 -21.0469 6.20312 -19.9688" id="ArialMT-79"/>
      <path d="
M42.0938 16.7031
L51.1719 15.5781
Q49.0312 7.625 43.2188 3.21875
Q37.4062 -1.17188 28.375 -1.17188
Q17 -1.17188 10.3281 5.82812
Q3.65625 12.8438 3.65625 25.4844
Q3.65625 38.5781 10.3906 45.7969
Q17.1406 53.0312 27.875 53.0312
Q38.2812 53.0312 44.875 45.9531
Q51.4688 38.875 51.4688 26.0312
Q51.4688 25.25 51.4219 23.6875
L12.75 23.6875
Q13.2344 15.1406 17.5781 10.5938
Q21.9219 6.0625 28.4219 6.0625
Q33.25 6.0625 36.6719 8.59375
Q40.0938 11.1406 42.0938 16.7031
M13.2344 30.9062
L42.1875 30.9062
Q41.6094 37.4531 38.875 40.7188
Q34.6719 45.7969 27.9844 45.7969
Q21.9219 45.7969 17.7969 41.75
Q13.6719 37.7031 13.2344 30.9062" id="ArialMT-65"/>
      <path d="
M25.7812 7.85938
L27.0469 0.09375
Q23.3438 -0.6875 20.4062 -0.6875
Q15.625 -0.6875 12.9844 0.828125
Q10.3594 2.34375 9.28125 4.8125
Q8.20312 7.28125 8.20312 15.1875
L8.20312 45.0156
L1.76562 45.0156
L1.76562 51.8594
L8.20312 51.8594
L8.20312 64.7031
L16.9375 69.9688
L16.9375 51.8594
L25.7812 51.8594
L25.7812 45.0156
L16.9375 45.0156
L16.9375 14.7031
Q16.9375 10.9375 17.4062 9.85938
Q17.875 8.79688 18.9219 8.15625
Q19.9688 7.51562 21.9219 7.51562
Q23.3906 7.51562 25.7812 7.85938" id="ArialMT-74"/>
      <path d="
M6.59375 0
L6.59375 51.8594
L14.4531 51.8594
L14.4531 44.5781
Q16.8906 48.3906 20.9375 50.7031
Q25 53.0312 30.1719 53.0312
Q35.9375 53.0312 39.625 50.6406
Q43.3125 48.25 44.8281 43.9531
Q50.9844 53.0312 60.8438 53.0312
Q68.5625 53.0312 72.7031 48.75
Q76.8594 44.4844 76.8594 35.5938
L76.8594 0
L68.1094 0
L68.1094 32.6719
Q68.1094 37.9375 67.25 40.25
Q66.4062 42.5781 64.1562 43.9844
Q61.9219 45.4062 58.8906 45.4062
Q53.4219 45.4062 49.7969 41.7656
Q46.1875 38.1406 46.1875 30.125
L46.1875 0
L37.4062 0
L37.4062 33.6875
Q37.4062 39.5469 35.25 42.4688
Q33.1094 45.4062 28.2188 45.4062
Q24.5156 45.4062 21.3594 43.4531
Q18.2188 41.5 16.7969 37.7344
Q15.375 33.9844 15.375 26.9062
L15.375 0
z
" id="ArialMT-6d"/>
      <path d="
M3.07812 15.4844
L11.7656 16.8438
Q12.5 11.625 15.8438 8.84375
Q19.1875 6.0625 25.2031 6.0625
Q31.25 6.0625 34.1719 8.51562
Q37.1094 10.9844 37.1094 14.3125
Q37.1094 17.2812 34.5156 19
Q32.7188 20.1719 25.5312 21.9688
Q15.875 24.4219 12.1406 26.2031
Q8.40625 27.9844 6.46875 31.125
Q4.54688 34.2812 4.54688 38.0938
Q4.54688 41.5469 6.125 44.5
Q7.71875 47.4688 10.4531 49.4219
Q12.5 50.9219 16.0312 51.9688
Q19.5781 53.0312 23.6406 53.0312
Q29.7344 53.0312 34.3438 51.2656
Q38.9688 49.5156 41.1562 46.5
Q43.3594 43.5 44.1875 38.4844
L35.5938 37.3125
Q35.0156 41.3125 32.2031 43.5469
Q29.3906 45.7969 24.2656 45.7969
Q18.2188 45.7969 15.625 43.7969
Q13.0312 41.7969 13.0312 39.1094
Q13.0312 37.4062 14.1094 36.0312
Q15.1875 34.625 17.4844 33.6875
Q18.7969 33.2031 25.25 31.4531
Q34.5781 28.9531 38.25 27.3594
Q41.9375 25.7812 44.0312 22.75
Q46.1406 19.7344 46.1406 15.2344
Q46.1406 10.8438 43.5781 6.95312
Q41.0156 3.07812 36.1719 0.953125
Q31.3438 -1.17188 25.25 -1.17188
Q15.1406 -1.17188 9.84375 3.03125
Q4.54688 7.23438 3.07812 15.4844" id="ArialMT-73"/>
      <path d="
M12.3594 -21.0469
L6.0625 -21.0469
Q20.6562 2.39062 20.6562 25.875
Q20.6562 35.0625 18.5625 44.0938
Q16.8906 51.4219 13.9219 58.1562
Q12.0156 62.5469 6.0625 72.7969
L12.3594 72.7969
Q21.5312 60.5469 25.9219 48.1875
Q29.6875 37.5469 29.6875 25.9219
Q29.6875 12.75 24.625 0.4375
Q19.5781 -11.8594 12.3594 -21.0469" id="ArialMT-29"/>
      <path d="
M6.59375 0
L6.59375 51.8594
L14.5 51.8594
L14.5 44.4844
Q20.2188 53.0312 31 53.0312
Q35.6875 53.0312 39.625 51.3438
Q43.5625 49.6562 45.5156 46.9219
Q47.4688 44.1875 48.25 40.4375
Q48.7344 37.9844 48.7344 31.8906
L48.7344 0
L39.9375 0
L39.9375 31.5469
Q39.9375 36.9219 38.9062 39.5781
Q37.8906 42.2344 35.2812 43.8125
Q32.6719 45.4062 29.1562 45.4062
Q23.5312 45.4062 19.4531 41.8438
Q15.375 38.2812 15.375 28.3281
L15.375 0
z
" id="ArialMT-6e"/>
      <path d="
M23.3906 -21.0469
Q16.1094 -11.8594 11.0781 0.4375
Q6.0625 12.75 6.0625 25.9219
Q6.0625 37.5469 9.8125 48.1875
Q14.2031 60.5469 23.3906 72.7969
L29.6875 72.7969
Q23.7812 62.6406 21.875 58.2969
Q18.8906 51.5625 17.1875 44.2344
Q15.0938 35.1094 15.0938 25.875
Q15.0938 2.39062 29.6875 -21.0469
z
" id="ArialMT-28"/>
      <path d="
M7.32812 0
L7.32812 71.5781
L16.7969 71.5781
L16.7969 8.45312
L52.0469 8.45312
L52.0469 0
z
" id="ArialMT-4c"/>
      <path id="ArialMT-20"/>
     </defs>
     <g style="fill:#262626;" transform="translate(456.20923125 529.29)scale(0.12 -0.12)">
      <use xlink:href="#ArialMT-4c"/>
      <use x="55.615234375" xlink:href="#ArialMT-61"/>
      <use x="111.23046875" xlink:href="#ArialMT-74"/>
      <use x="139.013671875" xlink:href="#ArialMT-65"/>
      <use x="194.62890625" xlink:href="#ArialMT-6e"/>
      <use x="250.244140625" xlink:href="#ArialMT-63"/>
      <use x="300.244140625" xlink:href="#ArialMT-79"/>
      <use x="350.244140625" xlink:href="#ArialMT-20"/>
      <use x="378.02734375" xlink:href="#ArialMT-28"/>
      <use x="411.328125" xlink:href="#ArialMT-6d"/>
      <use x="494.62890625" xlink:href="#ArialMT-73"/>
      <use x="544.62890625" xlink:href="#ArialMT-29"/>
     </g>
    </g>
   </g>
   <g id="matplotlib.axis_2">
    <g id="ytick_1">
     <g id="line2d_61">
      <path clip-path="url(#p96925a06d4)" d="
M136.8 500.58
L844.532 500.58" style="fill:none;stroke:#ffffff;stroke-linecap:round;stroke-width:0.5;"/>
     </g>
     <g id="line2d_62">
      <g>
       <use style="fill:#262626;stroke:#262626;stroke-width:0.5;" x="136.8" xlink:href="#m8735711441" y="500.58"/>
      </g>
     </g>
     <g id="line2d_63">
      <g>
       <use style="fill:#262626;stroke:#262626;stroke-width:0.5;" x="844.5322125" xlink:href="#m8735711441" y="500.58"/>
      </g>
     </g>
     <g id="text_7">
      <!-- 0.0 -->
      <defs>
       <path d="
M9.07812 0
L9.07812 10.0156
L19.0938 10.0156
L19.0938 0
z
" id="ArialMT-2e"/>
      </defs>
      <g style="fill:#262626;" transform="translate(117.1925 503.6821875)scale(0.12 -0.12)">
       <use xlink:href="#ArialMT-30"/>
       <use x="55.615234375" xlink:href="#ArialMT-2e"/>
       <use x="83.3984375" xlink:href="#ArialMT-30"/>
      </g>
     </g>
    </g>
    <g id="ytick_2">
     <g id="line2d_64">
      <path clip-path="url(#p96925a06d4)" d="
M136.8 411.588
L844.532 411.588" style="fill:none;stroke:#ffffff;stroke-linecap:round;stroke-width:0.5;"/>
     </g>
     <g id="line2d_65">
      <g>
       <use style="fill:#262626;stroke:#262626;stroke-width:0.5;" x="136.8" xlink:href="#m8735711441" y="411.588"/>
      </g>
     </g>
     <g id="line2d_66">
      <g>
       <use style="fill:#262626;stroke:#262626;stroke-width:0.5;" x="844.5322125" xlink:href="#m8735711441" y="411.588"/>
      </g>
     </g>
     <g id="text_8">
      <!-- 0.2 -->
      <g style="fill:#262626;" transform="translate(117.250625 414.6901875)scale(0.12 -0.12)">
       <use xlink:href="#ArialMT-30"/>
       <use x="55.615234375" xlink:href="#ArialMT-2e"/>
       <use x="83.3984375" xlink:href="#ArialMT-32"/>
      </g>
     </g>
    </g>
    <g id="ytick_3">
     <g id="line2d_67">
      <path clip-path="url(#p96925a06d4)" d="
M136.8 322.596
L844.532 322.596" style="fill:none;stroke:#ffffff;stroke-linecap:round;stroke-width:0.5;"/>
     </g>
     <g id="line2d_68">
      <g>
       <use style="fill:#262626;stroke:#262626;stroke-width:0.5;" x="136.8" xlink:href="#m8735711441" y="322.596"/>
      </g>
     </g>
     <g id="line2d_69">
      <g>
       <use style="fill:#262626;stroke:#262626;stroke-width:0.5;" x="844.5322125" xlink:href="#m8735711441" y="322.596"/>
      </g>
     </g>
     <g id="text_9">
      <!-- 0.4 -->
      <g style="fill:#262626;" transform="translate(117.198125 325.6981875)scale(0.12 -0.12)">
       <use xlink:href="#ArialMT-30"/>
       <use x="55.615234375" xlink:href="#ArialMT-2e"/>
       <use x="83.3984375" xlink:href="#ArialMT-34"/>
      </g>
     </g>
    </g>
    <g id="ytick_4">
     <g id="line2d_70">
      <path clip-path="url(#p96925a06d4)" d="
M136.8 233.604
L844.532 233.604" style="fill:none;stroke:#ffffff;stroke-linecap:round;stroke-width:0.5;"/>
     </g>
     <g id="line2d_71">
      <g>
       <use style="fill:#262626;stroke:#262626;stroke-width:0.5;" x="136.8" xlink:href="#m8735711441" y="233.604"/>
      </g>
     </g>
     <g id="line2d_72">
      <g>
       <use style="fill:#262626;stroke:#262626;stroke-width:0.5;" x="844.5322125" xlink:href="#m8735711441" y="233.604"/>
      </g>
     </g>
     <g id="text_10">
      <!-- 0.6 -->
      <g style="fill:#262626;" transform="translate(117.168125 236.7061875)scale(0.12 -0.12)">
       <use xlink:href="#ArialMT-30"/>
       <use x="55.615234375" xlink:href="#ArialMT-2e"/>
       <use x="83.3984375" xlink:href="#ArialMT-36"/>
      </g>
     </g>
    </g>
    <g id="ytick_5">
     <g id="line2d_73">
      <path clip-path="url(#p96925a06d4)" d="
M136.8 144.612
L844.532 144.612" style="fill:none;stroke:#ffffff;stroke-linecap:round;stroke-width:0.5;"/>
     </g>
     <g id="line2d_74">
      <g>
       <use style="fill:#262626;stroke:#262626;stroke-width:0.5;" x="136.8" xlink:href="#m8735711441" y="144.612"/>
      </g>
     </g>
     <g id="line2d_75">
      <g>
       <use style="fill:#262626;stroke:#262626;stroke-width:0.5;" x="844.5322125" xlink:href="#m8735711441" y="144.612"/>
      </g>
     </g>
     <g id="text_11">
      <!-- 0.8 -->
      <g style="fill:#262626;" transform="translate(117.145625 147.7141875)scale(0.12 -0.12)">
       <use xlink:href="#ArialMT-30"/>
       <use x="55.615234375" xlink:href="#ArialMT-2e"/>
       <use x="83.3984375" xlink:href="#ArialMT-38"/>
      </g>
     </g>
    </g>
    <g id="ytick_6">
     <g id="line2d_76">
      <path clip-path="url(#p96925a06d4)" d="
M136.8 55.62
L844.532 55.62" style="fill:none;stroke:#ffffff;stroke-linecap:round;stroke-width:0.5;"/>
     </g>
     <g id="line2d_77">
      <g>
       <use style="fill:#262626;stroke:#262626;stroke-width:0.5;" x="136.8" xlink:href="#m8735711441" y="55.62"/>
      </g>
     </g>
     <g id="line2d_78">
      <g>
       <use style="fill:#262626;stroke:#262626;stroke-width:0.5;" x="844.5322125" xlink:href="#m8735711441" y="55.62"/>
      </g>
     </g>
     <g id="text_12">
      <!-- 1.0 -->
      <g style="fill:#262626;" transform="translate(118.000625 58.7221875)scale(0.12 -0.12)">
       <use xlink:href="#ArialMT-31"/>
       <use x="55.615234375" xlink:href="#ArialMT-2e"/>
       <use x="83.3984375" xlink:href="#ArialMT-30"/>
      </g>
     </g>
    </g>
    <g id="ytick_7">
     <g id="line2d_79">
      <path clip-path="url(#p96925a06d4)" d="
M136.8 478.332
L844.532 478.332" style="fill:none;stroke:#ffffff;stroke-linecap:round;stroke-width:0.5;"/>
     </g>
     <g id="line2d_80">
      <g>
       <use style="fill:#262626;stroke:#262626;stroke-width:0.5;" x="136.8" xlink:href="#m8735711441" y="478.332"/>
      </g>
     </g>
     <g id="line2d_81">
      <g>
       <use style="fill:#262626;stroke:#262626;stroke-width:0.5;" x="844.5322125" xlink:href="#m8735711441" y="478.332"/>
      </g>
     </g>
    </g>
    <g id="ytick_8">
     <g id="line2d_82">
      <path clip-path="url(#p96925a06d4)" d="
M136.8 456.084
L844.532 456.084" style="fill:none;stroke:#ffffff;stroke-linecap:round;stroke-width:0.5;"/>
     </g>
     <g id="line2d_83">
      <g>
       <use style="fill:#262626;stroke:#262626;stroke-width:0.5;" x="136.8" xlink:href="#m8735711441" y="456.084"/>
      </g>
     </g>
     <g id="line2d_84">
      <g>
       <use style="fill:#262626;stroke:#262626;stroke-width:0.5;" x="844.5322125" xlink:href="#m8735711441" y="456.084"/>
      </g>
     </g>
    </g>
    <g id="ytick_9">
     <g id="line2d_85">
      <path clip-path="url(#p96925a06d4)" d="
M136.8 433.836
L844.532 433.836" style="fill:none;stroke:#ffffff;stroke-linecap:round;stroke-width:0.5;"/>
     </g>
     <g id="line2d_86">
      <g>
       <use style="fill:#262626;stroke:#262626;stroke-width:0.5;" x="136.8" xlink:href="#m8735711441" y="433.836"/>
      </g>
     </g>
     <g id="line2d_87">
      <g>
       <use style="fill:#262626;stroke:#262626;stroke-width:0.5;" x="844.5322125" xlink:href="#m8735711441" y="433.836"/>
      </g>
     </g>
    </g>
    <g id="ytick_10">
     <g id="line2d_88">
      <path clip-path="url(#p96925a06d4)" d="
M136.8 389.34
L844.532 389.34" style="fill:none;stroke:#ffffff;stroke-linecap:round;stroke-width:0.5;"/>
     </g>
     <g id="line2d_89">
      <g>
       <use style="fill:#262626;stroke:#262626;stroke-width:0.5;" x="136.8" xlink:href="#m8735711441" y="389.34"/>
      </g>
     </g>
     <g id="line2d_90">
      <g>
       <use style="fill:#262626;stroke:#262626;stroke-width:0.5;" x="844.5322125" xlink:href="#m8735711441" y="389.34"/>
      </g>
     </g>
    </g>
    <g id="ytick_11">
     <g id="line2d_91">
      <path clip-path="url(#p96925a06d4)" d="
M136.8 367.092
L844.532 367.092" style="fill:none;stroke:#ffffff;stroke-linecap:round;stroke-width:0.5;"/>
     </g>
     <g id="line2d_92">
      <g>
       <use style="fill:#262626;stroke:#262626;stroke-width:0.5;" x="136.8" xlink:href="#m8735711441" y="367.092"/>
      </g>
     </g>
     <g id="line2d_93">
      <g>
       <use style="fill:#262626;stroke:#262626;stroke-width:0.5;" x="844.5322125" xlink:href="#m8735711441" y="367.092"/>
      </g>
     </g>
    </g>
    <g id="ytick_12">
     <g id="line2d_94">
      <path clip-path="url(#p96925a06d4)" d="
M136.8 344.844
L844.532 344.844" style="fill:none;stroke:#ffffff;stroke-linecap:round;stroke-width:0.5;"/>
     </g>
     <g id="line2d_95">
      <g>
       <use style="fill:#262626;stroke:#262626;stroke-width:0.5;" x="136.8" xlink:href="#m8735711441" y="344.844"/>
      </g>
     </g>
     <g id="line2d_96">
      <g>
       <use style="fill:#262626;stroke:#262626;stroke-width:0.5;" x="844.5322125" xlink:href="#m8735711441" y="344.844"/>
      </g>
     </g>
    </g>
    <g id="ytick_13">
     <g id="line2d_97">
      <path clip-path="url(#p96925a06d4)" d="
M136.8 300.348
L844.532 300.348" style="fill:none;stroke:#ffffff;stroke-linecap:round;stroke-width:0.5;"/>
     </g>
     <g id="line2d_98">
      <g>
       <use style="fill:#262626;stroke:#262626;stroke-width:0.5;" x="136.8" xlink:href="#m8735711441" y="300.348"/>
      </g>
     </g>
     <g id="line2d_99">
      <g>
       <use style="fill:#262626;stroke:#262626;stroke-width:0.5;" x="844.5322125" xlink:href="#m8735711441" y="300.348"/>
      </g>
     </g>
    </g>
    <g id="ytick_14">
     <g id="line2d_100">
      <path clip-path="url(#p96925a06d4)" d="
M136.8 278.1
L844.532 278.1" style="fill:none;stroke:#ffffff;stroke-linecap:round;stroke-width:0.5;"/>
     </g>
     <g id="line2d_101">
      <g>
       <use style="fill:#262626;stroke:#262626;stroke-width:0.5;" x="136.8" xlink:href="#m8735711441" y="278.1"/>
      </g>
     </g>
     <g id="line2d_102">
      <g>
       <use style="fill:#262626;stroke:#262626;stroke-width:0.5;" x="844.5322125" xlink:href="#m8735711441" y="278.1"/>
      </g>
     </g>
    </g>
    <g id="ytick_15">
     <g id="line2d_103">
      <path clip-path="url(#p96925a06d4)" d="
M136.8 255.852
L844.532 255.852" style="fill:none;stroke:#ffffff;stroke-linecap:round;stroke-width:0.5;"/>
     </g>
     <g id="line2d_104">
      <g>
       <use style="fill:#262626;stroke:#262626;stroke-width:0.5;" x="136.8" xlink:href="#m8735711441" y="255.852"/>
      </g>
     </g>
     <g id="line2d_105">
      <g>
       <use style="fill:#262626;stroke:#262626;stroke-width:0.5;" x="844.5322125" xlink:href="#m8735711441" y="255.852"/>
      </g>
     </g>
    </g>
    <g id="ytick_16">
     <g id="line2d_106">
      <path clip-path="url(#p96925a06d4)" d="
M136.8 211.356
L844.532 211.356" style="fill:none;stroke:#ffffff;stroke-linecap:round;stroke-width:0.5;"/>
     </g>
     <g id="line2d_107">
      <g>
       <use style="fill:#262626;stroke:#262626;stroke-width:0.5;" x="136.8" xlink:href="#m8735711441" y="211.356"/>
      </g>
     </g>
     <g id="line2d_108">
      <g>
       <use style="fill:#262626;stroke:#262626;stroke-width:0.5;" x="844.5322125" xlink:href="#m8735711441" y="211.356"/>
      </g>
     </g>
    </g>
    <g id="ytick_17">
     <g id="line2d_109">
      <path clip-path="url(#p96925a06d4)" d="
M136.8 189.108
L844.532 189.108" style="fill:none;stroke:#ffffff;stroke-linecap:round;stroke-width:0.5;"/>
     </g>
     <g id="line2d_110">
      <g>
       <use style="fill:#262626;stroke:#262626;stroke-width:0.5;" x="136.8" xlink:href="#m8735711441" y="189.108"/>
      </g>
     </g>
     <g id="line2d_111">
      <g>
       <use style="fill:#262626;stroke:#262626;stroke-width:0.5;" x="844.5322125" xlink:href="#m8735711441" y="189.108"/>
      </g>
     </g>
    </g>
    <g id="ytick_18">
     <g id="line2d_112">
      <path clip-path="url(#p96925a06d4)" d="
M136.8 166.86
L844.532 166.86" style="fill:none;stroke:#ffffff;stroke-linecap:round;stroke-width:0.5;"/>
     </g>
     <g id="line2d_113">
      <g>
       <use style="fill:#262626;stroke:#262626;stroke-width:0.5;" x="136.8" xlink:href="#m8735711441" y="166.86"/>
      </g>
     </g>
     <g id="line2d_114">
      <g>
       <use style="fill:#262626;stroke:#262626;stroke-width:0.5;" x="844.5322125" xlink:href="#m8735711441" y="166.86"/>
      </g>
     </g>
    </g>
    <g id="ytick_19">
     <g id="line2d_115">
      <path clip-path="url(#p96925a06d4)" d="
M136.8 122.364
L844.532 122.364" style="fill:none;stroke:#ffffff;stroke-linecap:round;stroke-width:0.5;"/>
     </g>
     <g id="line2d_116">
      <g>
       <use style="fill:#262626;stroke:#262626;stroke-width:0.5;" x="136.8" xlink:href="#m8735711441" y="122.364"/>
      </g>
     </g>
     <g id="line2d_117">
      <g>
       <use style="fill:#262626;stroke:#262626;stroke-width:0.5;" x="844.5322125" xlink:href="#m8735711441" y="122.364"/>
      </g>
     </g>
    </g>
    <g id="ytick_20">
     <g id="line2d_118">
      <path clip-path="url(#p96925a06d4)" d="
M136.8 100.116
L844.532 100.116" style="fill:none;stroke:#ffffff;stroke-linecap:round;stroke-width:0.5;"/>
     </g>
     <g id="line2d_119">
      <g>
       <use style="fill:#262626;stroke:#262626;stroke-width:0.5;" x="136.8" xlink:href="#m8735711441" y="100.116"/>
      </g>
     </g>
     <g id="line2d_120">
      <g>
       <use style="fill:#262626;stroke:#262626;stroke-width:0.5;" x="844.5322125" xlink:href="#m8735711441" y="100.116"/>
      </g>
     </g>
    </g>
    <g id="ytick_21">
     <g id="line2d_121">
      <path clip-path="url(#p96925a06d4)" d="
M136.8 77.868
L844.532 77.868" style="fill:none;stroke:#ffffff;stroke-linecap:round;stroke-width:0.5;"/>
     </g>
     <g id="line2d_122">
      <g>
       <use style="fill:#262626;stroke:#262626;stroke-width:0.5;" x="136.8" xlink:href="#m8735711441" y="77.868"/>
      </g>
     </g>
     <g id="line2d_123">
      <g>
       <use style="fill:#262626;stroke:#262626;stroke-width:0.5;" x="844.5322125" xlink:href="#m8735711441" y="77.868"/>
      </g>
     </g>
    </g>
    <g id="text_13">
     <!-- Cumulative probability -->
     <defs>
      <path d="
M14.7031 0
L6.54688 0
L6.54688 71.5781
L15.3281 71.5781
L15.3281 46.0469
Q20.9062 53.0312 29.5469 53.0312
Q34.3281 53.0312 38.5938 51.0938
Q42.875 49.1719 45.625 45.6719
Q48.3906 42.1875 49.9531 37.25
Q51.5156 32.3281 51.5156 26.7031
Q51.5156 13.375 44.9219 6.09375
Q38.3281 -1.17188 29.1094 -1.17188
Q19.9219 -1.17188 14.7031 6.5
z

M14.5938 26.3125
Q14.5938 17 17.1406 12.8438
Q21.2969 6.0625 28.375 6.0625
Q34.125 6.0625 38.3281 11.0625
Q42.5312 16.0625 42.5312 25.9844
Q42.5312 36.1406 38.5 40.9688
Q34.4688 45.7969 28.7656 45.7969
Q23 45.7969 18.7969 40.7969
Q14.5938 35.7969 14.5938 26.3125" id="ArialMT-62"/>
      <path d="
M21 0
L1.26562 51.8594
L10.5469 51.8594
L21.6875 20.7969
Q23.4844 15.7656 25 10.3594
Q26.1719 14.4531 28.2656 20.2188
L39.7969 51.8594
L48.8281 51.8594
L29.2031 0
z
" id="ArialMT-76"/>
      <path d="
M40.5781 0
L40.5781 7.625
Q34.5156 -1.17188 24.125 -1.17188
Q19.5312 -1.17188 15.5469 0.578125
Q11.5781 2.34375 9.64062 5
Q7.71875 7.67188 6.9375 11.5312
Q6.39062 14.1094 6.39062 19.7344
L6.39062 51.8594
L15.1875 51.8594
L15.1875 23.0938
Q15.1875 16.2188 15.7188 13.8125
Q16.5469 10.3594 19.2344 8.375
Q21.9219 6.39062 25.875 6.39062
Q29.8281 6.39062 33.2969 8.42188
Q36.7656 10.4531 38.2031 13.9375
Q39.6562 17.4375 39.6562 24.0781
L39.6562 51.8594
L48.4375 51.8594
L48.4375 0
z
" id="ArialMT-75"/>
      <path d="
M58.7969 25.0938
L68.2656 22.7031
Q65.2812 11.0312 57.5469 4.90625
Q49.8125 -1.21875 38.625 -1.21875
Q27.0469 -1.21875 19.7969 3.48438
Q12.5469 8.20312 8.76562 17.1406
Q4.98438 26.0781 4.98438 36.3281
Q4.98438 47.5156 9.25 55.8281
Q13.5312 64.1562 21.4062 68.4688
Q29.2969 72.7969 38.7656 72.7969
Q49.5156 72.7969 56.8281 67.3281
Q64.1562 61.8594 67.0469 51.9531
L57.7188 49.75
Q55.2188 57.5625 50.4844 61.125
Q45.75 64.7031 38.5781 64.7031
Q30.3281 64.7031 24.7812 60.7344
Q19.2344 56.7812 16.9844 50.1094
Q14.75 43.4531 14.75 36.375
Q14.75 27.25 17.4062 20.4375
Q20.0625 13.625 25.6719 10.25
Q31.2969 6.89062 37.8438 6.89062
Q45.7969 6.89062 51.3125 11.4688
Q56.8438 16.0625 58.7969 25.0938" id="ArialMT-43"/>
      <path d="
M6.59375 -19.875
L6.59375 51.8594
L14.5938 51.8594
L14.5938 45.125
Q17.4375 49.0781 21 51.0469
Q24.5625 53.0312 29.6406 53.0312
Q36.2812 53.0312 41.3594 49.6094
Q46.4375 46.1875 49.0156 39.9531
Q51.6094 33.7344 51.6094 26.3125
Q51.6094 18.3594 48.75 11.9844
Q45.9062 5.60938 40.4531 2.21875
Q35.0156 -1.17188 29 -1.17188
Q24.6094 -1.17188 21.1094 0.6875
Q17.625 2.54688 15.375 5.375
L15.375 -19.875
z

M14.5469 25.6406
Q14.5469 15.625 18.5938 10.8438
Q22.6562 6.0625 28.4219 6.0625
Q34.2812 6.0625 38.4531 11.0156
Q42.625 15.9688 42.625 26.375
Q42.625 36.2812 38.5469 41.2031
Q34.4688 46.1406 28.8125 46.1406
Q23.1875 46.1406 18.8594 40.8906
Q14.5469 35.6406 14.5469 25.6406" id="ArialMT-70"/>
      <path d="
M6.5 0
L6.5 51.8594
L14.4062 51.8594
L14.4062 44
Q17.4375 49.5156 20 51.2656
Q22.5625 53.0312 25.6406 53.0312
Q30.0781 53.0312 34.6719 50.2031
L31.6406 42.0469
Q28.4219 43.9531 25.2031 43.9531
Q22.3125 43.9531 20.0156 42.2188
Q17.7188 40.4844 16.75 37.4062
Q15.2812 32.7188 15.2812 27.1562
L15.2812 0
z
" id="ArialMT-72"/>
      <path d="
M6.39062 0
L6.39062 71.5781
L15.1875 71.5781
L15.1875 0
z
" id="ArialMT-6c"/>
      <path d="
M3.32812 25.9219
Q3.32812 40.3281 11.3281 47.2656
Q18.0156 53.0312 27.6406 53.0312
Q38.3281 53.0312 45.1094 46.0156
Q51.9062 39.0156 51.9062 26.6562
Q51.9062 16.6562 48.9062 10.9062
Q45.9062 5.17188 40.1562 2
Q34.4219 -1.17188 27.6406 -1.17188
Q16.75 -1.17188 10.0312 5.8125
Q3.32812 12.7969 3.32812 25.9219
M12.3594 25.9219
Q12.3594 15.9688 16.7031 11.0156
Q21.0469 6.0625 27.6406 6.0625
Q34.1875 6.0625 38.5312 11.0312
Q42.875 16.0156 42.875 26.2188
Q42.875 35.8438 38.5 40.7969
Q34.125 45.75 27.6406 45.75
Q21.0469 45.75 16.7031 40.8125
Q12.3594 35.8906 12.3594 25.9219" id="ArialMT-6f"/>
      <path d="
M6.64062 61.4688
L6.64062 71.5781
L15.4375 71.5781
L15.4375 61.4688
z

M6.64062 0
L6.64062 51.8594
L15.4375 51.8594
L15.4375 0
z
" id="ArialMT-69"/>
     </defs>
     <g style="fill:#262626;" transform="translate(109.62 337.0715625)rotate(-90.0)scale(0.12 -0.12)">
      <use xlink:href="#ArialMT-43"/>
      <use x="72.216796875" xlink:href="#ArialMT-75"/>
      <use x="127.83203125" xlink:href="#ArialMT-6d"/>
      <use x="211.1328125" xlink:href="#ArialMT-75"/>
      <use x="266.748046875" xlink:href="#ArialMT-6c"/>
      <use x="288.96484375" xlink:href="#ArialMT-61"/>
      <use x="344.580078125" xlink:href="#ArialMT-74"/>
      <use x="372.36328125" xlink:href="#ArialMT-69"/>
      <use x="394.580078125" xlink:href="#ArialMT-76"/>
      <use x="444.580078125" xlink:href="#ArialMT-65"/>
      <use x="500.1953125" xlink:href="#ArialMT-20"/>
      <use x="527.978515625" xlink:href="#ArialMT-70"/>
      <use x="583.59375" xlink:href="#ArialMT-72"/>
      <use x="616.89453125" xlink:href="#ArialMT-6f"/>
      <use x="672.509765625" xlink:href="#ArialMT-62"/>
      <use x="728.125" xlink:href="#ArialMT-61"/>
      <use x="783.740234375" xlink:href="#ArialMT-62"/>
      <use x="839.35546875" xlink:href="#ArialMT-69"/>
      <use x="861.572265625" xlink:href="#ArialMT-6c"/>
      <use x="883.7890625" xlink:href="#ArialMT-69"/>
      <use x="906.005859375" xlink:href="#ArialMT-74"/>
      <use x="933.7890625" xlink:href="#ArialMT-79"/>
     </g>
    </g>
   </g>
   <g id="line2d_124">
    <path clip-path="url(#p96925a06d4)" d="
M141.053 500.58
L141.645 497.604
L142.238 497.604
L142.831 496.116
L144.016 496.116
L144.609 494.627
L149.35 494.627
L149.942 491.651
L150.535 490.163
L151.128 487.187
L151.72 485.698
L152.313 482.722
L152.906 481.234
L154.091 461.888
L154.684 460.4
L155.276 455.935
L157.054 438.077
L157.647 435.101
L158.24 430.636
L158.832 427.66
L159.425 421.707
L160.018 414.267
L160.61 412.779
L161.203 400.873
L161.795 393.432
L162.388 387.48
L162.981 385.992
L163.573 380.039
L164.166 375.575
L164.759 363.669
L165.351 360.693
L166.537 344.323
L167.129 344.323
L167.722 333.906
L168.315 329.442
L168.907 323.489
L169.5 319.024
L170.093 316.048
L170.685 311.584
L171.278 304.143
L171.871 301.166
L172.463 301.166
L173.649 292.238
L174.241 286.285
L174.834 283.309
L175.427 274.38
L176.019 269.915
L176.612 266.939
L177.204 260.986
L178.39 258.01
L178.982 255.034
L179.575 255.034
L180.168 253.545
L180.76 250.569
L181.353 244.616
L181.946 237.176
L182.538 232.711
L183.131 231.223
L183.724 231.223
L184.316 225.27
L185.502 222.294
L186.094 219.318
L187.28 219.318
L187.872 205.924
L189.058 205.924
L189.65 202.948
L190.243 202.948
L190.836 201.46
L192.021 192.531
L192.613 189.554
L193.799 180.625
L194.391 177.649
L196.169 173.185
L196.762 170.208
L197.355 168.72
L198.54 168.72
L199.133 165.744
L200.318 162.768
L200.911 158.303
L201.503 156.815
L202.096 153.839
L202.689 153.839
L203.281 152.35
L203.874 149.374
L208.022 138.957
L208.615 134.493
L214.542 134.493
L215.727 131.516
L217.505 131.516
L218.098 130.028
L218.69 127.052
L221.061 121.099
L222.246 121.099
L223.431 118.123
L225.209 118.123
L225.802 116.635
L228.173 116.635
L228.765 115.146
L229.951 115.146
L230.543 113.658
L232.321 113.658
L232.914 110.682
L234.099 110.682
L234.692 109.194
L237.655 109.194
L238.248 107.706
L238.84 107.706
L239.433 106.217
L241.211 106.217
L242.396 103.241
L242.989 103.241
L243.582 101.753
L245.36 101.753
L245.952 100.265
L247.138 100.265
L247.73 98.7767
L257.213 98.7767
L258.398 95.8003
L263.139 95.8003
L263.732 94.3122
L264.324 94.3122
L264.917 92.824
L267.88 92.824
L268.473 91.3359
L270.251 91.3359
L270.844 89.8477
L273.214 89.8477
L274.4 86.8714
L287.438 86.8714
L288.031 85.3832
L304.625 85.3832
L305.81 82.4069
L321.812 82.4069
L322.405 80.9187
L344.333 80.9187
L344.925 79.4306
L357.371 79.4306
L357.964 77.9424
L360.334 77.9424
L360.927 76.4542
L370.409 76.4542
L371.002 74.9661
L389.967 74.9661
L390.56 73.4779
L424.934 73.4779
L425.526 71.9898
L441.528 71.9898
L442.12 70.5016
L461.085 70.5016
L461.678 69.0134
L506.127 69.0134
L506.72 67.5253
L525.092 67.5253
L525.685 66.0371
L551.761 66.0371
L552.354 64.549
L586.728 64.549
L587.32 63.0608
L609.249 63.0608
L609.841 61.5726
L642.437 61.5726
L643.03 60.0845
L733.113 60.0845
L733.706 58.5963
L734.298 58.5963
L734.298 58.5963" style="fill:none;stroke:#1b9e77;stroke-linecap:round;"/>
   </g>
   <g id="line2d_125">
    <path clip-path="url(#p96925a06d4)" d="
M139.175 500.58
L139.587 499.097
L143.711 499.097
L144.123 497.614
L146.597 497.614
L147.009 496.13
L147.422 496.13
L147.834 494.647
L149.071 494.647
L149.484 493.164
L151.133 493.164
L151.545 488.714
L151.958 485.748
L152.37 484.265
L152.782 484.265
L153.195 478.332
L153.607 476.849
L154.432 476.849
L154.844 473.882
L155.256 472.399
L156.081 459.05
L156.493 459.05
L157.318 456.084
L158.143 450.151
L158.968 447.185
L159.38 442.735
L160.205 439.769
L160.617 435.319
L161.029 433.836
L161.442 433.836
L162.679 429.386
L163.091 429.386
L164.328 424.937
L165.153 414.554
L165.565 414.554
L165.978 413.071
L166.39 408.622
L166.802 402.689
L167.215 399.722
L168.039 390.823
L168.452 389.34
L169.276 389.34
L169.689 387.857
L170.513 387.857
L171.75 378.958
L172.575 375.991
L173.4 365.609
L174.225 362.642
L174.637 359.676
L175.049 359.676
L175.874 353.743
L176.699 350.777
L177.111 344.844
L177.523 344.844
L178.348 335.945
L178.76 332.978
L179.997 332.978
L180.41 328.529
L180.822 325.562
L181.235 324.079
L181.647 319.63
L182.472 316.663
L182.884 312.214
L183.296 309.247
L183.709 309.247
L184.121 306.281
L184.533 306.281
L184.946 298.865
L186.595 292.932
L187.007 289.966
L187.42 279.583
L187.832 276.617
L188.244 272.167
L189.069 269.201
L189.482 266.234
L190.306 257.335
L191.956 251.402
L192.368 248.436
L192.78 246.953
L193.193 246.953
L193.605 239.537
L194.017 236.57
L194.43 236.57
L195.254 233.604
L195.667 230.638
L196.079 230.638
L196.491 229.154
L196.904 229.154
L197.316 224.705
L197.729 221.738
L198.141 220.255
L198.553 215.806
L198.966 214.322
L199.378 209.873
L199.79 208.39
L200.203 208.39
L200.615 206.906
L201.44 206.906
L201.852 205.423
L204.738 205.423
L205.563 202.457
L206.388 202.457
L206.8 198.007
L207.213 196.524
L208.037 196.524
L209.274 192.074
L209.687 189.108
L211.336 189.108
L211.748 186.142
L212.161 184.658
L212.573 181.692
L212.985 180.209
L213.398 175.759
L213.81 174.276
L214.223 174.276
L214.635 172.793
L215.047 172.793
L215.46 171.31
L215.872 165.377
L217.109 165.377
L217.521 163.894
L217.934 160.927
L218.346 159.444
L218.758 159.444
L219.995 154.994
L221.232 154.994
L221.645 153.511
L224.531 153.511
L224.944 149.062
L225.356 149.062
L225.768 146.095
L226.181 146.095
L226.593 144.612
L230.304 144.612
L230.717 143.129
L231.129 143.129
L232.366 138.679
L232.778 135.713
L233.191 135.713
L233.603 134.23
L234.428 134.23
L235.252 131.263
L236.902 131.263
L237.314 129.78
L238.551 129.78
L238.964 128.297
L239.376 128.297
L240.201 122.364
L241.025 122.364
L241.438 120.881
L242.675 120.881
L243.087 119.398
L243.499 119.398
L243.912 116.431
L244.324 116.431
L245.149 110.498
L245.561 110.498
L245.974 109.015
L246.386 106.049
L247.211 106.049
L247.623 104.566
L248.86 104.566
L249.272 103.082
L249.685 103.082
L250.097 101.599
L252.571 101.599
L252.983 100.116
L253.396 100.116
L253.808 98.6328
L254.633 98.6328
L255.045 97.1496
L255.458 97.1496
L255.87 95.6664
L257.107 95.6664
L257.519 94.1832
L258.344 94.1832
L258.756 91.2168
L260.406 91.2168
L261.23 88.2504
L265.354 88.2504
L265.766 86.7672
L267.003 86.7672
L267.416 85.284
L268.24 85.284
L268.653 83.8008
L269.065 83.8008
L269.477 80.8344
L272.364 80.8344
L272.776 79.3512
L273.189 79.3512
L273.601 77.868
L285.147 77.868
L285.559 76.3848
L293.806 76.3848
L294.219 73.4184
L300.404 73.4184
L300.816 71.9352
L307.001 71.9352
L307.414 70.452
L321.434 70.452
L321.846 68.9688
L337.515 68.9688
L337.928 67.4856
L349.473 67.4856
L349.886 66.0024
L353.597 66.0024
L354.009 64.5192
L356.483 64.5192
L356.896 63.036
L401.43 63.036
L401.842 61.5528
L404.728 61.5528
L405.141 60.0696
L412.151 60.0696
L412.563 58.5864
L495.858 58.5864
L496.27 57.1032
L551.525 57.1032
L551.937 55.62
L551.937 55.62" style="fill:none;stroke:#d95f02;stroke-dasharray:6.000000,6.000000;stroke-dashoffset:0.0;"/>
   </g>
   <g id="line2d_126">
    <path clip-path="url(#p96925a06d4)" d="
M136.8 500.58
L137.505 482.782
L138.914 479.815
L139.618 479.815
L141.027 476.849
L142.436 476.849
L143.141 472.399
L144.55 469.433
L145.254 464.983
L145.959 464.983
L147.368 462.017
L148.072 459.05
L149.481 456.084
L150.186 451.634
L150.89 450.151
L151.595 447.185
L152.299 445.702
L153.004 442.735
L153.708 442.735
L154.413 441.252
L155.117 441.252
L157.231 436.802
L157.935 433.836
L158.64 432.353
L159.344 429.386
L160.049 421.97
L161.458 421.97
L162.162 420.487
L163.571 408.622
L164.276 408.622
L164.98 407.138
L165.685 407.138
L167.094 404.172
L167.798 401.206
L168.503 399.722
L169.207 395.273
L169.912 393.79
L170.616 390.823
L171.321 386.374
L172.025 380.441
L172.73 378.958
L173.434 374.508
L175.548 365.609
L176.252 364.126
L176.957 359.676
L177.661 359.676
L178.366 356.71
L179.775 353.743
L180.479 344.844
L181.888 335.945
L186.82 315.18
L187.524 315.18
L188.229 306.281
L188.933 306.281
L189.638 301.831
L190.343 300.348
L191.047 300.348
L191.752 297.382
L192.456 291.449
L193.161 288.482
L194.57 279.583
L195.274 278.1
L196.683 272.167
L197.388 270.684
L199.501 270.684
L202.319 264.751
L203.024 260.302
L203.728 258.818
L204.433 258.818
L205.137 254.369
L205.842 251.402
L208.66 245.47
L209.364 245.47
L210.069 243.986
L210.773 243.986
L213.591 238.054
L215 238.054
L215.705 235.087
L216.409 235.087
L217.114 230.638
L217.818 227.671
L218.523 223.222
L219.227 221.738
L219.932 221.738
L220.636 218.772
L221.341 214.322
L222.045 214.322
L222.75 212.839
L223.454 212.839
L224.159 211.356
L226.272 211.356
L226.977 209.873
L227.681 206.906
L232.613 196.524
L233.317 193.558
L234.022 192.074
L236.135 192.074
L236.84 190.591
L237.544 190.591
L238.249 189.108
L238.953 184.658
L240.362 184.658
L241.067 183.175
L242.476 183.175
L243.181 181.692
L243.885 178.726
L246.703 178.726
L248.817 174.276
L249.521 171.31
L253.748 171.31
L254.453 169.826
L257.271 169.826
L257.975 168.343
L258.68 168.343
L259.384 166.86
L260.089 166.86
L260.793 165.377
L264.316 165.377
L265.02 163.894
L265.725 160.927
L268.543 160.927
L269.247 159.444
L271.361 159.444
L272.065 157.961
L274.179 157.961
L274.883 156.478
L276.292 156.478
L278.406 152.028
L281.224 152.028
L281.928 149.062
L285.451 149.062
L286.155 147.578
L288.269 147.578
L288.973 146.095
L289.678 146.095
L291.087 143.129
L292.496 143.129
L293.2 141.646
L296.019 141.646
L296.723 140.162
L302.359 140.162
L303.064 138.679
L305.882 138.679
L307.291 135.713
L314.336 135.713
L315.04 134.23
L318.563 134.23
L319.267 132.746
L322.085 132.746
L322.79 131.263
L324.903 131.263
L327.017 126.814
L334.766 126.814
L335.471 125.33
L339.698 125.33
L340.402 123.847
L341.811 123.847
L342.516 122.364
L348.857 122.364
L349.561 120.881
L350.97 120.881
L351.675 119.398
L377.037 119.398
L377.741 117.914
L381.264 117.914
L381.968 116.431
L383.377 116.431
L384.786 113.465
L389.013 113.465
L389.718 111.982
L392.536 111.982
L393.24 109.015
L395.354 109.015
L396.058 107.532
L410.149 107.532
L410.853 106.049
L422.125 106.049
L422.83 104.566
L431.988 104.566
L432.693 103.082
L450.305 103.082
L451.01 101.599
L459.464 101.599
L460.169 100.116
L487.644 100.116
L488.349 98.6328
L489.758 98.6328
L490.462 97.1496
L491.167 97.1496
L491.871 95.6664
L500.325 95.6664
L501.03 94.1832
L517.234 94.1832
L517.938 92.7
L541.891 92.7
L542.596 91.2168
L558.095 91.2168
L558.8 89.7336
L583.457 89.7336
L584.162 88.2504
L589.093 88.2504
L589.798 86.7672
L596.138 86.7672
L596.843 85.284
L598.252 85.284
L599.661 82.3176
L605.297 82.3176
L606.001 80.8344
L625.023 80.8344
L625.728 79.3512
L639.113 79.3512
L639.818 77.868
L652.499 77.868
L653.203 76.3848
L666.589 76.3848
L667.294 74.9016
L702.519 74.9016
L703.223 73.4184
L706.041 73.4184
L706.746 71.9352
L708.859 71.9352
L709.564 70.452
L710.268 70.452
L710.973 68.9688
L714.495 68.9688
L715.2 67.4856
L762.402 67.4856
L763.106 66.0024
L818.762 66.0024
L819.467 64.5192
L841.307 64.5192
L842.011 63.036
L842.716 63.036
L842.716 63.036" style="fill:none;stroke:#7570b3;stroke-dasharray:1.000000,3.000000;stroke-dashoffset:0.0;"/>
   </g>
   <g id="line2d_127">
    <path clip-path="url(#p96925a06d4)" d="
M136.982 500.58
L137.648 494.647
L138.314 491.681
L139.646 488.714
L140.312 488.714
L141.645 485.748
L142.311 485.748
L143.643 482.782
L144.31 482.782
L144.976 478.332
L145.642 478.332
L146.308 476.849
L147.64 476.849
L148.307 470.916
L149.639 467.95
L150.305 464.983
L150.971 460.534
L152.304 454.601
L152.97 444.218
L153.636 442.735
L154.968 436.802
L156.301 424.937
L156.967 420.487
L157.633 408.622
L158.299 401.206
L158.965 395.273
L159.631 390.823
L160.298 383.407
L160.964 377.474
L161.63 377.474
L162.296 370.058
L162.962 370.058
L163.629 364.126
L164.295 355.226
L164.961 352.26
L165.627 344.844
L166.293 335.945
L166.959 331.495
L167.626 331.495
L169.624 327.046
L170.29 322.596
L170.956 316.663
L171.623 307.764
L172.289 304.798
L172.955 304.798
L173.621 301.831
L174.287 300.348
L174.953 295.898
L175.62 294.415
L176.286 289.966
L176.952 288.482
L177.618 282.55
L178.284 282.55
L178.951 278.1
L179.617 275.134
L180.949 266.234
L181.615 264.751
L182.281 260.302
L182.948 258.818
L183.614 255.852
L184.28 251.402
L184.946 248.436
L185.612 242.503
L186.945 239.537
L187.611 239.537
L188.277 238.054
L188.943 233.604
L189.609 232.121
L190.275 227.671
L190.942 226.188
L191.608 226.188
L192.274 224.705
L192.94 221.738
L193.606 220.255
L194.939 220.255
L195.605 218.772
L196.271 218.772
L196.937 217.289
L197.603 214.322
L198.27 212.839
L198.936 212.839
L200.268 209.873
L201.6 209.873
L202.267 208.39
L202.933 208.39
L204.265 205.423
L204.931 205.423
L205.597 203.94
L207.596 203.94
L209.595 199.49
L210.261 193.558
L212.925 193.558
L213.592 192.074
L214.258 189.108
L214.924 189.108
L216.256 186.142
L217.589 186.142
L218.255 183.175
L220.919 183.175
L221.586 180.209
L222.252 180.209
L223.584 177.242
L226.249 177.242
L227.581 174.276
L228.247 174.276
L229.58 171.31
L232.244 171.31
L232.911 169.826
L236.908 169.826
L238.24 166.86
L238.906 166.86
L239.572 165.377
L240.238 165.377
L241.571 162.41
L253.562 162.41
L254.228 160.927
L266.219 160.927
L266.885 159.444
L267.552 159.444
L268.218 157.961
L270.216 157.961
L270.882 156.478
L271.549 156.478
L272.215 154.994
L274.213 154.994
L274.88 153.511
L277.544 153.511
L278.21 152.028
L290.868 152.028
L291.534 150.545
L310.853 150.545
L311.519 149.062
L314.85 149.062
L316.182 146.095
L333.503 146.095
L334.169 144.612
L336.167 144.612
L336.834 143.129
L346.16 143.129
L346.826 141.646
L356.153 141.646
L356.819 140.162
L359.484 140.162
L360.15 137.196
L360.816 135.713
L362.814 135.713
L363.481 134.23
L382.8 134.23
L383.466 132.746
L390.128 132.746
L390.794 131.263
L400.12 131.263
L400.786 129.78
L418.107 129.78
L418.773 128.297
L422.77 128.297
L423.436 126.814
L439.424 126.814
L440.091 125.33
L444.754 125.33
L445.42 123.847
L446.086 123.847
L446.752 122.364
L447.418 122.364
L448.085 120.881
L455.413 120.881
L456.079 119.398
L466.737 119.398
L467.404 117.914
L470.068 117.914
L470.735 116.431
L488.055 116.431
L488.721 114.948
L509.373 114.948
L510.039 113.465
L520.698 113.465
L521.364 111.982
L529.358 111.982
L530.024 110.498
L533.355 110.498
L534.021 109.015
L544.68 109.015
L545.346 107.532
L564.665 107.532
L565.331 106.049
L572.659 106.049
L573.325 104.566
L581.319 104.566
L581.985 103.082
L593.977 103.082
L594.643 101.599
L618.625 101.599
L619.291 100.116
L621.29 100.116
L621.956 98.6328
L623.954 98.6328
L624.621 97.1496
L628.618 97.1496
L629.284 95.6664
L635.946 95.6664
L636.612 94.1832
L649.935 94.1832
L650.601 92.7
L657.263 92.7
L657.929 91.2168
L673.917 91.2168
L674.584 89.7336
L679.247 89.7336
L679.913 88.2504
L682.578 88.2504
L683.244 86.7672
L691.904 86.7672
L692.57 85.284
L696.567 85.284
L697.233 83.8008
L699.232 83.8008
L700.564 80.8344
L709.891 80.8344
L710.557 79.3512
L727.877 79.3512
L728.544 77.868
L742.533 77.868
L743.199 76.3848
L803.155 76.3848
L803.821 74.9016
L803.821 74.9016" style="fill:none;stroke:#e7298a;stroke-dasharray:8.000000,4.000000,2.000000,4.000000;stroke-dashoffset:0.0;"/>
   </g>
   <g id="line2d_128">
    <path clip-path="url(#p96925a06d4)" d="
M136.981 500.58
L137.21 497.614
L137.439 497.614
L137.668 496.13
L138.127 496.13
L138.356 494.647
L139.272 494.647
L139.959 490.198
L140.188 490.198
L140.417 488.714
L141.105 488.714
L141.334 487.231
L141.563 487.231
L142.479 481.298
L142.708 481.298
L142.937 478.332
L143.853 478.332
L144.082 475.366
L144.311 475.366
L144.541 473.882
L144.77 473.882
L144.999 472.399
L145.457 472.399
L145.686 470.916
L146.144 470.916
L146.373 467.95
L146.602 466.466
L146.831 466.466
L147.289 463.5
L147.518 463.5
L147.977 460.534
L148.206 460.534
L148.435 459.05
L148.664 456.084
L148.893 454.601
L149.122 454.601
L149.351 451.634
L149.58 451.634
L149.809 448.668
L150.038 448.668
L150.267 442.735
L151.183 436.802
L151.642 430.87
L151.871 423.454
L152.329 420.487
L152.558 417.521
L153.016 405.655
L153.245 401.206
L153.474 401.206
L153.703 395.273
L153.932 393.79
L154.161 393.79
L155.078 381.924
L155.307 380.441
L155.536 380.441
L155.765 378.958
L156.223 373.025
L156.452 371.542
L156.681 368.575
L156.91 368.575
L157.139 367.092
L157.368 361.159
L157.597 359.676
L157.826 355.226
L158.055 355.226
L158.285 353.743
L158.514 347.81
L158.972 344.844
L159.201 338.911
L159.43 335.945
L159.659 331.495
L159.888 331.495
L160.117 330.012
L160.346 327.046
L160.575 325.562
L161.033 319.63
L161.491 316.663
L161.721 310.73
L162.179 304.798
L162.408 300.348
L162.866 297.382
L163.095 294.415
L163.324 294.415
L163.553 291.449
L163.782 289.966
L164.011 289.966
L164.24 286.999
L164.698 279.583
L165.157 273.65
L165.615 273.65
L165.844 270.684
L166.073 270.684
L166.531 267.718
L166.76 264.751
L167.447 264.751
L167.905 261.785
L168.364 261.785
L168.593 260.302
L168.822 257.335
L169.509 252.886
L169.738 252.886
L170.196 249.919
L170.425 249.919
L170.654 248.436
L170.883 248.436
L171.341 245.47
L171.57 245.47
L172.258 241.02
L172.487 241.02
L172.716 238.054
L172.945 238.054
L173.174 236.57
L174.319 236.57
L174.548 235.087
L174.777 235.087
L175.006 233.604
L175.465 233.604
L175.923 230.638
L176.152 230.638
L176.61 227.671
L177.068 227.671
L177.297 223.222
L177.984 223.222
L178.213 218.772
L178.672 218.772
L178.901 215.806
L179.13 214.322
L180.046 214.322
L180.504 211.356
L180.733 211.356
L180.962 209.873
L181.191 209.873
L181.42 206.906
L181.649 206.906
L181.878 205.423
L182.108 205.423
L182.337 203.94
L182.566 203.94
L182.795 200.974
L183.482 200.974
L183.711 199.49
L184.169 193.558
L184.627 193.558
L185.085 190.591
L185.544 190.591
L186.231 186.142
L188.98 186.142
L189.209 184.658
L189.667 184.658
L189.896 183.175
L190.583 183.175
L191.041 180.209
L191.499 180.209
L191.728 178.726
L192.645 178.726
L192.874 177.242
L193.332 177.242
L193.561 175.759
L193.79 175.759
L194.019 174.276
L194.248 174.276
L194.477 172.793
L194.935 172.793
L195.164 171.31
L196.539 171.31
L196.768 168.343
L197.455 168.343
L197.684 166.86
L197.913 166.86
L198.142 163.894
L200.662 163.894
L200.891 162.41
L202.036 162.41
L202.495 159.444
L202.953 159.444
L203.182 157.961
L206.618 157.961
L207.076 154.994
L207.305 154.994
L207.534 153.511
L207.992 153.511
L208.679 149.062
L208.908 149.062
L209.137 147.578
L209.596 147.578
L209.825 146.095
L211.886 146.095
L212.115 144.612
L212.573 144.612
L212.803 143.129
L213.49 143.129
L213.719 141.646
L214.177 141.646
L214.406 140.162
L214.635 140.162
L214.864 138.679
L216.239 138.679
L216.468 137.196
L216.697 132.746
L217.155 132.746
L217.384 131.263
L217.613 131.263
L217.842 129.78
L218.529 129.78
L218.758 128.297
L219.675 128.297
L219.904 125.33
L220.362 125.33
L220.591 123.847
L221.736 123.847
L221.965 122.364
L224.027 122.364
L224.256 120.881
L228.608 120.881
L228.837 119.398
L229.066 119.398
L229.295 117.914
L234.106 117.914
L234.793 113.465
L235.022 113.465
L235.48 110.498
L235.709 110.498
L235.938 109.015
L240.291 109.015
L240.52 107.532
L241.207 107.532
L241.436 106.049
L242.352 106.049
L242.581 104.566
L243.498 104.566
L243.727 103.082
L244.185 103.082
L244.414 101.599
L245.101 101.599
L245.33 98.6328
L247.392 98.6328
L247.621 95.6664
L252.66 95.6664
L252.889 94.1832
L253.118 94.1832
L253.347 92.7
L255.18 92.7
L255.409 91.2168
L255.867 91.2168
L256.096 88.2504
L256.554 88.2504
L256.783 86.7672
L259.99 86.7672
L260.219 85.284
L264.114 85.284
L264.343 83.8008
L268.466 83.8008
L268.924 80.8344
L269.611 80.8344
L269.84 79.3512
L270.528 79.3512
L270.757 77.868
L272.36 77.868
L272.589 76.3848
L279.461 76.3848
L279.69 74.9016
L281.523 74.9016
L281.752 73.4184
L281.981 73.4184
L282.21 71.9352
L284.73 71.9352
L284.959 70.452
L286.104 70.452
L286.333 67.4856
L296.641 67.4856
L297.099 64.5192
L298.703 64.5192
L298.932 63.036
L308.324 63.036
L308.782 60.0696
L311.989 60.0696
L312.218 58.5864
L313.592 58.5864
L313.821 57.1032
L366.049 57.1032
L366.278 55.62
L366.278 55.62" style="fill:none;stroke:#66a61e;stroke-linecap:round;"/>
    <defs>
     <path d="
M0 3
C0.795609 3 1.55874 2.6839 2.12132 2.12132
C2.6839 1.55874 3 0.795609 3 0
C3 -0.795609 2.6839 -1.55874 2.12132 -2.12132
C1.55874 -2.6839 0.795609 -3 0 -3
C-0.795609 -3 -1.55874 -2.6839 -2.12132 -2.12132
C-2.6839 -1.55874 -3 -0.795609 -3 0
C-3 0.795609 -2.6839 1.55874 -2.12132 2.12132
C-1.55874 2.6839 -0.795609 3 0 3
z
" id="mba827fb0e4" style="stroke:#000000;stroke-width:0.5;"/>
    </defs>
    <g clip-path="url(#p96925a06d4)">
     <use style="fill:#66a61e;stroke:#000000;stroke-width:0.5;" x="136.981292703" xlink:href="#mba827fb0e4" y="500.58"/>
     <use style="fill:#66a61e;stroke:#000000;stroke-width:0.5;" x="140.18823462" xlink:href="#mba827fb0e4" y="490.1976"/>
     <use style="fill:#66a61e;stroke:#000000;stroke-width:0.5;" x="142.937041977" xlink:href="#mba827fb0e4" y="478.332"/>
     <use style="fill:#66a61e;stroke:#000000;stroke-width:0.5;" x="146.373051174" xlink:href="#mba827fb0e4" y="467.9496"/>
     <use style="fill:#66a61e;stroke:#000000;stroke-width:0.5;" x="148.663723971" xlink:href="#mba827fb0e4" y="456.084"/>
     <use style="fill:#66a61e;stroke:#000000;stroke-width:0.5;" x="150.954396769" xlink:href="#mba827fb0e4" y="438.2856"/>
     <use style="fill:#66a61e;stroke:#000000;stroke-width:0.5;" x="153.245069566" xlink:href="#mba827fb0e4" y="401.2056"/>
     <use style="fill:#66a61e;stroke:#000000;stroke-width:0.5;" x="155.535742364" xlink:href="#mba827fb0e4" y="380.4408"/>
     <use style="fill:#66a61e;stroke:#000000;stroke-width:0.5;" x="157.826415161" xlink:href="#mba827fb0e4" y="355.2264"/>
     <use style="fill:#66a61e;stroke:#000000;stroke-width:0.5;" x="160.117087959" xlink:href="#mba827fb0e4" y="330.012"/>
     <use style="fill:#66a61e;stroke:#000000;stroke-width:0.5;" x="162.407760757" xlink:href="#mba827fb0e4" y="300.348"/>
     <use style="fill:#66a61e;stroke:#000000;stroke-width:0.5;" x="164.698433554" xlink:href="#mba827fb0e4" y="279.5832"/>
     <use style="fill:#66a61e;stroke:#000000;stroke-width:0.5;" x="167.676308191" xlink:href="#mba827fb0e4" y="263.268"/>
     <use style="fill:#66a61e;stroke:#000000;stroke-width:0.5;" x="170.196048268" xlink:href="#mba827fb0e4" y="249.9192"/>
     <use style="fill:#66a61e;stroke:#000000;stroke-width:0.5;" x="172.486721066" xlink:href="#mba827fb0e4" y="241.02"/>
     <use style="fill:#66a61e;stroke:#000000;stroke-width:0.5;" x="175.922730262" xlink:href="#mba827fb0e4" y="230.6376"/>
     <use style="fill:#66a61e;stroke:#000000;stroke-width:0.5;" x="179.129672179" xlink:href="#mba827fb0e4" y="214.3224"/>
     <use style="fill:#66a61e;stroke:#000000;stroke-width:0.5;" x="182.107546816" xlink:href="#mba827fb0e4" y="205.4232"/>
     <use style="fill:#66a61e;stroke:#000000;stroke-width:0.5;" x="185.085421453" xlink:href="#mba827fb0e4" y="190.5912"/>
     <use style="fill:#66a61e;stroke:#000000;stroke-width:0.5;" x="190.812103447" xlink:href="#mba827fb0e4" y="181.692"/>
     <use style="fill:#66a61e;stroke:#000000;stroke-width:0.5;" x="194.248112643" xlink:href="#mba827fb0e4" y="174.276"/>
     <use style="fill:#66a61e;stroke:#000000;stroke-width:0.5;" x="200.661996476" xlink:href="#mba827fb0e4" y="163.8936"/>
     <use style="fill:#66a61e;stroke:#000000;stroke-width:0.5;" x="207.304947589" xlink:href="#mba827fb0e4" y="154.9944"/>
     <use style="fill:#66a61e;stroke:#000000;stroke-width:0.5;" x="211.886293184" xlink:href="#mba827fb0e4" y="146.0952"/>
     <use style="fill:#66a61e;stroke:#000000;stroke-width:0.5;" x="216.2385715" xlink:href="#mba827fb0e4" y="138.6792"/>
     <use style="fill:#66a61e;stroke:#000000;stroke-width:0.5;" x="219.903647976" xlink:href="#mba827fb0e4" y="125.3304"/>
     <use style="fill:#66a61e;stroke:#000000;stroke-width:0.5;" x="229.295406446" xlink:href="#mba827fb0e4" y="117.9144"/>
     <use style="fill:#66a61e;stroke:#000000;stroke-width:0.5;" x="240.290635874" xlink:href="#mba827fb0e4" y="109.0152"/>
     <use style="fill:#66a61e;stroke:#000000;stroke-width:0.5;" x="245.101048749" xlink:href="#mba827fb0e4" y="101.5992"/>
     <use style="fill:#66a61e;stroke:#000000;stroke-width:0.5;" x="255.867210898" xlink:href="#mba827fb0e4" y="91.2168"/>
     <use style="fill:#66a61e;stroke:#000000;stroke-width:0.5;" x="268.924045844" xlink:href="#mba827fb0e4" y="80.8344"/>
     <use style="fill:#66a61e;stroke:#000000;stroke-width:0.5;" x="281.751813511" xlink:href="#mba827fb0e4" y="73.4184"/>
     <use style="fill:#66a61e;stroke:#000000;stroke-width:0.5;" x="298.702792213" xlink:href="#mba827fb0e4" y="64.5192"/>
     <use style="fill:#66a61e;stroke:#000000;stroke-width:0.5;" x="366.277639741" xlink:href="#mba827fb0e4" y="55.62"/>
    </g>
   </g>
   <g id="patch_3">
    <path d="
M136.8 55.62
L844.532 55.62" style="fill:none;"/>
   </g>
   <g id="patch_4">
    <path d="
M844.532 500.58
L844.532 55.62" style="fill:none;"/>
   </g>
   <g id="patch_5">
    <path d="
M136.8 500.58
L844.532 500.58" style="fill:none;"/>
   </g>
   <g id="patch_6">
    <path d="
M136.8 500.58
L136.8 55.62" style="fill:none;"/>
   </g>
   <g id="legend_1">
    <g id="line2d_129">
     <path d="
M862.685 63.3966
L882.677 63.3966" style="fill:none;stroke:#1b9e77;stroke-linecap:round;"/>
    </g>
    <g id="line2d_130"/>
    <g id="text_14">
     <!-- Ping (ms) - babel -->
     <defs>
      <path d="
M7.71875 0
L7.71875 71.5781
L34.7188 71.5781
Q41.8438 71.5781 45.6094 70.9062
Q50.875 70.0156 54.4375 67.5469
Q58.0156 65.0938 60.1875 60.6406
Q62.3594 56.2031 62.3594 50.875
Q62.3594 41.75 56.5469 35.4219
Q50.7344 29.1094 35.5469 29.1094
L17.1875 29.1094
L17.1875 0
z

M17.1875 37.5469
L35.6875 37.5469
Q44.875 37.5469 48.7344 40.9688
Q52.5938 44.3906 52.5938 50.5938
Q52.5938 55.0781 50.3125 58.2656
Q48.0469 61.4688 44.3438 62.5
Q41.9375 63.1406 35.5 63.1406
L17.1875 63.1406
z
" id="ArialMT-50"/>
      <path d="
M3.17188 21.4844
L3.17188 30.3281
L30.1719 30.3281
L30.1719 21.4844
z
" id="ArialMT-2d"/>
      <path d="
M4.98438 -4.29688
L13.5312 -5.5625
Q14.0625 -9.51562 16.5 -11.3281
Q19.7812 -13.7656 25.4375 -13.7656
Q31.5469 -13.7656 34.8594 -11.3281
Q38.1875 -8.89062 39.3594 -4.5
Q40.0469 -1.8125 39.9844 6.78125
Q34.2344 0 25.6406 0
Q14.9375 0 9.07812 7.71875
Q3.21875 15.4375 3.21875 26.2188
Q3.21875 33.6406 5.90625 39.9062
Q8.59375 46.1875 13.6875 49.6094
Q18.7969 53.0312 25.6875 53.0312
Q34.8594 53.0312 40.8281 45.6094
L40.8281 51.8594
L48.9219 51.8594
L48.9219 7.03125
Q48.9219 -5.07812 46.4531 -10.125
Q44 -15.1875 38.6406 -18.1094
Q33.2969 -21.0469 25.4844 -21.0469
Q16.2188 -21.0469 10.5 -16.875
Q4.78125 -12.7031 4.98438 -4.29688
M12.25 26.8594
Q12.25 16.6562 16.2969 11.9688
Q20.3594 7.28125 26.4688 7.28125
Q32.5156 7.28125 36.6094 11.9375
Q40.7188 16.6094 40.7188 26.5625
Q40.7188 36.0781 36.5 40.9062
Q32.2812 45.75 26.3125 45.75
Q20.4531 45.75 16.3438 40.9844
Q12.25 36.2344 12.25 26.8594" id="ArialMT-67"/>
     </defs>
     <g style="fill:#262626;" transform="translate(890.67405675 66.895175625)scale(0.09996 -0.09996)">
      <use xlink:href="#ArialMT-50"/>
      <use x="66.69921875" xlink:href="#ArialMT-69"/>
      <use x="88.916015625" xlink:href="#ArialMT-6e"/>
      <use x="144.53125" xlink:href="#ArialMT-67"/>
      <use x="200.146484375" xlink:href="#ArialMT-20"/>
      <use x="227.9296875" xlink:href="#ArialMT-28"/>
      <use x="261.23046875" xlink:href="#ArialMT-6d"/>
      <use x="344.53125" xlink:href="#ArialMT-73"/>
      <use x="394.53125" xlink:href="#ArialMT-29"/>
      <use x="427.83203125" xlink:href="#ArialMT-20"/>
      <use x="455.615234375" xlink:href="#ArialMT-2d"/>
      <use x="488.916015625" xlink:href="#ArialMT-20"/>
      <use x="516.69921875" xlink:href="#ArialMT-62"/>
      <use x="572.314453125" xlink:href="#ArialMT-61"/>
      <use x="627.9296875" xlink:href="#ArialMT-62"/>
      <use x="683.544921875" xlink:href="#ArialMT-65"/>
      <use x="739.16015625" xlink:href="#ArialMT-6c"/>
     </g>
    </g>
    <g id="line2d_131">
     <path d="
M862.685 77.7752
L882.677 77.7752" style="fill:none;stroke:#d95f02;stroke-dasharray:6.000000,6.000000;stroke-dashoffset:0.0;"/>
    </g>
    <g id="line2d_132"/>
    <g id="text_15">
     <!-- Ping (ms) - olsrd2 -->
     <defs>
      <path d="
M40.2344 0
L40.2344 6.54688
Q35.2969 -1.17188 25.7344 -1.17188
Q19.5312 -1.17188 14.3281 2.25
Q9.125 5.67188 6.26562 11.7969
Q3.42188 17.9219 3.42188 25.875
Q3.42188 33.6406 6 39.9688
Q8.59375 46.2969 13.7656 49.6562
Q18.9531 53.0312 25.3438 53.0312
Q30.0312 53.0312 33.6875 51.0469
Q37.3594 49.0781 39.6562 45.9062
L39.6562 71.5781
L48.3906 71.5781
L48.3906 0
z

M12.4531 25.875
Q12.4531 15.9219 16.6406 10.9844
Q20.8438 6.0625 26.5625 6.0625
Q32.3281 6.0625 36.3438 10.7656
Q40.375 15.4844 40.375 25.1406
Q40.375 35.7969 36.2656 40.7656
Q32.1719 45.75 26.1719 45.75
Q20.3125 45.75 16.375 40.9688
Q12.4531 36.1875 12.4531 25.875" id="ArialMT-64"/>
     </defs>
     <g style="fill:#262626;" transform="translate(890.67405675 81.273796875)scale(0.09996 -0.09996)">
      <use xlink:href="#ArialMT-50"/>
      <use x="66.69921875" xlink:href="#ArialMT-69"/>
      <use x="88.916015625" xlink:href="#ArialMT-6e"/>
      <use x="144.53125" xlink:href="#ArialMT-67"/>
      <use x="200.146484375" xlink:href="#ArialMT-20"/>
      <use x="227.9296875" xlink:href="#ArialMT-28"/>
      <use x="261.23046875" xlink:href="#ArialMT-6d"/>
      <use x="344.53125" xlink:href="#ArialMT-73"/>
      <use x="394.53125" xlink:href="#ArialMT-29"/>
      <use x="427.83203125" xlink:href="#ArialMT-20"/>
      <use x="455.615234375" xlink:href="#ArialMT-2d"/>
      <use x="488.916015625" xlink:href="#ArialMT-20"/>
      <use x="516.69921875" xlink:href="#ArialMT-6f"/>
      <use x="572.314453125" xlink:href="#ArialMT-6c"/>
      <use x="594.53125" xlink:href="#ArialMT-73"/>
      <use x="644.53125" xlink:href="#ArialMT-72"/>
      <use x="677.83203125" xlink:href="#ArialMT-64"/>
      <use x="733.447265625" xlink:href="#ArialMT-32"/>
     </g>
    </g>
    <g id="line2d_133">
     <path d="
M862.685 92.1538
L882.677 92.1538" style="fill:none;stroke:#7570b3;stroke-dasharray:1.000000,3.000000;stroke-dashoffset:0.0;"/>
    </g>
    <g id="line2d_134"/>
    <g id="text_16">
     <!-- Ping (ms) - olsrd -->
     <g style="fill:#262626;" transform="translate(890.67405675 95.652418125)scale(0.09996 -0.09996)">
      <use xlink:href="#ArialMT-50"/>
      <use x="66.69921875" xlink:href="#ArialMT-69"/>
      <use x="88.916015625" xlink:href="#ArialMT-6e"/>
      <use x="144.53125" xlink:href="#ArialMT-67"/>
      <use x="200.146484375" xlink:href="#ArialMT-20"/>
      <use x="227.9296875" xlink:href="#ArialMT-28"/>
      <use x="261.23046875" xlink:href="#ArialMT-6d"/>
      <use x="344.53125" xlink:href="#ArialMT-73"/>
      <use x="394.53125" xlink:href="#ArialMT-29"/>
      <use x="427.83203125" xlink:href="#ArialMT-20"/>
      <use x="455.615234375" xlink:href="#ArialMT-2d"/>
      <use x="488.916015625" xlink:href="#ArialMT-20"/>
      <use x="516.69921875" xlink:href="#ArialMT-6f"/>
      <use x="572.314453125" xlink:href="#ArialMT-6c"/>
      <use x="594.53125" xlink:href="#ArialMT-73"/>
      <use x="644.53125" xlink:href="#ArialMT-72"/>
      <use x="677.83203125" xlink:href="#ArialMT-64"/>
     </g>
    </g>
    <g id="line2d_135">
     <path d="
M862.685 106.532
L882.677 106.532" style="fill:none;stroke:#e7298a;stroke-dasharray:8.000000,4.000000,2.000000,4.000000;stroke-dashoffset:0.0;"/>
    </g>
    <g id="line2d_136"/>
    <g id="text_17">
     <!-- Ping (ms) - bmx6 -->
     <defs>
      <path d="
M0.734375 0
L19.6719 26.9531
L2.15625 51.8594
L13.1406 51.8594
L21.0938 39.7031
Q23.3438 36.2344 24.7031 33.8906
Q26.8594 37.1094 28.6562 39.5938
L37.4062 51.8594
L47.9062 51.8594
L29.9844 27.4375
L49.2656 0
L38.4844 0
L27.8281 16.1094
L25 20.4531
L11.375 0
z
" id="ArialMT-78"/>
     </defs>
     <g style="fill:#262626;" transform="translate(890.67405675 110.031039375)scale(0.09996 -0.09996)">
      <use xlink:href="#ArialMT-50"/>
      <use x="66.69921875" xlink:href="#ArialMT-69"/>
      <use x="88.916015625" xlink:href="#ArialMT-6e"/>
      <use x="144.53125" xlink:href="#ArialMT-67"/>
      <use x="200.146484375" xlink:href="#ArialMT-20"/>
      <use x="227.9296875" xlink:href="#ArialMT-28"/>
      <use x="261.23046875" xlink:href="#ArialMT-6d"/>
      <use x="344.53125" xlink:href="#ArialMT-73"/>
      <use x="394.53125" xlink:href="#ArialMT-29"/>
      <use x="427.83203125" xlink:href="#ArialMT-20"/>
      <use x="455.615234375" xlink:href="#ArialMT-2d"/>
      <use x="488.916015625" xlink:href="#ArialMT-20"/>
      <use x="516.69921875" xlink:href="#ArialMT-62"/>
      <use x="572.314453125" xlink:href="#ArialMT-6d"/>
      <use x="655.615234375" xlink:href="#ArialMT-78"/>
      <use x="705.615234375" xlink:href="#ArialMT-36"/>
     </g>
    </g>
    <g id="line2d_137">
     <path d="
M862.685 120.911
L882.677 120.911" style="fill:none;stroke:#66a61e;stroke-linecap:round;"/>
    </g>
    <g id="line2d_138">
     <g>
      <use style="fill:#66a61e;stroke:#000000;stroke-width:0.5;" x="872.68125675" xlink:href="#mba827fb0e4" y="120.911060625"/>
     </g>
    </g>
    <g id="text_18">
     <!-- Ping (ms) - batman-adv -->
     <g style="fill:#262626;" transform="translate(890.67405675 124.409660625)scale(0.09996 -0.09996)">
      <use xlink:href="#ArialMT-50"/>
      <use x="66.69921875" xlink:href="#ArialMT-69"/>
      <use x="88.916015625" xlink:href="#ArialMT-6e"/>
      <use x="144.53125" xlink:href="#ArialMT-67"/>
      <use x="200.146484375" xlink:href="#ArialMT-20"/>
      <use x="227.9296875" xlink:href="#ArialMT-28"/>
      <use x="261.23046875" xlink:href="#ArialMT-6d"/>
      <use x="344.53125" xlink:href="#ArialMT-73"/>
      <use x="394.53125" xlink:href="#ArialMT-29"/>
      <use x="427.83203125" xlink:href="#ArialMT-20"/>
      <use x="455.615234375" xlink:href="#ArialMT-2d"/>
      <use x="488.916015625" xlink:href="#ArialMT-20"/>
      <use x="516.69921875" xlink:href="#ArialMT-62"/>
      <use x="572.314453125" xlink:href="#ArialMT-61"/>
      <use x="627.9296875" xlink:href="#ArialMT-74"/>
      <use x="655.712890625" xlink:href="#ArialMT-6d"/>
      <use x="739.013671875" xlink:href="#ArialMT-61"/>
      <use x="794.62890625" xlink:href="#ArialMT-6e"/>
      <use x="850.244140625" xlink:href="#ArialMT-2d"/>
      <use x="883.544921875" xlink:href="#ArialMT-61"/>
      <use x="939.16015625" xlink:href="#ArialMT-64"/>
      <use x="994.775390625" xlink:href="#ArialMT-76"/>
     </g>
    </g>
   </g>
  </g>
  <g id="text_19">
   <!-- TCP download stream w/ping -->
   <defs>
    <path d="
M0 -1.21875
L20.75 72.7969
L27.7812 72.7969
L7.07812 -1.21875
z
" id="ArialMT-2f"/>
    <path d="
M16.1562 0
L0.296875 51.8594
L9.375 51.8594
L17.625 21.9219
L20.7031 10.7969
Q20.9062 11.625 23.3906 21.4844
L31.6406 51.8594
L40.6719 51.8594
L48.4375 21.7812
L51.0312 11.8594
L54 21.875
L62.8906 51.8594
L71.4375 51.8594
L55.2188 0
L46.0938 0
L37.8438 31.0625
L35.8438 39.8906
L25.3438 0
z
" id="ArialMT-77"/>
    <path d="
M25.9219 0
L25.9219 63.1406
L2.34375 63.1406
L2.34375 71.5781
L59.0781 71.5781
L59.0781 63.1406
L35.4062 63.1406
L35.4062 0
z
" id="ArialMT-54"/>
   </defs>
   <g style="fill:#262626;" transform="translate(456.36515625 10.1915625)scale(0.14 -0.14)">
    <use xlink:href="#ArialMT-54"/>
    <use x="61.083984375" xlink:href="#ArialMT-43"/>
    <use x="133.30078125" xlink:href="#ArialMT-50"/>
    <use x="198.25" xlink:href="#ArialMT-20"/>
    <use x="226.033203125" xlink:href="#ArialMT-64"/>
    <use x="281.6484375" xlink:href="#ArialMT-6f"/>
    <use x="337.263671875" xlink:href="#ArialMT-77"/>
    <use x="409.48046875" xlink:href="#ArialMT-6e"/>
    <use x="465.095703125" xlink:href="#ArialMT-6c"/>
    <use x="487.3125" xlink:href="#ArialMT-6f"/>
    <use x="542.927734375" xlink:href="#ArialMT-61"/>
    <use x="598.54296875" xlink:href="#ArialMT-64"/>
    <use x="654.158203125" xlink:href="#ArialMT-20"/>
    <use x="681.94140625" xlink:href="#ArialMT-73"/>
    <use x="731.94140625" xlink:href="#ArialMT-74"/>
    <use x="759.724609375" xlink:href="#ArialMT-72"/>
    <use x="793.025390625" xlink:href="#ArialMT-65"/>
    <use x="848.640625" xlink:href="#ArialMT-61"/>
    <use x="904.255859375" xlink:href="#ArialMT-6d"/>
    <use x="987.556640625" xlink:href="#ArialMT-20"/>
    <use x="1015.33984375" xlink:href="#ArialMT-77"/>
    <use x="1087.55664062" xlink:href="#ArialMT-2f"/>
    <use x="1115.33984375" xlink:href="#ArialMT-70"/>
    <use x="1170.95507812" xlink:href="#ArialMT-69"/>
    <use x="1193.171875" xlink:href="#ArialMT-6e"/>
    <use x="1248.78710938" xlink:href="#ArialMT-67"/>
   </g>
   <!-- Ping CDF plot -->
   <defs>
    <path d="
M7.71875 0
L7.71875 71.5781
L32.375 71.5781
Q40.7188 71.5781 45.125 70.5625
Q51.2656 69.1406 55.6094 65.4375
Q61.2812 60.6406 64.0781 53.1875
Q66.8906 45.75 66.8906 36.1875
Q66.8906 28.0312 64.9844 21.7344
Q63.0938 15.4375 60.1094 11.2969
Q57.125 7.17188 53.5781 4.79688
Q50.0469 2.4375 45.0469 1.21875
Q40.0469 0 33.5469 0
z

M17.1875 8.45312
L32.4688 8.45312
Q39.5469 8.45312 43.5781 9.76562
Q47.6094 11.0781 50 13.4844
Q53.375 16.8438 55.25 22.5312
Q57.125 28.2188 57.125 36.3281
Q57.125 47.5625 53.4375 53.5938
Q49.75 59.625 44.4844 61.6719
Q40.6719 63.1406 32.2344 63.1406
L17.1875 63.1406
z
" id="ArialMT-44"/>
    <path d="
M8.20312 0
L8.20312 71.5781
L56.5 71.5781
L56.5 63.1406
L17.6719 63.1406
L17.6719 40.9688
L51.2656 40.9688
L51.2656 32.5156
L17.6719 32.5156
L17.6719 0
z
" id="ArialMT-46"/>
   </defs>
   <g style="fill:#262626;" transform="translate(503.68078125 25.368)scale(0.14 -0.14)">
    <use xlink:href="#ArialMT-50"/>
    <use x="66.69921875" xlink:href="#ArialMT-69"/>
    <use x="88.916015625" xlink:href="#ArialMT-6e"/>
    <use x="144.53125" xlink:href="#ArialMT-67"/>
    <use x="200.146484375" xlink:href="#ArialMT-20"/>
    <use x="227.9296875" xlink:href="#ArialMT-43"/>
    <use x="300.146484375" xlink:href="#ArialMT-44"/>
    <use x="372.36328125" xlink:href="#ArialMT-46"/>
    <use x="433.447265625" xlink:href="#ArialMT-20"/>
    <use x="461.23046875" xlink:href="#ArialMT-70"/>
    <use x="516.845703125" xlink:href="#ArialMT-6c"/>
    <use x="539.0625" xlink:href="#ArialMT-6f"/>
    <use x="594.677734375" xlink:href="#ArialMT-74"/>
   </g>
  </g>
 </g>
 <defs>
  <clipPath id="p96925a06d4">
   <rect height="444.96" width="707.7322125" x="136.8" y="55.62"/>
  </clipPath>
 </defs>
</svg>
