<?xml version="1.0" encoding="utf-8" standalone="no"?>
<!DOCTYPE svg PUBLIC "-//W3C//DTD SVG 1.1//EN"
  "http://www.w3.org/Graphics/SVG/1.1/DTD/svg11.dtd">
<!-- Created with matplotlib (http://matplotlib.org/) -->
<svg height="556pt" version="1.1" viewBox="0 0 1094 556" width="1094pt" xmlns="http://www.w3.org/2000/svg" xmlns:xlink="http://www.w3.org/1999/xlink">
 <defs>
  <style type="text/css">
*{stroke-linecap:butt;stroke-linejoin:round;}
  </style>
 </defs>
 <g id="figure_1">
  <g id="patch_1">
   <path d="
M0 556.2
L1094.4 556.2
L1094.4 0
L0 0
z
" style="fill:#ffffff;"/>
  </g>
  <g id="axes_1">
   <g id="patch_2">
    <path d="
M136.8 500.58
L844.532 500.58
L844.532 55.62
L136.8 55.62
z
" style="fill:#eaeaf2;"/>
   </g>
   <g id="matplotlib.axis_1">
    <g id="xtick_1">
     <g id="line2d_1">
      <path clip-path="url(#p96925a06d4)" d="
M258.512 500.58
L258.512 55.62" style="fill:none;stroke:#ffffff;stroke-linecap:round;stroke-width:0.5;"/>
     </g>
     <g id="line2d_2">
      <defs>
       <path d="
M0 0
L0 0" id="m8735711441" style="stroke:#262626;stroke-width:0.5;"/>
      </defs>
      <g>
       <use style="fill:#262626;stroke:#262626;stroke-width:0.5;" x="258.512177313" xlink:href="#m8735711441" y="500.58"/>
      </g>
     </g>
     <g id="line2d_3">
      <g>
       <use style="fill:#262626;stroke:#262626;stroke-width:0.5;" x="258.512177313" xlink:href="#m8735711441" y="55.62"/>
      </g>
     </g>
     <g id="text_1">
      <!-- 200 -->
      <defs>
       <path d="
M4.15625 35.2969
Q4.15625 48 6.76562 55.7344
Q9.375 63.4844 14.5156 67.6719
Q19.6719 71.875 27.4844 71.875
Q33.25 71.875 37.5938 69.5469
Q41.9375 67.2344 44.7656 62.8594
Q47.6094 58.5 49.2188 52.2188
Q50.8281 45.9531 50.8281 35.2969
Q50.8281 22.7031 48.2344 14.9688
Q45.6562 7.23438 40.5 3
Q35.3594 -1.21875 27.4844 -1.21875
Q17.1406 -1.21875 11.2344 6.20312
Q4.15625 15.1406 4.15625 35.2969
M13.1875 35.2969
Q13.1875 17.6719 17.3125 11.8281
Q21.4375 6 27.4844 6
Q33.5469 6 37.6719 11.8594
Q41.7969 17.7188 41.7969 35.2969
Q41.7969 52.9844 37.6719 58.7812
Q33.5469 64.5938 27.3906 64.5938
Q21.3438 64.5938 17.7188 59.4688
Q13.1875 52.9375 13.1875 35.2969" id="ArialMT-30"/>
       <path d="
M50.3438 8.45312
L50.3438 0
L3.03125 0
Q2.9375 3.17188 4.04688 6.10938
Q5.85938 10.9375 9.82812 15.625
Q13.8125 20.3125 21.3438 26.4688
Q33.0156 36.0312 37.1094 41.625
Q41.2188 47.2188 41.2188 52.2031
Q41.2188 57.4219 37.4688 61
Q33.7344 64.5938 27.7344 64.5938
Q21.3906 64.5938 17.5781 60.7812
Q13.7656 56.9844 13.7188 50.25
L4.6875 51.1719
Q5.60938 61.2812 11.6562 66.5781
Q17.7188 71.875 27.9375 71.875
Q38.2344 71.875 44.2344 66.1562
Q50.25 60.4531 50.25 52
Q50.25 47.7031 48.4844 43.5469
Q46.7344 39.4062 42.6562 34.8125
Q38.5781 30.2188 29.1094 22.2188
Q21.1875 15.5781 18.9375 13.2031
Q16.7031 10.8438 15.2344 8.45312
z
" id="ArialMT-32"/>
      </defs>
      <g style="fill:#262626;" transform="translate(248.965614813 513.169375)scale(0.12 -0.12)">
       <use xlink:href="#ArialMT-32"/>
       <use x="55.615234375" xlink:href="#ArialMT-30"/>
       <use x="111.23046875" xlink:href="#ArialMT-30"/>
      </g>
     </g>
    </g>
    <g id="xtick_2">
     <g id="line2d_4">
      <path clip-path="url(#p96925a06d4)" d="
M381.885 500.58
L381.885 55.62" style="fill:none;stroke:#ffffff;stroke-linecap:round;stroke-width:0.5;"/>
     </g>
     <g id="line2d_5">
      <g>
       <use style="fill:#262626;stroke:#262626;stroke-width:0.5;" x="381.884816299" xlink:href="#m8735711441" y="500.58"/>
      </g>
     </g>
     <g id="line2d_6">
      <g>
       <use style="fill:#262626;stroke:#262626;stroke-width:0.5;" x="381.884816299" xlink:href="#m8735711441" y="55.62"/>
      </g>
     </g>
     <g id="text_2">
      <!-- 400 -->
      <defs>
       <path d="
M32.3281 0
L32.3281 17.1406
L1.26562 17.1406
L1.26562 25.2031
L33.9375 71.5781
L41.1094 71.5781
L41.1094 25.2031
L50.7812 25.2031
L50.7812 17.1406
L41.1094 17.1406
L41.1094 0
z

M32.3281 25.2031
L32.3281 57.4688
L9.90625 25.2031
z
" id="ArialMT-34"/>
      </defs>
      <g style="fill:#262626;" transform="translate(372.237941299 513.169375)scale(0.12 -0.12)">
       <use xlink:href="#ArialMT-34"/>
       <use x="55.615234375" xlink:href="#ArialMT-30"/>
       <use x="111.23046875" xlink:href="#ArialMT-30"/>
      </g>
     </g>
    </g>
    <g id="xtick_3">
     <g id="line2d_7">
      <path clip-path="url(#p96925a06d4)" d="
M505.257 500.58
L505.257 55.62" style="fill:none;stroke:#ffffff;stroke-linecap:round;stroke-width:0.5;"/>
     </g>
     <g id="line2d_8">
      <g>
       <use style="fill:#262626;stroke:#262626;stroke-width:0.5;" x="505.257455286" xlink:href="#m8735711441" y="500.58"/>
      </g>
     </g>
     <g id="line2d_9">
      <g>
       <use style="fill:#262626;stroke:#262626;stroke-width:0.5;" x="505.257455286" xlink:href="#m8735711441" y="55.62"/>
      </g>
     </g>
     <g id="text_3">
      <!-- 600 -->
      <defs>
       <path d="
M49.75 54.0469
L41.0156 53.375
Q39.8438 58.5469 37.7031 60.8906
Q34.125 64.6562 28.9062 64.6562
Q24.7031 64.6562 21.5312 62.3125
Q17.3906 59.2812 14.9844 53.4688
Q12.5938 47.6562 12.5 36.9219
Q15.6719 41.75 20.2656 44.0938
Q24.8594 46.4375 29.8906 46.4375
Q38.6719 46.4375 44.8438 39.9688
Q51.0312 33.5 51.0312 23.25
Q51.0312 16.5 48.125 10.7188
Q45.2188 4.9375 40.1406 1.85938
Q35.0625 -1.21875 28.6094 -1.21875
Q17.625 -1.21875 10.6875 6.85938
Q3.76562 14.9375 3.76562 33.5
Q3.76562 54.25 11.4219 63.6719
Q18.1094 71.875 29.4375 71.875
Q37.8906 71.875 43.2812 67.1406
Q48.6875 62.4062 49.75 54.0469
M13.875 23.1875
Q13.875 18.6562 15.7969 14.5
Q17.7188 10.3594 21.1875 8.17188
Q24.6562 6 28.4688 6
Q34.0312 6 38.0312 10.4844
Q42.0469 14.9844 42.0469 22.7031
Q42.0469 30.125 38.0781 34.3906
Q34.125 38.6719 28.125 38.6719
Q22.1719 38.6719 18.0156 34.3906
Q13.875 30.125 13.875 23.1875" id="ArialMT-36"/>
      </defs>
      <g style="fill:#262626;" transform="translate(495.760580286 513.169375)scale(0.12 -0.12)">
       <use xlink:href="#ArialMT-36"/>
       <use x="55.615234375" xlink:href="#ArialMT-30"/>
       <use x="111.23046875" xlink:href="#ArialMT-30"/>
      </g>
     </g>
    </g>
    <g id="xtick_4">
     <g id="line2d_10">
      <path clip-path="url(#p96925a06d4)" d="
M628.63 500.58
L628.63 55.62" style="fill:none;stroke:#ffffff;stroke-linecap:round;stroke-width:0.5;"/>
     </g>
     <g id="line2d_11">
      <g>
       <use style="fill:#262626;stroke:#262626;stroke-width:0.5;" x="628.630094273" xlink:href="#m8735711441" y="500.58"/>
      </g>
     </g>
     <g id="line2d_12">
      <g>
       <use style="fill:#262626;stroke:#262626;stroke-width:0.5;" x="628.630094273" xlink:href="#m8735711441" y="55.62"/>
      </g>
     </g>
     <g id="text_4">
      <!-- 800 -->
      <defs>
       <path d="
M17.6719 38.8125
Q12.2031 40.8281 9.5625 44.5312
Q6.9375 48.25 6.9375 53.4219
Q6.9375 61.2344 12.5469 66.5469
Q18.1719 71.875 27.4844 71.875
Q36.8594 71.875 42.5781 66.4219
Q48.2969 60.9844 48.2969 53.1719
Q48.2969 48.1875 45.6719 44.5
Q43.0625 40.8281 37.75 38.8125
Q44.3438 36.6719 47.7812 31.875
Q51.2188 27.0938 51.2188 20.4531
Q51.2188 11.2812 44.7188 5.03125
Q38.2344 -1.21875 27.6406 -1.21875
Q17.0469 -1.21875 10.5469 5.04688
Q4.04688 11.3281 4.04688 20.7031
Q4.04688 27.6875 7.59375 32.3906
Q11.1406 37.1094 17.6719 38.8125
M15.9219 53.7188
Q15.9219 48.6406 19.1875 45.4062
Q22.4688 42.1875 27.6875 42.1875
Q32.7656 42.1875 36.0156 45.375
Q39.2656 48.5781 39.2656 53.2188
Q39.2656 58.0625 35.9062 61.3594
Q32.5625 64.6562 27.5938 64.6562
Q22.5625 64.6562 19.2344 61.4219
Q15.9219 58.2031 15.9219 53.7188
M13.0938 20.6562
Q13.0938 16.8906 14.875 13.375
Q16.6562 9.85938 20.1719 7.92188
Q23.6875 6 27.7344 6
Q34.0312 6 38.125 10.0469
Q42.2344 14.1094 42.2344 20.3594
Q42.2344 26.7031 38.0156 30.8594
Q33.7969 35.0156 27.4375 35.0156
Q21.2344 35.0156 17.1562 30.9062
Q13.0938 26.8125 13.0938 20.6562" id="ArialMT-38"/>
      </defs>
      <g style="fill:#262626;" transform="translate(619.150094273 513.169375)scale(0.12 -0.12)">
       <use xlink:href="#ArialMT-38"/>
       <use x="55.615234375" xlink:href="#ArialMT-30"/>
       <use x="111.23046875" xlink:href="#ArialMT-30"/>
      </g>
     </g>
    </g>
    <g id="xtick_5">
     <g id="line2d_13">
      <path clip-path="url(#p96925a06d4)" d="
M752.003 500.58
L752.003 55.62" style="fill:none;stroke:#ffffff;stroke-linecap:round;stroke-width:0.5;"/>
     </g>
     <g id="line2d_14">
      <g>
       <use style="fill:#262626;stroke:#262626;stroke-width:0.5;" x="752.00273326" xlink:href="#m8735711441" y="500.58"/>
      </g>
     </g>
     <g id="line2d_15">
      <g>
       <use style="fill:#262626;stroke:#262626;stroke-width:0.5;" x="752.00273326" xlink:href="#m8735711441" y="55.62"/>
      </g>
     </g>
     <g id="text_5">
      <!-- 1000 -->
      <defs>
       <path d="
M37.25 0
L28.4688 0
L28.4688 56
Q25.2969 52.9844 20.1406 49.9531
Q14.9844 46.9219 10.8906 45.4062
L10.8906 53.9062
Q18.2656 57.375 23.7812 62.2969
Q29.2969 67.2344 31.5938 71.875
L37.25 71.875
z
" id="ArialMT-31"/>
      </defs>
      <g style="fill:#262626;" transform="translate(739.59679576 513.169375)scale(0.12 -0.12)">
       <use xlink:href="#ArialMT-31"/>
       <use x="55.615234375" xlink:href="#ArialMT-30"/>
       <use x="111.23046875" xlink:href="#ArialMT-30"/>
       <use x="166.845703125" xlink:href="#ArialMT-30"/>
      </g>
     </g>
    </g>
    <g id="xtick_6">
     <g id="line2d_16">
      <path clip-path="url(#p96925a06d4)" d="
M165.983 500.58
L165.983 55.62" style="fill:none;stroke:#ffffff;stroke-linecap:round;stroke-width:0.5;"/>
     </g>
     <g id="line2d_17">
      <g>
       <use style="fill:#262626;stroke:#262626;stroke-width:0.5;" x="165.982698073" xlink:href="#m8735711441" y="500.58"/>
      </g>
     </g>
     <g id="line2d_18">
      <g>
       <use style="fill:#262626;stroke:#262626;stroke-width:0.5;" x="165.982698073" xlink:href="#m8735711441" y="55.62"/>
      </g>
     </g>
    </g>
    <g id="xtick_7">
     <g id="line2d_19">
      <path clip-path="url(#p96925a06d4)" d="
M196.826 500.58
L196.826 55.62" style="fill:none;stroke:#ffffff;stroke-linecap:round;stroke-width:0.5;"/>
     </g>
     <g id="line2d_20">
      <g>
       <use style="fill:#262626;stroke:#262626;stroke-width:0.5;" x="196.825857819" xlink:href="#m8735711441" y="500.58"/>
      </g>
     </g>
     <g id="line2d_21">
      <g>
       <use style="fill:#262626;stroke:#262626;stroke-width:0.5;" x="196.825857819" xlink:href="#m8735711441" y="55.62"/>
      </g>
     </g>
    </g>
    <g id="xtick_8">
     <g id="line2d_22">
      <path clip-path="url(#p96925a06d4)" d="
M227.669 500.58
L227.669 55.62" style="fill:none;stroke:#ffffff;stroke-linecap:round;stroke-width:0.5;"/>
     </g>
     <g id="line2d_23">
      <g>
       <use style="fill:#262626;stroke:#262626;stroke-width:0.5;" x="227.669017566" xlink:href="#m8735711441" y="500.58"/>
      </g>
     </g>
     <g id="line2d_24">
      <g>
       <use style="fill:#262626;stroke:#262626;stroke-width:0.5;" x="227.669017566" xlink:href="#m8735711441" y="55.62"/>
      </g>
     </g>
    </g>
    <g id="xtick_9">
     <g id="line2d_25">
      <path clip-path="url(#p96925a06d4)" d="
M289.355 500.58
L289.355 55.62" style="fill:none;stroke:#ffffff;stroke-linecap:round;stroke-width:0.5;"/>
     </g>
     <g id="line2d_26">
      <g>
       <use style="fill:#262626;stroke:#262626;stroke-width:0.5;" x="289.355337059" xlink:href="#m8735711441" y="500.58"/>
      </g>
     </g>
     <g id="line2d_27">
      <g>
       <use style="fill:#262626;stroke:#262626;stroke-width:0.5;" x="289.355337059" xlink:href="#m8735711441" y="55.62"/>
      </g>
     </g>
    </g>
    <g id="xtick_10">
     <g id="line2d_28">
      <path clip-path="url(#p96925a06d4)" d="
M320.198 500.58
L320.198 55.62" style="fill:none;stroke:#ffffff;stroke-linecap:round;stroke-width:0.5;"/>
     </g>
     <g id="line2d_29">
      <g>
       <use style="fill:#262626;stroke:#262626;stroke-width:0.5;" x="320.198496806" xlink:href="#m8735711441" y="500.58"/>
      </g>
     </g>
     <g id="line2d_30">
      <g>
       <use style="fill:#262626;stroke:#262626;stroke-width:0.5;" x="320.198496806" xlink:href="#m8735711441" y="55.62"/>
      </g>
     </g>
    </g>
    <g id="xtick_11">
     <g id="line2d_31">
      <path clip-path="url(#p96925a06d4)" d="
M351.042 500.58
L351.042 55.62" style="fill:none;stroke:#ffffff;stroke-linecap:round;stroke-width:0.5;"/>
     </g>
     <g id="line2d_32">
      <g>
       <use style="fill:#262626;stroke:#262626;stroke-width:0.5;" x="351.041656553" xlink:href="#m8735711441" y="500.58"/>
      </g>
     </g>
     <g id="line2d_33">
      <g>
       <use style="fill:#262626;stroke:#262626;stroke-width:0.5;" x="351.041656553" xlink:href="#m8735711441" y="55.62"/>
      </g>
     </g>
    </g>
    <g id="xtick_12">
     <g id="line2d_34">
      <path clip-path="url(#p96925a06d4)" d="
M412.728 500.58
L412.728 55.62" style="fill:none;stroke:#ffffff;stroke-linecap:round;stroke-width:0.5;"/>
     </g>
     <g id="line2d_35">
      <g>
       <use style="fill:#262626;stroke:#262626;stroke-width:0.5;" x="412.727976046" xlink:href="#m8735711441" y="500.58"/>
      </g>
     </g>
     <g id="line2d_36">
      <g>
       <use style="fill:#262626;stroke:#262626;stroke-width:0.5;" x="412.727976046" xlink:href="#m8735711441" y="55.62"/>
      </g>
     </g>
    </g>
    <g id="xtick_13">
     <g id="line2d_37">
      <path clip-path="url(#p96925a06d4)" d="
M443.571 500.58
L443.571 55.62" style="fill:none;stroke:#ffffff;stroke-linecap:round;stroke-width:0.5;"/>
     </g>
     <g id="line2d_38">
      <g>
       <use style="fill:#262626;stroke:#262626;stroke-width:0.5;" x="443.571135793" xlink:href="#m8735711441" y="500.58"/>
      </g>
     </g>
     <g id="line2d_39">
      <g>
       <use style="fill:#262626;stroke:#262626;stroke-width:0.5;" x="443.571135793" xlink:href="#m8735711441" y="55.62"/>
      </g>
     </g>
    </g>
    <g id="xtick_14">
     <g id="line2d_40">
      <path clip-path="url(#p96925a06d4)" d="
M474.414 500.58
L474.414 55.62" style="fill:none;stroke:#ffffff;stroke-linecap:round;stroke-width:0.5;"/>
     </g>
     <g id="line2d_41">
      <g>
       <use style="fill:#262626;stroke:#262626;stroke-width:0.5;" x="474.41429554" xlink:href="#m8735711441" y="500.58"/>
      </g>
     </g>
     <g id="line2d_42">
      <g>
       <use style="fill:#262626;stroke:#262626;stroke-width:0.5;" x="474.41429554" xlink:href="#m8735711441" y="55.62"/>
      </g>
     </g>
    </g>
    <g id="xtick_15">
     <g id="line2d_43">
      <path clip-path="url(#p96925a06d4)" d="
M536.101 500.58
L536.101 55.62" style="fill:none;stroke:#ffffff;stroke-linecap:round;stroke-width:0.5;"/>
     </g>
     <g id="line2d_44">
      <g>
       <use style="fill:#262626;stroke:#262626;stroke-width:0.5;" x="536.100615033" xlink:href="#m8735711441" y="500.58"/>
      </g>
     </g>
     <g id="line2d_45">
      <g>
       <use style="fill:#262626;stroke:#262626;stroke-width:0.5;" x="536.100615033" xlink:href="#m8735711441" y="55.62"/>
      </g>
     </g>
    </g>
    <g id="xtick_16">
     <g id="line2d_46">
      <path clip-path="url(#p96925a06d4)" d="
M566.944 500.58
L566.944 55.62" style="fill:none;stroke:#ffffff;stroke-linecap:round;stroke-width:0.5;"/>
     </g>
     <g id="line2d_47">
      <g>
       <use style="fill:#262626;stroke:#262626;stroke-width:0.5;" x="566.94377478" xlink:href="#m8735711441" y="500.58"/>
      </g>
     </g>
     <g id="line2d_48">
      <g>
       <use style="fill:#262626;stroke:#262626;stroke-width:0.5;" x="566.94377478" xlink:href="#m8735711441" y="55.62"/>
      </g>
     </g>
    </g>
    <g id="xtick_17">
     <g id="line2d_49">
      <path clip-path="url(#p96925a06d4)" d="
M597.787 500.58
L597.787 55.62" style="fill:none;stroke:#ffffff;stroke-linecap:round;stroke-width:0.5;"/>
     </g>
     <g id="line2d_50">
      <g>
       <use style="fill:#262626;stroke:#262626;stroke-width:0.5;" x="597.786934526" xlink:href="#m8735711441" y="500.58"/>
      </g>
     </g>
     <g id="line2d_51">
      <g>
       <use style="fill:#262626;stroke:#262626;stroke-width:0.5;" x="597.786934526" xlink:href="#m8735711441" y="55.62"/>
      </g>
     </g>
    </g>
    <g id="xtick_18">
     <g id="line2d_52">
      <path clip-path="url(#p96925a06d4)" d="
M659.473 500.58
L659.473 55.62" style="fill:none;stroke:#ffffff;stroke-linecap:round;stroke-width:0.5;"/>
     </g>
     <g id="line2d_53">
      <g>
       <use style="fill:#262626;stroke:#262626;stroke-width:0.5;" x="659.47325402" xlink:href="#m8735711441" y="500.58"/>
      </g>
     </g>
     <g id="line2d_54">
      <g>
       <use style="fill:#262626;stroke:#262626;stroke-width:0.5;" x="659.47325402" xlink:href="#m8735711441" y="55.62"/>
      </g>
     </g>
    </g>
    <g id="xtick_19">
     <g id="line2d_55">
      <path clip-path="url(#p96925a06d4)" d="
M690.316 500.58
L690.316 55.62" style="fill:none;stroke:#ffffff;stroke-linecap:round;stroke-width:0.5;"/>
     </g>
     <g id="line2d_56">
      <g>
       <use style="fill:#262626;stroke:#262626;stroke-width:0.5;" x="690.316413766" xlink:href="#m8735711441" y="500.58"/>
      </g>
     </g>
     <g id="line2d_57">
      <g>
       <use style="fill:#262626;stroke:#262626;stroke-width:0.5;" x="690.316413766" xlink:href="#m8735711441" y="55.62"/>
      </g>
     </g>
    </g>
    <g id="xtick_20">
     <g id="line2d_58">
      <path clip-path="url(#p96925a06d4)" d="
M721.16 500.58
L721.16 55.62" style="fill:none;stroke:#ffffff;stroke-linecap:round;stroke-width:0.5;"/>
     </g>
     <g id="line2d_59">
      <g>
       <use style="fill:#262626;stroke:#262626;stroke-width:0.5;" x="721.159573513" xlink:href="#m8735711441" y="500.58"/>
      </g>
     </g>
     <g id="line2d_60">
      <g>
       <use style="fill:#262626;stroke:#262626;stroke-width:0.5;" x="721.159573513" xlink:href="#m8735711441" y="55.62"/>
      </g>
     </g>
    </g>
    <g id="xtick_21">
     <g id="line2d_61">
      <path clip-path="url(#p96925a06d4)" d="
M782.846 500.58
L782.846 55.62" style="fill:none;stroke:#ffffff;stroke-linecap:round;stroke-width:0.5;"/>
     </g>
     <g id="line2d_62">
      <g>
       <use style="fill:#262626;stroke:#262626;stroke-width:0.5;" x="782.845893007" xlink:href="#m8735711441" y="500.58"/>
      </g>
     </g>
     <g id="line2d_63">
      <g>
       <use style="fill:#262626;stroke:#262626;stroke-width:0.5;" x="782.845893007" xlink:href="#m8735711441" y="55.62"/>
      </g>
     </g>
    </g>
    <g id="xtick_22">
     <g id="line2d_64">
      <path clip-path="url(#p96925a06d4)" d="
M813.689 500.58
L813.689 55.62" style="fill:none;stroke:#ffffff;stroke-linecap:round;stroke-width:0.5;"/>
     </g>
     <g id="line2d_65">
      <g>
       <use style="fill:#262626;stroke:#262626;stroke-width:0.5;" x="813.689052753" xlink:href="#m8735711441" y="500.58"/>
      </g>
     </g>
     <g id="line2d_66">
      <g>
       <use style="fill:#262626;stroke:#262626;stroke-width:0.5;" x="813.689052753" xlink:href="#m8735711441" y="55.62"/>
      </g>
     </g>
    </g>
    <g id="text_6">
     <!-- Latency (ms) -->
     <defs>
      <path d="
M40.4375 19
L49.0781 17.875
Q47.6562 8.9375 41.8125 3.875
Q35.9844 -1.17188 27.4844 -1.17188
Q16.8438 -1.17188 10.375 5.78125
Q3.90625 12.75 3.90625 25.7344
Q3.90625 34.125 6.6875 40.4219
Q9.46875 46.7344 15.1562 49.875
Q20.8438 53.0312 27.5469 53.0312
Q35.9844 53.0312 41.3594 48.75
Q46.7344 44.4844 48.25 36.625
L39.7031 35.2969
Q38.4844 40.5312 35.375 43.1562
Q32.2812 45.7969 27.875 45.7969
Q21.2344 45.7969 17.0781 41.0312
Q12.9375 36.2812 12.9375 25.9844
Q12.9375 15.5312 16.9375 10.7969
Q20.9531 6.0625 27.3906 6.0625
Q32.5625 6.0625 36.0312 9.23438
Q39.5 12.4062 40.4375 19" id="ArialMT-63"/>
      <path d="
M40.4375 6.39062
Q35.5469 2.25 31.0312 0.53125
Q26.5156 -1.17188 21.3438 -1.17188
Q12.7969 -1.17188 8.20312 3
Q3.60938 7.17188 3.60938 13.6719
Q3.60938 17.4844 5.34375 20.625
Q7.07812 23.7812 9.89062 25.6875
Q12.7031 27.5938 16.2188 28.5625
Q18.7969 29.25 24.0312 29.8906
Q34.6719 31.1562 39.7031 32.9062
Q39.75 34.7188 39.75 35.2031
Q39.75 40.5781 37.25 42.7812
Q33.8906 45.75 27.25 45.75
Q21.0469 45.75 18.0938 43.5781
Q15.1406 41.4062 13.7188 35.8906
L5.125 37.0625
Q6.29688 42.5781 8.98438 45.9688
Q11.6719 49.3594 16.75 51.1875
Q21.8281 53.0312 28.5156 53.0312
Q35.1562 53.0312 39.2969 51.4688
Q43.4531 49.9062 45.4062 47.5312
Q47.3594 45.1719 48.1406 41.5469
Q48.5781 39.3125 48.5781 33.4531
L48.5781 21.7344
Q48.5781 9.46875 49.1406 6.21875
Q49.7031 2.98438 51.375 0
L42.1875 0
Q40.8281 2.73438 40.4375 6.39062
M39.7031 26.0312
Q34.9062 24.0781 25.3438 22.7031
Q19.9219 21.9219 17.6719 20.9375
Q15.4375 19.9688 14.2031 18.0938
Q12.9844 16.2188 12.9844 13.9219
Q12.9844 10.4062 15.6406 8.0625
Q18.3125 5.71875 23.4375 5.71875
Q28.5156 5.71875 32.4688 7.9375
Q36.4219 10.1562 38.2812 14.0156
Q39.7031 17 39.7031 22.7969
z
" id="ArialMT-61"/>
      <path d="
M6.20312 -19.9688
L5.21875 -11.7188
Q8.10938 -12.5 10.25 -12.5
Q13.1875 -12.5 14.9375 -11.5156
Q16.7031 -10.5469 17.8281 -8.79688
Q18.6562 -7.46875 20.5156 -2.25
Q20.75 -1.51562 21.2969 -0.09375
L1.60938 51.8594
L11.0781 51.8594
L21.875 21.8281
Q23.9688 16.1094 25.6406 9.8125
Q27.1562 15.875 29.25 21.625
L40.3281 51.8594
L49.125 51.8594
L29.3906 -0.875
Q26.2188 -9.42188 24.4688 -12.6406
Q22.125 -17 19.0938 -19.0156
Q16.0625 -21.0469 11.8594 -21.0469
Q9.32812 -21.0469 6.20312 -19.9688" id="ArialMT-79"/>
      <path d="
M42.0938 16.7031
L51.1719 15.5781
Q49.0312 7.625 43.2188 3.21875
Q37.4062 -1.17188 28.375 -1.17188
Q17 -1.17188 10.3281 5.82812
Q3.65625 12.8438 3.65625 25.4844
Q3.65625 38.5781 10.3906 45.7969
Q17.1406 53.0312 27.875 53.0312
Q38.2812 53.0312 44.875 45.9531
Q51.4688 38.875 51.4688 26.0312
Q51.4688 25.25 51.4219 23.6875
L12.75 23.6875
Q13.2344 15.1406 17.5781 10.5938
Q21.9219 6.0625 28.4219 6.0625
Q33.25 6.0625 36.6719 8.59375
Q40.0938 11.1406 42.0938 16.7031
M13.2344 30.9062
L42.1875 30.9062
Q41.6094 37.4531 38.875 40.7188
Q34.6719 45.7969 27.9844 45.7969
Q21.9219 45.7969 17.7969 41.75
Q13.6719 37.7031 13.2344 30.9062" id="ArialMT-65"/>
      <path d="
M25.7812 7.85938
L27.0469 0.09375
Q23.3438 -0.6875 20.4062 -0.6875
Q15.625 -0.6875 12.9844 0.828125
Q10.3594 2.34375 9.28125 4.8125
Q8.20312 7.28125 8.20312 15.1875
L8.20312 45.0156
L1.76562 45.0156
L1.76562 51.8594
L8.20312 51.8594
L8.20312 64.7031
L16.9375 69.9688
L16.9375 51.8594
L25.7812 51.8594
L25.7812 45.0156
L16.9375 45.0156
L16.9375 14.7031
Q16.9375 10.9375 17.4062 9.85938
Q17.875 8.79688 18.9219 8.15625
Q19.9688 7.51562 21.9219 7.51562
Q23.3906 7.51562 25.7812 7.85938" id="ArialMT-74"/>
      <path d="
M6.59375 0
L6.59375 51.8594
L14.4531 51.8594
L14.4531 44.5781
Q16.8906 48.3906 20.9375 50.7031
Q25 53.0312 30.1719 53.0312
Q35.9375 53.0312 39.625 50.6406
Q43.3125 48.25 44.8281 43.9531
Q50.9844 53.0312 60.8438 53.0312
Q68.5625 53.0312 72.7031 48.75
Q76.8594 44.4844 76.8594 35.5938
L76.8594 0
L68.1094 0
L68.1094 32.6719
Q68.1094 37.9375 67.25 40.25
Q66.4062 42.5781 64.1562 43.9844
Q61.9219 45.4062 58.8906 45.4062
Q53.4219 45.4062 49.7969 41.7656
Q46.1875 38.1406 46.1875 30.125
L46.1875 0
L37.4062 0
L37.4062 33.6875
Q37.4062 39.5469 35.25 42.4688
Q33.1094 45.4062 28.2188 45.4062
Q24.5156 45.4062 21.3594 43.4531
Q18.2188 41.5 16.7969 37.7344
Q15.375 33.9844 15.375 26.9062
L15.375 0
z
" id="ArialMT-6d"/>
      <path d="
M3.07812 15.4844
L11.7656 16.8438
Q12.5 11.625 15.8438 8.84375
Q19.1875 6.0625 25.2031 6.0625
Q31.25 6.0625 34.1719 8.51562
Q37.1094 10.9844 37.1094 14.3125
Q37.1094 17.2812 34.5156 19
Q32.7188 20.1719 25.5312 21.9688
Q15.875 24.4219 12.1406 26.2031
Q8.40625 27.9844 6.46875 31.125
Q4.54688 34.2812 4.54688 38.0938
Q4.54688 41.5469 6.125 44.5
Q7.71875 47.4688 10.4531 49.4219
Q12.5 50.9219 16.0312 51.9688
Q19.5781 53.0312 23.6406 53.0312
Q29.7344 53.0312 34.3438 51.2656
Q38.9688 49.5156 41.1562 46.5
Q43.3594 43.5 44.1875 38.4844
L35.5938 37.3125
Q35.0156 41.3125 32.2031 43.5469
Q29.3906 45.7969 24.2656 45.7969
Q18.2188 45.7969 15.625 43.7969
Q13.0312 41.7969 13.0312 39.1094
Q13.0312 37.4062 14.1094 36.0312
Q15.1875 34.625 17.4844 33.6875
Q18.7969 33.2031 25.25 31.4531
Q34.5781 28.9531 38.25 27.3594
Q41.9375 25.7812 44.0312 22.75
Q46.1406 19.7344 46.1406 15.2344
Q46.1406 10.8438 43.5781 6.95312
Q41.0156 3.07812 36.1719 0.953125
Q31.3438 -1.17188 25.25 -1.17188
Q15.1406 -1.17188 9.84375 3.03125
Q4.54688 7.23438 3.07812 15.4844" id="ArialMT-73"/>
      <path d="
M12.3594 -21.0469
L6.0625 -21.0469
Q20.6562 2.39062 20.6562 25.875
Q20.6562 35.0625 18.5625 44.0938
Q16.8906 51.4219 13.9219 58.1562
Q12.0156 62.5469 6.0625 72.7969
L12.3594 72.7969
Q21.5312 60.5469 25.9219 48.1875
Q29.6875 37.5469 29.6875 25.9219
Q29.6875 12.75 24.625 0.4375
Q19.5781 -11.8594 12.3594 -21.0469" id="ArialMT-29"/>
      <path d="
M6.59375 0
L6.59375 51.8594
L14.5 51.8594
L14.5 44.4844
Q20.2188 53.0312 31 53.0312
Q35.6875 53.0312 39.625 51.3438
Q43.5625 49.6562 45.5156 46.9219
Q47.4688 44.1875 48.25 40.4375
Q48.7344 37.9844 48.7344 31.8906
L48.7344 0
L39.9375 0
L39.9375 31.5469
Q39.9375 36.9219 38.9062 39.5781
Q37.8906 42.2344 35.2812 43.8125
Q32.6719 45.4062 29.1562 45.4062
Q23.5312 45.4062 19.4531 41.8438
Q15.375 38.2812 15.375 28.3281
L15.375 0
z
" id="ArialMT-6e"/>
      <path d="
M23.3906 -21.0469
Q16.1094 -11.8594 11.0781 0.4375
Q6.0625 12.75 6.0625 25.9219
Q6.0625 37.5469 9.8125 48.1875
Q14.2031 60.5469 23.3906 72.7969
L29.6875 72.7969
Q23.7812 62.6406 21.875 58.2969
Q18.8906 51.5625 17.1875 44.2344
Q15.0938 35.1094 15.0938 25.875
Q15.0938 2.39062 29.6875 -21.0469
z
" id="ArialMT-28"/>
      <path d="
M7.32812 0
L7.32812 71.5781
L16.7969 71.5781
L16.7969 8.45312
L52.0469 8.45312
L52.0469 0
z
" id="ArialMT-4c"/>
      <path id="ArialMT-20"/>
     </defs>
     <g style="fill:#262626;" transform="translate(456.20923125 529.29)scale(0.12 -0.12)">
      <use xlink:href="#ArialMT-4c"/>
      <use x="55.615234375" xlink:href="#ArialMT-61"/>
      <use x="111.23046875" xlink:href="#ArialMT-74"/>
      <use x="139.013671875" xlink:href="#ArialMT-65"/>
      <use x="194.62890625" xlink:href="#ArialMT-6e"/>
      <use x="250.244140625" xlink:href="#ArialMT-63"/>
      <use x="300.244140625" xlink:href="#ArialMT-79"/>
      <use x="350.244140625" xlink:href="#ArialMT-20"/>
      <use x="378.02734375" xlink:href="#ArialMT-28"/>
      <use x="411.328125" xlink:href="#ArialMT-6d"/>
      <use x="494.62890625" xlink:href="#ArialMT-73"/>
      <use x="544.62890625" xlink:href="#ArialMT-29"/>
     </g>
    </g>
   </g>
   <g id="matplotlib.axis_2">
    <g id="ytick_1">
     <g id="line2d_67">
      <path clip-path="url(#p96925a06d4)" d="
M136.8 500.58
L844.532 500.58" style="fill:none;stroke:#ffffff;stroke-linecap:round;stroke-width:0.5;"/>
     </g>
     <g id="line2d_68">
      <g>
       <use style="fill:#262626;stroke:#262626;stroke-width:0.5;" x="136.8" xlink:href="#m8735711441" y="500.58"/>
      </g>
     </g>
     <g id="line2d_69">
      <g>
       <use style="fill:#262626;stroke:#262626;stroke-width:0.5;" x="844.5322125" xlink:href="#m8735711441" y="500.58"/>
      </g>
     </g>
     <g id="text_7">
      <!-- 0.0 -->
      <defs>
       <path d="
M9.07812 0
L9.07812 10.0156
L19.0938 10.0156
L19.0938 0
z
" id="ArialMT-2e"/>
      </defs>
      <g style="fill:#262626;" transform="translate(117.1925 503.6821875)scale(0.12 -0.12)">
       <use xlink:href="#ArialMT-30"/>
       <use x="55.615234375" xlink:href="#ArialMT-2e"/>
       <use x="83.3984375" xlink:href="#ArialMT-30"/>
      </g>
     </g>
    </g>
    <g id="ytick_2">
     <g id="line2d_70">
      <path clip-path="url(#p96925a06d4)" d="
M136.8 411.588
L844.532 411.588" style="fill:none;stroke:#ffffff;stroke-linecap:round;stroke-width:0.5;"/>
     </g>
     <g id="line2d_71">
      <g>
       <use style="fill:#262626;stroke:#262626;stroke-width:0.5;" x="136.8" xlink:href="#m8735711441" y="411.588"/>
      </g>
     </g>
     <g id="line2d_72">
      <g>
       <use style="fill:#262626;stroke:#262626;stroke-width:0.5;" x="844.5322125" xlink:href="#m8735711441" y="411.588"/>
      </g>
     </g>
     <g id="text_8">
      <!-- 0.2 -->
      <g style="fill:#262626;" transform="translate(117.250625 414.6901875)scale(0.12 -0.12)">
       <use xlink:href="#ArialMT-30"/>
       <use x="55.615234375" xlink:href="#ArialMT-2e"/>
       <use x="83.3984375" xlink:href="#ArialMT-32"/>
      </g>
     </g>
    </g>
    <g id="ytick_3">
     <g id="line2d_73">
      <path clip-path="url(#p96925a06d4)" d="
M136.8 322.596
L844.532 322.596" style="fill:none;stroke:#ffffff;stroke-linecap:round;stroke-width:0.5;"/>
     </g>
     <g id="line2d_74">
      <g>
       <use style="fill:#262626;stroke:#262626;stroke-width:0.5;" x="136.8" xlink:href="#m8735711441" y="322.596"/>
      </g>
     </g>
     <g id="line2d_75">
      <g>
       <use style="fill:#262626;stroke:#262626;stroke-width:0.5;" x="844.5322125" xlink:href="#m8735711441" y="322.596"/>
      </g>
     </g>
     <g id="text_9">
      <!-- 0.4 -->
      <g style="fill:#262626;" transform="translate(117.198125 325.6981875)scale(0.12 -0.12)">
       <use xlink:href="#ArialMT-30"/>
       <use x="55.615234375" xlink:href="#ArialMT-2e"/>
       <use x="83.3984375" xlink:href="#ArialMT-34"/>
      </g>
     </g>
    </g>
    <g id="ytick_4">
     <g id="line2d_76">
      <path clip-path="url(#p96925a06d4)" d="
M136.8 233.604
L844.532 233.604" style="fill:none;stroke:#ffffff;stroke-linecap:round;stroke-width:0.5;"/>
     </g>
     <g id="line2d_77">
      <g>
       <use style="fill:#262626;stroke:#262626;stroke-width:0.5;" x="136.8" xlink:href="#m8735711441" y="233.604"/>
      </g>
     </g>
     <g id="line2d_78">
      <g>
       <use style="fill:#262626;stroke:#262626;stroke-width:0.5;" x="844.5322125" xlink:href="#m8735711441" y="233.604"/>
      </g>
     </g>
     <g id="text_10">
      <!-- 0.6 -->
      <g style="fill:#262626;" transform="translate(117.168125 236.7061875)scale(0.12 -0.12)">
       <use xlink:href="#ArialMT-30"/>
       <use x="55.615234375" xlink:href="#ArialMT-2e"/>
       <use x="83.3984375" xlink:href="#ArialMT-36"/>
      </g>
     </g>
    </g>
    <g id="ytick_5">
     <g id="line2d_79">
      <path clip-path="url(#p96925a06d4)" d="
M136.8 144.612
L844.532 144.612" style="fill:none;stroke:#ffffff;stroke-linecap:round;stroke-width:0.5;"/>
     </g>
     <g id="line2d_80">
      <g>
       <use style="fill:#262626;stroke:#262626;stroke-width:0.5;" x="136.8" xlink:href="#m8735711441" y="144.612"/>
      </g>
     </g>
     <g id="line2d_81">
      <g>
       <use style="fill:#262626;stroke:#262626;stroke-width:0.5;" x="844.5322125" xlink:href="#m8735711441" y="144.612"/>
      </g>
     </g>
     <g id="text_11">
      <!-- 0.8 -->
      <g style="fill:#262626;" transform="translate(117.145625 147.7141875)scale(0.12 -0.12)">
       <use xlink:href="#ArialMT-30"/>
       <use x="55.615234375" xlink:href="#ArialMT-2e"/>
       <use x="83.3984375" xlink:href="#ArialMT-38"/>
      </g>
     </g>
    </g>
    <g id="ytick_6">
     <g id="line2d_82">
      <path clip-path="url(#p96925a06d4)" d="
M136.8 55.62
L844.532 55.62" style="fill:none;stroke:#ffffff;stroke-linecap:round;stroke-width:0.5;"/>
     </g>
     <g id="line2d_83">
      <g>
       <use style="fill:#262626;stroke:#262626;stroke-width:0.5;" x="136.8" xlink:href="#m8735711441" y="55.62"/>
      </g>
     </g>
     <g id="line2d_84">
      <g>
       <use style="fill:#262626;stroke:#262626;stroke-width:0.5;" x="844.5322125" xlink:href="#m8735711441" y="55.62"/>
      </g>
     </g>
     <g id="text_12">
      <!-- 1.0 -->
      <g style="fill:#262626;" transform="translate(118.000625 58.7221875)scale(0.12 -0.12)">
       <use xlink:href="#ArialMT-31"/>
       <use x="55.615234375" xlink:href="#ArialMT-2e"/>
       <use x="83.3984375" xlink:href="#ArialMT-30"/>
      </g>
     </g>
    </g>
    <g id="ytick_7">
     <g id="line2d_85">
      <path clip-path="url(#p96925a06d4)" d="
M136.8 478.332
L844.532 478.332" style="fill:none;stroke:#ffffff;stroke-linecap:round;stroke-width:0.5;"/>
     </g>
     <g id="line2d_86">
      <g>
       <use style="fill:#262626;stroke:#262626;stroke-width:0.5;" x="136.8" xlink:href="#m8735711441" y="478.332"/>
      </g>
     </g>
     <g id="line2d_87">
      <g>
       <use style="fill:#262626;stroke:#262626;stroke-width:0.5;" x="844.5322125" xlink:href="#m8735711441" y="478.332"/>
      </g>
     </g>
    </g>
    <g id="ytick_8">
     <g id="line2d_88">
      <path clip-path="url(#p96925a06d4)" d="
M136.8 456.084
L844.532 456.084" style="fill:none;stroke:#ffffff;stroke-linecap:round;stroke-width:0.5;"/>
     </g>
     <g id="line2d_89">
      <g>
       <use style="fill:#262626;stroke:#262626;stroke-width:0.5;" x="136.8" xlink:href="#m8735711441" y="456.084"/>
      </g>
     </g>
     <g id="line2d_90">
      <g>
       <use style="fill:#262626;stroke:#262626;stroke-width:0.5;" x="844.5322125" xlink:href="#m8735711441" y="456.084"/>
      </g>
     </g>
    </g>
    <g id="ytick_9">
     <g id="line2d_91">
      <path clip-path="url(#p96925a06d4)" d="
M136.8 433.836
L844.532 433.836" style="fill:none;stroke:#ffffff;stroke-linecap:round;stroke-width:0.5;"/>
     </g>
     <g id="line2d_92">
      <g>
       <use style="fill:#262626;stroke:#262626;stroke-width:0.5;" x="136.8" xlink:href="#m8735711441" y="433.836"/>
      </g>
     </g>
     <g id="line2d_93">
      <g>
       <use style="fill:#262626;stroke:#262626;stroke-width:0.5;" x="844.5322125" xlink:href="#m8735711441" y="433.836"/>
      </g>
     </g>
    </g>
    <g id="ytick_10">
     <g id="line2d_94">
      <path clip-path="url(#p96925a06d4)" d="
M136.8 389.34
L844.532 389.34" style="fill:none;stroke:#ffffff;stroke-linecap:round;stroke-width:0.5;"/>
     </g>
     <g id="line2d_95">
      <g>
       <use style="fill:#262626;stroke:#262626;stroke-width:0.5;" x="136.8" xlink:href="#m8735711441" y="389.34"/>
      </g>
     </g>
     <g id="line2d_96">
      <g>
       <use style="fill:#262626;stroke:#262626;stroke-width:0.5;" x="844.5322125" xlink:href="#m8735711441" y="389.34"/>
      </g>
     </g>
    </g>
    <g id="ytick_11">
     <g id="line2d_97">
      <path clip-path="url(#p96925a06d4)" d="
M136.8 367.092
L844.532 367.092" style="fill:none;stroke:#ffffff;stroke-linecap:round;stroke-width:0.5;"/>
     </g>
     <g id="line2d_98">
      <g>
       <use style="fill:#262626;stroke:#262626;stroke-width:0.5;" x="136.8" xlink:href="#m8735711441" y="367.092"/>
      </g>
     </g>
     <g id="line2d_99">
      <g>
       <use style="fill:#262626;stroke:#262626;stroke-width:0.5;" x="844.5322125" xlink:href="#m8735711441" y="367.092"/>
      </g>
     </g>
    </g>
    <g id="ytick_12">
     <g id="line2d_100">
      <path clip-path="url(#p96925a06d4)" d="
M136.8 344.844
L844.532 344.844" style="fill:none;stroke:#ffffff;stroke-linecap:round;stroke-width:0.5;"/>
     </g>
     <g id="line2d_101">
      <g>
       <use style="fill:#262626;stroke:#262626;stroke-width:0.5;" x="136.8" xlink:href="#m8735711441" y="344.844"/>
      </g>
     </g>
     <g id="line2d_102">
      <g>
       <use style="fill:#262626;stroke:#262626;stroke-width:0.5;" x="844.5322125" xlink:href="#m8735711441" y="344.844"/>
      </g>
     </g>
    </g>
    <g id="ytick_13">
     <g id="line2d_103">
      <path clip-path="url(#p96925a06d4)" d="
M136.8 300.348
L844.532 300.348" style="fill:none;stroke:#ffffff;stroke-linecap:round;stroke-width:0.5;"/>
     </g>
     <g id="line2d_104">
      <g>
       <use style="fill:#262626;stroke:#262626;stroke-width:0.5;" x="136.8" xlink:href="#m8735711441" y="300.348"/>
      </g>
     </g>
     <g id="line2d_105">
      <g>
       <use style="fill:#262626;stroke:#262626;stroke-width:0.5;" x="844.5322125" xlink:href="#m8735711441" y="300.348"/>
      </g>
     </g>
    </g>
    <g id="ytick_14">
     <g id="line2d_106">
      <path clip-path="url(#p96925a06d4)" d="
M136.8 278.1
L844.532 278.1" style="fill:none;stroke:#ffffff;stroke-linecap:round;stroke-width:0.5;"/>
     </g>
     <g id="line2d_107">
      <g>
       <use style="fill:#262626;stroke:#262626;stroke-width:0.5;" x="136.8" xlink:href="#m8735711441" y="278.1"/>
      </g>
     </g>
     <g id="line2d_108">
      <g>
       <use style="fill:#262626;stroke:#262626;stroke-width:0.5;" x="844.5322125" xlink:href="#m8735711441" y="278.1"/>
      </g>
     </g>
    </g>
    <g id="ytick_15">
     <g id="line2d_109">
      <path clip-path="url(#p96925a06d4)" d="
M136.8 255.852
L844.532 255.852" style="fill:none;stroke:#ffffff;stroke-linecap:round;stroke-width:0.5;"/>
     </g>
     <g id="line2d_110">
      <g>
       <use style="fill:#262626;stroke:#262626;stroke-width:0.5;" x="136.8" xlink:href="#m8735711441" y="255.852"/>
      </g>
     </g>
     <g id="line2d_111">
      <g>
       <use style="fill:#262626;stroke:#262626;stroke-width:0.5;" x="844.5322125" xlink:href="#m8735711441" y="255.852"/>
      </g>
     </g>
    </g>
    <g id="ytick_16">
     <g id="line2d_112">
      <path clip-path="url(#p96925a06d4)" d="
M136.8 211.356
L844.532 211.356" style="fill:none;stroke:#ffffff;stroke-linecap:round;stroke-width:0.5;"/>
     </g>
     <g id="line2d_113">
      <g>
       <use style="fill:#262626;stroke:#262626;stroke-width:0.5;" x="136.8" xlink:href="#m8735711441" y="211.356"/>
      </g>
     </g>
     <g id="line2d_114">
      <g>
       <use style="fill:#262626;stroke:#262626;stroke-width:0.5;" x="844.5322125" xlink:href="#m8735711441" y="211.356"/>
      </g>
     </g>
    </g>
    <g id="ytick_17">
     <g id="line2d_115">
      <path clip-path="url(#p96925a06d4)" d="
M136.8 189.108
L844.532 189.108" style="fill:none;stroke:#ffffff;stroke-linecap:round;stroke-width:0.5;"/>
     </g>
     <g id="line2d_116">
      <g>
       <use style="fill:#262626;stroke:#262626;stroke-width:0.5;" x="136.8" xlink:href="#m8735711441" y="189.108"/>
      </g>
     </g>
     <g id="line2d_117">
      <g>
       <use style="fill:#262626;stroke:#262626;stroke-width:0.5;" x="844.5322125" xlink:href="#m8735711441" y="189.108"/>
      </g>
     </g>
    </g>
    <g id="ytick_18">
     <g id="line2d_118">
      <path clip-path="url(#p96925a06d4)" d="
M136.8 166.86
L844.532 166.86" style="fill:none;stroke:#ffffff;stroke-linecap:round;stroke-width:0.5;"/>
     </g>
     <g id="line2d_119">
      <g>
       <use style="fill:#262626;stroke:#262626;stroke-width:0.5;" x="136.8" xlink:href="#m8735711441" y="166.86"/>
      </g>
     </g>
     <g id="line2d_120">
      <g>
       <use style="fill:#262626;stroke:#262626;stroke-width:0.5;" x="844.5322125" xlink:href="#m8735711441" y="166.86"/>
      </g>
     </g>
    </g>
    <g id="ytick_19">
     <g id="line2d_121">
      <path clip-path="url(#p96925a06d4)" d="
M136.8 122.364
L844.532 122.364" style="fill:none;stroke:#ffffff;stroke-linecap:round;stroke-width:0.5;"/>
     </g>
     <g id="line2d_122">
      <g>
       <use style="fill:#262626;stroke:#262626;stroke-width:0.5;" x="136.8" xlink:href="#m8735711441" y="122.364"/>
      </g>
     </g>
     <g id="line2d_123">
      <g>
       <use style="fill:#262626;stroke:#262626;stroke-width:0.5;" x="844.5322125" xlink:href="#m8735711441" y="122.364"/>
      </g>
     </g>
    </g>
    <g id="ytick_20">
     <g id="line2d_124">
      <path clip-path="url(#p96925a06d4)" d="
M136.8 100.116
L844.532 100.116" style="fill:none;stroke:#ffffff;stroke-linecap:round;stroke-width:0.5;"/>
     </g>
     <g id="line2d_125">
      <g>
       <use style="fill:#262626;stroke:#262626;stroke-width:0.5;" x="136.8" xlink:href="#m8735711441" y="100.116"/>
      </g>
     </g>
     <g id="line2d_126">
      <g>
       <use style="fill:#262626;stroke:#262626;stroke-width:0.5;" x="844.5322125" xlink:href="#m8735711441" y="100.116"/>
      </g>
     </g>
    </g>
    <g id="ytick_21">
     <g id="line2d_127">
      <path clip-path="url(#p96925a06d4)" d="
M136.8 77.868
L844.532 77.868" style="fill:none;stroke:#ffffff;stroke-linecap:round;stroke-width:0.5;"/>
     </g>
     <g id="line2d_128">
      <g>
       <use style="fill:#262626;stroke:#262626;stroke-width:0.5;" x="136.8" xlink:href="#m8735711441" y="77.868"/>
      </g>
     </g>
     <g id="line2d_129">
      <g>
       <use style="fill:#262626;stroke:#262626;stroke-width:0.5;" x="844.5322125" xlink:href="#m8735711441" y="77.868"/>
      </g>
     </g>
    </g>
    <g id="text_13">
     <!-- Cumulative probability -->
     <defs>
      <path d="
M14.7031 0
L6.54688 0
L6.54688 71.5781
L15.3281 71.5781
L15.3281 46.0469
Q20.9062 53.0312 29.5469 53.0312
Q34.3281 53.0312 38.5938 51.0938
Q42.875 49.1719 45.625 45.6719
Q48.3906 42.1875 49.9531 37.25
Q51.5156 32.3281 51.5156 26.7031
Q51.5156 13.375 44.9219 6.09375
Q38.3281 -1.17188 29.1094 -1.17188
Q19.9219 -1.17188 14.7031 6.5
z

M14.5938 26.3125
Q14.5938 17 17.1406 12.8438
Q21.2969 6.0625 28.375 6.0625
Q34.125 6.0625 38.3281 11.0625
Q42.5312 16.0625 42.5312 25.9844
Q42.5312 36.1406 38.5 40.9688
Q34.4688 45.7969 28.7656 45.7969
Q23 45.7969 18.7969 40.7969
Q14.5938 35.7969 14.5938 26.3125" id="ArialMT-62"/>
      <path d="
M21 0
L1.26562 51.8594
L10.5469 51.8594
L21.6875 20.7969
Q23.4844 15.7656 25 10.3594
Q26.1719 14.4531 28.2656 20.2188
L39.7969 51.8594
L48.8281 51.8594
L29.2031 0
z
" id="ArialMT-76"/>
      <path d="
M40.5781 0
L40.5781 7.625
Q34.5156 -1.17188 24.125 -1.17188
Q19.5312 -1.17188 15.5469 0.578125
Q11.5781 2.34375 9.64062 5
Q7.71875 7.67188 6.9375 11.5312
Q6.39062 14.1094 6.39062 19.7344
L6.39062 51.8594
L15.1875 51.8594
L15.1875 23.0938
Q15.1875 16.2188 15.7188 13.8125
Q16.5469 10.3594 19.2344 8.375
Q21.9219 6.39062 25.875 6.39062
Q29.8281 6.39062 33.2969 8.42188
Q36.7656 10.4531 38.2031 13.9375
Q39.6562 17.4375 39.6562 24.0781
L39.6562 51.8594
L48.4375 51.8594
L48.4375 0
z
" id="ArialMT-75"/>
      <path d="
M58.7969 25.0938
L68.2656 22.7031
Q65.2812 11.0312 57.5469 4.90625
Q49.8125 -1.21875 38.625 -1.21875
Q27.0469 -1.21875 19.7969 3.48438
Q12.5469 8.20312 8.76562 17.1406
Q4.98438 26.0781 4.98438 36.3281
Q4.98438 47.5156 9.25 55.8281
Q13.5312 64.1562 21.4062 68.4688
Q29.2969 72.7969 38.7656 72.7969
Q49.5156 72.7969 56.8281 67.3281
Q64.1562 61.8594 67.0469 51.9531
L57.7188 49.75
Q55.2188 57.5625 50.4844 61.125
Q45.75 64.7031 38.5781 64.7031
Q30.3281 64.7031 24.7812 60.7344
Q19.2344 56.7812 16.9844 50.1094
Q14.75 43.4531 14.75 36.375
Q14.75 27.25 17.4062 20.4375
Q20.0625 13.625 25.6719 10.25
Q31.2969 6.89062 37.8438 6.89062
Q45.7969 6.89062 51.3125 11.4688
Q56.8438 16.0625 58.7969 25.0938" id="ArialMT-43"/>
      <path d="
M6.59375 -19.875
L6.59375 51.8594
L14.5938 51.8594
L14.5938 45.125
Q17.4375 49.0781 21 51.0469
Q24.5625 53.0312 29.6406 53.0312
Q36.2812 53.0312 41.3594 49.6094
Q46.4375 46.1875 49.0156 39.9531
Q51.6094 33.7344 51.6094 26.3125
Q51.6094 18.3594 48.75 11.9844
Q45.9062 5.60938 40.4531 2.21875
Q35.0156 -1.17188 29 -1.17188
Q24.6094 -1.17188 21.1094 0.6875
Q17.625 2.54688 15.375 5.375
L15.375 -19.875
z

M14.5469 25.6406
Q14.5469 15.625 18.5938 10.8438
Q22.6562 6.0625 28.4219 6.0625
Q34.2812 6.0625 38.4531 11.0156
Q42.625 15.9688 42.625 26.375
Q42.625 36.2812 38.5469 41.2031
Q34.4688 46.1406 28.8125 46.1406
Q23.1875 46.1406 18.8594 40.8906
Q14.5469 35.6406 14.5469 25.6406" id="ArialMT-70"/>
      <path d="
M6.5 0
L6.5 51.8594
L14.4062 51.8594
L14.4062 44
Q17.4375 49.5156 20 51.2656
Q22.5625 53.0312 25.6406 53.0312
Q30.0781 53.0312 34.6719 50.2031
L31.6406 42.0469
Q28.4219 43.9531 25.2031 43.9531
Q22.3125 43.9531 20.0156 42.2188
Q17.7188 40.4844 16.75 37.4062
Q15.2812 32.7188 15.2812 27.1562
L15.2812 0
z
" id="ArialMT-72"/>
      <path d="
M6.39062 0
L6.39062 71.5781
L15.1875 71.5781
L15.1875 0
z
" id="ArialMT-6c"/>
      <path d="
M3.32812 25.9219
Q3.32812 40.3281 11.3281 47.2656
Q18.0156 53.0312 27.6406 53.0312
Q38.3281 53.0312 45.1094 46.0156
Q51.9062 39.0156 51.9062 26.6562
Q51.9062 16.6562 48.9062 10.9062
Q45.9062 5.17188 40.1562 2
Q34.4219 -1.17188 27.6406 -1.17188
Q16.75 -1.17188 10.0312 5.8125
Q3.32812 12.7969 3.32812 25.9219
M12.3594 25.9219
Q12.3594 15.9688 16.7031 11.0156
Q21.0469 6.0625 27.6406 6.0625
Q34.1875 6.0625 38.5312 11.0312
Q42.875 16.0156 42.875 26.2188
Q42.875 35.8438 38.5 40.7969
Q34.125 45.75 27.6406 45.75
Q21.0469 45.75 16.7031 40.8125
Q12.3594 35.8906 12.3594 25.9219" id="ArialMT-6f"/>
      <path d="
M6.64062 61.4688
L6.64062 71.5781
L15.4375 71.5781
L15.4375 61.4688
z

M6.64062 0
L6.64062 51.8594
L15.4375 51.8594
L15.4375 0
z
" id="ArialMT-69"/>
     </defs>
     <g style="fill:#262626;" transform="translate(109.62 337.0715625)rotate(-90.0)scale(0.12 -0.12)">
      <use xlink:href="#ArialMT-43"/>
      <use x="72.216796875" xlink:href="#ArialMT-75"/>
      <use x="127.83203125" xlink:href="#ArialMT-6d"/>
      <use x="211.1328125" xlink:href="#ArialMT-75"/>
      <use x="266.748046875" xlink:href="#ArialMT-6c"/>
      <use x="288.96484375" xlink:href="#ArialMT-61"/>
      <use x="344.580078125" xlink:href="#ArialMT-74"/>
      <use x="372.36328125" xlink:href="#ArialMT-69"/>
      <use x="394.580078125" xlink:href="#ArialMT-76"/>
      <use x="444.580078125" xlink:href="#ArialMT-65"/>
      <use x="500.1953125" xlink:href="#ArialMT-20"/>
      <use x="527.978515625" xlink:href="#ArialMT-70"/>
      <use x="583.59375" xlink:href="#ArialMT-72"/>
      <use x="616.89453125" xlink:href="#ArialMT-6f"/>
      <use x="672.509765625" xlink:href="#ArialMT-62"/>
      <use x="728.125" xlink:href="#ArialMT-61"/>
      <use x="783.740234375" xlink:href="#ArialMT-62"/>
      <use x="839.35546875" xlink:href="#ArialMT-69"/>
      <use x="861.572265625" xlink:href="#ArialMT-6c"/>
      <use x="883.7890625" xlink:href="#ArialMT-69"/>
      <use x="906.005859375" xlink:href="#ArialMT-74"/>
      <use x="933.7890625" xlink:href="#ArialMT-79"/>
     </g>
    </g>
   </g>
   <g id="line2d_130">
    <path clip-path="url(#p96925a06d4)" d="
M140.667 500.58
L141.29 499.092
L141.913 497.604
L142.535 494.627
L143.781 494.627
L144.403 490.163
L145.026 487.187
L145.649 485.698
L146.894 479.746
L147.517 478.258
L148.139 473.793
L148.762 473.793
L149.385 470.817
L150.63 467.84
L151.875 461.888
L152.498 451.471
L153.121 451.471
L153.743 449.983
L154.366 445.518
L154.989 445.518
L156.234 436.589
L156.857 435.101
L157.479 435.101
L158.725 429.148
L159.347 427.66
L159.97 427.66
L160.593 424.684
L161.215 418.731
L161.838 414.267
L163.083 399.385
L164.329 396.409
L165.574 384.503
L166.197 374.086
L166.819 368.134
L167.442 360.693
L168.065 356.228
L169.31 336.882
L169.933 329.442
L170.555 326.465
L171.178 320.513
L171.801 319.024
L172.423 314.56
L173.046 308.607
L173.669 305.631
L174.291 301.166
L174.914 298.19
L176.159 286.285
L176.782 283.309
L177.405 278.844
L178.027 275.868
L178.65 274.38
L179.273 266.939
L179.895 262.474
L180.518 259.498
L181.141 250.569
L181.763 244.616
L182.386 244.616
L183.008 238.664
L183.631 237.176
L184.876 228.247
L185.499 225.27
L187.367 220.806
L187.99 220.806
L188.612 214.853
L189.235 210.389
L189.858 210.389
L190.48 207.412
L191.726 204.436
L192.348 199.972
L192.971 198.483
L193.594 195.507
L194.216 194.019
L196.084 185.09
L196.707 179.137
L197.33 177.649
L197.952 174.673
L199.198 174.673
L199.82 171.697
L200.443 170.208
L201.066 170.208
L201.688 165.744
L202.934 165.744
L203.556 164.256
L204.179 164.256
L204.802 161.279
L205.424 159.791
L207.292 159.791
L207.915 158.303
L208.538 155.327
L209.16 155.327
L210.406 152.35
L211.028 152.35
L211.651 150.862
L212.274 147.886
L213.519 147.886
L214.142 143.421
L217.255 143.421
L217.878 141.933
L219.123 141.933
L219.746 140.445
L222.859 140.445
L225.972 133.004
L227.84 133.004
L228.463 131.516
L229.086 128.54
L230.331 128.54
L230.954 127.052
L237.18 127.052
L237.803 124.075
L238.426 124.075
L239.671 121.099
L240.293 121.099
L240.916 119.611
L242.161 119.611
L244.652 113.658
L246.52 113.658
L247.143 112.17
L247.765 112.17
L248.388 110.682
L255.237 110.682
L255.86 109.194
L256.483 109.194
L257.105 107.706
L258.973 107.706
L260.219 104.729
L262.087 104.729
L262.709 103.241
L263.955 103.241
L265.2 100.265
L267.068 100.265
L267.691 98.7767
L268.313 98.7767
L268.936 97.2885
L275.785 97.2885
L276.408 95.8003
L282.635 95.8003
L283.88 92.824
L294.465 92.824
L295.088 91.3359
L300.692 91.3359
L301.314 89.8477
L308.164 89.8477
L308.786 88.3595
L318.749 88.3595
L319.372 86.8714
L322.485 86.8714
L323.108 85.3832
L325.598 85.3832
L326.221 83.8951
L354.241 83.8951
L354.863 82.4069
L383.506 82.4069
L384.129 80.9187
L410.28 80.9187
L410.903 79.4306
L422.111 79.4306
L422.734 77.9424
L456.358 77.9424
L456.98 76.4542
L483.755 76.4542
L484.377 74.9661
L512.397 74.9661
L513.02 73.4779
L521.737 73.4779
L522.36 71.9898
L558.474 71.9898
L559.097 70.5016
L584.626 70.5016
L585.249 69.0134
L614.514 69.0134
L615.137 67.5253
L621.363 67.5253
L621.986 66.0371
L660.591 66.0371
L661.214 64.549
L684.875 64.549
L685.498 63.0608
L716.631 63.0608
L717.253 61.5726
L763.33 61.5726
L763.953 60.0845
L763.953 60.0845" style="fill:none;stroke:#1b9e77;stroke-linecap:round;"/>
   </g>
   <g id="line2d_131">
    <path clip-path="url(#p96925a06d4)" d="
M137.617 500.58
L138.411 496.13
L139.205 496.13
L139.469 494.647
L142.645 494.647
L142.909 493.164
L145.556 493.164
L145.82 490.198
L146.35 490.198
L146.614 485.748
L147.144 485.748
L147.408 481.298
L149.525 481.298
L149.79 479.815
L150.054 479.815
L150.319 478.332
L152.436 478.332
L152.701 475.366
L152.965 475.366
L154.024 469.433
L154.553 469.433
L154.818 466.466
L155.612 466.466
L156.406 462.017
L156.67 459.05
L156.935 457.567
L157.199 457.567
L157.464 456.084
L157.729 453.118
L157.993 451.634
L158.523 451.634
L158.787 450.151
L159.581 450.151
L159.846 448.668
L160.375 448.668
L160.904 445.702
L161.433 445.702
L161.963 442.735
L162.492 442.735
L162.757 439.769
L164.08 439.769
L164.344 438.286
L164.609 433.836
L164.874 433.836
L165.138 430.87
L165.932 426.42
L166.197 426.42
L167.255 420.487
L167.52 420.487
L167.785 419.004
L168.049 414.554
L168.843 410.105
L169.108 407.138
L169.372 405.655
L169.902 405.655
L170.166 404.172
L170.431 404.172
L170.696 402.689
L171.225 402.689
L171.489 399.722
L171.754 398.239
L172.813 398.239
L173.077 392.306
L173.342 390.823
L173.606 387.857
L174.136 384.89
L174.4 384.89
L174.665 383.407
L174.93 383.407
L175.194 381.924
L175.723 381.924
L175.988 380.441
L176.253 380.441
L176.517 378.958
L177.047 371.542
L177.311 371.542
L177.841 368.575
L178.105 368.575
L178.37 367.092
L178.634 367.092
L178.899 365.609
L179.164 362.642
L179.958 362.642
L180.222 358.193
L181.016 358.193
L181.281 355.226
L181.81 355.226
L182.868 349.294
L183.133 346.327
L183.398 346.327
L183.662 344.844
L183.927 344.844
L184.192 343.361
L184.456 343.361
L184.721 340.394
L184.986 340.394
L185.25 338.911
L185.515 335.945
L185.779 334.462
L186.309 334.462
L186.573 332.978
L187.103 332.978
L187.367 331.495
L187.632 328.529
L187.896 328.529
L188.426 322.596
L189.22 318.146
L189.749 318.146
L190.278 312.214
L190.543 310.73
L190.807 306.281
L191.072 304.798
L191.337 304.798
L191.866 301.831
L192.66 301.831
L192.924 300.348
L193.454 300.348
L193.983 297.382
L194.512 297.382
L195.041 294.415
L195.306 294.415
L195.571 291.449
L195.835 289.966
L196.1 289.966
L196.894 285.516
L197.158 285.516
L197.423 284.033
L197.688 284.033
L197.952 281.066
L198.217 281.066
L198.482 279.583
L198.746 279.583
L199.011 278.1
L199.275 275.134
L199.54 273.65
L199.805 273.65
L200.069 272.167
L200.334 272.167
L200.599 269.201
L200.863 267.718
L201.657 267.718
L201.922 266.234
L202.186 266.234
L202.451 263.268
L203.774 263.268
L204.039 260.302
L204.303 258.818
L204.568 255.852
L204.833 254.369
L205.097 254.369
L205.362 252.886
L205.627 252.886
L205.891 251.402
L206.42 251.402
L206.685 246.953
L206.95 245.47
L207.744 245.47
L208.008 243.986
L208.273 243.986
L208.802 241.02
L209.596 241.02
L209.861 239.537
L210.39 239.537
L210.919 233.604
L211.713 233.604
L211.978 230.638
L212.242 229.154
L213.036 229.154
L213.301 227.671
L213.83 227.671
L214.095 226.188
L214.359 226.188
L214.624 224.705
L215.947 224.705
L216.212 221.738
L216.741 221.738
L217.27 218.772
L217.535 218.772
L217.8 217.289
L218.064 217.289
L218.329 215.806
L219.387 215.806
L219.652 209.873
L220.181 209.873
L220.446 206.906
L220.71 205.423
L221.24 199.49
L221.769 199.49
L222.298 192.074
L222.563 192.074
L222.827 190.591
L223.092 187.625
L224.151 187.625
L224.415 186.142
L226.003 186.142
L226.268 183.175
L226.532 181.692
L227.062 181.692
L227.326 178.726
L227.591 178.726
L228.12 175.759
L228.385 175.759
L228.649 174.276
L229.443 174.276
L229.972 171.31
L230.237 171.31
L230.502 169.826
L230.766 166.86
L231.031 162.41
L231.296 160.927
L231.56 160.927
L232.09 157.961
L233.413 157.961
L233.942 154.994
L234.736 154.994
L235.265 152.028
L235.53 152.028
L236.059 149.062
L236.324 149.062
L236.588 147.578
L236.853 147.578
L237.117 146.095
L237.382 146.095
L237.647 143.129
L238.176 143.129
L238.441 140.162
L239.499 140.162
L239.764 138.679
L240.293 138.679
L240.558 135.713
L240.822 134.23
L241.616 134.23
L241.881 132.746
L242.145 132.746
L242.41 131.263
L242.939 131.263
L243.469 128.297
L244.262 128.297
L244.527 126.814
L245.056 126.814
L245.586 123.847
L245.85 123.847
L246.115 122.364
L246.379 122.364
L246.644 120.881
L247.967 120.881
L248.232 119.398
L248.761 119.398
L249.026 117.914
L250.084 117.914
L250.349 116.431
L250.878 116.431
L251.143 114.948
L252.201 114.948
L252.466 111.982
L252.731 110.498
L252.995 110.498
L253.26 109.015
L253.524 109.015
L253.789 107.532
L254.054 107.532
L254.583 104.566
L255.377 104.566
L255.642 101.599
L256.965 101.599
L257.229 100.116
L259.082 100.116
L259.346 98.6328
L259.876 98.6328
L260.14 97.1496
L261.463 97.1496
L262.257 92.7
L263.051 92.7
L263.316 91.2168
L264.374 91.2168
L264.639 88.2504
L268.873 88.2504
L269.138 86.7672
L271.784 86.7672
L272.049 85.284
L272.842 85.284
L273.107 83.8008
L277.076 83.8008
L277.341 82.3176
L277.606 82.3176
L277.87 80.8344
L279.458 80.8344
L279.723 79.3512
L281.046 79.3512
L281.311 77.868
L282.634 77.868
L282.898 76.3848
L285.015 76.3848
L285.28 74.9016
L286.074 74.9016
L286.339 73.4184
L290.308 73.4184
L290.573 71.9352
L294.277 71.9352
L294.542 70.452
L296.924 70.452
L297.188 68.9688
L302.216 68.9688
L302.481 67.4856
L312.272 67.4856
L312.537 66.0024
L314.918 66.0024
L315.183 64.5192
L332.119 64.5192
L332.384 63.036
L335.295 63.036
L335.56 61.5528
L339.794 61.5528
L340.058 60.0696
L343.234 60.0696
L343.498 58.5864
L363.61 58.5864
L363.875 57.1032
L402.246 57.1032
L402.511 55.62
L402.511 55.62" style="fill:none;stroke:#d95f02;stroke-dasharray:6.000000,6.000000;stroke-dashoffset:0.0;"/>
   </g>
   <g id="line2d_132">
    <path clip-path="url(#p96925a06d4)" d="
M138.427 500.58
L138.928 496.13
L139.931 496.13
L140.266 491.681
L140.433 491.681
L140.6 490.198
L142.773 490.198
L142.94 487.231
L143.442 487.231
L143.609 485.748
L143.776 485.748
L143.943 484.265
L144.277 484.265
L144.445 482.782
L144.612 479.815
L145.448 479.815
L145.615 478.332
L146.116 478.332
L146.283 476.849
L147.454 476.849
L147.621 475.366
L148.958 475.366
L149.627 469.433
L150.462 469.433
L150.63 466.466
L150.797 466.466
L150.964 462.017
L151.967 462.017
L152.134 460.534
L152.301 460.534
L152.636 454.601
L152.803 454.601
L152.97 453.118
L153.137 453.118
L153.304 451.634
L153.639 451.634
L153.973 448.668
L154.307 448.668
L154.474 445.702
L154.809 445.702
L154.976 442.735
L155.812 442.735
L155.979 441.252
L156.146 441.252
L156.313 438.286
L156.647 438.286
L156.815 436.802
L156.982 433.836
L157.149 427.903
L157.985 427.903
L158.319 420.487
L158.486 417.521
L158.653 417.521
L158.821 413.071
L158.988 411.588
L159.322 411.588
L159.489 410.105
L159.656 405.655
L159.824 405.655
L160.325 401.206
L160.492 401.206
L160.659 399.722
L160.994 399.722
L161.328 395.273
L161.495 393.79
L161.662 393.79
L161.829 392.306
L161.997 392.306
L162.164 389.34
L162.832 389.34
L163 386.374
L163.167 386.374
L163.501 381.924
L163.668 381.924
L164.337 375.991
L164.671 375.991
L164.838 374.508
L165.173 370.058
L165.34 370.058
L166.008 359.676
L166.343 359.676
L166.844 352.26
L167.179 352.26
L167.346 350.777
L167.847 343.361
L168.014 341.878
L168.182 341.878
L168.516 338.911
L168.683 338.911
L169.017 335.945
L169.686 335.945
L169.853 334.462
L170.355 334.462
L170.522 331.495
L170.689 331.495
L170.856 330.012
L171.023 330.012
L171.19 328.529
L171.525 328.529
L171.859 325.562
L172.026 325.562
L172.193 324.079
L172.361 324.079
L172.528 322.596
L173.196 322.596
L173.531 318.146
L173.698 316.663
L173.865 316.663
L174.032 315.18
L174.199 315.18
L174.534 307.764
L174.868 307.764
L175.37 303.314
L175.537 303.314
L175.704 300.348
L176.707 300.348
L176.874 297.382
L177.041 297.382
L177.208 295.898
L177.375 295.898
L177.543 294.415
L177.71 294.415
L177.877 289.966
L178.044 288.482
L178.378 288.482
L178.546 286.999
L178.88 286.999
L179.047 285.516
L179.214 285.516
L179.381 284.033
L179.549 284.033
L179.883 281.066
L180.217 281.066
L180.384 279.583
L180.719 279.583
L181.22 275.134
L181.387 272.167
L181.722 272.167
L182.056 264.751
L182.557 264.751
L182.725 263.268
L182.892 263.268
L183.56 257.335
L183.728 257.335
L183.895 255.852
L184.563 255.852
L184.731 254.369
L185.566 254.369
L185.901 249.919
L186.068 249.919
L186.235 248.436
L186.569 248.436
L186.737 245.47
L186.904 245.47
L187.071 243.986
L187.238 243.986
L187.572 239.537
L188.074 235.087
L188.575 235.087
L188.91 232.121
L189.411 232.121
L189.578 230.638
L189.913 230.638
L190.08 229.154
L190.748 229.154
L191.083 226.188
L191.25 226.188
L191.417 224.705
L191.751 224.705
L191.919 223.222
L192.754 223.222
L192.922 218.772
L193.423 218.772
L193.59 217.289
L193.924 217.289
L194.092 215.806
L195.262 215.806
L195.429 214.322
L196.098 214.322
L196.265 212.839
L196.432 212.839
L196.599 211.356
L197.435 211.356
L197.769 208.39
L198.605 208.39
L198.772 206.906
L199.274 206.906
L199.441 202.457
L199.608 202.457
L199.775 200.974
L200.277 200.974
L200.444 199.49
L201.781 199.49
L201.948 196.524
L202.45 196.524
L202.951 192.074
L203.62 192.074
L203.787 190.591
L205.626 190.591
L205.96 186.142
L206.629 186.142
L206.796 184.658
L207.799 184.658
L208.133 181.692
L208.3 177.242
L209.303 177.242
L209.471 174.276
L209.638 174.276
L209.972 171.31
L210.473 171.31
L210.641 168.343
L210.808 168.343
L210.975 166.86
L211.142 166.86
L211.309 165.377
L211.644 165.377
L212.312 159.444
L212.647 159.444
L212.814 157.961
L213.315 157.961
L213.482 156.478
L214.151 156.478
L214.318 154.994
L214.485 152.028
L214.82 152.028
L214.987 150.545
L215.321 146.095
L215.488 146.095
L215.655 144.612
L216.157 144.612
L216.324 143.129
L216.491 143.129
L216.658 141.646
L217.327 141.646
L217.494 140.162
L217.661 140.162
L217.829 138.679
L219.166 138.679
L219.333 137.196
L219.5 137.196
L220.002 132.746
L221.172 132.746
L221.339 131.263
L221.506 131.263
L221.673 129.78
L223.846 129.78
L224.014 128.297
L224.348 128.297
L224.682 125.33
L225.017 125.33
L225.184 123.847
L229.196 123.847
L229.53 120.881
L230.031 120.881
L230.533 116.431
L232.372 116.431
L232.539 114.948
L232.706 114.948
L232.873 113.465
L233.207 113.465
L233.375 111.982
L234.21 111.982
L234.545 107.532
L234.879 107.532
L235.046 106.049
L236.718 106.049
L236.885 104.566
L237.386 104.566
L237.554 103.082
L239.56 103.082
L239.727 101.599
L240.061 101.599
L240.395 98.6328
L241.398 98.6328
L241.566 97.1496
L242.234 97.1496
L242.401 95.6664
L245.577 95.6664
L245.745 94.1832
L246.246 94.1832
L246.413 92.7
L246.748 92.7
L247.082 89.7336
L248.419 89.7336
L248.586 88.2504
L250.258 88.2504
L250.425 86.7672
L250.592 86.7672
L250.759 85.284
L251.93 85.284
L252.097 83.8008
L252.431 83.8008
L252.598 80.8344
L255.607 80.8344
L255.774 79.3512
L257.279 79.3512
L257.446 77.868
L259.953 77.868
L260.12 76.3848
L262.126 76.3848
L262.294 74.9016
L265.971 74.9016
L266.138 73.4184
L268.311 73.4184
L268.479 71.9352
L269.314 71.9352
L269.482 70.452
L271.989 70.452
L272.323 67.4856
L274.664 67.4856
L274.831 66.0024
L275.834 66.0024
L276.001 64.5192
L286.699 64.5192
L286.866 63.036
L305.588 63.036
L305.756 61.5528
L305.756 61.5528" style="fill:none;stroke:#7570b3;stroke-dasharray:1.000000,3.000000;stroke-dashoffset:0.0;"/>
   </g>
   <g id="line2d_133">
    <path clip-path="url(#p96925a06d4)" d="
M137.162 500.58
L139.974 494.627
L140.677 494.627
L141.38 490.163
L142.083 490.163
L142.786 487.187
L143.489 485.698
L144.192 482.722
L144.895 481.234
L145.598 481.234
L147.004 478.258
L149.113 478.258
L149.816 475.281
L150.519 473.793
L153.33 461.888
L154.033 457.423
L154.736 455.935
L155.439 447.006
L156.142 441.054
L156.845 439.565
L157.548 433.613
L160.36 415.755
L161.063 409.802
L161.766 408.314
L162.469 403.85
L165.281 391.944
L166.687 383.015
L167.39 380.039
L168.796 365.157
L169.499 360.693
L170.202 348.788
L170.905 345.811
L171.608 339.859
L172.311 335.394
L173.717 323.489
L175.123 305.631
L175.826 302.655
L176.529 298.19
L177.935 295.214
L179.341 289.261
L180.044 283.309
L180.747 278.844
L182.153 275.868
L182.856 275.868
L183.559 272.891
L184.965 269.915
L185.668 265.451
L186.371 258.01
L187.074 256.522
L187.777 256.522
L188.48 252.057
L189.183 249.081
L189.886 249.081
L190.589 241.64
L191.292 240.152
L191.995 237.176
L192.698 235.687
L193.401 228.247
L194.104 226.758
L194.807 226.758
L195.51 225.27
L196.213 222.294
L196.916 220.806
L197.619 217.829
L198.322 213.365
L199.025 210.389
L200.431 207.412
L202.54 198.483
L203.243 196.995
L204.649 188.066
L205.352 186.578
L206.758 180.625
L207.461 180.625
L208.164 177.649
L208.867 171.697
L209.57 171.697
L210.273 168.72
L210.976 164.256
L211.679 161.279
L212.382 159.791
L214.491 150.862
L217.303 144.91
L222.927 144.91
L223.63 143.421
L225.036 143.421
L225.739 141.933
L226.442 141.933
L227.848 138.957
L234.877 138.957
L236.283 135.981
L236.986 135.981
L237.689 134.493
L239.798 134.493
L240.501 131.516
L241.204 130.028
L245.422 130.028
L246.125 128.54
L253.155 128.54
L253.858 127.052
L255.967 127.052
L256.67 125.564
L259.482 125.564
L260.185 124.075
L272.839 124.075
L273.542 122.587
L280.572 122.587
L281.978 119.611
L286.196 119.611
L286.899 118.123
L297.444 118.123
L298.147 116.635
L303.771 116.635
L304.474 115.146
L310.801 115.146
L311.504 113.658
L318.533 113.658
L319.236 112.17
L338.217 112.17
L338.92 110.682
L343.841 110.682
L344.544 109.194
L355.089 109.194
L356.495 106.217
L359.307 106.217
L360.01 104.729
L378.288 104.729
L378.991 103.241
L382.506 103.241
L383.209 101.753
L418.358 101.753
L419.061 100.265
L429.606 100.265
L430.309 98.7767
L437.339 98.7767
L438.745 95.8003
L445.775 95.8003
L446.478 94.3122
L458.429 94.3122
L459.132 92.824
L483.736 92.824
L484.439 91.3359
L503.42 91.3359
L504.123 89.8477
L523.807 89.8477
L524.51 88.3595
L536.461 88.3595
L537.164 86.8714
L548.412 86.8714
L549.115 85.3832
L557.55 85.3832
L558.253 83.8951
L577.234 83.8951
L577.937 82.4069
L585.67 82.4069
L586.373 80.9187
L629.256 80.9187
L629.959 79.4306
L635.582 79.4306
L636.285 77.9424
L651.048 77.9424
L651.751 76.4542
L657.375 76.4542
L658.078 74.9661
L687.604 74.9661
L688.307 73.4779
L734.704 73.4779
L735.407 70.5016
L753.685 70.5016
L754.388 69.0134
L816.954 69.0134
L817.657 67.5253
L840.153 67.5253
L840.856 66.0371
L841.559 66.0371
L841.559 66.0371" style="fill:none;stroke:#e7298a;stroke-dasharray:8.000000,4.000000,2.000000,4.000000;stroke-dashoffset:0.0;"/>
   </g>
   <g id="line2d_134">
    <path clip-path="url(#p96925a06d4)" d="
M136.8 500.58
L137.032 499.097
L139.117 499.097
L139.348 497.614
L139.58 497.614
L139.812 496.13
L140.507 496.13
L140.738 494.647
L140.97 494.647
L141.202 493.164
L143.75 493.164
L143.982 491.681
L145.835 491.681
L146.067 490.198
L147.225 490.198
L147.457 488.714
L147.689 488.714
L147.92 485.748
L148.847 485.748
L149.079 484.265
L149.31 484.265
L149.542 482.782
L150.932 482.782
L151.164 481.298
L151.395 476.849
L152.09 476.849
L152.322 475.366
L152.554 475.366
L152.785 472.399
L153.017 472.399
L153.48 469.433
L153.712 469.433
L154.175 466.466
L155.565 466.466
L155.797 464.983
L156.724 464.983
L156.955 463.5
L157.187 463.5
L157.419 462.017
L157.65 462.017
L158.345 457.567
L158.809 457.567
L159.04 456.084
L159.272 456.084
L159.504 453.118
L160.199 453.118
L160.43 451.634
L160.662 448.668
L160.894 448.668
L161.125 445.702
L161.82 445.702
L162.052 442.735
L162.284 442.735
L162.515 439.769
L163.21 439.769
L163.442 438.286
L163.905 438.286
L164.137 436.802
L165.99 436.802
L166.454 433.836
L166.917 433.836
L167.38 430.87
L167.612 430.87
L167.844 429.386
L168.076 426.42
L168.307 421.97
L168.539 420.487
L168.771 417.521
L169.234 417.521
L169.697 414.554
L170.161 414.554
L170.392 413.071
L171.087 401.206
L171.319 398.239
L171.551 392.306
L171.782 390.823
L172.014 386.374
L172.709 386.374
L172.941 384.89
L174.099 384.89
L175.026 378.958
L175.721 370.058
L176.184 367.092
L176.416 364.126
L176.647 362.642
L176.879 359.676
L177.342 356.71
L177.574 353.743
L178.269 353.743
L178.732 350.777
L178.964 350.777
L179.427 347.81
L179.659 341.878
L179.891 338.911
L180.354 331.495
L180.817 325.562
L181.281 322.596
L181.512 319.63
L181.744 319.63
L181.976 318.146
L182.439 318.146
L182.671 315.18
L182.902 313.697
L183.134 310.73
L183.366 306.281
L183.829 306.281
L184.524 301.831
L184.756 301.831
L185.219 298.865
L185.451 294.415
L185.682 294.415
L186.146 291.449
L186.377 284.033
L186.841 284.033
L187.072 279.583
L187.304 278.1
L187.536 275.134
L187.767 275.134
L187.999 272.167
L188.231 270.684
L188.463 267.718
L188.694 267.718
L188.926 264.751
L189.389 261.785
L189.621 261.785
L189.853 260.302
L190.084 257.335
L190.548 257.335
L190.779 254.369
L191.011 252.886
L191.243 248.436
L191.706 245.47
L192.169 245.47
L192.401 243.986
L192.864 243.986
L193.096 241.02
L193.559 238.054
L194.254 238.054
L194.718 232.121
L194.949 227.671
L195.181 227.671
L195.413 226.188
L195.644 221.738
L196.339 221.738
L196.571 220.255
L196.803 220.255
L197.034 217.289
L197.266 217.289
L197.498 214.322
L197.729 209.873
L197.961 209.873
L198.193 208.39
L198.424 208.39
L198.656 205.423
L198.888 200.974
L199.119 200.974
L199.351 199.49
L199.583 196.524
L199.814 196.524
L200.046 192.074
L200.741 192.074
L200.973 190.591
L201.668 190.591
L202.131 184.658
L202.594 184.658
L202.826 181.692
L203.289 178.726
L203.521 178.726
L203.753 174.276
L203.984 174.276
L204.216 172.793
L204.911 172.793
L205.143 169.826
L205.606 166.86
L206.301 166.86
L206.533 163.894
L206.996 163.894
L207.459 160.927
L207.691 160.927
L207.923 159.444
L208.154 156.478
L208.618 156.478
L209.081 153.511
L210.703 153.511
L210.935 150.545
L211.166 149.062
L211.398 149.062
L211.63 146.095
L212.093 146.095
L212.325 144.612
L213.251 144.612
L213.483 141.646
L214.178 141.646
L214.41 140.162
L215.105 140.162
L215.336 138.679
L215.568 138.679
L215.8 137.196
L216.031 132.746
L216.263 131.263
L216.495 131.263
L216.726 129.78
L216.958 129.78
L217.421 126.814
L218.116 126.814
L218.348 123.847
L219.043 123.847
L219.506 120.881
L220.433 120.881
L220.896 117.914
L222.981 117.914
L223.213 114.948
L223.908 114.948
L224.371 111.982
L225.993 111.982
L226.225 110.498
L226.688 110.498
L226.92 109.015
L227.151 109.015
L227.383 107.532
L232.248 107.532
L232.48 106.049
L234.797 106.049
L235.028 103.082
L235.723 103.082
L235.955 101.599
L236.418 101.599
L236.65 100.116
L238.04 100.116
L238.272 97.1496
L238.735 97.1496
L238.967 95.6664
L239.662 95.6664
L239.893 92.7
L244.063 92.7
L244.295 91.2168
L248.697 91.2168
L248.928 89.7336
L250.782 89.7336
L251.014 88.2504
L251.245 88.2504
L251.709 85.284
L252.404 85.284
L252.635 83.8008
L255.184 83.8008
L255.415 82.3176
L256.342 82.3176
L256.574 79.3512
L257.269 79.3512
L257.5 77.868
L260.744 77.868
L260.975 76.3848
L262.134 76.3848
L262.365 73.4184
L263.987 73.4184
L264.219 71.9352
L266.999 71.9352
L267.23 68.9688
L272.327 68.9688
L272.559 66.0024
L274.644 66.0024
L274.876 64.5192
L275.339 64.5192
L275.571 63.036
L276.961 63.036
L277.192 61.5528
L285.996 61.5528
L286.227 60.0696
L290.166 60.0696
L290.397 58.5864
L294.104 58.5864
L294.336 57.1032
L368.47 57.1032
L368.702 55.62
L368.702 55.62" style="fill:none;stroke:#66a61e;stroke-linecap:round;"/>
    <defs>
     <path d="
M0 3
C0.795609 3 1.55874 2.6839 2.12132 2.12132
C2.6839 1.55874 3 0.795609 3 0
C3 -0.795609 2.6839 -1.55874 2.12132 -2.12132
C1.55874 -2.6839 0.795609 -3 0 -3
C-0.795609 -3 -1.55874 -2.6839 -2.12132 -2.12132
C-2.6839 -1.55874 -3 -0.795609 -3 0
C-3 0.795609 -2.6839 1.55874 -2.12132 2.12132
C-1.55874 2.6839 -0.795609 3 0 3
z
" id="mba827fb0e4" style="stroke:#000000;stroke-width:0.5;"/>
    </defs>
    <g clip-path="url(#p96925a06d4)">
     <use style="fill:#66a61e;stroke:#000000;stroke-width:0.5;" x="136.8" xlink:href="#mba827fb0e4" y="500.58"/>
     <use style="fill:#66a61e;stroke:#000000;stroke-width:0.5;" x="143.750112795" xlink:href="#mba827fb0e4" y="493.164"/>
     <use style="fill:#66a61e;stroke:#000000;stroke-width:0.5;" x="149.310203031" xlink:href="#mba827fb0e4" y="484.2648"/>
     <use style="fill:#66a61e;stroke:#000000;stroke-width:0.5;" x="153.248600282" xlink:href="#mba827fb0e4" y="470.916"/>
     <use style="fill:#66a61e;stroke:#000000;stroke-width:0.5;" x="157.418667959" xlink:href="#mba827fb0e4" y="462.0168"/>
     <use style="fill:#66a61e;stroke:#000000;stroke-width:0.5;" x="160.430383504" xlink:href="#mba827fb0e4" y="451.6344"/>
     <use style="fill:#66a61e;stroke:#000000;stroke-width:0.5;" x="163.905439901" xlink:href="#mba827fb0e4" y="438.2856"/>
     <use style="fill:#66a61e;stroke:#000000;stroke-width:0.5;" x="168.075507578" xlink:href="#mba827fb0e4" y="426.42"/>
     <use style="fill:#66a61e;stroke:#000000;stroke-width:0.5;" x="170.855552697" xlink:href="#mba827fb0e4" y="402.6888"/>
     <use style="fill:#66a61e;stroke:#000000;stroke-width:0.5;" x="174.562279521" xlink:href="#mba827fb0e4" y="381.924"/>
     <use style="fill:#66a61e;stroke:#000000;stroke-width:0.5;" x="176.878983786" xlink:href="#mba827fb0e4" y="359.676"/>
     <use style="fill:#66a61e;stroke:#000000;stroke-width:0.5;" x="179.659028904" xlink:href="#mba827fb0e4" y="341.8776"/>
     <use style="fill:#66a61e;stroke:#000000;stroke-width:0.5;" x="181.975733169" xlink:href="#mba827fb0e4" y="318.1464"/>
     <use style="fill:#66a61e;stroke:#000000;stroke-width:0.5;" x="184.755778287" xlink:href="#mba827fb0e4" y="301.8312"/>
     <use style="fill:#66a61e;stroke:#000000;stroke-width:0.5;" x="187.304152979" xlink:href="#mba827fb0e4" y="278.1"/>
     <use style="fill:#66a61e;stroke:#000000;stroke-width:0.5;" x="189.620857244" xlink:href="#mba827fb0e4" y="261.7848"/>
     <use style="fill:#66a61e;stroke:#000000;stroke-width:0.5;" x="192.400902362" xlink:href="#mba827fb0e4" y="243.9864"/>
     <use style="fill:#66a61e;stroke:#000000;stroke-width:0.5;" x="195.412617906" xlink:href="#mba827fb0e4" y="226.188"/>
     <use style="fill:#66a61e;stroke:#000000;stroke-width:0.5;" x="198.192663024" xlink:href="#mba827fb0e4" y="208.3896"/>
     <use style="fill:#66a61e;stroke:#000000;stroke-width:0.5;" x="200.972708143" xlink:href="#mba827fb0e4" y="190.5912"/>
     <use style="fill:#66a61e;stroke:#000000;stroke-width:0.5;" x="203.984423687" xlink:href="#mba827fb0e4" y="174.276"/>
     <use style="fill:#66a61e;stroke:#000000;stroke-width:0.5;" x="207.459480085" xlink:href="#mba827fb0e4" y="160.9272"/>
     <use style="fill:#66a61e;stroke:#000000;stroke-width:0.5;" x="211.397877335" xlink:href="#mba827fb0e4" y="149.0616"/>
     <use style="fill:#66a61e;stroke:#000000;stroke-width:0.5;" x="215.567945013" xlink:href="#mba827fb0e4" y="138.6792"/>
     <use style="fill:#66a61e;stroke:#000000;stroke-width:0.5;" x="218.347990131" xlink:href="#mba827fb0e4" y="123.8472"/>
     <use style="fill:#66a61e;stroke:#000000;stroke-width:0.5;" x="224.139750793" xlink:href="#mba827fb0e4" y="113.4648"/>
     <use style="fill:#66a61e;stroke:#000000;stroke-width:0.5;" x="234.796590413" xlink:href="#mba827fb0e4" y="106.0488"/>
     <use style="fill:#66a61e;stroke:#000000;stroke-width:0.5;" x="239.661669369" xlink:href="#mba827fb0e4" y="95.6664"/>
     <use style="fill:#66a61e;stroke:#000000;stroke-width:0.5;" x="251.708531548" xlink:href="#mba827fb0e4" y="85.284"/>
     <use style="fill:#66a61e;stroke:#000000;stroke-width:0.5;" x="260.975348608" xlink:href="#mba827fb0e4" y="76.3848"/>
     <use style="fill:#66a61e;stroke:#000000;stroke-width:0.5;" x="274.875574198" xlink:href="#mba827fb0e4" y="64.5192"/>
     <use style="fill:#66a61e;stroke:#000000;stroke-width:0.5;" x="294.335890025" xlink:href="#mba827fb0e4" y="57.1032"/>
    </g>
   </g>
   <g id="patch_3">
    <path d="
M136.8 55.62
L844.532 55.62" style="fill:none;"/>
   </g>
   <g id="patch_4">
    <path d="
M844.532 500.58
L844.532 55.62" style="fill:none;"/>
   </g>
   <g id="patch_5">
    <path d="
M136.8 500.58
L844.532 500.58" style="fill:none;"/>
   </g>
   <g id="patch_6">
    <path d="
M136.8 500.58
L136.8 55.62" style="fill:none;"/>
   </g>
   <g id="legend_1">
    <g id="line2d_135">
     <path d="
M862.685 63.3966
L882.677 63.3966" style="fill:none;stroke:#1b9e77;stroke-linecap:round;"/>
    </g>
    <g id="line2d_136"/>
    <g id="text_14">
     <!-- Ping (ms) - babel -->
     <defs>
      <path d="
M7.71875 0
L7.71875 71.5781
L34.7188 71.5781
Q41.8438 71.5781 45.6094 70.9062
Q50.875 70.0156 54.4375 67.5469
Q58.0156 65.0938 60.1875 60.6406
Q62.3594 56.2031 62.3594 50.875
Q62.3594 41.75 56.5469 35.4219
Q50.7344 29.1094 35.5469 29.1094
L17.1875 29.1094
L17.1875 0
z

M17.1875 37.5469
L35.6875 37.5469
Q44.875 37.5469 48.7344 40.9688
Q52.5938 44.3906 52.5938 50.5938
Q52.5938 55.0781 50.3125 58.2656
Q48.0469 61.4688 44.3438 62.5
Q41.9375 63.1406 35.5 63.1406
L17.1875 63.1406
z
" id="ArialMT-50"/>
      <path d="
M3.17188 21.4844
L3.17188 30.3281
L30.1719 30.3281
L30.1719 21.4844
z
" id="ArialMT-2d"/>
      <path d="
M4.98438 -4.29688
L13.5312 -5.5625
Q14.0625 -9.51562 16.5 -11.3281
Q19.7812 -13.7656 25.4375 -13.7656
Q31.5469 -13.7656 34.8594 -11.3281
Q38.1875 -8.89062 39.3594 -4.5
Q40.0469 -1.8125 39.9844 6.78125
Q34.2344 0 25.6406 0
Q14.9375 0 9.07812 7.71875
Q3.21875 15.4375 3.21875 26.2188
Q3.21875 33.6406 5.90625 39.9062
Q8.59375 46.1875 13.6875 49.6094
Q18.7969 53.0312 25.6875 53.0312
Q34.8594 53.0312 40.8281 45.6094
L40.8281 51.8594
L48.9219 51.8594
L48.9219 7.03125
Q48.9219 -5.07812 46.4531 -10.125
Q44 -15.1875 38.6406 -18.1094
Q33.2969 -21.0469 25.4844 -21.0469
Q16.2188 -21.0469 10.5 -16.875
Q4.78125 -12.7031 4.98438 -4.29688
M12.25 26.8594
Q12.25 16.6562 16.2969 11.9688
Q20.3594 7.28125 26.4688 7.28125
Q32.5156 7.28125 36.6094 11.9375
Q40.7188 16.6094 40.7188 26.5625
Q40.7188 36.0781 36.5 40.9062
Q32.2812 45.75 26.3125 45.75
Q20.4531 45.75 16.3438 40.9844
Q12.25 36.2344 12.25 26.8594" id="ArialMT-67"/>
     </defs>
     <g style="fill:#262626;" transform="translate(890.67405675 66.895175625)scale(0.09996 -0.09996)">
      <use xlink:href="#ArialMT-50"/>
      <use x="66.69921875" xlink:href="#ArialMT-69"/>
      <use x="88.916015625" xlink:href="#ArialMT-6e"/>
      <use x="144.53125" xlink:href="#ArialMT-67"/>
      <use x="200.146484375" xlink:href="#ArialMT-20"/>
      <use x="227.9296875" xlink:href="#ArialMT-28"/>
      <use x="261.23046875" xlink:href="#ArialMT-6d"/>
      <use x="344.53125" xlink:href="#ArialMT-73"/>
      <use x="394.53125" xlink:href="#ArialMT-29"/>
      <use x="427.83203125" xlink:href="#ArialMT-20"/>
      <use x="455.615234375" xlink:href="#ArialMT-2d"/>
      <use x="488.916015625" xlink:href="#ArialMT-20"/>
      <use x="516.69921875" xlink:href="#ArialMT-62"/>
      <use x="572.314453125" xlink:href="#ArialMT-61"/>
      <use x="627.9296875" xlink:href="#ArialMT-62"/>
      <use x="683.544921875" xlink:href="#ArialMT-65"/>
      <use x="739.16015625" xlink:href="#ArialMT-6c"/>
     </g>
    </g>
    <g id="line2d_137">
     <path d="
M862.685 77.7752
L882.677 77.7752" style="fill:none;stroke:#d95f02;stroke-dasharray:6.000000,6.000000;stroke-dashoffset:0.0;"/>
    </g>
    <g id="line2d_138"/>
    <g id="text_15">
     <!-- Ping (ms) - olsrd2 -->
     <defs>
      <path d="
M40.2344 0
L40.2344 6.54688
Q35.2969 -1.17188 25.7344 -1.17188
Q19.5312 -1.17188 14.3281 2.25
Q9.125 5.67188 6.26562 11.7969
Q3.42188 17.9219 3.42188 25.875
Q3.42188 33.6406 6 39.9688
Q8.59375 46.2969 13.7656 49.6562
Q18.9531 53.0312 25.3438 53.0312
Q30.0312 53.0312 33.6875 51.0469
Q37.3594 49.0781 39.6562 45.9062
L39.6562 71.5781
L48.3906 71.5781
L48.3906 0
z

M12.4531 25.875
Q12.4531 15.9219 16.6406 10.9844
Q20.8438 6.0625 26.5625 6.0625
Q32.3281 6.0625 36.3438 10.7656
Q40.375 15.4844 40.375 25.1406
Q40.375 35.7969 36.2656 40.7656
Q32.1719 45.75 26.1719 45.75
Q20.3125 45.75 16.375 40.9688
Q12.4531 36.1875 12.4531 25.875" id="ArialMT-64"/>
     </defs>
     <g style="fill:#262626;" transform="translate(890.67405675 81.273796875)scale(0.09996 -0.09996)">
      <use xlink:href="#ArialMT-50"/>
      <use x="66.69921875" xlink:href="#ArialMT-69"/>
      <use x="88.916015625" xlink:href="#ArialMT-6e"/>
      <use x="144.53125" xlink:href="#ArialMT-67"/>
      <use x="200.146484375" xlink:href="#ArialMT-20"/>
      <use x="227.9296875" xlink:href="#ArialMT-28"/>
      <use x="261.23046875" xlink:href="#ArialMT-6d"/>
      <use x="344.53125" xlink:href="#ArialMT-73"/>
      <use x="394.53125" xlink:href="#ArialMT-29"/>
      <use x="427.83203125" xlink:href="#ArialMT-20"/>
      <use x="455.615234375" xlink:href="#ArialMT-2d"/>
      <use x="488.916015625" xlink:href="#ArialMT-20"/>
      <use x="516.69921875" xlink:href="#ArialMT-6f"/>
      <use x="572.314453125" xlink:href="#ArialMT-6c"/>
      <use x="594.53125" xlink:href="#ArialMT-73"/>
      <use x="644.53125" xlink:href="#ArialMT-72"/>
      <use x="677.83203125" xlink:href="#ArialMT-64"/>
      <use x="733.447265625" xlink:href="#ArialMT-32"/>
     </g>
    </g>
    <g id="line2d_139">
     <path d="
M862.685 92.1538
L882.677 92.1538" style="fill:none;stroke:#7570b3;stroke-dasharray:1.000000,3.000000;stroke-dashoffset:0.0;"/>
    </g>
    <g id="line2d_140"/>
    <g id="text_16">
     <!-- Ping (ms) - olsrd -->
     <g style="fill:#262626;" transform="translate(890.67405675 95.652418125)scale(0.09996 -0.09996)">
      <use xlink:href="#ArialMT-50"/>
      <use x="66.69921875" xlink:href="#ArialMT-69"/>
      <use x="88.916015625" xlink:href="#ArialMT-6e"/>
      <use x="144.53125" xlink:href="#ArialMT-67"/>
      <use x="200.146484375" xlink:href="#ArialMT-20"/>
      <use x="227.9296875" xlink:href="#ArialMT-28"/>
      <use x="261.23046875" xlink:href="#ArialMT-6d"/>
      <use x="344.53125" xlink:href="#ArialMT-73"/>
      <use x="394.53125" xlink:href="#ArialMT-29"/>
      <use x="427.83203125" xlink:href="#ArialMT-20"/>
      <use x="455.615234375" xlink:href="#ArialMT-2d"/>
      <use x="488.916015625" xlink:href="#ArialMT-20"/>
      <use x="516.69921875" xlink:href="#ArialMT-6f"/>
      <use x="572.314453125" xlink:href="#ArialMT-6c"/>
      <use x="594.53125" xlink:href="#ArialMT-73"/>
      <use x="644.53125" xlink:href="#ArialMT-72"/>
      <use x="677.83203125" xlink:href="#ArialMT-64"/>
     </g>
    </g>
    <g id="line2d_141">
     <path d="
M862.685 106.532
L882.677 106.532" style="fill:none;stroke:#e7298a;stroke-dasharray:8.000000,4.000000,2.000000,4.000000;stroke-dashoffset:0.0;"/>
    </g>
    <g id="line2d_142"/>
    <g id="text_17">
     <!-- Ping (ms) - bmx6 -->
     <defs>
      <path d="
M0.734375 0
L19.6719 26.9531
L2.15625 51.8594
L13.1406 51.8594
L21.0938 39.7031
Q23.3438 36.2344 24.7031 33.8906
Q26.8594 37.1094 28.6562 39.5938
L37.4062 51.8594
L47.9062 51.8594
L29.9844 27.4375
L49.2656 0
L38.4844 0
L27.8281 16.1094
L25 20.4531
L11.375 0
z
" id="ArialMT-78"/>
     </defs>
     <g style="fill:#262626;" transform="translate(890.67405675 110.031039375)scale(0.09996 -0.09996)">
      <use xlink:href="#ArialMT-50"/>
      <use x="66.69921875" xlink:href="#ArialMT-69"/>
      <use x="88.916015625" xlink:href="#ArialMT-6e"/>
      <use x="144.53125" xlink:href="#ArialMT-67"/>
      <use x="200.146484375" xlink:href="#ArialMT-20"/>
      <use x="227.9296875" xlink:href="#ArialMT-28"/>
      <use x="261.23046875" xlink:href="#ArialMT-6d"/>
      <use x="344.53125" xlink:href="#ArialMT-73"/>
      <use x="394.53125" xlink:href="#ArialMT-29"/>
      <use x="427.83203125" xlink:href="#ArialMT-20"/>
      <use x="455.615234375" xlink:href="#ArialMT-2d"/>
      <use x="488.916015625" xlink:href="#ArialMT-20"/>
      <use x="516.69921875" xlink:href="#ArialMT-62"/>
      <use x="572.314453125" xlink:href="#ArialMT-6d"/>
      <use x="655.615234375" xlink:href="#ArialMT-78"/>
      <use x="705.615234375" xlink:href="#ArialMT-36"/>
     </g>
    </g>
    <g id="line2d_143">
     <path d="
M862.685 120.911
L882.677 120.911" style="fill:none;stroke:#66a61e;stroke-linecap:round;"/>
    </g>
    <g id="line2d_144">
     <g>
      <use style="fill:#66a61e;stroke:#000000;stroke-width:0.5;" x="872.68125675" xlink:href="#mba827fb0e4" y="120.911060625"/>
     </g>
    </g>
    <g id="text_18">
     <!-- Ping (ms) - batman-adv -->
     <g style="fill:#262626;" transform="translate(890.67405675 124.409660625)scale(0.09996 -0.09996)">
      <use xlink:href="#ArialMT-50"/>
      <use x="66.69921875" xlink:href="#ArialMT-69"/>
      <use x="88.916015625" xlink:href="#ArialMT-6e"/>
      <use x="144.53125" xlink:href="#ArialMT-67"/>
      <use x="200.146484375" xlink:href="#ArialMT-20"/>
      <use x="227.9296875" xlink:href="#ArialMT-28"/>
      <use x="261.23046875" xlink:href="#ArialMT-6d"/>
      <use x="344.53125" xlink:href="#ArialMT-73"/>
      <use x="394.53125" xlink:href="#ArialMT-29"/>
      <use x="427.83203125" xlink:href="#ArialMT-20"/>
      <use x="455.615234375" xlink:href="#ArialMT-2d"/>
      <use x="488.916015625" xlink:href="#ArialMT-20"/>
      <use x="516.69921875" xlink:href="#ArialMT-62"/>
      <use x="572.314453125" xlink:href="#ArialMT-61"/>
      <use x="627.9296875" xlink:href="#ArialMT-74"/>
      <use x="655.712890625" xlink:href="#ArialMT-6d"/>
      <use x="739.013671875" xlink:href="#ArialMT-61"/>
      <use x="794.62890625" xlink:href="#ArialMT-6e"/>
      <use x="850.244140625" xlink:href="#ArialMT-2d"/>
      <use x="883.544921875" xlink:href="#ArialMT-61"/>
      <use x="939.16015625" xlink:href="#ArialMT-64"/>
      <use x="994.775390625" xlink:href="#ArialMT-76"/>
     </g>
    </g>
   </g>
  </g>
  <g id="text_19">
   <!-- TCP upload stream w/ping -->
   <defs>
    <path d="
M0 -1.21875
L20.75 72.7969
L27.7812 72.7969
L7.07812 -1.21875
z
" id="ArialMT-2f"/>
    <path d="
M16.1562 0
L0.296875 51.8594
L9.375 51.8594
L17.625 21.9219
L20.7031 10.7969
Q20.9062 11.625 23.3906 21.4844
L31.6406 51.8594
L40.6719 51.8594
L48.4375 21.7812
L51.0312 11.8594
L54 21.875
L62.8906 51.8594
L71.4375 51.8594
L55.2188 0
L46.0938 0
L37.8438 31.0625
L35.8438 39.8906
L25.3438 0
z
" id="ArialMT-77"/>
    <path d="
M25.9219 0
L25.9219 63.1406
L2.34375 63.1406
L2.34375 71.5781
L59.0781 71.5781
L59.0781 63.1406
L35.4062 63.1406
L35.4062 0
z
" id="ArialMT-54"/>
   </defs>
   <g style="fill:#262626;" transform="translate(465.313125 10.1915625)scale(0.14 -0.14)">
    <use xlink:href="#ArialMT-54"/>
    <use x="61.083984375" xlink:href="#ArialMT-43"/>
    <use x="133.30078125" xlink:href="#ArialMT-50"/>
    <use x="198.25" xlink:href="#ArialMT-20"/>
    <use x="226.033203125" xlink:href="#ArialMT-75"/>
    <use x="281.6484375" xlink:href="#ArialMT-70"/>
    <use x="337.263671875" xlink:href="#ArialMT-6c"/>
    <use x="359.48046875" xlink:href="#ArialMT-6f"/>
    <use x="415.095703125" xlink:href="#ArialMT-61"/>
    <use x="470.7109375" xlink:href="#ArialMT-64"/>
    <use x="526.326171875" xlink:href="#ArialMT-20"/>
    <use x="554.109375" xlink:href="#ArialMT-73"/>
    <use x="604.109375" xlink:href="#ArialMT-74"/>
    <use x="631.892578125" xlink:href="#ArialMT-72"/>
    <use x="665.193359375" xlink:href="#ArialMT-65"/>
    <use x="720.80859375" xlink:href="#ArialMT-61"/>
    <use x="776.423828125" xlink:href="#ArialMT-6d"/>
    <use x="859.724609375" xlink:href="#ArialMT-20"/>
    <use x="887.5078125" xlink:href="#ArialMT-77"/>
    <use x="959.724609375" xlink:href="#ArialMT-2f"/>
    <use x="987.5078125" xlink:href="#ArialMT-70"/>
    <use x="1043.12304688" xlink:href="#ArialMT-69"/>
    <use x="1065.33984375" xlink:href="#ArialMT-6e"/>
    <use x="1120.95507812" xlink:href="#ArialMT-67"/>
   </g>
   <!-- Ping CDF plot -->
   <defs>
    <path d="
M7.71875 0
L7.71875 71.5781
L32.375 71.5781
Q40.7188 71.5781 45.125 70.5625
Q51.2656 69.1406 55.6094 65.4375
Q61.2812 60.6406 64.0781 53.1875
Q66.8906 45.75 66.8906 36.1875
Q66.8906 28.0312 64.9844 21.7344
Q63.0938 15.4375 60.1094 11.2969
Q57.125 7.17188 53.5781 4.79688
Q50.0469 2.4375 45.0469 1.21875
Q40.0469 0 33.5469 0
z

M17.1875 8.45312
L32.4688 8.45312
Q39.5469 8.45312 43.5781 9.76562
Q47.6094 11.0781 50 13.4844
Q53.375 16.8438 55.25 22.5312
Q57.125 28.2188 57.125 36.3281
Q57.125 47.5625 53.4375 53.5938
Q49.75 59.625 44.4844 61.6719
Q40.6719 63.1406 32.2344 63.1406
L17.1875 63.1406
z
" id="ArialMT-44"/>
    <path d="
M8.20312 0
L8.20312 71.5781
L56.5 71.5781
L56.5 63.1406
L17.6719 63.1406
L17.6719 40.9688
L51.2656 40.9688
L51.2656 32.5156
L17.6719 32.5156
L17.6719 0
z
" id="ArialMT-46"/>
   </defs>
   <g style="fill:#262626;" transform="translate(503.68078125 25.368)scale(0.14 -0.14)">
    <use xlink:href="#ArialMT-50"/>
    <use x="66.69921875" xlink:href="#ArialMT-69"/>
    <use x="88.916015625" xlink:href="#ArialMT-6e"/>
    <use x="144.53125" xlink:href="#ArialMT-67"/>
    <use x="200.146484375" xlink:href="#ArialMT-20"/>
    <use x="227.9296875" xlink:href="#ArialMT-43"/>
    <use x="300.146484375" xlink:href="#ArialMT-44"/>
    <use x="372.36328125" xlink:href="#ArialMT-46"/>
    <use x="433.447265625" xlink:href="#ArialMT-20"/>
    <use x="461.23046875" xlink:href="#ArialMT-70"/>
    <use x="516.845703125" xlink:href="#ArialMT-6c"/>
    <use x="539.0625" xlink:href="#ArialMT-6f"/>
    <use x="594.677734375" xlink:href="#ArialMT-74"/>
   </g>
  </g>
 </g>
 <defs>
  <clipPath id="p96925a06d4">
   <rect height="444.96" width="707.7322125" x="136.8" y="55.62"/>
  </clipPath>
 </defs>
</svg>
