<?xml version="1.0" encoding="UTF-8" standalone="no"?>
<svg
   xmlns:dc="http://purl.org/dc/elements/1.1/"
   xmlns:cc="http://creativecommons.org/ns#"
   xmlns:rdf="http://www.w3.org/1999/02/22-rdf-syntax-ns#"
   xmlns:svg="http://www.w3.org/2000/svg"
   xmlns="http://www.w3.org/2000/svg"
   xmlns:sodipodi="http://sodipodi.sourceforge.net/DTD/sodipodi-0.dtd"
   xmlns:inkscape="http://www.inkscape.org/namespaces/inkscape"
   version="1.1"
   viewBox="0 0 440.5 245.53"
   stroke-miterlimit="10"
   id="svg2"
   inkscape:version="0.48.4 r9939"
   width="100%"
   height="100%"
   sodipodi:docname="1-the-hidden-node-problem.svg"
   style="fill:none;stroke:none">
  <metadata
     id="metadata39">
    <rdf:RDF>
      <cc:Work
         rdf:about="">
        <dc:format>image/svg+xml</dc:format>
        <dc:type
           rdf:resource="http://purl.org/dc/dcmitype/StillImage" />
      </cc:Work>
    </rdf:RDF>
  </metadata>
  <defs
     id="defs37" />
  <sodipodi:namedview
     pagecolor="#ffffff"
     bordercolor="#666666"
     borderopacity="1"
     objecttolerance="10"
     gridtolerance="10"
     guidetolerance="10"
     inkscape:pageopacity="0"
     inkscape:pageshadow="2"
     inkscape:window-width="1280"
     inkscape:window-height="776"
     id="namedview35"
     showgrid="false"
     fit-margin-top="0"
     fit-margin-left="0"
     fit-margin-right="0"
     fit-margin-bottom="0"
     inkscape:zoom="0.83598947"
     inkscape:cx="222.672"
     inkscape:cy="113.01061"
     inkscape:window-x="0"
     inkscape:window-y="24"
     inkscape:window-maximized="1"
     inkscape:current-layer="svg2" />
  <clipPath
     id="p.0">
    <path
       d="M 0,0 720,0 720,540 0,540 0,0 z"
       clip-rule="nonzero"
       id="path5"
       inkscape:connector-curvature="0" />
  </clipPath>
  <g
     clip-path="url(#p.0)"
     id="g7"
     transform="translate(-145.77946,-43.411196)">
    <path
       d="m 0,0 720,0 0,540 -720,0 z"
       id="path9"
       inkscape:connector-curvature="0"
       style="fill:#000000;fill-opacity:0;fill-rule:nonzero" />
  </g>
  <g
     transform="translate(-72.625,-34.9075)"
     style="fill:none;stroke:none"
     id="g3798">
    <path
       style="fill:#000000;fill-opacity:0;fill-rule:nonzero"
       inkscape:connector-curvature="0"
       id="path11"
       d="m 74.378864,119.67824 0,0 c 0,-43.634847 36.712646,-79.007871 81.999996,-79.007871 l 0,0 c 21.74775,0 42.60477,8.324019 57.98276,23.14087 15.37797,14.816853 24.01724,34.91281 24.01724,55.867001 l 0,0 c 0,43.63485 -36.71266,79.00787 -82,79.00787 l 0,0 c -45.28735,0 -81.999996,-35.37303 -81.999996,-79.00787 z" />
    <path
       style="stroke:#000000;stroke-width:3.5;stroke-linecap:butt;stroke-linejoin:round;stroke-miterlimit:10;stroke-dasharray:none"
       inkscape:connector-curvature="0"
       id="path13"
       d="m 74.378864,119.67824 0,0 c 0,-43.634847 36.712646,-79.007871 81.999996,-79.007871 l 0,0 c 21.74775,0 42.60477,8.324019 57.98276,23.14087 15.37797,14.816853 24.01724,34.91281 24.01724,55.867001 l 0,0 c 0,43.63485 -36.71266,79.00787 -82,79.00787 l 0,0 c -45.28735,0 -81.999996,-35.37303 -81.999996,-79.00787 z" />
    <path
       style="fill:#000000;fill-rule:nonzero"
       inkscape:connector-curvature="0"
       id="path15"
       d="m 154.98317,126.59824 q -0.42187,-0.70313 -0.96875,-1.57813 -0.53125,-0.875 -1.15625,-1.8125 -0.625,-0.9375 -1.29687,-1.90625 -0.67188,-0.96875 -1.34375,-1.875 -0.67188,-0.90625 -1.29688,-1.70312 -0.625,-0.79688 -1.15625,-1.40625 l 0,10.28125 -1.79687,0 0,-13.17188 1.45312,0 q 0.89063,0.95313 1.90625,2.21875 1.01563,1.26563 2.01563,2.60938 1,1.32812 1.875,2.625 0.89062,1.29687 1.5,2.29687 l 0,-9.75 1.8125,0 0,13.17188 -1.54688,0 z m 4.69114,-10.45313 q 1.07812,-0.42187 2.10937,-1.0625 1.03125,-0.65625 1.875,-1.65625 l 1.26563,0 0,13.17188 -1.76563,0 0,-10.71875 q -0.23437,0.21875 -0.57812,0.45312 -0.32813,0.21875 -0.71875,0.42188 -0.375,0.20312 -0.8125,0.40625 -0.42188,0.1875 -0.82813,0.3125 l -0.54687,-1.32813 z" />
    <path
       style="fill:#000000;fill-opacity:0;fill-rule:nonzero"
       inkscape:connector-curvature="0"
       id="path17"
       d="m 210.37886,119.67824 0,0 c 0,-43.634847 36.71265,-79.007871 82,-79.007871 l 0,0 c 21.74774,0 42.60477,8.324019 57.98276,23.14087 15.37796,14.816853 24.01724,34.91281 24.01724,55.867001 l 0,0 c 0,43.63485 -36.71265,79.00787 -82,79.00787 l 0,0 c -45.28735,0 -82,-35.37303 -82,-79.00787 z" />
    <path
       style="stroke:#000000;stroke-width:3.5;stroke-linecap:butt;stroke-linejoin:round;stroke-miterlimit:10;stroke-dasharray:none"
       inkscape:connector-curvature="0"
       id="path19"
       d="m 210.37886,119.67824 0,0 c 0,-43.634847 36.71265,-79.007871 82,-79.007871 l 0,0 c 21.74774,0 42.60477,8.324019 57.98276,23.14087 15.37796,14.816853 24.01724,34.91281 24.01724,55.867001 l 0,0 c 0,43.63485 -36.71265,79.00787 -82,79.00787 l 0,0 c -45.28735,0 -82,-35.37303 -82,-79.00787 z" />
    <path
       style="fill:#000000;fill-rule:nonzero"
       inkscape:connector-curvature="0"
       id="path21"
       d="m 290.69866,126.59824 q -0.21875,-0.6875 -0.48438,-1.40625 -0.25,-0.71875 -0.5,-1.4375 l -5.125,0 q -0.25,0.71875 -0.5,1.4375 -0.25,0.71875 -0.46875,1.40625 l -3.07812,0 q 0.75,-2.125 1.40625,-3.92188 0.67187,-1.8125 1.29687,-3.40625 0.64063,-1.60937 1.25,-3.03125 0.625,-1.4375 1.29688,-2.8125 l 2.82812,0 q 0.64063,1.375 1.26563,2.8125 0.64062,1.42188 1.26562,3.03125 0.64063,1.59375 1.29688,3.40625 0.67187,1.79688 1.42187,3.92188 l -3.17187,0 z m -3.5625,-10.1875 q -0.0937,0.28125 -0.28125,0.78125 -0.1875,0.5 -0.4375,1.14062 -0.25,0.64063 -0.54688,1.42188 -0.29687,0.78125 -0.59375,1.64062 l 3.73438,0 q -0.29688,-0.85937 -0.57813,-1.64062 -0.28125,-0.78125 -0.54687,-1.42188 -0.25,-0.64062 -0.45313,-1.14062 -0.1875,-0.5 -0.29687,-0.78125 z m 7.99803,-0.25 q 0.54688,-0.21875 1.14063,-0.51563 0.60937,-0.29687 1.17187,-0.64062 0.57813,-0.35938 1.09375,-0.75 0.53125,-0.39063 0.95313,-0.82813 l 1.96875,0 0,13.17188 -2.82813,0 0,-9.48438 q -0.57812,0.39063 -1.28125,0.70313 -0.70312,0.3125 -1.35937,0.53125 l -0.85938,-2.1875 z" />
    <path
       style="fill:#000000;fill-opacity:0;fill-rule:nonzero"
       inkscape:connector-curvature="0"
       id="path23"
       d="m 347.37886,119.67824 0,0 c 0,-43.634847 36.71265,-79.007871 82,-79.007871 l 0,0 c 21.74774,0 42.60477,8.324019 57.98276,23.14087 15.37796,14.816853 24.01724,34.91281 24.01724,55.867001 l 0,0 c 0,43.63485 -36.71265,79.00787 -82,79.00787 l 0,0 c -45.28735,0 -82,-35.37303 -82,-79.00787 z" />
    <path
       style="stroke:#000000;stroke-width:3.5;stroke-linecap:butt;stroke-linejoin:round;stroke-miterlimit:10;stroke-dasharray:none"
       inkscape:connector-curvature="0"
       id="path25"
       d="m 347.37886,119.67824 0,0 c 0,-43.634847 36.71265,-79.007871 82,-79.007871 l 0,0 c 21.74774,0 42.60477,8.324019 57.98276,23.14087 15.37796,14.816853 24.01724,34.91281 24.01724,55.867001 l 0,0 c 0,43.63485 -36.71265,79.00787 -82,79.00787 l 0,0 c -45.28735,0 -82,-35.37303 -82,-79.00787 z" />
    <path
       style="fill:#000000;fill-rule:nonzero"
       inkscape:connector-curvature="0"
       id="path27"
       d="m 427.98316,126.59824 q -0.42187,-0.70313 -0.96875,-1.57813 -0.53125,-0.875 -1.15625,-1.8125 -0.625,-0.9375 -1.29687,-1.90625 -0.67188,-0.96875 -1.34375,-1.875 -0.67188,-0.90625 -1.29688,-1.70312 -0.625,-0.79688 -1.15625,-1.40625 l 0,10.28125 -1.79687,0 0,-13.17188 1.45312,0 q 0.89063,0.95313 1.90625,2.21875 1.01563,1.26563 2.01563,2.60938 1,1.32812 1.875,2.625 0.89062,1.29687 1.5,2.29687 l 0,-9.75 1.8125,0 0,13.17188 -1.54688,0 z m 11.80051,-9.79688 q 0,0.67188 -0.28125,1.3125 -0.26563,0.64063 -0.73438,1.26563 -0.45312,0.60937 -1.03125,1.20312 -0.5625,0.59375 -1.125,1.17188 -0.32812,0.32812 -0.76562,0.76562 -0.42188,0.4375 -0.79688,0.90625 -0.375,0.46875 -0.64062,0.90625 -0.25,0.4375 -0.25,0.76563 l 6.0625,0 0,1.5 -7.98438,0 q -0.0156,-0.10938 -0.0156,-0.21875 0,-0.125 0,-0.21875 0,-0.89063 0.29687,-1.65625 0.29688,-0.78125 0.76563,-1.45313 0.46875,-0.6875 1.0625,-1.29687 0.59375,-0.60938 1.15625,-1.17188 0.48437,-0.46875 0.90625,-0.90625 0.42187,-0.45312 0.75,-0.89062 0.34375,-0.45313 0.53125,-0.92188 0.20312,-0.48437 0.20312,-1.01562 0,-0.5625 -0.1875,-0.95313 -0.17187,-0.40625 -0.48437,-0.67187 -0.29688,-0.26563 -0.70313,-0.39063 -0.40625,-0.125 -0.85937,-0.125 -0.54688,0 -1.01563,0.15625 -0.45312,0.14063 -0.8125,0.34375 -0.35937,0.20313 -0.60937,0.42188 -0.23438,0.21875 -0.375,0.32812 l -0.875,-1.25 q 0.17187,-0.1875 0.51562,-0.46875 0.34375,-0.28125 0.8125,-0.51562 0.48438,-0.25 1.0625,-0.42188 0.59375,-0.17187 1.28125,-0.17187 2.0625,0 3.09375,0.96875 1.04688,0.95312 1.04688,2.70312 z" />
    <path
       style="fill:#000000;fill-opacity:0;fill-rule:nonzero"
       inkscape:connector-curvature="0"
       id="path29"
       d="m 277.37886,197.67824 0,0 c 0,-43.63484 36.71265,-79.00787 82,-79.00787 l 0,0 c 21.74774,0 42.60477,8.32402 57.98276,23.14087 15.37799,14.81685 24.01724,34.91281 24.01724,55.867 l 0,0 c 0,43.63485 -36.71265,79.00787 -82,79.00787 l 0,0 c -45.28735,0 -82,-35.37303 -82,-79.00787 z" />
    <path
       style="stroke:#000000;stroke-width:3.5;stroke-linecap:butt;stroke-linejoin:round;stroke-miterlimit:10;stroke-dasharray:none"
       inkscape:connector-curvature="0"
       id="path31"
       d="m 277.37886,197.67824 0,0 c 0,-43.63484 36.71265,-79.00787 82,-79.00787 l 0,0 c 21.74774,0 42.60477,8.32402 57.98276,23.14087 15.37799,14.81685 24.01724,34.91281 24.01724,55.867 l 0,0 c 0,43.63485 -36.71265,79.00787 -82,79.00787 l 0,0 c -45.28735,0 -82,-35.37303 -82,-79.00787 z" />
    <path
       style="fill:#000000;fill-rule:nonzero"
       inkscape:connector-curvature="0"
       id="path33"
       d="m 357.98316,204.59824 q -0.42187,-0.70312 -0.96875,-1.57812 -0.53125,-0.875 -1.15625,-1.8125 -0.625,-0.9375 -1.29687,-1.90625 -0.67188,-0.96875 -1.34375,-1.875 -0.67188,-0.90625 -1.29688,-1.70313 -0.625,-0.79687 -1.15625,-1.40625 l 0,10.28125 -1.79687,0 0,-13.17187 1.45312,0 q 0.89063,0.95312 1.90625,2.21875 1.01563,1.26562 2.01563,2.60937 1,1.32813 1.875,2.625 0.89062,1.29688 1.5,2.29688 l 0,-9.75 1.8125,0 0,13.17187 -1.54688,0 z m 7.22238,-1.29687 q 1.6875,0 2.42188,-0.65625 0.73437,-0.67188 0.73437,-1.79688 0,-0.71875 -0.3125,-1.20312 -0.29687,-0.5 -0.79687,-0.79688 -0.48438,-0.29687 -1.14063,-0.40625 -0.65625,-0.125 -1.34375,-0.125 l -0.45312,0 0,-1.45312 0.625,0 q 0.46875,0 0.96875,-0.0937 0.51562,-0.0937 0.92187,-0.34375 0.42188,-0.25 0.6875,-0.67188 0.26563,-0.42187 0.26563,-1.07812 0,-0.53125 -0.1875,-0.90625 -0.1875,-0.375 -0.5,-0.625 -0.3125,-0.25 -0.73438,-0.34375 -0.40625,-0.10938 -0.85937,-0.10938 -0.90625,0 -1.54688,0.26563 -0.64062,0.26562 -1.07812,0.54687 l -0.67188,-1.34375 q 0.21875,-0.15625 0.5625,-0.32812 0.35938,-0.1875 0.79688,-0.34375 0.4375,-0.15625 0.9375,-0.25 0.51562,-0.10938 1.0625,-0.10938 1.04687,0 1.79687,0.26563 0.76563,0.25 1.25,0.71875 0.5,0.45312 0.75,1.09375 0.25,0.64062 0.25,1.375 0,1.03125 -0.59375,1.76562 -0.57812,0.71875 -1.42187,1.10938 0.51562,0.15625 0.98437,0.4375 0.48438,0.28125 0.82813,0.71875 0.35937,0.4375 0.57812,1.01562 0.21875,0.5625 0.21875,1.26563 0,0.85937 -0.29687,1.59375 -0.29688,0.71875 -0.92188,1.25 -0.60937,0.53125 -1.54687,0.84375 -0.92188,0.29687 -2.20313,0.29687 -0.48437,0 -1.01562,-0.0781 -0.51563,-0.0625 -0.98438,-0.1875 -0.45312,-0.10938 -0.79687,-0.21875 -0.32813,-0.125 -0.48438,-0.20313 l 0.34375,-1.53125 q 0.3125,0.15625 1.0625,0.40625 0.76563,0.23438 1.84375,0.23438 z" />
  </g>
</svg>
