<?xml version="1.0" encoding="UTF-8" standalone="no"?>
<svg
   xmlns:dc="http://purl.org/dc/elements/1.1/"
   xmlns:cc="http://creativecommons.org/ns#"
   xmlns:rdf="http://www.w3.org/1999/02/22-rdf-syntax-ns#"
   xmlns:svg="http://www.w3.org/2000/svg"
   xmlns="http://www.w3.org/2000/svg"
   xmlns:sodipodi="http://sodipodi.sourceforge.net/DTD/sodipodi-0.dtd"
   xmlns:inkscape="http://www.inkscape.org/namespaces/inkscape"
   version="1.1"
   viewBox="0 0 704 218.90625"
   stroke-miterlimit="10"
   id="svg2"
   inkscape:version="0.48.4 r9939"
   width="100%"
   height="100%"
   sodipodi:docname="2-the-powerlan-conundrum.svg"
   style="fill:none;stroke:none">
  <metadata
     id="metadata53">
    <rdf:RDF>
      <cc:Work
         rdf:about="">
        <dc:format>image/svg+xml</dc:format>
        <dc:type
           rdf:resource="http://purl.org/dc/dcmitype/StillImage" />
      </cc:Work>
    </rdf:RDF>
  </metadata>
  <defs
     id="defs51" />
  <sodipodi:namedview
     pagecolor="#ffffff"
     bordercolor="#666666"
     borderopacity="1"
     objecttolerance="10"
     gridtolerance="10"
     guidetolerance="10"
     inkscape:pageopacity="0"
     inkscape:pageshadow="2"
     inkscape:window-width="1280"
     inkscape:window-height="776"
     id="namedview49"
     showgrid="false"
     fit-margin-top="2"
     fit-margin-left="2"
     fit-margin-right="2"
     fit-margin-bottom="2"
     inkscape:zoom="1.0567419"
     inkscape:cx="311.25217"
     inkscape:cy="122.0625"
     inkscape:window-x="0"
     inkscape:window-y="24"
     inkscape:window-maximized="1"
     inkscape:current-layer="svg2" />
  <clipPath
     id="p.0">
    <path
       d="M 0,0 720,0 720,540 0,540 0,0 z"
       clip-rule="nonzero"
       id="path5"
       inkscape:connector-curvature="0" />
  </clipPath>
  <g
     clip-path="url(#p.0)"
     id="g7"
     transform="translate(-32.187491,-173.15625)">
    <path
       d="m 0,0 720,0 0,540 -720,0 z"
       id="path9"
       inkscape:connector-curvature="0"
       style="fill:#000000;fill-opacity:0;fill-rule:nonzero" />
  </g>
  <g
     id="g3130"
     transform="translate(-32.187491,-173.15625)">
    <path
       id="path11"
       d="m 35.699775,230.53618 80.000005,0 0,158.01575 -80.000005,0 z"
       inkscape:connector-curvature="0"
       style="fill:#d9ead3;fill-rule:nonzero" />
    <path
       id="path13"
       d="m 35.699775,230.53618 80.000005,0 0,158.01575 -80.000005,0 z"
       inkscape:connector-curvature="0"
       style="stroke:#000000;stroke-width:3;stroke-linecap:butt;stroke-linejoin:round" />
    <path
       id="path15"
       d="m 65.228568,316.46405 0,-13.59375 1.84375,0 7.140625,10.67188 0,-10.67188 1.71875,0 0,13.59375 -1.84375,0 -7.140625,-10.6875 0,10.6875 -1.71875,0 z m 19.097946,0 -1.671875,0 0,-10.64062 q -0.59375,0.57812 -1.578125,1.15625 -0.984375,0.5625 -1.765625,0.85937 l 0,-1.625 q 1.40625,-0.65625 2.453125,-1.59375 1.046875,-0.9375 1.484375,-1.8125 l 1.078125,0 0,13.65625 z"
       inkscape:connector-curvature="0"
       style="fill:#000000;fill-rule:nonzero" />
    <path
       id="path17"
       d="m 456.69978,230.53618 80,0 0,158.01575 -80,0 z"
       inkscape:connector-curvature="0"
       style="fill:#c9daf8;fill-rule:nonzero" />
    <path
       id="path19"
       d="m 456.69978,230.53618 80,0 0,158.01575 -80,0 z"
       inkscape:connector-curvature="0"
       style="stroke:#000000;stroke-width:3;stroke-linecap:butt;stroke-linejoin:round" />
    <path
       id="path21"
       d="m 486.22858,316.46405 0,-13.59375 1.84375,0 7.14062,10.67188 0,-10.67188 1.71875,0 0,13.59375 -1.84375,0 -7.14062,-10.6875 0,10.6875 -1.71875,0 z m 21.58231,-1.60937 0,1.60937 -8.98438,0 q -0.0156,-0.60937 0.1875,-1.15625 0.34375,-0.92187 1.09375,-1.8125 0.76563,-0.89062 2.1875,-2.0625 2.21875,-1.8125 3,-2.875 0.78125,-1.0625 0.78125,-2.01562 0,-0.98438 -0.71875,-1.67188 -0.70312,-0.6875 -1.84375,-0.6875 -1.20312,0 -1.9375,0.73438 -0.71875,0.71875 -0.71875,2 l -1.71875,-0.17188 q 0.17188,-1.92187 1.32813,-2.92187 1.15625,-1.01563 3.09375,-1.01563 1.95312,0 3.09375,1.09375 1.14062,1.07813 1.14062,2.6875 0,0.8125 -0.34375,1.60938 -0.32812,0.78125 -1.10937,1.65625 -0.76563,0.85937 -2.5625,2.39062 -1.5,1.26563 -1.9375,1.71875 -0.42188,0.4375 -0.70313,0.89063 l 6.67188,0 z"
       inkscape:connector-curvature="0"
       style="fill:#000000;fill-rule:nonzero" />
    <path
       id="path23"
       d="m 652.69978,230.53618 80,0 0,158.01575 -80,0 z"
       inkscape:connector-curvature="0"
       style="fill:#ead1dc;fill-rule:nonzero" />
    <path
       id="path25"
       d="m 652.69978,230.53618 80,0 0,158.01575 -80,0 z"
       inkscape:connector-curvature="0"
       style="stroke:#000000;stroke-width:3;stroke-linecap:butt;stroke-linejoin:round" />
    <path
       id="path27"
       d="m 682.22858,316.46405 0,-13.59375 1.84375,0 7.14063,10.67188 0,-10.67188 1.71875,0 0,13.59375 -1.84375,0 -7.14063,-10.6875 0,10.6875 -1.71875,0 z m 12.81665,-3.59375 1.67188,-0.21875 q 0.28125,1.42188 0.96875,2.04688 0.70312,0.625 1.6875,0.625 1.1875,0 2,-0.8125 0.8125,-0.82813 0.8125,-2.03125 0,-1.14063 -0.76563,-1.89063 -0.75,-0.75 -1.90625,-0.75 -0.46875,0 -1.17187,0.1875 l 0.1875,-1.46875 q 0.15625,0.0156 0.26562,0.0156 1.0625,0 1.90625,-0.54688 0.85938,-0.5625 0.85938,-1.71875 0,-0.92187 -0.625,-1.51562 -0.60938,-0.60938 -1.59375,-0.60938 -0.96875,0 -1.625,0.60938 -0.64063,0.60937 -0.82813,1.84375 l -1.67187,-0.29688 q 0.29687,-1.6875 1.375,-2.60937 1.09375,-0.92188 2.71875,-0.92188 1.10937,0 2.04687,0.48438 0.9375,0.46875 1.42188,1.29687 0.5,0.82813 0.5,1.75 0,0.89063 -0.46875,1.60938 -0.46875,0.71875 -1.40625,1.15625 1.21875,0.26562 1.875,1.15625 0.67187,0.875 0.67187,2.1875 0,1.78125 -1.29687,3.01562 -1.29688,1.23438 -3.28125,1.23438 -1.79688,0 -2.98438,-1.0625 -1.17187,-1.0625 -1.34375,-2.76563 z"
       inkscape:connector-curvature="0"
       style="fill:#000000;fill-rule:nonzero" />
    <path
       id="path29"
       d="m 75.699775,231.29208 0,-49.51181"
       inkscape:connector-curvature="0"
       style="fill:#000000;fill-opacity:0;fill-rule:nonzero" />
    <path
       id="path31"
       d="m 75.699775,231.29208 0,-49.51181"
       inkscape:connector-curvature="0"
       style="stroke:#000000;stroke-width:3;stroke-linecap:butt;stroke-linejoin:round" />
    <path
       id="path33"
       d="m 75.699775,181.78027 616.503905,0.75591"
       inkscape:connector-curvature="0"
       style="fill:#000000;fill-opacity:0;fill-rule:nonzero" />
    <path
       id="path35"
       d="m 75.699775,181.78027 616.503905,0.75591"
       inkscape:connector-curvature="0"
       style="stroke:#000000;stroke-width:3;stroke-linecap:butt;stroke-linejoin:round" />
    <path
       id="path37"
       d="m 496.69978,230.53618 0,-48.50394"
       inkscape:connector-curvature="0"
       style="fill:#000000;fill-opacity:0;fill-rule:nonzero" />
    <path
       id="path39"
       d="m 496.69978,230.53618 0,-48.50394"
       inkscape:connector-curvature="0"
       style="stroke:#000000;stroke-width:3;stroke-linecap:butt;stroke-linejoin:round" />
    <path
       id="path41"
       d="m 692.69978,230.53618 0,-48"
       inkscape:connector-curvature="0"
       style="fill:#000000;fill-opacity:0;fill-rule:nonzero" />
    <path
       id="path43"
       d="m 692.69978,230.53618 0,-48"
       inkscape:connector-curvature="0"
       style="stroke:#000000;stroke-width:3;stroke-linecap:butt;stroke-linejoin:round" />
    <path
       id="path45"
       d="m 490.69978,182.15823 0,0 c 0,-3.31371 2.68628,-6 6,-6 l 0,0 c 1.59131,0 3.11743,0.63214 4.24265,1.75736 1.12521,1.12521 1.75735,2.65134 1.75735,4.24264 l 0,0 c 0,3.31371 -2.68628,6 -6,6 l 0,0 c -3.31372,0 -6,-2.68629 -6,-6 z"
       inkscape:connector-curvature="0"
       style="fill:#000000;fill-rule:nonzero" />
    <path
       id="path47"
       d="m 490.69978,182.15823 0,0 c 0,-3.31371 2.68628,-6 6,-6 l 0,0 c 1.59131,0 3.11743,0.63214 4.24265,1.75736 1.12521,1.12521 1.75735,2.65134 1.75735,4.24264 l 0,0 c 0,3.31371 -2.68628,6 -6,6 l 0,0 c -3.31372,0 -6,-2.68629 -6,-6 z"
       inkscape:connector-curvature="0"
       style="stroke:#000000;stroke-width:2;stroke-linecap:butt;stroke-linejoin:round" />
  </g>
</svg>
