<?xml version="1.0" encoding="UTF-8" standalone="no"?>
<svg
   xmlns:dc="http://purl.org/dc/elements/1.1/"
   xmlns:cc="http://creativecommons.org/ns#"
   xmlns:rdf="http://www.w3.org/1999/02/22-rdf-syntax-ns#"
   xmlns:svg="http://www.w3.org/2000/svg"
   xmlns="http://www.w3.org/2000/svg"
   xmlns:sodipodi="http://sodipodi.sourceforge.net/DTD/sodipodi-0.dtd"
   xmlns:inkscape="http://www.inkscape.org/namespaces/inkscape"
   version="1.1"
   viewBox="0 0 420.97 362"
   stroke-miterlimit="10"
   id="svg2"
   inkscape:version="0.48.4 r9939"
   width="100%"
   height="100%"
   sodipodi:docname="3-the-mesh-of-death-adversity.svg"
   style="fill:none;stroke:none">
  <metadata
     id="metadata57">
    <rdf:RDF>
      <cc:Work
         rdf:about="">
        <dc:format>image/svg+xml</dc:format>
        <dc:type
           rdf:resource="http://purl.org/dc/dcmitype/StillImage" />
      </cc:Work>
    </rdf:RDF>
  </metadata>
  <defs
     id="defs55" />
  <sodipodi:namedview
     pagecolor="#ffffff"
     bordercolor="#666666"
     borderopacity="1"
     objecttolerance="10"
     gridtolerance="10"
     guidetolerance="10"
     inkscape:pageopacity="0"
     inkscape:pageshadow="2"
     inkscape:window-width="1280"
     inkscape:window-height="776"
     id="namedview53"
     showgrid="false"
     fit-margin-top="0"
     fit-margin-left="0"
     fit-margin-right="0"
     fit-margin-bottom="0"
     inkscape:zoom="1.0567419"
     inkscape:cx="163.94132"
     inkscape:cy="160.87572"
     inkscape:window-x="0"
     inkscape:window-y="24"
     inkscape:window-maximized="1"
     inkscape:current-layer="svg2" />
  <clipPath
     id="p.0">
    <path
       d="M 0,0 720,0 720,540 0,540 0,0 z"
       clip-rule="nonzero"
       id="path5"
       inkscape:connector-curvature="0" />
  </clipPath>
  <g
     clip-path="url(#p.0)"
     id="g7"
     transform="translate(-179.49834,-68.87572)">
    <path
       d="m 0,0 720,0 0,540 -720,0 z"
       id="path9"
       inkscape:connector-curvature="0"
       style="fill:#000000;fill-opacity:0;fill-rule:nonzero" />
  </g>
  <g
     id="g3112"
     transform="translate(-335.53125,-142.6875)">
    <path
       id="path11"
       d="m 467.02183,224.69273 0,0 c 0,-42.7999 35.59161,-77.49606 79.49606,-77.49606 l 0,0 c 21.08368,0 41.3038,8.16474 56.21222,22.69807 14.90839,14.53333 23.28384,34.24476 23.28384,54.79799 l 0,0 c 0,42.7999 -35.59158,77.49606 -79.49606,77.49606 l 0,0 c -43.90445,0 -79.49606,-34.69616 -79.49606,-77.49606 z"
       inkscape:connector-curvature="0"
       style="fill:#000000;fill-opacity:0;fill-rule:nonzero" />
    <path
       id="path13"
       d="m 467.02183,224.69273 0,0 c 0,-42.7999 35.59161,-77.49606 79.49606,-77.49606 l 0,0 c 21.08368,0 41.3038,8.16474 56.21222,22.69807 14.90839,14.53333 23.28384,34.24476 23.28384,54.79799 l 0,0 c 0,42.7999 -35.59158,77.49606 -79.49606,77.49606 l 0,0 c -43.90445,0 -79.49606,-34.69616 -79.49606,-77.49606 z"
       inkscape:connector-curvature="0"
       style="stroke:#000000;stroke-width:3;stroke-linecap:butt;stroke-linejoin:round" />
    <path
       id="path15"
       d="m 545.12219,231.61273 q -0.42187,-0.70312 -0.96875,-1.57812 -0.53125,-0.875 -1.15625,-1.8125 -0.625,-0.9375 -1.29687,-1.90625 -0.67188,-0.96875 -1.34375,-1.875 -0.67188,-0.90625 -1.29688,-1.70313 -0.625,-0.79687 -1.15625,-1.40625 l 0,10.28125 -1.79687,0 0,-13.17188 1.45312,0 q 0.89063,0.95313 1.90625,2.21875 1.01563,1.26563 2.01563,2.60938 1,1.32813 1.875,2.625 0.89062,1.29688 1.5,2.29688 l 0,-9.75001 1.8125,0 0,13.17188 -1.54688,0 z m 4.69113,-10.45313 q 1.07813,-0.42187 2.10938,-1.0625 1.03125,-0.65625 1.875,-1.65625 l 1.26562,0 0,13.17188 -1.76562,0 0,-10.71875 q -0.23438,0.21875 -0.57813,0.45313 -0.32812,0.21875 -0.71875,0.42187 -0.375,0.20313 -0.8125,0.40625 -0.42187,0.1875 -0.82812,0.3125 l -0.54688,-1.32813 z"
       inkscape:connector-curvature="0"
       style="fill:#000000;fill-rule:nonzero" />
    <path
       id="path17"
       d="m 339.02183,265.69273 0,0 c 0,-42.7999 35.5916,-77.49606 79.49606,-77.49606 l 0,0 c 21.08366,0 41.3038,8.16474 56.21222,22.69807 14.90839,14.53333 23.28384,34.24476 23.28384,54.79799 l 0,0 c 0,42.7999 -35.59158,77.49606 -79.49606,77.49606 l 0,0 c -43.90446,0 -79.49606,-34.69616 -79.49606,-77.49606 z"
       inkscape:connector-curvature="0"
       style="fill:#000000;fill-opacity:0;fill-rule:nonzero" />
    <path
       id="path19"
       d="m 339.02183,265.69273 0,0 c 0,-42.7999 35.5916,-77.49606 79.49606,-77.49606 l 0,0 c 21.08366,0 41.3038,8.16474 56.21222,22.69807 14.90839,14.53333 23.28384,34.24476 23.28384,54.79799 l 0,0 c 0,42.7999 -35.59158,77.49606 -79.49606,77.49606 l 0,0 c -43.90446,0 -79.49606,-34.69616 -79.49606,-77.49606 z"
       inkscape:connector-curvature="0"
       style="stroke:#000000;stroke-width:3;stroke-linecap:butt;stroke-linejoin:round" />
    <path
       id="path21"
       d="m 417.1222,272.61273 q -0.42188,-0.70313 -0.96875,-1.57813 -0.53125,-0.875 -1.15625,-1.8125 -0.625,-0.9375 -1.29688,-1.90625 -0.67187,-0.96875 -1.34375,-1.875 -0.67187,-0.90625 -1.29687,-1.70312 -0.625,-0.79688 -1.15625,-1.40625 l 0,10.28125 -1.79688,0 0,-13.17188 1.45313,0 q 0.89062,0.95313 1.90625,2.21875 1.01562,1.26563 2.01562,2.60938 1,1.32812 1.875,2.625 0.89063,1.29687 1.5,2.29687 l 0,-9.75 1.8125,0 0,13.17188 -1.54687,0 z m 4.12863,-5.28125 q 0,-1.92188 0.53125,-3.39063 0.53125,-1.46875 1.5,-2.46875 0.98438,-1.01562 2.375,-1.53125 1.40625,-0.53125 3.15625,-0.54687 l 0.125,1.48437 q -1.125,0.0156 -2.04687,0.25 -0.92188,0.21875 -1.64063,0.71875 -0.71875,0.48438 -1.21875,1.28125 -0.48437,0.78125 -0.73437,1.9375 0.5,-0.21875 1.10937,-0.375 0.625,-0.15625 1.28125,-0.15625 1.125,0 1.90625,0.34375 0.78125,0.34375 1.26563,0.90625 0.5,0.5625 0.71875,1.29688 0.21875,0.71875 0.21875,1.51562 0,0.73438 -0.25,1.5 -0.25,0.75 -0.75,1.375 -0.5,0.625 -1.28125,1.03125 -0.78125,0.39063 -1.84375,0.39063 -2.17188,0 -3.29688,-1.46875 -1.125,-1.48438 -1.125,-4.09375 z m 4.25,-1.34375 q -0.67187,0 -1.25,0.125 -0.5625,0.10937 -1.125,0.35937 -0.0156,0.21875 -0.0312,0.4375 0,0.21875 0,0.42188 0,0.82812 0.10938,1.57812 0.10937,0.73438 0.40625,1.29688 0.29687,0.5625 0.78125,0.90625 0.5,0.32812 1.26562,0.32812 0.625,0 1.0625,-0.26562 0.4375,-0.26563 0.71875,-0.6875 0.28125,-0.42188 0.40625,-0.90625 0.125,-0.48438 0.125,-0.9375 0,-1.29688 -0.625,-1.96875 -0.60937,-0.6875 -1.84375,-0.6875 z"
       inkscape:connector-curvature="0"
       style="fill:#000000;fill-rule:nonzero" />
    <path
       id="path23"
       d="m 467.02183,425.68487 0,0 c 0,-42.7999 35.59161,-77.49606 79.49606,-77.49606 l 0,0 c 21.08368,0 41.3038,8.16473 56.21222,22.69807 14.90839,14.53334 23.28384,34.24477 23.28384,54.79799 l 0,0 c 0,42.7999 -35.59158,77.49606 -79.49606,77.49606 l 0,0 c -43.90445,0 -79.49606,-34.69616 -79.49606,-77.49606 z"
       inkscape:connector-curvature="0"
       style="fill:#000000;fill-opacity:0;fill-rule:nonzero" />
    <path
       id="path25"
       d="m 467.02183,425.68487 0,0 c 0,-42.7999 35.59161,-77.49606 79.49606,-77.49606 l 0,0 c 21.08368,0 41.3038,8.16473 56.21222,22.69807 14.90839,14.53334 23.28384,34.24477 23.28384,54.79799 l 0,0 c 0,42.7999 -35.59158,77.49606 -79.49606,77.49606 l 0,0 c -43.90445,0 -79.49606,-34.69616 -79.49606,-77.49606 z"
       inkscape:connector-curvature="0"
       style="stroke:#000000;stroke-width:3;stroke-linecap:butt;stroke-linejoin:round" />
    <path
       id="path27"
       d="m 545.12219,432.60487 q -0.42187,-0.70312 -0.96875,-1.57812 -0.53125,-0.875 -1.15625,-1.8125 -0.625,-0.9375 -1.29687,-1.90625 -0.67188,-0.96875 -1.34375,-1.875 -0.67188,-0.90625 -1.29688,-1.70313 -0.625,-0.79687 -1.15625,-1.40625 l 0,10.28125 -1.79687,0 0,-13.17187 1.45312,0 q 0.89063,0.95312 1.90625,2.21875 1.01563,1.26562 2.01563,2.60937 1,1.32813 1.875,2.625 0.89062,1.29688 1.5,2.29688 l 0,-9.75 1.8125,0 0,13.17187 -1.54688,0 z m 3.69113,-4.5625 q 0.35938,-0.82812 0.98438,-1.9375 0.625,-1.125 1.40625,-2.29687 0.79687,-1.17188 1.6875,-2.3125 0.90625,-1.14063 1.82812,-2.0625 l 1.6875,0 0,8.35937 1.5625,0 0,1.45313 -1.5625,0 0,3.35937 -1.70312,0 0,-3.35937 -5.89063,0 0,-1.20313 z m 5.89063,-6.51562 q -0.57813,0.60937 -1.15625,1.35937 -0.57813,0.75 -1.14063,1.57813 -0.54687,0.8125 -1.03125,1.67187 -0.48437,0.84375 -0.85937,1.65625 l 4.1875,0 0,-6.26562 z"
       inkscape:connector-curvature="0"
       style="fill:#000000;fill-rule:nonzero" />
    <path
       id="path29"
       d="m 339.02183,391.19667 0,0 c 0,-42.7999 35.5916,-77.49606 79.49606,-77.49606 l 0,0 c 21.08366,0 41.3038,8.16473 56.21222,22.69807 14.90839,14.53333 23.28384,34.24475 23.28384,54.79799 l 0,0 c 0,42.7999 -35.59158,77.49606 -79.49606,77.49606 l 0,0 c -43.90446,0 -79.49606,-34.69616 -79.49606,-77.49606 z"
       inkscape:connector-curvature="0"
       style="fill:#000000;fill-opacity:0;fill-rule:nonzero" />
    <path
       id="path31"
       d="m 339.02183,391.19667 0,0 c 0,-42.7999 35.5916,-77.49606 79.49606,-77.49606 l 0,0 c 21.08366,0 41.3038,8.16473 56.21222,22.69807 14.90839,14.53333 23.28384,34.24475 23.28384,54.79799 l 0,0 c 0,42.7999 -35.59158,77.49606 -79.49606,77.49606 l 0,0 c -43.90446,0 -79.49606,-34.69616 -79.49606,-77.49606 z"
       inkscape:connector-curvature="0"
       style="stroke:#000000;stroke-width:3;stroke-linecap:butt;stroke-linejoin:round" />
    <path
       id="path33"
       d="m 417.1222,398.11667 q -0.42188,-0.70312 -0.96875,-1.57812 -0.53125,-0.875 -1.15625,-1.8125 -0.625,-0.9375 -1.29688,-1.90625 -0.67187,-0.96875 -1.34375,-1.875 -0.67187,-0.90625 -1.29687,-1.70313 -0.625,-0.79687 -1.15625,-1.40625 l 0,10.28125 -1.79688,0 0,-13.17187 1.45313,0 q 0.89062,0.95312 1.90625,2.21875 1.01562,1.26562 2.01562,2.60937 1,1.32813 1.875,2.625 0.89063,1.29688 1.5,2.29688 l 0,-9.75 1.8125,0 0,13.17187 -1.54687,0 z m 6.70676,-8.09375 q 2.875,0.10938 4.20312,1.25 1.34375,1.14063 1.34375,3.09375 0,0.875 -0.29687,1.625 -0.29688,0.73438 -0.89063,1.26563 -0.59375,0.53125 -1.51562,0.84375 -0.90625,0.29687 -2.15625,0.29687 -0.5,0 -1.01563,-0.0781 -0.51562,-0.0625 -0.95312,-0.1875 -0.42188,-0.10938 -0.76563,-0.21875 -0.34375,-0.125 -0.5,-0.20313 l 0.34375,-1.53125 q 0.32813,0.15625 1.04688,0.40625 0.73437,0.23438 1.79687,0.23438 0.85938,0 1.4375,-0.1875 0.57813,-0.1875 0.9375,-0.5 0.35938,-0.32813 0.51563,-0.75 0.17187,-0.4375 0.17187,-0.90625 0,-0.73438 -0.25,-1.28125 -0.25,-0.5625 -0.875,-0.9375 -0.625,-0.39063 -1.67187,-0.59375 -1.04688,-0.20313 -2.64063,-0.20313 0.125,-0.92187 0.1875,-1.73437 0.0625,-0.82813 0.10938,-1.59375 0.0625,-0.78125 0.0937,-1.54688 0.0469,-0.78125 0.0937,-1.64062 l 6.34375,0 0,1.5 -4.8125,0 q -0.0156,0.29687 -0.0625,0.78125 -0.0312,0.48437 -0.0781,1.01562 -0.0312,0.51563 -0.0781,1.01563 -0.0312,0.48437 -0.0625,0.76562 z"
       inkscape:connector-curvature="0"
       style="fill:#000000;fill-rule:nonzero" />
    <path
       id="path35"
       d="m 594.02183,265.69273 0,0 c 0,-42.7999 35.59161,-77.49606 79.49606,-77.49606 l 0,0 c 21.08368,0 41.30383,8.16474 56.21222,22.69807 14.90839,14.53333 23.28387,34.24476 23.28387,54.79799 l 0,0 c 0,42.7999 -35.59161,77.49606 -79.49609,77.49606 l 0,0 c -43.90445,0 -79.49606,-34.69616 -79.49606,-77.49606 z"
       inkscape:connector-curvature="0"
       style="fill:#000000;fill-opacity:0;fill-rule:nonzero" />
    <path
       id="path37"
       d="m 594.02183,265.69273 0,0 c 0,-42.7999 35.59161,-77.49606 79.49606,-77.49606 l 0,0 c 21.08368,0 41.30383,8.16474 56.21222,22.69807 14.90839,14.53333 23.28387,34.24476 23.28387,54.79799 l 0,0 c 0,42.7999 -35.59161,77.49606 -79.49609,77.49606 l 0,0 c -43.90445,0 -79.49606,-34.69616 -79.49606,-77.49606 z"
       inkscape:connector-curvature="0"
       style="stroke:#000000;stroke-width:3;stroke-linecap:butt;stroke-linejoin:round" />
    <path
       id="path39"
       d="m 672.12219,272.61273 q -0.42187,-0.70313 -0.96875,-1.57813 -0.53125,-0.875 -1.15625,-1.8125 -0.625,-0.9375 -1.29687,-1.90625 -0.67188,-0.96875 -1.34375,-1.875 -0.67188,-0.90625 -1.29688,-1.70312 -0.625,-0.79688 -1.15625,-1.40625 l 0,10.28125 -1.79687,0 0,-13.17188 1.45312,0 q 0.89063,0.95313 1.90625,2.21875 1.01563,1.26563 2.01563,2.60938 1,1.32812 1.875,2.625 0.89062,1.29687 1.5,2.29687 l 0,-9.75 1.8125,0 0,13.17188 -1.54688,0 z m 11.80051,-9.79688 q 0,0.67188 -0.28125,1.3125 -0.26563,0.64063 -0.73438,1.26563 -0.45312,0.60937 -1.03125,1.20312 -0.5625,0.59375 -1.125,1.17188 -0.32812,0.32812 -0.76562,0.76562 -0.42188,0.4375 -0.79688,0.90625 -0.375,0.46875 -0.64062,0.90625 -0.25,0.4375 -0.25,0.76563 l 6.0625,0 0,1.5 -7.98438,0 q -0.0156,-0.10938 -0.0156,-0.21875 0,-0.125 0,-0.21875 0,-0.89063 0.29687,-1.65625 0.29688,-0.78125 0.76563,-1.45313 0.46875,-0.6875 1.0625,-1.29687 0.59375,-0.60938 1.15625,-1.17188 0.48437,-0.46875 0.90625,-0.90625 0.42187,-0.45312 0.75,-0.89062 0.34375,-0.45313 0.53125,-0.92188 0.20312,-0.48437 0.20312,-1.01562 0,-0.5625 -0.1875,-0.95313 -0.17187,-0.40625 -0.48437,-0.67187 -0.29688,-0.26563 -0.70313,-0.39063 -0.40625,-0.125 -0.85937,-0.125 -0.54688,0 -1.01563,0.15625 -0.45312,0.14063 -0.8125,0.34375 -0.35937,0.20313 -0.60937,0.42188 -0.23438,0.21875 -0.375,0.32812 l -0.875,-1.25 q 0.17187,-0.1875 0.51562,-0.46875 0.34375,-0.28125 0.8125,-0.51562 0.48438,-0.25 1.0625,-0.42188 0.59375,-0.17187 1.28125,-0.17187 2.0625,0 3.09375,0.96875 1.04688,0.95312 1.04688,2.70312 z"
       inkscape:connector-curvature="0"
       style="fill:#000000;fill-rule:nonzero" />
    <path
       id="path41"
       d="m 594.02183,391.19667 0,0 c 0,-42.7999 35.59161,-77.49606 79.49606,-77.49606 l 0,0 c 21.08368,0 41.30383,8.16473 56.21222,22.69807 14.90839,14.53333 23.28387,34.24475 23.28387,54.79799 l 0,0 c 0,42.7999 -35.59161,77.49606 -79.49609,77.49606 l 0,0 c -43.90445,0 -79.49606,-34.69616 -79.49606,-77.49606 z"
       inkscape:connector-curvature="0"
       style="fill:#000000;fill-opacity:0;fill-rule:nonzero" />
    <path
       id="path43"
       d="m 594.02183,391.19667 0,0 c 0,-42.7999 35.59161,-77.49606 79.49606,-77.49606 l 0,0 c 21.08368,0 41.30383,8.16473 56.21222,22.69807 14.90839,14.53333 23.28387,34.24475 23.28387,54.79799 l 0,0 c 0,42.7999 -35.59161,77.49606 -79.49609,77.49606 l 0,0 c -43.90445,0 -79.49606,-34.69616 -79.49606,-77.49606 z"
       inkscape:connector-curvature="0"
       style="stroke:#000000;stroke-width:3;stroke-linecap:butt;stroke-linejoin:round" />
    <path
       id="path45"
       d="m 672.12219,398.11667 q -0.42187,-0.70312 -0.96875,-1.57812 -0.53125,-0.875 -1.15625,-1.8125 -0.625,-0.9375 -1.29687,-1.90625 -0.67188,-0.96875 -1.34375,-1.875 -0.67188,-0.90625 -1.29688,-1.70313 -0.625,-0.79687 -1.15625,-1.40625 l 0,10.28125 -1.79687,0 0,-13.17187 1.45312,0 q 0.89063,0.95312 1.90625,2.21875 1.01563,1.26562 2.01563,2.60937 1,1.32813 1.875,2.625 0.89062,1.29688 1.5,2.29688 l 0,-9.75 1.8125,0 0,13.17187 -1.54688,0 z m 7.22238,-1.29687 q 1.6875,0 2.42188,-0.65625 0.73437,-0.67188 0.73437,-1.79688 0,-0.71875 -0.3125,-1.20312 -0.29687,-0.5 -0.79687,-0.79688 -0.48438,-0.29687 -1.14063,-0.40625 -0.65625,-0.125 -1.34375,-0.125 l -0.45312,0 0,-1.45312 0.625,0 q 0.46875,0 0.96875,-0.0937 0.51562,-0.0937 0.92187,-0.34375 0.42188,-0.25 0.6875,-0.67188 0.26563,-0.42187 0.26563,-1.07812 0,-0.53125 -0.1875,-0.90625 -0.1875,-0.375 -0.5,-0.625 -0.3125,-0.25 -0.73438,-0.34375 -0.40625,-0.10938 -0.85937,-0.10938 -0.90625,0 -1.54688,0.26563 -0.64062,0.26562 -1.07812,0.54687 l -0.67188,-1.34375 q 0.21875,-0.15625 0.5625,-0.32812 0.35938,-0.1875 0.79688,-0.34375 0.4375,-0.15625 0.9375,-0.25 0.51562,-0.10938 1.0625,-0.10938 1.04687,0 1.79687,0.26563 0.76563,0.25 1.25,0.71875 0.5,0.45312 0.75,1.09375 0.25,0.64062 0.25,1.375 0,1.03125 -0.59375,1.76562 -0.57812,0.71875 -1.42187,1.10938 0.51562,0.15625 0.98437,0.4375 0.48438,0.28125 0.82813,0.71875 0.35937,0.4375 0.57812,1.01562 0.21875,0.5625 0.21875,1.26563 0,0.85937 -0.29687,1.59375 -0.29688,0.71875 -0.92188,1.25 -0.60937,0.53125 -1.54687,0.84375 -0.92188,0.29687 -2.20313,0.29687 -0.48437,0 -1.01562,-0.0781 -0.51563,-0.0625 -0.98438,-0.1875 -0.45312,-0.10938 -0.79687,-0.21875 -0.32813,-0.125 -0.48438,-0.20313 l 0.34375,-1.53125 q 0.3125,0.15625 1.0625,0.40625 0.76563,0.23438 1.84375,0.23438 z"
       inkscape:connector-curvature="0"
       style="fill:#000000;fill-rule:nonzero" />
    <path
       id="path47"
       d="m 467.02183,328.69273 0,0 c 0,-42.7999 35.59161,-77.49606 79.49606,-77.49606 l 0,0 c 21.08368,0 41.3038,8.16473 56.21222,22.69807 14.90839,14.53333 23.28384,34.24475 23.28384,54.79799 l 0,0 c 0,42.7999 -35.59158,77.49606 -79.49606,77.49606 l 0,0 c -43.90445,0 -79.49606,-34.69616 -79.49606,-77.49606 z"
       inkscape:connector-curvature="0"
       style="fill:#000000;fill-opacity:0;fill-rule:nonzero" />
    <path
       id="path49"
       d="m 467.02183,328.69273 0,0 c 0,-42.7999 35.59161,-77.49606 79.49606,-77.49606 l 0,0 c 21.08368,0 41.3038,8.16473 56.21222,22.69807 14.90839,14.53333 23.28384,34.24475 23.28384,54.79799 l 0,0 c 0,42.7999 -35.59158,77.49606 -79.49606,77.49606 l 0,0 c -43.90445,0 -79.49606,-34.69616 -79.49606,-77.49606 z"
       inkscape:connector-curvature="0"
       style="stroke:#000000;stroke-width:3;stroke-linecap:butt;stroke-linejoin:round" />
    <path
       id="path51"
       d="m 545.12219,335.61273 q -0.42187,-0.70313 -0.96875,-1.57813 -0.53125,-0.875 -1.15625,-1.8125 -0.625,-0.9375 -1.29687,-1.90625 -0.67188,-0.96875 -1.34375,-1.875 -0.67188,-0.90625 -1.29688,-1.70312 -0.625,-0.79688 -1.15625,-1.40625 l 0,10.28125 -1.79687,0 0,-13.17188 1.45312,0 q 0.89063,0.95313 1.90625,2.21875 1.01563,1.26563 2.01563,2.60938 1,1.32812 1.875,2.625 0.89062,1.29687 1.5,2.29687 l 0,-9.75 1.8125,0 0,13.17188 -1.54688,0 z m 6.01926,0 q 0.125,-1.51563 0.54687,-3.20313 0.42188,-1.6875 1.04688,-3.26562 0.625,-1.59375 1.375,-2.9375 0.76562,-1.35938 1.48437,-2.21875 l -6.40625,0 0,-1.54688 8.375,0 0,1.46875 q -0.625,0.71875 -1.39062,1.98438 -0.75,1.26562 -1.4375,2.84375 -0.67188,1.5625 -1.15625,3.34375 -0.48438,1.76562 -0.59375,3.53125 l -1.84375,0 z"
       inkscape:connector-curvature="0"
       style="fill:#000000;fill-rule:nonzero" />
  </g>
</svg>
