<?xml version="1.0" encoding="UTF-8" standalone="no"?>
<svg
   xmlns:dc="http://purl.org/dc/elements/1.1/"
   xmlns:cc="http://creativecommons.org/ns#"
   xmlns:rdf="http://www.w3.org/1999/02/22-rdf-syntax-ns#"
   xmlns:svg="http://www.w3.org/2000/svg"
   xmlns="http://www.w3.org/2000/svg"
   xmlns:sodipodi="http://sodipodi.sourceforge.net/DTD/sodipodi-0.dtd"
   xmlns:inkscape="http://www.inkscape.org/namespaces/inkscape"
   version="1.1"
   viewBox="0 0 714 310"
   stroke-miterlimit="10"
   id="svg2"
   inkscape:version="0.48.4 r9939"
   width="100%"
   height="100%"
   sodipodi:docname="4-the-convergence-time-relay.svg"
   style="fill:none;stroke:none">
  <metadata
     id="metadata83">
    <rdf:RDF>
      <cc:Work
         rdf:about="">
        <dc:format>image/svg+xml</dc:format>
        <dc:type
           rdf:resource="http://purl.org/dc/dcmitype/StillImage" />
      </cc:Work>
    </rdf:RDF>
  </metadata>
  <defs
     id="defs81" />
  <sodipodi:namedview
     pagecolor="#ffffff"
     bordercolor="#666666"
     borderopacity="1"
     objecttolerance="10"
     gridtolerance="10"
     guidetolerance="10"
     inkscape:pageopacity="0"
     inkscape:pageshadow="2"
     inkscape:window-width="1280"
     inkscape:window-height="776"
     id="namedview79"
     showgrid="false"
     fit-margin-top="0"
     fit-margin-left="0"
     fit-margin-right="0"
     fit-margin-bottom="0"
     inkscape:zoom="1.0567419"
     inkscape:cx="338.40145"
     inkscape:cy="155.61858"
     inkscape:window-x="0"
     inkscape:window-y="24"
     inkscape:window-maximized="1"
     inkscape:current-layer="svg2" />
  <clipPath
     id="p.0">
    <path
       d="M 0,0 720,0 720,540 0,540 0,0 z"
       clip-rule="nonzero"
       id="path5"
       inkscape:connector-curvature="0" />
  </clipPath>
  <path
     style="fill:#000000;fill-opacity:0;fill-rule:nonzero"
     inkscape:connector-curvature="0"
     id="path9"
     d="m -5.0382153,-115.61858 719.9999953,0 0,540 -719.9999953,0 z" />
  <g
     transform="translate(-2.5,-2.9687498)"
     id="g3172">
    <path
       d="m 6,164.00787 0,0 C 6,128.10501 34.879395,99 70.50394,99 l 0,0 c 17.107506,0 33.51434,6.84902 45.61117,19.04037 12.09684,12.19133 18.89277,28.72634 18.89277,45.9675 l 0,0 c 0,35.90287 -28.8794,65.00787 -64.503943,65.00787 l 0,0 c -35.624542,0 -64.50394,-29.10501 -64.50394,-65.00787 z"
       id="path33"
       inkscape:connector-curvature="0"
       style="stroke:#000000;stroke-width:3;stroke-linecap:butt;stroke-linejoin:round" />
    <path
       d="m 585,164.00787 0,0 C 585,128.10501 613.8794,99 649.50391,99 l 0,0 c 17.10754,0 33.51434,6.84902 45.61121,19.04037 12.0968,12.19133 18.89276,28.72634 18.89276,45.9675 l 0,0 c 0,35.90287 -28.8794,65.00787 -64.50397,65.00787 l 0,0 C 613.8794,229.01574 585,199.91073 585,164.00787 z"
       id="path59"
       inkscape:connector-curvature="0"
       style="stroke:#000000;stroke-width:3;stroke-linecap:butt;stroke-linejoin:round" />
    <g
       id="g3095">
      <path
         style="fill:#c9daf8;fill-rule:nonzero"
         inkscape:connector-curvature="0"
         id="path11"
         d="m 181.02,54.23619 0,0 c -1.97542,-11.454788 4.51025,-22.794336 16.70491,-29.206852 12.19467,-6.412518 27.95962,-6.773386 40.60523,-0.92948 l 0,0 c 4.47946,-6.66029 12.67819,-11.258759 22.1162,-12.404463 9.43802,-1.145704 19.00684,1.295927 25.81202,6.586348 l 0,0 c 3.81591,-6.038648 11.30856,-10.095847 19.81912,-10.731893 8.51059,-0.6360464 16.83462,2.2390766 22.01834,7.605125 l 0,0 c 6.89401,-6.40095 17.86258,-9.0960156 28.15955,-6.9190279 10.29693,2.1769889 18.07284,8.8350239 19.96301,17.0931379 l 0,0 c 8.44635,1.817898 15.48199,6.439232 19.28912,12.670002 3.80713,6.230766 4.0123,13.459744 0.56247,19.819195 l 0,0 c 8.3172,8.541435 10.26279,19.92279 5.11075,29.896751 -5.15207,9.973969 -16.62772,17.042057 -30.1445,18.566587 -0.0953,9.36093 -6.60153,17.95039 -17.01099,22.45765 -10.40948,4.50727 -23.09665,4.22849 -33.17135,-0.72886 -4.29132,11.21132 -16.36987,19.46049 -31.0173,21.18359 -14.64743,1.7231 -29.23792,-3.38879 -37.46781,-13.12715 -10.08813,4.80006 -22.19304,6.18281 -33.58412,3.83632 -11.39107,-2.3465 -21.10878,-8.22457 -26.961,-16.30825 l 0,0 c -10.30879,0.95187 -20.27598,-3.2625 -24.95486,-10.55153 -4.6789,-7.28904 -3.07347,-16.101075 4.0195,-22.062738 l 0,0 c -9.19571,-4.270653 -13.88793,-12.745041 -11.62982,-21.004105 2.2581,-8.259064 10.95482,-14.431271 21.55516,-15.298058 z" />
      <path
         style="fill:#000000;fill-opacity:0;fill-rule:nonzero"
         inkscape:connector-curvature="0"
         id="path13"
         d="m 170.8909,90.979836 0,0 c 4.33948,2.015328 9.3526,2.929535 14.36627,2.619858 m 6.56684,29.995136 c 2.15605,-0.19909 4.2694,-0.62066 6.28553,-1.25387 m 54.25656,13.72528 c -1.51643,-1.79439 -2.78607,-3.71184 -3.78727,-5.7197 m 72.27499,-2.33708 0,0 c 0.78235,-2.044 1.28928,-4.1477 1.51227,-6.27604 m 48.66818,-15.45196 c 0.10144,-9.966137 -7.07236,-19.091244 -18.44006,-23.455806 m 43.4736,-25.006481 c -1.84097,3.393661 -4.6514,6.404125 -8.21094,8.795368 m -11.63895,-41.285454 0,0 c 0.31369,1.370435 0.45887,2.761471 0.43351,4.15382 m -48.55524,-14.327516 0,0 c -1.71973,1.596719 -3.13654,3.381032 -4.20636,5.297379 m -37.6315,-2.17131 0,0 c -0.91647,1.450287 -1.6008,2.984941 -2.03729,4.568607 m -45.89163,1.24963 0,0 c 2.67579,1.236567 5.15127,2.724907 7.37205,4.432327 M 181.02,54.236189 l 0,0 c 0.27226,1.578766 0.70245,3.13807 1.28655,4.663315" />
      <path
         style="stroke:#000000;stroke-width:3;stroke-linecap:butt;stroke-linejoin:round"
         inkscape:connector-curvature="0"
         id="path15"
         d="m 181.02,54.23619 0,0 c -1.97542,-11.454788 4.51025,-22.794336 16.70491,-29.206852 12.19467,-6.412518 27.95962,-6.773386 40.60523,-0.92948 l 0,0 c 4.47946,-6.66029 12.67819,-11.258759 22.1162,-12.404463 9.43802,-1.145704 19.00684,1.295927 25.81202,6.586348 l 0,0 c 3.81591,-6.038648 11.30856,-10.095847 19.81912,-10.731893 8.51059,-0.6360464 16.83462,2.2390766 22.01834,7.605125 l 0,0 c 6.89401,-6.40095 17.86258,-9.0960156 28.15955,-6.9190279 10.29693,2.1769889 18.07284,8.8350239 19.96301,17.0931379 l 0,0 c 8.44635,1.817898 15.48199,6.439232 19.28912,12.670002 3.80713,6.230766 4.0123,13.459744 0.56247,19.819195 l 0,0 c 8.3172,8.541435 10.26279,19.92279 5.11075,29.896751 -5.15207,9.973969 -16.62772,17.042057 -30.1445,18.566587 -0.0953,9.36093 -6.60153,17.95039 -17.01099,22.45765 -10.40948,4.50727 -23.09665,4.22849 -33.17135,-0.72886 -4.29132,11.21132 -16.36987,19.46049 -31.0173,21.18359 -14.64743,1.7231 -29.23792,-3.38879 -37.46781,-13.12715 -10.08813,4.80006 -22.19304,6.18281 -33.58412,3.83632 -11.39107,-2.3465 -21.10878,-8.22457 -26.961,-16.30825 l 0,0 c -10.30879,0.95187 -20.27598,-3.2625 -24.95486,-10.55153 -4.6789,-7.28904 -3.07347,-16.101075 4.0195,-22.062738 l 0,0 c -9.19571,-4.270653 -13.88793,-12.745041 -11.62982,-21.004105 2.2581,-8.259064 10.95482,-14.431271 21.55516,-15.298058 z" />
      <path
         style="stroke:#000000;stroke-width:3;stroke-linecap:butt;stroke-linejoin:round"
         inkscape:connector-curvature="0"
         id="path17"
         d="m 170.8909,90.979836 0,0 c 4.33948,2.015328 9.3526,2.929535 14.36627,2.619858 m 6.56684,29.995136 c 2.15605,-0.19909 4.2694,-0.62066 6.28553,-1.25387 m 54.25656,13.72528 c -1.51643,-1.79439 -2.78607,-3.71184 -3.78727,-5.7197 m 72.27499,-2.33708 0,0 c 0.78235,-2.044 1.28928,-4.1477 1.51227,-6.27604 m 48.66818,-15.45196 c 0.10144,-9.966137 -7.07236,-19.091244 -18.44006,-23.455806 m 43.4736,-25.006481 c -1.84097,3.393661 -4.6514,6.404125 -8.21094,8.795368 m -11.63895,-41.285454 0,0 c 0.31369,1.370435 0.45887,2.761471 0.43351,4.15382 m -48.55524,-14.327516 0,0 c -1.71973,1.596719 -3.13654,3.381032 -4.20636,5.297379 m -37.6315,-2.17131 0,0 c -0.91647,1.450287 -1.6008,2.984941 -2.03729,4.568607 m -45.89163,1.24963 0,0 c 2.67579,1.236567 5.15127,2.724907 7.37205,4.432327 M 181.02,54.236189 l 0,0 c 0.27226,1.578766 0.70245,3.13807 1.28655,4.663315" />
      <path
         style="fill:#000000;fill-rule:nonzero"
         inkscape:connector-curvature="0"
         id="path19"
         d="m 227.10164,81.631775 q -1.28125,-2.265625 -2.76563,-4.46875 -1.46875,-2.203125 -3.14062,-4.15625 l 0,8.625 -2.9375,0 0,-13.171875 2.42187,0 q 0.625,0.625 1.375,1.546875 0.76563,0.90625 1.54688,1.953125 0.79687,1.03125 1.57812,2.140625 0.78125,1.109375 1.46875,2.140625 l 0,-7.78125 2.9375,0 0,13.171875 -2.48437,0 z m 5.07288,-10.4375 q 0.54687,-0.21875 1.14062,-0.515625 0.60938,-0.296875 1.17188,-0.640625 0.57812,-0.359375 1.09375,-0.75 0.53125,-0.390625 0.95312,-0.828125 l 1.96875,0 0,13.171875 -2.82812,0 0,-9.484375 q -0.57813,0.390625 -1.28125,0.703125 -0.70313,0.3125 -1.35938,0.53125 l -0.85937,-2.1875 z m 13.28425,7.546875 q 0.0312,0.453125 0.0312,0.65625 0.0156,0.1875 0.0156,0.3125 0,0.578125 -0.10938,1.21875 -0.0937,0.625 -0.28125,1.265625 -0.1875,0.65625 -0.48437,1.296875 -0.28125,0.65625 -0.64063,1.234375 l -2.21875,-0.546875 q 0.4375,-1.25 0.60938,-2.359375 0.17187,-1.09375 0.17187,-1.828125 0,-0.109375 -0.0156,-0.28125 -0.0156,-0.1875 -0.0312,-0.375 0,-0.1875 -0.0156,-0.359375 0,-0.171875 0,-0.234375 l 2.96875,0 z m 15.41068,2.890625 q -1.28125,-2.265625 -2.76563,-4.46875 -1.46875,-2.203125 -3.14061,-4.15625 l 0,8.625 -2.9375,0 0,-13.171875 2.42188,0 q 0.625,0.625 1.375,1.546875 0.76561,0.90625 1.54686,1.953125 0.79687,1.03125 1.57812,2.140625 0.78125,1.109375 1.46875,2.140625 l 0,-7.78125 2.9375,0 0,13.171875 -2.48437,0 z m 13.16662,-9.703125 q 0,0.71875 -0.28125,1.390625 -0.28125,0.65625 -0.75,1.28125 -0.45312,0.609375 -1.03125,1.1875 -0.5625,0.5625 -1.10937,1.078125 -0.28125,0.265625 -0.625,0.59375 -0.32813,0.328125 -0.64063,0.671875 -0.29687,0.34375 -0.53125,0.640625 -0.23437,0.296875 -0.29687,0.484375 l 5.67187,0 0,2.375 -8.78125,0 q -0.0469,-0.203125 -0.0469,-0.53125 0,-0.328125 0,-0.453125 0,-0.921875 0.29687,-1.671875 0.29688,-0.765625 0.76563,-1.421875 0.48437,-0.65625 1.07812,-1.21875 0.60938,-0.578125 1.1875,-1.140625 0.45313,-0.4375 0.85938,-0.828125 0.40625,-0.390625 0.70312,-0.75 0.29688,-0.375 0.46875,-0.75 0.17188,-0.375 0.17188,-0.75 0,-0.84375 -0.46875,-1.171875 -0.46875,-0.34375 -1.17188,-0.34375 -0.51562,0 -0.96875,0.15625 -0.4375,0.15625 -0.8125,0.375 -0.375,0.21875 -0.64062,0.4375 -0.26563,0.21875 -0.39063,0.359375 l -1.40625,-1.984375 q 0.82813,-0.78125 1.9375,-1.28125 1.10938,-0.5 2.39063,-0.5 1.15625,0 1.98437,0.265625 0.84375,0.265625 1.375,0.75 0.54688,0.484375 0.79688,1.1875 0.26562,0.6875 0.26562,1.5625 z m 9.76178,8.203125 q 0,0.859375 -0.54687,1.3125 -0.54688,0.4375 -1.21875,0.4375 -0.6875,0 -1.23438,-0.4375 -0.54687,-0.453125 -0.54687,-1.3125 0,-0.859375 0.54687,-1.296875 0.54688,-0.453125 1.23438,-0.453125 0.67187,0 1.21875,0.453125 0.54687,0.4375 0.54687,1.296875 z m 4.58942,0 q 0,0.859375 -0.54688,1.3125 -0.54687,0.4375 -1.21875,0.4375 -0.6875,0 -1.23437,-0.4375 -0.54688,-0.453125 -0.54688,-1.3125 0,-0.859375 0.54688,-1.296875 0.54687,-0.453125 1.23437,-0.453125 0.67188,0 1.21875,0.453125 0.54688,0.4375 0.54688,1.296875 z m 15.31696,1.5 q -1.28125,-2.265625 -2.76563,-4.46875 -1.46875,-2.203125 -3.14062,-4.15625 l 0,8.625 -2.9375,0 0,-13.171875 2.42187,0 q 0.625,0.625 1.375,1.546875 0.76563,0.90625 1.54688,1.953125 0.79687,1.03125 1.57812,2.140625 0.78125,1.109375 1.46875,2.140625 l 0,-7.78125 2.9375,0 0,13.171875 -2.48437,0 z m 5.07287,-10.4375 q 0.54688,-0.21875 1.14063,-0.515625 0.60937,-0.296875 1.17187,-0.640625 0.57813,-0.359375 1.09375,-0.75 0.53125,-0.390625 0.95313,-0.828125 l 1.96875,0 0,13.171875 -2.82813,0 0,-9.484375 q -0.57812,0.390625 -1.28125,0.703125 -0.70312,0.3125 -1.35937,0.53125 l -0.85938,-2.1875 z m 19.40924,3.828125 q 0,3.328125 -1.26562,5.109375 -1.25,1.765625 -3.48438,1.765625 -2.21875,0 -3.48437,-1.765625 -1.26563,-1.78125 -1.26563,-5.109375 0,-1.65625 0.32813,-2.921875 0.34375,-1.28125 0.96875,-2.15625 0.625,-0.875 1.5,-1.328125 0.875,-0.453125 1.95312,-0.453125 2.23438,0 3.48438,1.78125 1.26562,1.765625 1.26562,5.078125 z m -2.875,0 q 0,-0.984375 -0.10937,-1.796875 -0.0937,-0.8125 -0.29688,-1.390625 -0.20312,-0.59375 -0.57812,-0.90625 -0.35938,-0.328125 -0.89063,-0.328125 -0.53125,0 -0.89062,0.328125 -0.34375,0.3125 -0.5625,0.90625 -0.21875,0.578125 -0.3125,1.390625 -0.0937,0.8125 -0.0937,1.796875 0,0.984375 0.0937,1.8125 0.0937,0.8125 0.3125,1.40625 0.21875,0.578125 0.5625,0.90625 0.35937,0.3125 0.89062,0.3125 0.53125,0 0.89063,-0.3125 0.375,-0.328125 0.57812,-0.90625 0.20313,-0.59375 0.29688,-1.40625 0.10937,-0.828125 0.10937,-1.8125 z" />
      <path
         style="fill:#fff2cc;fill-rule:nonzero"
         inkscape:connector-curvature="0"
         id="path21"
         d="m 181.02,214.23357 0,0 c -1.97542,-11.45479 4.51025,-22.79434 16.70491,-29.20685 12.19467,-6.41252 27.95962,-6.77339 40.60523,-0.92949 l 0,0 c 4.47946,-6.66028 12.67819,-11.25876 22.1162,-12.40446 9.43802,-1.14569 19.00684,1.29593 25.81202,6.58635 l 0,0 c 3.81591,-6.03864 11.30856,-10.09584 19.81912,-10.73189 8.51059,-0.63605 16.83462,2.23907 22.01834,7.60513 l 0,0 c 6.89401,-6.40095 17.86258,-9.09602 28.15955,-6.91903 10.29693,2.17698 18.07284,8.83502 19.96301,17.09314 l 0,0 c 8.44635,1.8179 15.48199,6.43923 19.28912,12.66999 3.80713,6.23078 4.0123,13.45975 0.56247,19.8192 l 0,0 c 8.3172,8.54143 10.26279,19.92279 5.11075,29.89676 -5.15207,9.97395 -16.62772,17.04204 -30.1445,18.56658 -0.0953,9.36093 -6.60153,17.9504 -17.01099,22.45764 -10.40948,4.50726 -23.09665,4.22848 -33.17135,-0.72885 -4.29132,11.2113 -16.36987,19.46051 -31.0173,21.18359 -14.64743,1.72308 -29.23792,-3.38879 -37.46781,-13.12717 -10.08813,4.80008 -22.19304,6.18283 -33.58412,3.83634 -11.39107,-2.3465 -21.10878,-8.22458 -26.961,-16.30826 l 0,0 c -10.30879,0.95187 -20.27598,-3.26248 -24.95486,-10.55151 -4.6789,-7.28904 -3.07347,-16.10108 4.0195,-22.06275 l 0,0 c -9.19571,-4.27066 -13.88793,-12.74504 -11.62982,-21.0041 2.2581,-8.25907 10.95482,-14.43128 21.55516,-15.29805 z" />
      <path
         style="fill:#000000;fill-opacity:0;fill-rule:nonzero"
         inkscape:connector-curvature="0"
         id="path23"
         d="m 170.8909,250.9772 0,0 c 4.33948,2.01533 9.3526,2.92953 14.36627,2.61987 m 6.56684,29.99512 c 2.15605,-0.19907 4.2694,-0.62067 6.28553,-1.25388 m 54.25656,13.72529 c -1.51643,-1.79438 -2.78607,-3.71183 -3.78727,-5.71967 m 72.27499,-2.3371 0,0 c 0.78235,-2.044 1.28928,-4.1477 1.51227,-6.27603 m 48.66818,-15.45196 c 0.10144,-9.96616 -7.07236,-19.09125 -18.44006,-23.45581 m 43.4736,-25.00649 c -1.84097,3.39366 -4.6514,6.40413 -8.21094,8.79537 m -11.63895,-41.28545 0,0 c 0.31369,1.37044 0.45887,2.76147 0.43351,4.15382 m -48.55524,-14.32751 0,0 c -1.71973,1.59671 -3.13654,3.38103 -4.20636,5.29738 m -37.6315,-2.17131 0,0 c -0.91647,1.45028 -1.6008,2.98494 -2.03729,4.5686 m -45.89163,1.24963 0,0 c 2.67579,1.23656 5.15127,2.7249 7.37205,4.43233 m -64.68146,25.70416 0,0 c 0.27226,1.57877 0.70245,3.13808 1.28655,4.66332" />
      <path
         style="stroke:#000000;stroke-width:3;stroke-linecap:butt;stroke-linejoin:round;stroke-dasharray:12, 9"
         inkscape:connector-curvature="0"
         id="path25"
         d="m 181.02,214.23357 0,0 c -1.97542,-11.45479 4.51025,-22.79434 16.70491,-29.20685 12.19467,-6.41252 27.95962,-6.77339 40.60523,-0.92949 l 0,0 c 4.47946,-6.66028 12.67819,-11.25876 22.1162,-12.40446 9.43802,-1.14569 19.00684,1.29593 25.81202,6.58635 l 0,0 c 3.81591,-6.03864 11.30856,-10.09584 19.81912,-10.73189 8.51059,-0.63605 16.83462,2.23907 22.01834,7.60513 l 0,0 c 6.89401,-6.40095 17.86258,-9.09602 28.15955,-6.91903 10.29693,2.17698 18.07284,8.83502 19.96301,17.09314 l 0,0 c 8.44635,1.8179 15.48199,6.43923 19.28912,12.66999 3.80713,6.23078 4.0123,13.45975 0.56247,19.8192 l 0,0 c 8.3172,8.54143 10.26279,19.92279 5.11075,29.89676 -5.15207,9.97395 -16.62772,17.04204 -30.1445,18.56658 -0.0953,9.36093 -6.60153,17.9504 -17.01099,22.45764 -10.40948,4.50726 -23.09665,4.22848 -33.17135,-0.72885 -4.29132,11.2113 -16.36987,19.46051 -31.0173,21.18359 -14.64743,1.72308 -29.23792,-3.38879 -37.46781,-13.12717 -10.08813,4.80008 -22.19304,6.18283 -33.58412,3.83634 -11.39107,-2.3465 -21.10878,-8.22458 -26.961,-16.30826 l 0,0 c -10.30879,0.95187 -20.27598,-3.26248 -24.95486,-10.55151 -4.6789,-7.28904 -3.07347,-16.10108 4.0195,-22.06275 l 0,0 c -9.19571,-4.27066 -13.88793,-12.74504 -11.62982,-21.0041 2.2581,-8.25907 10.95482,-14.43128 21.55516,-15.29805 z" />
      <path
         style="stroke:#000000;stroke-width:3;stroke-linecap:butt;stroke-linejoin:round;stroke-dasharray:12, 9"
         inkscape:connector-curvature="0"
         id="path27"
         d="m 170.8909,250.9772 0,0 c 4.33948,2.01533 9.3526,2.92953 14.36627,2.61987 m 6.56684,29.99512 c 2.15605,-0.19907 4.2694,-0.62067 6.28553,-1.25388 m 54.25656,13.72529 c -1.51643,-1.79438 -2.78607,-3.71183 -3.78727,-5.71967 m 72.27499,-2.3371 0,0 c 0.78235,-2.044 1.28928,-4.1477 1.51227,-6.27603 m 48.66818,-15.45196 c 0.10144,-9.96616 -7.07236,-19.09125 -18.44006,-23.45581 m 43.4736,-25.00649 c -1.84097,3.39366 -4.6514,6.40413 -8.21094,8.79537 m -11.63895,-41.28545 0,0 c 0.31369,1.37044 0.45887,2.76147 0.43351,4.15382 m -48.55524,-14.32751 0,0 c -1.71973,1.59671 -3.13654,3.38103 -4.20636,5.29738 m -37.6315,-2.17131 0,0 c -0.91647,1.45028 -1.6008,2.98494 -2.03729,4.5686 m -45.89163,1.24963 0,0 c 2.67579,1.23656 5.15127,2.7249 7.37205,4.43233 m -64.68146,25.70416 0,0 c 0.27226,1.57877 0.70245,3.13808 1.28655,4.66332" />
      <path
         style="fill:#000000;fill-rule:nonzero"
         inkscape:connector-curvature="0"
         id="path29"
         d="m 216.50488,241.62915 q -1.28125,-2.26563 -2.76562,-4.46875 -1.46875,-2.20313 -3.14063,-4.15625 l 0,8.625 -2.9375,0 0,-13.17188 2.42188,0 q 0.625,0.625 1.375,1.54688 0.76562,0.90625 1.54687,1.95312 0.79688,1.03125 1.57813,2.14063 0.78125,1.10937 1.46875,2.14062 l 0,-7.78125 2.9375,0 0,13.17188 -2.48438,0 z m 5.07288,-10.4375 q 0.54687,-0.21875 1.14062,-0.51563 0.60938,-0.29687 1.17188,-0.64062 0.57812,-0.35938 1.09375,-0.75 0.53125,-0.39063 0.95312,-0.82813 l 1.96875,0 0,13.17188 -2.82812,0 0,-9.48438 q -0.57813,0.39063 -1.28125,0.70313 -0.70313,0.3125 -1.35938,0.53125 l -0.85937,-2.1875 z m 10.59675,0 q 0.54688,-0.21875 1.14063,-0.51563 0.60937,-0.29687 1.17187,-0.64062 0.57813,-0.35938 1.09375,-0.75 0.53125,-0.39063 0.95313,-0.82813 l 1.96875,0 0,13.17188 -2.82813,0 0,-9.48438 q -0.57812,0.39063 -1.28125,0.70313 -0.70312,0.3125 -1.35937,0.53125 l -0.85938,-2.1875 z m 13.28426,7.54687 q 0.0312,0.45313 0.0312,0.65625 0.0156,0.1875 0.0156,0.3125 0,0.57813 -0.10937,1.21875 -0.0937,0.625 -0.28125,1.26563 -0.1875,0.65625 -0.48438,1.29687 -0.28125,0.65625 -0.64062,1.23438 l -2.21875,-0.54688 q 0.4375,-1.25 0.60937,-2.35937 0.17188,-1.09375 0.17188,-1.82813 0,-0.10937 -0.0156,-0.28125 -0.0156,-0.1875 -0.0312,-0.375 0,-0.1875 -0.0156,-0.35937 0,-0.17188 0,-0.23438 l 2.96875,0 z m 15.41067,2.89063 q -1.28125,-2.26563 -2.76562,-4.46875 -1.46875,-2.20313 -3.14061,-4.15625 l 0,8.625 -2.9375,0 0,-13.17188 2.42187,0 q 0.625,0.625 1.375,1.54688 0.76561,0.90625 1.54686,1.95312 0.79688,1.03125 1.57813,2.14063 0.78125,1.10937 1.46875,2.14062 l 0,-7.78125 2.9375,0 0,13.17188 -2.48438,0 z m 5.07288,-10.4375 q 0.54687,-0.21875 1.14062,-0.51563 0.60938,-0.29687 1.17188,-0.64062 0.57812,-0.35938 1.09375,-0.75 0.53125,-0.39063 0.95312,-0.82813 l 1.96875,0 0,13.17188 -2.82812,0 0,-9.48438 q -0.57813,0.39063 -1.28125,0.70313 -0.70313,0.3125 -1.35938,0.53125 l -0.85937,-2.1875 z m 18.69052,0.73437 q 0,0.71875 -0.28125,1.39063 -0.28125,0.65625 -0.75,1.28125 -0.45312,0.60937 -1.03125,1.1875 -0.5625,0.5625 -1.10937,1.07812 -0.28125,0.26563 -0.625,0.59375 -0.32813,0.32813 -0.64063,0.67188 -0.29687,0.34375 -0.53125,0.64062 -0.23437,0.29688 -0.29687,0.48438 l 5.67187,0 0,2.375 -8.78125,0 q -0.0469,-0.20313 -0.0469,-0.53125 0,-0.32813 0,-0.45313 0,-0.92187 0.29687,-1.67187 0.29688,-0.76563 0.76563,-1.42188 0.48437,-0.65625 1.07812,-1.21875 0.60938,-0.57812 1.1875,-1.14062 0.45313,-0.4375 0.85938,-0.82813 0.40625,-0.39062 0.70312,-0.75 0.29688,-0.375 0.46875,-0.75 0.17188,-0.375 0.17188,-0.75 0,-0.84375 -0.46875,-1.17187 -0.46875,-0.34375 -1.17188,-0.34375 -0.51562,0 -0.96875,0.15625 -0.4375,0.15625 -0.8125,0.375 -0.375,0.21875 -0.64062,0.4375 -0.26563,0.21875 -0.39063,0.35937 l -1.40625,-1.98437 q 0.82813,-0.78125 1.9375,-1.28125 1.10938,-0.5 2.39063,-0.5 1.15625,0 1.98437,0.26562 0.84375,0.26563 1.375,0.75 0.54688,0.48438 0.79688,1.1875 0.26562,0.6875 0.26562,1.5625 z m 9.76175,8.20313 q 0,0.85937 -0.54688,1.3125 -0.54687,0.4375 -1.21875,0.4375 -0.6875,0 -1.23437,-0.4375 -0.54688,-0.45313 -0.54688,-1.3125 0,-0.85938 0.54688,-1.29688 0.54687,-0.45312 1.23437,-0.45312 0.67188,0 1.21875,0.45312 0.54688,0.4375 0.54688,1.29688 z m 4.58945,0 q 0,0.85937 -0.54688,1.3125 -0.54687,0.4375 -1.21875,0.4375 -0.6875,0 -1.23437,-0.4375 -0.54688,-0.45313 -0.54688,-1.3125 0,-0.85938 0.54688,-1.29688 0.54687,-0.45312 1.23437,-0.45312 0.67188,0 1.21875,0.45312 0.54688,0.4375 0.54688,1.29688 z m 15.31692,1.5 q -1.28125,-2.26563 -2.76562,-4.46875 -1.46875,-2.20313 -3.14063,-4.15625 l 0,8.625 -2.9375,0 0,-13.17188 2.42188,0 q 0.625,0.625 1.375,1.54688 0.76562,0.90625 1.54687,1.95312 0.79688,1.03125 1.57813,2.14063 0.78125,1.10937 1.46875,2.14062 l 0,-7.78125 2.9375,0 0,13.17188 -2.48438,0 z m 13.16663,-9.70313 q 0,0.71875 -0.28125,1.39063 -0.28125,0.65625 -0.75,1.28125 -0.45313,0.60937 -1.03125,1.1875 -0.5625,0.5625 -1.10938,1.07812 -0.28125,0.26563 -0.625,0.59375 -0.32812,0.32813 -0.64062,0.67188 -0.29688,0.34375 -0.53125,0.64062 -0.23438,0.29688 -0.29688,0.48438 l 5.67188,0 0,2.375 -8.78125,0 q -0.0469,-0.20313 -0.0469,-0.53125 0,-0.32813 0,-0.45313 0,-0.92187 0.29688,-1.67187 0.29687,-0.76563 0.76562,-1.42188 0.48438,-0.65625 1.07813,-1.21875 0.60937,-0.57812 1.1875,-1.14062 0.45312,-0.4375 0.85937,-0.82813 0.40625,-0.39062 0.70313,-0.75 0.29687,-0.375 0.46875,-0.75 0.17187,-0.375 0.17187,-0.75 0,-0.84375 -0.46875,-1.17187 -0.46875,-0.34375 -1.17187,-0.34375 -0.51563,0 -0.96875,0.15625 -0.4375,0.15625 -0.8125,0.375 -0.375,0.21875 -0.64063,0.4375 -0.26562,0.21875 -0.39062,0.35937 l -1.40625,-1.98437 q 0.82812,-0.78125 1.9375,-1.28125 1.10937,-0.5 2.39062,-0.5 1.15625,0 1.98438,0.26562 0.84375,0.26563 1.375,0.75 0.54687,0.48438 0.79687,1.1875 0.26563,0.6875 0.26563,1.5625 z m 11.31552,3.09375 q 0,3.32813 -1.26563,5.10938 -1.25,1.76562 -3.48437,1.76562 -2.21875,0 -3.48438,-1.76562 -1.26562,-1.78125 -1.26562,-5.10938 0,-1.65625 0.32812,-2.92187 0.34375,-1.28125 0.96875,-2.15625 0.625,-0.875 1.5,-1.32813 0.875,-0.45312 1.95313,-0.45312 2.23437,0 3.48437,1.78125 1.26563,1.76562 1.26563,5.07812 z m -2.875,0 q 0,-0.98437 -0.10938,-1.79687 -0.0937,-0.8125 -0.29687,-1.39063 -0.20313,-0.59375 -0.57813,-0.90625 -0.35937,-0.32812 -0.89062,-0.32812 -0.53125,0 -0.89063,0.32812 -0.34375,0.3125 -0.5625,0.90625 -0.21875,0.57813 -0.3125,1.39063 -0.0937,0.8125 -0.0937,1.79687 0,0.98438 0.0937,1.8125 0.0937,0.8125 0.3125,1.40625 0.21875,0.57813 0.5625,0.90625 0.35938,0.3125 0.89063,0.3125 0.53125,0 0.89062,-0.3125 0.375,-0.32812 0.57813,-0.90625 0.20312,-0.59375 0.29687,-1.40625 0.10938,-0.82812 0.10938,-1.8125 z" />
      <path
         style="fill:#f3f3f3;fill-rule:nonzero"
         inkscape:connector-curvature="0"
         id="path31"
         d="m 6,164.00787 0,0 C 6,128.10501 34.879395,99 70.50394,99 l 0,0 c 17.107506,0 33.51434,6.84902 45.61117,19.04037 12.09684,12.19133 18.89277,28.72634 18.89277,45.9675 l 0,0 c 0,35.90287 -28.8794,65.00787 -64.503943,65.00787 l 0,0 c -35.624542,0 -64.50394,-29.10501 -64.50394,-65.00787 z" />
      <path
         style="fill:#000000;fill-rule:nonzero"
         inkscape:connector-curvature="0"
         id="path35"
         d="m 70.26633,168.381 0,2.54687 -8.796875,0 0,-13.17187 2.96875,0 0,10.625 5.828125,0 z m 1.519089,-7.89063 q 0.546875,-0.21875 1.140625,-0.51562 0.609375,-0.29688 1.171875,-0.64063 0.578125,-0.35937 1.09375,-0.75 0.53125,-0.39062 0.953125,-0.82812 l 1.96875,0 0,13.17187 -2.828125,0 0,-9.48437 q -0.578125,0.39062 -1.28125,0.70312 -0.703125,0.3125 -1.359375,0.53125 l -0.859375,-2.1875 z" />
      <path
         style="fill:#ffffff;fill-rule:nonzero"
         inkscape:connector-curvature="0"
         id="path37"
         d="m 429.94882,78.002625 0,0 c 0,-35.902855 28.87939,-65.00787 64.50394,-65.00787 l 0,0 c 17.10751,0 33.51434,6.849024 45.61114,19.040367 12.09687,12.191341 18.89277,28.726349 18.89277,45.967506 l 0,0 c 0,35.902862 -28.8794,65.007872 -64.50391,65.007872 l 0,0 c -35.62455,0 -64.50394,-29.10501 -64.50394,-65.007872 z" />
      <path
         style="stroke:#000000;stroke-width:3;stroke-linecap:butt;stroke-linejoin:round"
         inkscape:connector-curvature="0"
         id="path39"
         d="m 429.94882,78.002625 0,0 c 0,-35.902855 28.87939,-65.00787 64.50394,-65.00787 l 0,0 c 17.10751,0 33.51434,6.849024 45.61114,19.040367 12.09687,12.191341 18.89277,28.726349 18.89277,45.967506 l 0,0 c 0,35.902862 -28.8794,65.007872 -64.50391,65.007872 l 0,0 c -35.62455,0 -64.50394,-29.10501 -64.50394,-65.007872 z" />
      <path
         style="fill:#000000;fill-rule:nonzero"
         inkscape:connector-curvature="0"
         id="path41"
         d="m 483.92923,78.43825 1.84375,0 0,6.15625 q -0.23437,0.07813 -0.65625,0.171875 -0.42187,0.09375 -0.98437,0.1875 -0.5625,0.109375 -1.23438,0.171875 -0.65625,0.0625 -1.34375,0.0625 -1.39062,0 -2.53125,-0.453125 -1.14062,-0.453125 -1.95312,-1.328125 -0.8125,-0.875 -1.26563,-2.140625 -0.4375,-1.28125 -0.4375,-2.9375 0,-1.65625 0.5,-2.9375 0.5,-1.28125 1.34375,-2.15625 0.85938,-0.875 2.01563,-1.328125 1.15625,-0.453125 2.45312,-0.453125 0.90625,0 1.59375,0.109375 0.6875,0.109375 1.1875,0.265625 0.5,0.15625 0.8125,0.3125 0.3125,0.140625 0.42188,0.21875 L 485.10111,73.907 q -0.54688,-0.359375 -1.46875,-0.59375 -0.90625,-0.25 -1.84375,-0.25 -1.01563,0 -1.84375,0.359375 -0.82813,0.359375 -1.40625,1.046875 -0.57813,0.6875 -0.90625,1.671875 -0.3125,0.96875 -0.3125,2.1875 0,1.171875 0.26562,2.140625 0.28125,0.96875 0.84375,1.671875 0.5625,0.6875 1.39063,1.078125 0.82812,0.375 1.9375,0.375 0.79687,0 1.35937,-0.07813 0.5625,-0.09375 0.8125,-0.171875 l 0,-4.90625 z m 11.69327,-2.453125 q -0.79688,2.546875 -1.60938,4.71875 -0.8125,2.171875 -1.625,4.21875 l -1.84375,0 q -1.01562,-2.90625 -1.78125,-6.125 -0.76562,-3.234375 -1.4375,-7.046875 l 1.9375,0 q 0.26563,1.484375 0.54688,2.96875 0.29687,1.484375 0.59375,2.890625 0.29687,1.390625 0.59375,2.671875 0.3125,1.265625 0.64062,2.34375 0.76563,-2 1.60938,-4.375 0.85937,-2.390625 1.60937,-4.9375 l 1.59375,0 q 0.73438,2.546875 1.60938,4.9375 0.875,2.375 1.64062,4.375 0.29688,-1.0625 0.59375,-2.328125 0.3125,-1.28125 0.60938,-2.671875 0.29687,-1.40625 0.57812,-2.890625 0.28125,-1.5 0.54688,-2.984375 l 1.89062,0 q -0.6875,3.8125 -1.46875,7.046875 -0.76562,3.21875 -1.75,6.125 l -1.84375,0 q -0.82812,-2.046875 -1.625,-4.21875 Q 496.435,78.532 495.6225,75.985125 z M 505.89166,74.4695 q 1.07813,-0.421875 2.10938,-1.0625 1.03125,-0.65625 1.875,-1.65625 l 1.26562,0 0,13.171875 -1.76562,0 0,-10.71875 q -0.23438,0.21875 -0.57813,0.453125 -0.32812,0.21875 -0.71875,0.421875 -0.375,0.203125 -0.8125,0.40625 -0.42187,0.1875 -0.82812,0.3125 L 505.89166,74.4695 z" />
      <path
         style="fill:#ffffff;fill-rule:nonzero"
         inkscape:connector-curvature="0"
         id="path43"
         d="m 427.80054,238 0,0 c 0,-35.90286 28.87939,-65.00787 64.50394,-65.00787 l 0,0 c 17.10748,0 33.51431,6.84903 45.61118,19.04036 12.0968,12.19134 18.89276,28.72635 18.89276,45.96751 l 0,0 c 0,35.90287 -28.8794,65.00787 -64.50394,65.00787 l 0,0 c -35.62455,0 -64.50394,-29.10501 -64.50394,-65.00787 z" />
      <path
         style="stroke:#000000;stroke-width:3;stroke-linecap:butt;stroke-linejoin:round"
         inkscape:connector-curvature="0"
         id="path45"
         d="m 427.80054,238 0,0 c 0,-35.90286 28.87939,-65.00787 64.50394,-65.00787 l 0,0 c 17.10748,0 33.51431,6.84903 45.61118,19.04036 12.0968,12.19134 18.89276,28.72635 18.89276,45.96751 l 0,0 c 0,35.90287 -28.8794,65.00787 -64.50394,65.00787 l 0,0 c -35.62455,0 -64.50394,-29.10501 -64.50394,-65.00787 z" />
      <path
         style="fill:#000000;fill-rule:nonzero"
         inkscape:connector-curvature="0"
         id="path47"
         d="m 481.78094,238.43562 1.84375,0 0,6.15625 q -0.23438,0.0781 -0.65625,0.17187 -0.42188,0.0937 -0.98438,0.1875 -0.5625,0.10938 -1.23437,0.17188 -0.65625,0.0625 -1.34375,0.0625 -1.39063,0 -2.53125,-0.45313 -1.14063,-0.45312 -1.95313,-1.32812 -0.8125,-0.875 -1.26562,-2.14063 -0.4375,-1.28125 -0.4375,-2.9375 0,-1.65625 0.5,-2.9375 0.5,-1.28125 1.34375,-2.15625 0.85937,-0.875 2.01562,-1.32812 1.15625,-0.45313 2.45313,-0.45313 0.90625,0 1.59375,0.10938 0.6875,0.10937 1.1875,0.26562 0.5,0.15625 0.8125,0.3125 0.3125,0.14063 0.42187,0.21875 l -0.59375,1.54688 q -0.54687,-0.35938 -1.46875,-0.59375 -0.90625,-0.25 -1.84375,-0.25 -1.01562,0 -1.84375,0.35937 -0.82812,0.35938 -1.40625,1.04688 -0.57812,0.6875 -0.90625,1.67187 -0.3125,0.96875 -0.3125,2.1875 0,1.17188 0.26563,2.14063 0.28125,0.96875 0.84375,1.67187 0.5625,0.6875 1.39062,1.07813 0.82813,0.375 1.9375,0.375 0.79688,0 1.35938,-0.0781 0.5625,-0.0937 0.8125,-0.17187 l 0,-4.90625 z m 11.69324,-2.45313 q -0.79688,2.54688 -1.60938,4.71875 -0.8125,2.17188 -1.625,4.21875 l -1.84375,0 q -1.01562,-2.90625 -1.78125,-6.125 -0.76562,-3.23437 -1.4375,-7.04687 l 1.9375,0 q 0.26563,1.48437 0.54688,2.96875 0.29687,1.48437 0.59375,2.89062 0.29687,1.39063 0.59375,2.67188 0.3125,1.26562 0.64062,2.34375 0.76563,-2 1.60938,-4.375 0.85937,-2.39063 1.60937,-4.9375 l 1.59375,0 q 0.73438,2.54687 1.60938,4.9375 0.875,2.375 1.64062,4.375 0.29688,-1.0625 0.59375,-2.32813 0.3125,-1.28125 0.60938,-2.67187 0.29687,-1.40625 0.57812,-2.89063 0.28125,-1.5 0.54688,-2.98437 l 1.89062,0 q -0.6875,3.8125 -1.46875,7.04687 -0.76562,3.21875 -1.75,6.125 l -1.84375,0 q -0.82812,-2.04687 -1.625,-4.21875 -0.79687,-2.17187 -1.60937,-4.71875 z m 17.37854,-0.85937 q 0,0.67187 -0.28125,1.3125 -0.26563,0.64062 -0.73438,1.26562 -0.45312,0.60938 -1.03125,1.20313 -0.5625,0.59375 -1.125,1.17187 -0.32812,0.32813 -0.76562,0.76563 -0.42188,0.4375 -0.79688,0.90625 -0.375,0.46875 -0.64062,0.90625 -0.25,0.4375 -0.25,0.76562 l 6.0625,0 0,1.5 -7.98438,0 q -0.0156,-0.10937 -0.0156,-0.21875 0,-0.125 0,-0.21875 0,-0.89062 0.29687,-1.65625 0.29688,-0.78125 0.76563,-1.45312 0.46875,-0.6875 1.0625,-1.29688 0.59375,-0.60937 1.15625,-1.17187 0.48437,-0.46875 0.90625,-0.90625 0.42187,-0.45313 0.75,-0.89063 0.34375,-0.45312 0.53125,-0.92187 0.20312,-0.48438 0.20312,-1.01563 0,-0.5625 -0.1875,-0.95312 -0.17187,-0.40625 -0.48437,-0.67188 -0.29688,-0.26562 -0.70313,-0.39062 -0.40625,-0.125 -0.85937,-0.125 -0.54688,0 -1.01563,0.15625 -0.45312,0.14062 -0.8125,0.34375 -0.35937,0.20312 -0.60937,0.42187 -0.23438,0.21875 -0.375,0.32813 l -0.875,-1.25 q 0.17187,-0.1875 0.51562,-0.46875 0.34375,-0.28125 0.8125,-0.51563 0.48438,-0.25 1.0625,-0.42187 0.59375,-0.17188 1.28125,-0.17188 2.0625,0 3.09375,0.96875 1.04688,0.95313 1.04688,2.70313 z" />
      <path
         style="fill:#000000;fill-opacity:0;fill-rule:nonzero"
         inkscape:connector-curvature="0"
         id="path49"
         d="m 403.7015,78.002205 26.23621,0" />
      <path
         style="stroke:#000000;stroke-width:3;stroke-linecap:butt;stroke-linejoin:round"
         inkscape:connector-curvature="0"
         id="path51"
         d="m 403.7015,78.002205 26.23621,0" />
      <path
         style="fill:#000000;fill-opacity:0;fill-rule:nonzero"
         inkscape:connector-curvature="0"
         id="path53"
         d="m 403.7015,237.99959 24.09448,0" />
      <path
         style="stroke:#000000;stroke-width:3;stroke-linecap:butt;stroke-linejoin:round;stroke-dasharray:12, 9"
         inkscape:connector-curvature="0"
         id="path55"
         d="m 403.7015,237.99959 24.09448,0" />
      <path
         style="fill:#f3f3f3;fill-rule:nonzero"
         inkscape:connector-curvature="0"
         id="path57"
         d="m 585,164.00787 0,0 C 585,128.10501 613.8794,99 649.50391,99 l 0,0 c 17.10754,0 33.51434,6.84902 45.61121,19.04037 12.0968,12.19133 18.89276,28.72634 18.89276,45.9675 l 0,0 c 0,35.90287 -28.8794,65.00787 -64.50397,65.00787 l 0,0 C 613.8794,229.01574 585,199.91073 585,164.00787 z" />
      <path
         style="fill:#000000;fill-rule:nonzero"
         inkscape:connector-curvature="0"
         id="path61"
         d="m 649.26636,168.381 0,2.54687 -8.79688,0 0,-13.17187 2.96875,0 0,10.625 5.82813,0 z m 9.61279,-7.15625 q 0,0.71875 -0.28125,1.39062 -0.28125,0.65625 -0.75,1.28125 -0.45312,0.60938 -1.03125,1.1875 -0.5625,0.5625 -1.10937,1.07813 -0.28125,0.26562 -0.625,0.59375 -0.32813,0.32812 -0.64063,0.67187 -0.29687,0.34375 -0.53125,0.64063 -0.23437,0.29687 -0.29687,0.48437 l 5.67187,0 0,2.375 -8.78125,0 q -0.0469,-0.20312 -0.0469,-0.53125 0,-0.32812 0,-0.45312 0,-0.92188 0.29687,-1.67188 0.29688,-0.76562 0.76563,-1.42187 0.48437,-0.65625 1.07812,-1.21875 0.60938,-0.57813 1.1875,-1.14063 0.45313,-0.4375 0.85938,-0.82812 0.40625,-0.39063 0.70312,-0.75 0.29688,-0.375 0.46875,-0.75 0.17188,-0.375 0.17188,-0.75 0,-0.84375 -0.46875,-1.17188 -0.46875,-0.34375 -1.17188,-0.34375 -0.51562,0 -0.96875,0.15625 -0.4375,0.15625 -0.8125,0.375 -0.375,0.21875 -0.64062,0.4375 -0.26563,0.21875 -0.39063,0.35938 l -1.40625,-1.98438 q 0.82813,-0.78125 1.9375,-1.28125 1.10938,-0.5 2.39063,-0.5 1.15625,0 1.98437,0.26563 0.84375,0.26562 1.375,0.75 0.54688,0.48437 0.79688,1.1875 0.26562,0.6875 0.26562,1.5625 z" />
      <path
         style="fill:#000000;fill-opacity:0;fill-rule:nonzero"
         inkscape:connector-curvature="0"
         id="path63"
         d="m 116.11511,209.97539 43.55906,28.03149" />
      <path
         style="stroke:#000000;stroke-width:3;stroke-linecap:butt;stroke-linejoin:round;stroke-dasharray:12, 9"
         inkscape:connector-curvature="0"
         id="path65"
         d="m 116.11511,209.97539 43.55906,28.03149" />
      <path
         style="fill:#000000;fill-opacity:0;fill-rule:nonzero"
         inkscape:connector-curvature="0"
         id="path67"
         d="m 558.95667,78.002625 44.94489,40.031495" />
      <path
         style="stroke:#000000;stroke-width:3;stroke-linecap:butt;stroke-linejoin:round"
         inkscape:connector-curvature="0"
         id="path69"
         d="m 558.95667,78.002625 44.94489,40.031495" />
      <path
         style="fill:#000000;fill-opacity:0;fill-rule:nonzero"
         inkscape:connector-curvature="0"
         id="path71"
         d="m 556.8084,238 47.08661,-28.03149" />
      <path
         style="stroke:#000000;stroke-width:3;stroke-linecap:butt;stroke-linejoin:round"
         inkscape:connector-curvature="0"
         id="path73"
         d="m 556.8084,238 47.08661,-28.03149" />
      <path
         style="fill:#000000;fill-opacity:0;fill-rule:nonzero"
         inkscape:connector-curvature="0"
         id="path75"
         d="M 116.11511,118.04037 159.67417,78.008876" />
      <path
         style="stroke:#000000;stroke-width:3;stroke-linecap:butt;stroke-linejoin:round"
         inkscape:connector-curvature="0"
         id="path77"
         d="M 116.11511,118.04037 159.67417,78.008876" />
    </g>
  </g>
</svg>
